<?xml version="1.0" standalone="no"?>
<!DOCTYPE svg PUBLIC "-//W3C//DTD SVG 1.1//EN" "http://www.w3.org/Graphics/SVG/1.1/DTD/svg11.dtd" >
<svg xmlns="http://www.w3.org/2000/svg" xmlns:xlink="http://www.w3.org/1999/xlink" version="1.1">
<metadata>
Created by FontForge 20191125 at Wed May 31 17:00:00 2006
 By convertio
Copyright (c)2006 Fontworks Japan, Inc. All Rights Reserved.
</metadata>
<defs>
<font id="SCEPS3RodinLATIN-Italic" horiz-adv-x="690" >
  <font-face 
    font-family="SCE-PS3 Rodin LATIN"
    font-weight="600"
    font-style="italic"
    font-stretch="normal"
    units-per-em="1000"
    panose-1="2 0 7 0 0 0 0 0 0 0"
    ascent="800"
    descent="-200"
    x-height="553"
    cap-height="780"
    bbox="-132 -203 1227.56 1029"
    underline-thickness="50"
    underline-position="-100"
    unicode-range="U+0020-2265"
  />
<missing-glyph horiz-adv-x="500" 
d="M63 0v699h375v-699h-375zM125 63h250v574h-250v-574z" />
    <glyph glyph-name=".notdef" horiz-adv-x="500" 
d="M63 0v699h375v-699h-375zM125 63h250v574h-250v-574z" />
    <glyph glyph-name="NULL" horiz-adv-x="0" 
 />
    <glyph glyph-name="nonmarkingreturn" horiz-adv-x="367" 
 />
    <glyph glyph-name="space" unicode=" " horiz-adv-x="345" 
 />
    <glyph glyph-name="exclam" unicode="!" horiz-adv-x="400" 
d="M238 224h-93l105 556h120zM203 0h-117l28 133h117z" />
    <glyph glyph-name="quotedbl" unicode="&#x22;" horiz-adv-x="500" 
d="M436 494h-78l49 286h109zM233 494h-78l48 286h109z" />
    <glyph glyph-name="numbersign" unicode="#" 
d="M713 498h-148l-78 -188h129l-21 -97h-151l-89 -213h-86l90 213h-145l-89 -213h-86l91 213h-115l21 97h135l80 188h-117l20 97h138l79 185h83l-77 -185h146l79 185h83l-79 -185h127zM335 498l-79 -188h146l79 188h-146z" />
    <glyph glyph-name="dollar" unicode="$" 
d="M589 573q-8 51 -37.5 78t-79.5 35l-50 -235l37 -12q75 -24 117 -65.5t42 -106.5q0 -11 -1.5 -22.5t-3.5 -23.5q-10 -47 -34.5 -85t-61.5 -66t-85 -44.5t-105 -19.5l-18 -87h-68l18 87q-91 8 -145 58.5t-64 130.5l90 53q8 -57 46 -97t93 -51l57 267l-49 16
q-70 23 -103.5 57.5t-33.5 89.5q0 11 1 22t4 24q8 40 32 74.5t59 61.5t80.5 43.5t96.5 20.5l13 63h68l-13 -65q78 -7 126.5 -41t60.5 -103zM352 677.5q-25 -9.5 -44.5 -23.5t-32.5 -32.5t-17 -39.5q-1 -5 -1.5 -9.5t-0.5 -9.5q0 -28 19.5 -49.5t64.5 -36.5l18 -6l47 219
q-28 -3 -53 -12.5zM509 235q0 72 -93 104l-17 6l-52 -248q60 5 104 35.5t55 77.5q3 14 3 25z" />
    <glyph glyph-name="percent" unicode="%" horiz-adv-x="1000" 
d="M926 247q0 -28 -6 -57q-8 -40 -27 -77.5t-47.5 -66t-66 -46t-82.5 -17.5q-37 0 -63.5 12t-43.5 32.5t-25 48t-8 58.5q0 28 6 56q9 40 29.5 77.5t49.5 66.5t66 46.5t78 17.5q37 0 63.5 -12t43.5 -32.5t25 -48t8 -58.5zM210 0h-93l727 780h93zM498 647q0 -28 -6 -57
q-8 -40 -27 -77.5t-47.5 -66t-66 -46t-82.5 -17.5q-37 0 -63.5 12t-43.5 32.5t-25 48t-8 58.5q0 28 6 56q9 40 29.5 77.5t49.5 66.5t66 46.5t78 17.5q37 0 63.5 -12t43.5 -32.5t25 -48t8 -58.5zM834 239q0 42 -18.5 61t-46.5 19q-33 0 -66.5 -30.5t-48.5 -98.5
q-2 -12 -3.5 -22.5t-1.5 -20.5q0 -41 18.5 -62t47.5 -21q36 0 67.5 31t45.5 95q6 29 6 49zM406 639q0 42 -18.5 61t-46.5 19q-33 0 -66.5 -30.5t-48.5 -98.5q-2 -12 -3.5 -22.5t-1.5 -20.5q0 -41 18.5 -62t47.5 -21q36 0 67.5 31t45.5 95q6 29 6 49z" />
    <glyph glyph-name="ampersand" unicode="&#x26;" horiz-adv-x="727" 
d="M612 -15q-32 18 -69 46t-63 52q-45 -41 -104.5 -71t-136.5 -30q-111 0 -165 47.5t-54 125.5q0 26 6 56q14 65 65 121.5t127 98.5q-20 39 -34 76.5t-14 75.5q0 21 4 37q8 37 28 69.5t49.5 56.5t67.5 38t83 14q75 0 114 -36t39 -95q0 -23 -4 -42q-29 -135 -208 -220
q24 -38 63 -88.5t85 -102.5q32 45 53.5 97t32.5 96l79 -28q-18 -66 -42.5 -118.5t-60.5 -101.5q28 -26 67 -54.5t74 -45.5zM460 646q0 32 -19 51t-54 19q-21 0 -40.5 -7.5t-35.5 -20t-27.5 -30t-15.5 -38.5q-2 -6 -2 -12v-12q0 -30 12.5 -60.5t29.5 -62.5q70 35 104.5 68.5
t44.5 80.5q3 12 3 24zM419 143q-51 58 -94 115.5t-73 105.5q-52 -29 -86 -66t-43 -82q-2 -8 -3 -16t-1 -16q0 -48 35.5 -80.5t108.5 -32.5q48 0 86 20t70 52z" />
    <glyph glyph-name="quotesingle" unicode="'" horiz-adv-x="345" 
d="M264 494h-90l49 285h120z" />
    <glyph glyph-name="parenleft" unicode="(" horiz-adv-x="400" 
d="M310 605q-78 -112 -110 -265q-16 -76 -16 -144q0 -103 32.5 -178t85.5 -129l-77 -51q-75 73 -108 156.5t-33 181.5q0 39 5 79.5t14 84.5q17 77 43.5 146t67 131t96 118.5t128.5 107.5l57 -48q-107 -78 -185 -190z" />
    <glyph glyph-name="parenright" unicode=")" horiz-adv-x="400" 
d="M350 505q0 -39 -5 -80t-14 -85q-16 -76 -43 -145t-67.5 -131.5t-95.5 -118.5t-128 -107l-57 51q50 35 96 80t84 101t67.5 123.5t46.5 146.5q8 39 12.5 75t4.5 71q0 98 -31.5 174.5t-86.5 134.5l77 48q74 -73 107 -156.5t33 -181.5z" />
    <glyph glyph-name="asterisk" unicode="*" horiz-adv-x="500" 
d="M546 544l-154 -7l43 -138l-73 -40l-54 136l-114 -135l-56 41l103 137l-154 6l15 74l158 7l-46 139l73 40l57 -136l112 136l58 -38l-103 -142l150 -6z" />
    <glyph glyph-name="plus" unicode="+" 
d="M400 234v-234h-103v234h-231v98h231v221h103v-221h238v-98h-238z" />
    <glyph glyph-name="comma" unicode="," horiz-adv-x="345" 
d="M182 7q-10 -47 -35.5 -84.5t-64.5 -59.5l-35 40q29 14 49 39.5t27 57.5h-67l30 142h125z" />
    <glyph glyph-name="hyphen" unicode="-" horiz-adv-x="464" 
d="M400 220h-352l21 99h352z" />
    <glyph glyph-name="period" unicode="." horiz-adv-x="345" 
d="M181 0h-125l30 140h125z" />
    <glyph glyph-name="slash" unicode="/" horiz-adv-x="400" 
d="M28 -23h-91l485 826h91z" />
    <glyph glyph-name="zero" unicode="0" 
d="M676 539q0 -67 -17 -149q-19 -89 -52.5 -164t-80 -129t-107 -84.5t-133.5 -30.5q-56 0 -97 17.5t-67.5 50t-39.5 79t-13 104.5q0 72 18 157q18 86 51 160t80 129.5t108 87t134 31.5q56 0 97 -19t67.5 -53t39 -82t12.5 -105zM560 520q0 80 -29.5 129t-92.5 49
q-43 0 -80 -23t-67 -64.5t-53 -98t-37 -122.5q-8 -37 -12 -70.5t-4 -62.5q0 -81 29.5 -128.5t92.5 -47.5q42 0 79.5 23t68 64t53.5 98t37 124q15 71 15 130z" />
    <glyph glyph-name="one" unicode="1" 
d="M382 0h-115l130 613l-147 -64l-14 92q66 22 121.5 57t88.5 82h102z" />
    <glyph glyph-name="two" unicode="2" 
d="M690 628q0 -11 -1 -23t-4 -25q-9 -41 -29 -77t-54 -68.5t-83 -61.5t-115 -57q-42 -18 -80 -41.5t-68 -51.5t-50.5 -59t-29.5 -63h412l-21 -101h-538l12 53q13 56 42.5 106.5t70.5 93.5t92 78t107 59q105 45 154.5 90t59.5 95q3 15 3 29q0 45 -32 70.5t-95 25.5
q-31 0 -60.5 -11.5t-55 -33t-44.5 -52.5t-28 -69l-100 25q14 55 45 99.5t73 75.5t92.5 47.5t104.5 16.5q109 0 164.5 -47t55.5 -123z" />
    <glyph glyph-name="three" unicode="3" 
d="M671 642q0 -11 -1.5 -21.5t-3.5 -21.5q-16 -76 -67.5 -122t-120.5 -58q29 -4 54 -16.5t43.5 -32t29.5 -46.5t11 -61q0 -11 -1 -22.5t-4 -24.5q-11 -53 -38 -96.5t-69.5 -74t-99 -47t-127.5 -16.5q-116 0 -176.5 50.5t-65.5 137.5l108 39q3 -63 45.5 -96.5t107.5 -33.5
q35 0 68.5 10t61.5 28t47.5 44t26.5 59q3 15 3 30q0 51 -38.5 81.5t-114.5 30.5h-97l21 99h84q35 0 67 9t57.5 25.5t43 39t23.5 49.5q3 15 3 27q0 45 -32.5 68.5t-86.5 23.5q-66 0 -112 -33.5t-66 -81.5l-94 31q16 36 43 68.5t64.5 57t85 39t104.5 14.5q101 0 157 -42
t56 -114z" />
    <glyph glyph-name="four" unicode="4" 
d="M635 171h-131l-36 -171h-107l36 171h-377l21 99l480 510h113l-109 -512h131zM155 268h263l77 362z" />
    <glyph glyph-name="five" unicode="5" 
d="M667 682h-362l-68 -221h2q28 29 75.5 45t107.5 16q42 0 81 -10.5t69 -34t48 -60t18 -87.5q0 -17 -2 -34t-6 -37q-15 -69 -48 -121t-79 -86.5t-101 -52t-114 -17.5q-53 0 -97 13t-76.5 37t-51 58.5t-21.5 77.5l112 34q2 -30 14 -53t33 -38.5t49 -23t60 -7.5t65 10.5
t62 32.5t51 55.5t32 79.5q3 13 4 24.5t1 22.5q0 35 -12 59t-31.5 40t-44.5 23t-51 7q-24 0 -50.5 -7t-51 -20.5t-46 -31.5t-36.5 -41l-102 23l127 423h461z" />
    <glyph glyph-name="six" unicode="6" 
d="M603 595q-10 57 -47.5 83t-100.5 26q-38 0 -77 -16.5t-73.5 -52t-62.5 -90t-44 -129.5q12 17 34.5 34.5t52 31.5t63.5 23t69 9q45 0 85.5 -11.5t71 -35t49 -59.5t18.5 -86q0 -32 -7 -64q-15 -68 -46.5 -120t-76 -86.5t-98.5 -52t-113 -17.5q-52 0 -95.5 14.5t-74 45
t-47.5 77.5t-17 113q0 32 4.5 67t12.5 76q24 113 64.5 193t92 131t112 75t123.5 24q95 0 152 -38t74 -115zM529 294q0 32 -11.5 56t-30.5 40t-44 24t-53 8q-33 0 -65 -10.5t-60.5 -30t-51 -47.5t-35.5 -63q-1 -9 -1.5 -18t-0.5 -17q0 -79 39.5 -119.5t102.5 -40.5
q30 0 62 10t60.5 31.5t51 55t32.5 79.5q5 25 5 42z" />
    <glyph glyph-name="seven" unicode="7" 
d="M724 700q-91 -68 -166 -156.5t-131.5 -183t-94.5 -188.5t-56 -173h-118q21 95 65 192t100.5 187t121 167.5t127.5 133.5h-400l22 101h547z" />
    <glyph glyph-name="eight" unicode="8" 
d="M682 637q0 -17 -5 -42q-11 -55 -45.5 -101.5t-102.5 -68.5q57 -21 82.5 -58.5t25.5 -89.5q0 -26 -6 -56q-11 -51 -40.5 -95t-74.5 -76t-103.5 -50t-126.5 -18q-118 0 -183 52t-65 137q0 25 6 50q16 73 63.5 126.5t127.5 75.5q-47 18 -65.5 50.5t-18.5 72.5q0 12 1 24
t4 25q9 46 37 83.5t68.5 64t91.5 41t108 14.5q51 0 91.5 -11t69.5 -32t44.5 -50.5t15.5 -67.5zM573 612q0 43 -35 70t-96 27q-33 0 -63.5 -8.5t-54.5 -24t-40.5 -38t-22.5 -49.5q-3 -12 -3 -24q0 -45 37 -70t96 -25q33 0 63 8t53.5 23.5t40 37.5t22.5 50q3 12 3 23zM523 258
q0 52 -40 82t-113 30q-83 0 -140 -38.5t-71 -102.5q-4 -16 -4 -33q0 -30 12.5 -52.5t33.5 -38t48.5 -23t57.5 -7.5q35 0 69.5 9.5t63.5 28.5t50.5 48t29.5 68q3 15 3 29z" />
    <glyph glyph-name="nine" unicode="9" 
d="M676 549q0 -32 -4.5 -67t-12.5 -75q-25 -116 -64 -197t-89.5 -131.5t-111 -73.5t-127.5 -23q-100 0 -159.5 43t-73.5 120l97 50q9 -58 52 -88.5t104 -30.5q43 0 82 16.5t72 52.5t60 93t45 138q-31 -47 -91 -77t-131 -30q-45 0 -85.5 11.5t-71.5 34.5t-49 59.5t-18 85.5
q0 31 7 62q15 68 47 120t76 86.5t98 52t113 17.5q53 0 96 -14.5t74 -44.5t48 -77t17 -113zM566 543q0 80 -40.5 120.5t-102.5 40.5q-31 0 -63.5 -10t-61 -31.5t-50 -54.5t-31.5 -80q-2 -11 -3.5 -21t-1.5 -20q0 -32 11.5 -55.5t31 -39t44.5 -23t53 -7.5q33 0 65 10.5
t60.5 29.5t51 47t35.5 62q1 8 1.5 16t0.5 16z" />
    <glyph glyph-name="colon" unicode=":" horiz-adv-x="400" 
d="M297 416h-123l30 137h123zM209 0h-123l29 137h123z" />
    <glyph glyph-name="semicolon" unicode=";" horiz-adv-x="400" 
d="M297 416h-123l30 137h123zM210 7q-10 -47 -35.5 -84.5t-64.5 -59.5l-35 40q29 14 49 39.5t27 57.5h-65l29 138h123z" />
    <glyph glyph-name="less" unicode="&#x3c;" 
d="M101 226v100l462 257v-107l-360 -200l360 -198v-109z" />
    <glyph glyph-name="equal" unicode="=" 
d="M69 350v91h552v-91h-552zM69 132v91h552v-91h-552z" />
    <glyph glyph-name="greater" unicode="&#x3e;" 
d="M131 -31v109l360 198l-360 200v107l462 -257v-100z" />
    <glyph glyph-name="question" unicode="?" 
d="M676 631q0 -8 -1 -17.5t-3 -18.5q-7 -36 -20.5 -65t-32.5 -53t-44 -44t-55 -39q-25 -16 -46 -29t-37.5 -28t-28 -34.5t-17.5 -47.5q-2 -8 -4.5 -22.5t-3.5 -25.5h-106q2 13 5 29.5t5 25.5q8 36 22.5 63t34.5 49t45 40t53 35q45 26 74.5 58.5t39.5 78.5q2 6 2 11.5v11.5
q0 44 -34.5 70t-87.5 26q-31 0 -59.5 -10t-52.5 -29t-42 -45.5t-27 -59.5l-101 17q14 51 44 92t71.5 69.5t91.5 43.5t104 15q48 0 87 -12.5t66.5 -35t42.5 -53t15 -66.5zM345 0h-117l28 133h117z" />
    <glyph glyph-name="at" unicode="@" horiz-adv-x="879" 
d="M833 444q0 -46 -10.5 -94.5t-34.5 -88.5t-63.5 -65.5t-97.5 -25.5q-33 0 -61.5 11.5t-48.5 41.5q-21 -29 -54 -43.5t-74 -14.5q-45 0 -78.5 15t-56 41t-33.5 60.5t-11 73.5q0 60 15 110t43 86t66.5 56t85.5 20q42 0 71.5 -17t41.5 -49l11 52l97 -21q-13 -60 -24 -110
q-4 -21 -9 -42.5t-8.5 -39.5t-6.5 -32t-4 -20q-3 -19 -3 -34q0 -33 14.5 -46t36.5 -15h3q21 0 42 10.5t37 33.5t26 59t10 87q0 59 -18 112t-54.5 92.5t-93.5 62.5t-135 23q-72 0 -133.5 -25t-106.5 -70.5t-71 -108.5t-26 -140q0 -80 26 -142.5t70 -106t103.5 -66
t126.5 -22.5q108 0 188.5 32t135.5 91l35 -55q-64 -71 -150 -103t-210 -32q-90 0 -164 28.5t-126.5 81t-81.5 127.5t-29 167q0 90 31 165t85.5 129t130.5 84.5t166 30.5q94 0 165 -27t118.5 -74.5t71.5 -112.5t24 -140zM510 457q-1 40 -24.5 62t-61.5 22q-20 0 -40.5 -10.5
t-37 -32t-27 -55.5t-10.5 -82q0 -29 8 -49.5t20.5 -33t28.5 -18.5t32 -6q21 0 36 5.5t24.5 14t14.5 19.5t8 22t7 29t8 38.5t8 40.5t6 34z" />
    <glyph glyph-name="A" unicode="A" horiz-adv-x="703" 
d="M534 0l-32 222h-309l-128 -222h-120l445 780h145l113 -780h-114zM486.5 354q-3.5 26 -8.5 61.5t-11 76t-11 76.5t-8 64t-3 38v2h-3q-3 -8 -17.5 -34.5t-34.5 -63t-43.5 -77.5t-44.5 -77.5t-36 -63.5l-20 -36h245q-1 8 -4.5 34z" />
    <glyph glyph-name="B" unicode="B" horiz-adv-x="708" 
d="M695 626q0 -22 -4 -39q-16 -72 -59 -114.5t-102 -54.5l-1 -2q27 -3 51 -14t42.5 -30t29.5 -46t11 -61q0 -11 -1 -23t-4 -25q-11 -51 -38.5 -91.5t-68 -68t-92.5 -42.5t-112 -15h-308l166 780h288q93 0 147.5 -42.5t54.5 -111.5zM576 593q0 25 -11 43t-28.5 29t-39.5 16.5
t-45 5.5h-153l-50 -234h169q57 0 100 27t55 85q3 15 3 28zM551 259q0 27 -12 46.5t-32.5 32.5t-46.5 19t-53 6h-177l-57 -267h179q36 0 68.5 8.5t58.5 26t44 42.5t25 58q3 15 3 28z" />
    <glyph glyph-name="C" unicode="C" horiz-adv-x="722" 
d="M670 578q-14 53 -59 86t-111 33q-50 0 -98 -21.5t-88.5 -61t-71 -95.5t-45.5 -125q-6 -28 -8.5 -52.5t-2.5 -47.5q0 -53 14.5 -92.5t39.5 -65.5t59 -38.5t74 -12.5q32 0 64.5 8.5t62.5 24.5t56 39t45 51l56 -73q-25 -34 -58.5 -62t-73.5 -48.5t-86 -31.5t-96 -11
q-66 0 -118 19.5t-88 56.5t-55.5 90.5t-19.5 121.5q0 56 14 124q19 90 60.5 164.5t99 127.5t128.5 82.5t150 29.5q52 0 93.5 -11.5t72 -31.5t50.5 -47.5t29 -59.5z" />
    <glyph glyph-name="D" unicode="D" horiz-adv-x="777" 
d="M763 496q0 -49 -12 -105q-18 -83 -57.5 -154.5t-97.5 -124t-131.5 -82.5t-159.5 -30h-266l166 780h260q72 0 127.5 -20t93.5 -57t57.5 -89.5t19.5 -117.5zM645 474q0 96 -55 152t-162 56h-129l-124 -584h135q64 0 118 23t96 63t70.5 93t41.5 114q9 44 9 83z" />
    <glyph glyph-name="E" unicode="E" horiz-adv-x="668" 
d="M697 683h-398l-49 -233h349l-21 -95h-349l-54 -257h417l-21 -98h-532l166 780h513z" />
    <glyph glyph-name="F" unicode="F" horiz-adv-x="628" 
d="M680 682h-381l-52 -245h336l-21 -96h-336l-72 -341h-115l166 780h496z" />
    <glyph glyph-name="G" unicode="G" horiz-adv-x="778" 
d="M692 574q-17 55 -61 90.5t-120 35.5q-52 0 -101.5 -20.5t-91 -59.5t-73 -96t-46.5 -130q-6 -27 -8.5 -51.5t-2.5 -47.5q0 -54 15 -94.5t41 -67.5t61.5 -40.5t76.5 -13.5q69 0 124.5 25t87.5 70l33 153h-208l20 98h310l-62 -292q-114 -151 -326 -151q-66 0 -120 19t-92 56
t-59 91.5t-21 124.5q0 53 14 121q20 95 62.5 170t100.5 127t128.5 79.5t148.5 27.5q57 0 101 -12t75.5 -33t51.5 -49.5t30 -60.5z" />
    <glyph glyph-name="H" unicode="H" horiz-adv-x="775" 
d="M626 0h-117l75 355h-354l-75 -355h-116l166 780h116l-70 -327h354l70 327h117z" />
    <glyph glyph-name="I" unicode="I" horiz-adv-x="312" 
d="M164 0h-118l166 780h118z" />
    <glyph glyph-name="J" unicode="J" horiz-adv-x="452" 
d="M334 164q-19 -90 -82.5 -136t-157.5 -46q-38 0 -69.5 5.5t-60.5 13.5l16 105q28 -12 59 -18t57 -6q45 0 80.5 24.5t46.5 77.5l127 596h115z" />
    <glyph glyph-name="K" unicode="K" horiz-adv-x="683" 
d="M359 449l246 -449h-132l-198 380l-101 -84l-63 -296h-113l166 780h113l-73 -341l405 341h136z" />
    <glyph glyph-name="L" unicode="L" horiz-adv-x="609" 
d="M526 0h-487l166 780h116l-144 -676h371z" />
    <glyph glyph-name="M" unicode="M" horiz-adv-x="919" 
d="M777 0h-106l92 435q4 20 11 48t14.5 57.5t15 57.5t12.5 49h-4q-4 -10 -10 -24t-12.5 -27.5t-12.5 -26t-10 -19.5l-303 -550h-106l-69 547q-2 17 -4.5 47t-2.5 53h-4q-8 -42 -19 -101t-22 -113l-92 -433h-99l166 780h157l67 -545q2 -20 3.5 -42t1.5 -38v-11h3q4 14 16 40
t26 51l299 545h158z" />
    <glyph glyph-name="N" unicode="N" horiz-adv-x="772" 
d="M627 0h-145l-174 527q-3 9 -6.5 25.5t-6.5 34.5t-5.5 35t-3.5 29h-3q-5 -35 -13 -84t-19 -101l-99 -466h-109l166 780h142l173 -524q5 -14 9.5 -31t8.5 -34.5t7 -32.5t3 -25h3q2 13 5 34.5t6.5 45.5t8 48.5t8.5 43.5l101 475h109z" />
    <glyph glyph-name="O" unicode="O" horiz-adv-x="798" 
d="M779 508q0 -58 -13 -117q-18 -86 -57 -161t-94.5 -130t-126 -86.5t-151.5 -31.5q-66 0 -116.5 21.5t-84 60t-50.5 92t-17 117.5q0 28 3 57.5t10 60.5q18 85 57 159.5t94.5 129.5t126 86.5t151.5 31.5q67 0 117 -21.5t83.5 -60.5t50.5 -92t17 -116zM660 491
q0 95 -44.5 151t-126.5 56q-49 0 -95.5 -22.5t-85 -63t-67 -97t-43.5 -124.5q-11 -55 -11 -99q0 -48 11.5 -86.5t33 -66t53.5 -42.5t73 -15q50 0 96.5 23t85 64t67 97.5t42.5 124.5q6 27 8.5 52t2.5 48z" />
    <glyph glyph-name="P" unicode="P" horiz-adv-x="691" 
d="M710 588q0 -31 -7 -62q-12 -56 -39 -102.5t-66 -80.5t-88.5 -52.5t-107.5 -18.5h-190l-58 -272h-115l166 780h306q46 0 83 -14t62.5 -39t39.5 -60.5t14 -78.5zM593 565q0 57 -36 87.5t-95 30.5h-165l-67 -314h167q32 0 63 10t57 30t45 49.5t27 67.5q4 19 4 39z" />
    <glyph glyph-name="Q" unicode="Q" horiz-adv-x="792" 
d="M780 509q0 -58 -13 -116q-12 -57 -34 -110t-52.5 -99t-68.5 -82.5t-83 -62.5q25 -31 59 -61t76 -56l-119 -58q-32 22 -66.5 59t-60.5 74q-14 -5 -36.5 -8t-43.5 -3q-66 0 -116.5 21.5t-84 59.5t-50.5 91t-17 117q0 28 3 57.5t10 60.5q18 85 57 159t94.5 128.5t125.5 86
t151 31.5q67 0 117.5 -21.5t84 -60t50.5 -91.5t17 -116zM664 493q0 97 -45 153t-129 56q-50 0 -96.5 -22.5t-85.5 -63t-67.5 -97.5t-43.5 -126q-6 -26 -8.5 -51t-2.5 -48q0 -97 45 -153.5t128 -56.5q50 0 97 22.5t86 63.5t67.5 97.5t43.5 125.5q6 27 8.5 52t2.5 48z" />
    <glyph glyph-name="R" unicode="R" horiz-adv-x="714" 
d="M702 614q0 -24 -6 -53q-10 -49 -29 -85.5t-44.5 -63t-55.5 -43.5t-63 -26l124 -343h-134l-104 325h-180l-69 -325h-112l166 780h300q95 0 151 -42.5t56 -123.5zM583 586q0 49 -35.5 73.5t-92.5 24.5h-168l-57 -268h169q68 0 117 35t64 106q3 15 3 29z" />
    <glyph glyph-name="S" unicode="S" horiz-adv-x="681" 
d="M577 580q-8 63 -46 92.5t-100 29.5q-34 0 -63.5 -9t-51.5 -24t-36.5 -35.5t-19.5 -43.5q-1 -5 -1.5 -10.5t-0.5 -10.5q0 -29 21.5 -51.5t71.5 -39.5l109 -38q75 -26 115 -67t40 -107q0 -23 -6 -52q-23 -109 -107 -170.5t-218 -61.5q-114 0 -176.5 55.5t-73.5 146.5l99 58
q5 -35 19.5 -64.5t36.5 -50.5t51.5 -33t63.5 -12q76 0 126 33.5t61 87.5q3 15 3 29q0 38 -26.5 64t-81.5 46l-105 39q-71 26 -105 62t-34 92q0 23 6 50q9 44 35.5 82.5t65.5 67.5t90 46t109 17q101 0 158 -37.5t71 -118.5z" />
    <glyph glyph-name="T" unicode="T" horiz-adv-x="614" 
d="M687 682h-231l-145 -682h-117l145 682h-231l21 98h579z" />
    <glyph glyph-name="U" unicode="U" horiz-adv-x="774" 
d="M673 254q-13 -64 -46 -114.5t-79.5 -85.5t-104 -53.5t-120.5 -18.5q-113 0 -178 54t-65 151q0 33 7 67l112 526h116l-110 -515q-6 -28 -6 -54q0 -64 37.5 -97t107.5 -33q83 0 141 46.5t78 137.5l110 515h112z" />
    <glyph glyph-name="V" unicode="V" horiz-adv-x="685" 
d="M359 0h-144l-94 780h118l65 -552q2 -14 2.5 -30t1.5 -31q1 -14 1.5 -25t0.5 -16h2q2 5 7 16t11.5 26t14 31t14.5 29l300 552h126z" />
    <glyph glyph-name="W" unicode="W" horiz-adv-x="940" 
d="M682 0h-134l-5 544q0 14 2.5 35t5 41.5t5 36.5t2.5 18h-3q-1 -3 -5 -18.5t-10 -35.5t-12.5 -41.5t-12.5 -35.5l-236 -544h-130l-12 780h113l2 -540q0 -11 -1 -27.5t-3 -34.5t-4.5 -35.5t-5.5 -31.5h2q4 14 9 31t10.5 34.5t11.5 34t11 28.5l230 541h134l6 -542
q0 -10 -1.5 -25.5t-3.5 -32.5t-4.5 -34.5l-4.5 -31.5h3q4 15 8.5 32t9.5 33.5t10 32t9 25.5l230 543h115z" />
    <glyph glyph-name="X" unicode="X" horiz-adv-x="649" 
d="M417 396l169 -396h-121l-127 311l-254 -311h-130l338 408l-157 372h118l118 -286l232 286h131z" />
    <glyph glyph-name="Y" unicode="Y" horiz-adv-x="617" 
d="M371 283l-60 -283h-115l60 283l-153 497h114l115 -384l281 384h121z" />
    <glyph glyph-name="Z" unicode="Z" horiz-adv-x="669" 
d="M708 694l-549 -596h422l-21 -98h-557l19 93l545 590h-391l21 97h529z" />
    <glyph glyph-name="bracketleft" unicode="[" horiz-adv-x="400" 
d="M485 744h-167l-171 -807h167l-19 -87h-261l208 980h261z" />
    <glyph glyph-name="backslash" unicode="\" horiz-adv-x="367" 
d="M321 -9l-325 776h45l326 -776h-46z" />
    <glyph glyph-name="bracketright" unicode="]" horiz-adv-x="400" 
d="M193 -150h-262l19 87h168l171 807h-168l18 86h262z" />
    <glyph glyph-name="asciicircum" unicode="^" 
d="M525 304l-93 366l-248 -366l-74 44l279 431h133l96 -431z" />
    <glyph glyph-name="underscore" unicode="_" horiz-adv-x="500" 
d="M411 -160h-500l15 70h500z" />
    <glyph glyph-name="grave" unicode="`" horiz-adv-x="400" 
d="M365 615l-180 134l75 81l172 -137z" />
    <glyph glyph-name="a" unicode="a" horiz-adv-x="591" 
d="M507 -6q-27 -6 -51.5 -4.5t-42.5 10.5t-27.5 25.5t-7.5 40.5q-16 -19 -40.5 -33.5t-53.5 -24.5t-62 -15t-65 -5q-85 0 -119 38t-21 107q8 42 27.5 73.5t49.5 54.5t69.5 39t86.5 26q32 7 62 16t54 19.5t39 21.5t17 23q9 42 -17.5 57t-84.5 15q-21 0 -47.5 -6.5t-53 -18
t-50.5 -27.5t-40 -36l-30 80q44 44 108.5 69.5t137.5 25.5q109 0 159 -39.5t31 -127.5l-56 -263q-8 -38 11.5 -49t57.5 -1zM345.5 274q-38.5 -14 -84.5 -25q-56 -13 -92 -34.5t-44 -71.5q-10 -69 74 -69q22 0 48.5 6t51 17.5t45.5 28t32 37.5l30 143q-22 -18 -60.5 -32z" />
    <glyph glyph-name="b" unicode="b" horiz-adv-x="629" 
d="M600 372q0 -22 -3 -45.5t-8 -49.5q-15 -71 -44 -125t-68 -90.5t-87 -55t-102 -18.5q-27 0 -51.5 6t-44.5 16.5t-35 25t-23 30.5l-35 -66h-80l166 780h109l-63 -295q26 37 75 58.5t105 21.5q90 0 139.5 -49t49.5 -144zM487 346q0 66 -32 98t-87 32q-29 0 -57 -11t-51 -30
t-39.5 -44t-22.5 -54l-38 -178q18 -36 46.5 -59.5t77.5 -23.5q33 0 63.5 12.5t56 37t45 62.5t30.5 89q8 40 8 69z" />
    <glyph glyph-name="c" unicode="c" horiz-adv-x="576" 
d="M524 396q-20 40 -56.5 59.5t-82.5 19.5q-33 0 -68.5 -11.5t-67 -36t-56 -62t-35.5 -88.5q-6 -28 -6 -53q0 -37 12.5 -64.5t33 -45.5t47.5 -27t57 -9q46 0 94.5 20.5t83.5 60.5l21 -82q-48 -45 -104 -67t-129 -22q-48 0 -90 13.5t-72.5 40t-48.5 66.5t-18 93q0 36 9 76
q15 69 48 123t79 90.5t101.5 55.5t114.5 19q69 0 115.5 -20.5t75.5 -60.5z" />
    <glyph glyph-name="d" unicode="d" horiz-adv-x="638" 
d="M509 0h-93l17 82q-15 -24 -37.5 -41.5t-49 -29t-54.5 -17.5t-55 -6q-91 0 -145 50.5t-54 150.5q0 41 10 87q15 71 46 125t73 90.5t91.5 55t101.5 18.5q57 0 93.5 -19.5t51.5 -49.5l61 284h109zM441.5 452q-31.5 24 -81.5 24q-33 0 -64.5 -12.5t-58.5 -37t-48 -62.5
t-32 -89q-4 -17 -5.5 -33.5t-1.5 -30.5q0 -69 35 -102t91 -33q29 0 57.5 11t52 29.5t40.5 44t23 54.5l36 169q-12 44 -43.5 68z" />
    <glyph glyph-name="e" unicode="e" horiz-adv-x="602" 
d="M578 369q0 -41 -12 -91l-427 -54q0 -5 -0.5 -8.5t-0.5 -7.5q0 -62 39 -96.5t104 -34.5q57 0 112.5 28.5t92.5 79.5l41 -70q-53 -60 -118.5 -93.5t-153.5 -33.5q-102 0 -159 56t-57 153q0 38 9 80q13 63 42.5 115.5t72 91t96.5 60t116 21.5q97 0 150 -52t53 -144zM477 367
q0 48 -32.5 79t-89.5 31q-72 0 -126.5 -45.5t-74.5 -124.5l322 42q1 5 1 9v9z" />
    <glyph glyph-name="f" unicode="f" horiz-adv-x="327" 
d="M421 708q-41 0 -66.5 -5t-40.5 -15.5t-21.5 -26.5t-11.5 -39l-14 -69h104l-19 -87h-100l-99 -466h-109l99 466h-78l19 87h78l15 72q9 42 24.5 74t43.5 53.5t71 33t106 12.5z" />
    <glyph glyph-name="g" unicode="g" horiz-adv-x="630" 
d="M512 13q-23 -106 -102 -161t-222 -55q-25 0 -51 2t-50 5t-44.5 7.5t-34.5 9.5v104q20 -8 44.5 -15t50.5 -12t52 -7.5t50 -2.5q174 0 203 133l16 74q-13 -17 -32.5 -31t-43 -24t-49.5 -15.5t-52 -5.5q-89 0 -143.5 47.5t-54.5 142.5q0 37 9 80q15 69 44.5 120.5t69 86
t88 52t100.5 17.5q64 0 103 -20.5t51 -55.5l31 64h82zM361 476q-33 0 -63.5 -11t-56.5 -33.5t-45.5 -58t-30.5 -84.5q-4 -17 -5.5 -32t-1.5 -29q0 -66 34.5 -97t89.5 -31q29 0 57 10.5t51.5 28t40 41.5t22.5 51l33 155q-26 90 -125 90z" />
    <glyph glyph-name="h" unicode="h" horiz-adv-x="632" 
d="M590 425q0 -18 -5 -43l-81 -382h-109l76 357q3 17 3 30q0 42 -26.5 65t-71.5 23q-49 0 -95 -25.5t-74 -76.5l-79 -373h-109l166 780h109l-63 -294q26 33 75.5 56t116.5 23q77 0 122 -37t45 -103z" />
    <glyph glyph-name="i" unicode="i" horiz-adv-x="264" 
d="M273 649h-116l28 131h116zM132 0h-111l118 553h111z" />
    <glyph glyph-name="j" unicode="j" horiz-adv-x="282" 
d="M292 649h-114l28 131h114zM146 -22q-10 -49 -30.5 -82.5t-52.5 -54t-78 -29.5t-109 -9l-8 96h17q43 0 70.5 4.5t44.5 15.5t26 30t15 48l119 556h109z" />
    <glyph glyph-name="k" unicode="k" horiz-adv-x="553" 
d="M306 309l188 -309h-124l-145 242l-78 -68l-36 -174h-105l166 780h109l-106 -477l281 250h125z" />
    <glyph glyph-name="l" unicode="l" horiz-adv-x="265" 
d="M136 0h-113l166 780h113z" />
    <glyph glyph-name="m" unicode="m" horiz-adv-x="877" 
d="M837 434q0 -24 -6 -51l-81 -383h-110l76 359q2 11 3.5 21t1.5 20q0 75 -77 75q-22 0 -43.5 -8.5t-39.5 -23.5t-30.5 -35t-17.5 -43l-78 -365h-108l76 359q2 12 3.5 22.5t1.5 20.5q0 73 -76 73q-37 0 -68 -24t-54 -64l-82 -387h-109l118 553h100l-14 -65q25 32 66 54.5
t98 22.5t90 -24.5t41 -66.5q24 39 73 65t109 26q65 0 101 -35t36 -96z" />
    <glyph glyph-name="n" unicode="n" horiz-adv-x="632" 
d="M588 420q0 -11 -1.5 -22.5t-3.5 -23.5l-79 -374h-109l76 357q3 17 3 30q0 42 -26.5 65t-71.5 23q-49 0 -95 -25.5t-74 -76.5l-79 -373h-109l118 553h100l-17 -76q28 38 81 63t122 25q77 0 121 -39.5t44 -105.5z" />
    <glyph glyph-name="o" unicode="o" horiz-adv-x="636" 
d="M605 356q0 -37 -9 -79q-14 -66 -44.5 -119.5t-74 -91t-98.5 -58t-119 -20.5q-106 0 -163.5 56t-57.5 153q0 38 9 80q14 66 44.5 119t74 90.5t98.5 58t118 20.5q108 0 165 -56t57 -153zM492 338q0 66 -34 101.5t-94 35.5q-34 0 -67 -13.5t-60.5 -39t-47.5 -62t-30 -83.5
q-3 -16 -5 -30.5t-2 -28.5q0 -67 35 -104t92 -37q36 0 69 13.5t60 39t47 63t30 84.5q7 31 7 61z" />
    <glyph glyph-name="p" unicode="p" horiz-adv-x="629" 
d="M600 369q0 -21 -3 -43.5t-8 -48.5q-15 -71 -44.5 -125t-69.5 -90.5t-88.5 -55t-102.5 -18.5q-22 0 -44 5t-41.5 13.5t-35 20.5t-24.5 25l-52 -245h-109l159 746h100l-18 -83q12 22 33 39.5t46.5 30t53.5 19t55 6.5q91 0 142 -49.5t51 -146.5zM487 346q0 66 -32 98t-87 32
q-29 0 -57 -11t-51 -30t-39.5 -44t-22.5 -54l-38 -178q18 -36 46.5 -59.5t77.5 -23.5q33 0 63.5 12.5t56 37t45 62.5t30.5 89q8 40 8 69z" />
    <glyph glyph-name="q" unicode="q" horiz-adv-x="638" 
d="M470 -193h-109l55 260q-26 -35 -74 -57t-102 -22q-91 0 -145.5 50.5t-54.5 150.5q0 41 10 87q15 71 46 125t72 90.5t90.5 55t101.5 18.5q64 0 103 -22t52 -55l32 65h82zM443 452q-31 24 -81 24q-34 0 -65.5 -12.5t-58.5 -37.5t-47.5 -62.5t-31.5 -88.5q-4 -17 -5.5 -33.5
t-1.5 -30.5q0 -69 35 -102t91 -33q29 0 57 11t51.5 29.5t40.5 44t23 54.5l36 169q-12 44 -43 68z" />
    <glyph glyph-name="r" unicode="r" horiz-adv-x="384" 
d="M410 463q-11 2 -21 3t-20 1q-53 0 -94 -22.5t-66 -64.5l-81 -380h-109l118 553h96l-13 -58q32 35 80 51.5t111 18.5z" />
    <glyph glyph-name="s" unicode="s" horiz-adv-x="538" 
d="M467 394q-20 40 -59.5 62.5t-93.5 22.5q-50 0 -80 -16.5t-37 -46.5q-1 -3 -1 -6.5v-6.5q0 -22 22 -37t81 -29q93 -22 137 -57t44 -93q0 -19 -4 -38q-17 -76 -82 -118.5t-180 -42.5q-74 0 -131.5 31t-79.5 81l67 83q20 -46 66 -75t100 -29q57 0 89 18t39 51q1 5 1.5 9
t0.5 9q0 31 -30.5 50.5t-95.5 33.5q-82 18 -119 51.5t-37 79.5q0 8 1 15.5t3 15.5q7 34 27 62t51.5 48.5t73.5 31.5t93 11q77 0 128 -25t69 -65z" />
    <glyph glyph-name="t" unicode="t" horiz-adv-x="361" 
d="M360 466h-98l-64 -301q-6 -25 -6 -41q0 -15 6 -23.5t19.5 -13t35.5 -5.5t55 -1l-43 -93q-99 0 -143 21.5t-44 80.5q0 12 2 25.5t5 29.5l68 321h-78l19 87h82l37 174h105l-37 -174h98z" />
    <glyph glyph-name="u" unicode="u" horiz-adv-x="632" 
d="M503 0h-101l16 75q-29 -39 -83.5 -63t-118.5 -24q-76 0 -121.5 39t-45.5 105q0 11 1.5 21.5t3.5 21.5l81 378h109l-75 -353q-3 -16 -3 -30q0 -42 26.5 -65t70.5 -23q50 0 96 25.5t73 76.5l79 369h110z" />
    <glyph glyph-name="v" unicode="v" horiz-adv-x="537" 
d="M275 0h-116l-91 553h111l56 -348q2 -13 2.5 -27t0.5 -29q0 -26 -3 -47h3q6 23 19 52.5t25 50.5l195 348h118z" />
    <glyph glyph-name="w" unicode="w" horiz-adv-x="779" 
d="M558 0h-120l-13 372q0 9 1 21.5t3 26.5t4.5 28t4.5 25h-1h-2q-3 -10 -6.5 -24t-7.5 -28t-8.5 -27.5t-9.5 -22.5l-173 -371h-125l-37 553h110l19 -378q0 -7 -1 -20.5t-2.5 -27.5t-3.5 -27.5t-4 -20.5h3q1 6 4.5 19t7.5 27.5t8.5 28t7.5 20.5l174 379h123l16 -380v-4
q0 -9 -1.5 -21.5t-3 -25.5t-3.5 -24t-3 -19h3q2 8 5 20.5t6.5 26t8 26t8.5 21.5l178 380h105z" />
    <glyph glyph-name="x" unicode="x" horiz-adv-x="516" 
d="M325 287l144 -287h-118l-101 209l-184 -209h-126l265 294l-128 259h115l88 -181l159 181h126z" />
    <glyph glyph-name="y" unicode="y" horiz-adv-x="555" 
d="M274 -43q-24 -44 -51.5 -74.5t-62 -49.5t-78 -27.5t-99.5 -8.5l-9 95h16q44 0 72.5 5t50 18.5t39.5 37.5t39 62l-113 538h114l65 -332q3 -13 4.5 -31.5t3.5 -35.5q2 -19 2 -40q8 23 19 51t26 56l177 332h112z" />
    <glyph glyph-name="z" unicode="z" horiz-adv-x="532" 
d="M533 480l-396 -389h327l-19 -91h-467l16 74l396 387h-291l20 92h430z" />
    <glyph glyph-name="braceleft" unicode="{" horiz-adv-x="400" 
d="M473 758h-40q-92 0 -101 -101q-1 -19 -2.5 -45.5t-3.5 -55t-5 -56.5t-8 -51q-11 -51 -35.5 -76.5t-54.5 -32.5q22 -5 35 -22.5t13 -48.5q0 -18 -4 -37q-5 -23 -14 -51t-19.5 -56.5t-20.5 -55t-16 -45.5q-10 -27 -10 -48q0 -53 69 -53h40l-33 -81h-43q-27 0 -51 5.5
t-42.5 18t-29.5 32t-11 47.5q0 27 10 57q8 22 18 51t20.5 58t19.5 56.5t13 46.5q2 11 3.5 19t1.5 16q0 46 -47 46h-23l19 91h23q29 0 49 19t28 61q4 20 6.5 47t5 56.5t4 58t3.5 50.5q4 44 22.5 75t45 50t59 27.5t65.5 8.5h43z" />
    <glyph glyph-name="bar" unicode="|" horiz-adv-x="345" 
d="M130 -23v826h83v-826h-83z" />
    <glyph glyph-name="braceright" unicode="}" horiz-adv-x="400" 
d="M348 736q0 -27 -10 -58q-7 -22 -17.5 -50.5t-21 -58t-19.5 -56.5t-13 -47q-5 -22 -5 -33q0 -25 12.5 -36t35.5 -11h23l-19 -91h-23q-29 0 -49.5 -19t-28.5 -62q-4 -19 -6.5 -46.5t-5 -56.5t-4 -58t-3.5 -51q-4 -44 -22.5 -74.5t-45 -49.5t-59 -27.5t-65.5 -8.5h-43l3 81
h40q92 0 101 101q2 19 3 45.5t3 55t4.5 56.5t7.5 51q9 42 29 67t44 36q5 2 8.5 3t8.5 2q-22 5 -35 22.5t-13 49.5q0 18 4 37q5 23 14.5 51t20 56.5t20.5 55t16 45.5q9 29 9 48q0 53 -68 53h-40l32 81h43q27 0 51 -5.5t42.5 -18t29.5 -32t11 -47.5z" />
    <glyph glyph-name="asciitilde" unicode="~" 
d="M616 283q-7 -8 -24.5 -19t-41.5 -21t-51 -17t-54 -7q-31 0 -55.5 10t-47 21.5t-44.5 21.5t-48 10q-50 0 -94.5 -19t-81.5 -46l22 103q13 11 32.5 22t42.5 20t49 14.5t51 5.5q30 0 54 -9.5t46.5 -21.5t45 -21.5t49.5 -9.5q26 0 50.5 6t46.5 15t41 20.5t34 23.5z" />
    <glyph glyph-name="uni00A0" unicode="&#xa0;" horiz-adv-x="345" 
 />
    <glyph glyph-name="exclamdown" unicode="&#xa1;" horiz-adv-x="400" 
d="M313 448h-117l28 133h117zM177 -199h-120l131 556h93z" />
    <glyph glyph-name="cent" unicode="&#xa2;" horiz-adv-x="576" 
d="M523 399q-18 35 -51 55l-187 -371q4 -1 8 -1h8q45 0 93.5 20t83.5 60l22 -79q-48 -44 -103.5 -65.5t-127.5 -21.5q-7 0 -14 0.5t-13 1.5l-55 -107l-59 19l50 100q-60 20 -98 68t-38 128q0 17 1.5 35.5t6.5 38.5q14 69 47 121.5t78.5 88.5t101 54.5t113.5 18.5q34 0 66 -8
l53 105l60 -17l-54 -105q37 -19 64 -55zM377 471h-12t-12 -1q-28 -2 -59.5 -14.5t-59.5 -35.5t-49.5 -58t-31.5 -82q-6 -28 -6 -54q0 -50 22 -80.5t56 -44.5l186 367q-16 3 -34 3z" />
    <glyph glyph-name="sterling" unicode="&#xa3;" horiz-adv-x="729" 
d="M700 634q0 -11 -1.5 -22.5t-3.5 -23.5l-97 -28q3 20 3 36q0 56 -33 82t-89 26q-37 0 -67.5 -13.5t-52 -35t-33.5 -50t-12 -58.5v-10q2 -30 7.5 -61.5t9.5 -64.5h228l-15 -73h-213q-2 -73 -48.5 -136.5t-123.5 -104.5q29 8 59 13t59 5q19 0 36.5 -2.5t33.5 -8.5
q24 -8 48.5 -16t54.5 -8q31 0 69 12.5t89 47.5l31 -78q-59 -42 -108.5 -57.5t-92.5 -15.5q-41 0 -75 10.5t-63 21.5q-15 6 -32.5 8.5t-36.5 2.5q-45 0 -91.5 -11.5t-81.5 -28.5l-36 82q45 23 83.5 51.5t67.5 62t46 71.5t19 79h-163l15 73h145q-5 31 -11 62.5t-6 66.5v2
q0 49 21 94.5t58.5 80.5t88.5 56t112 21q94 0 148 -41.5t54 -118.5z" />
    <glyph glyph-name="currency" unicode="&#xa4;" horiz-adv-x="567" 
d="M479 79l-73 73q-26 -17 -57 -27t-64 -10q-34 0 -64.5 10t-56.5 27l-73 -73l-58 58l73 73q-17 26 -27 57t-10 64t10 63.5t27 56.5l-73 74l58 58l73 -73q26 17 56.5 27t64.5 10t64.5 -10t56.5 -27l73 73l58 -58l-73 -73q17 -26 27 -57t10 -64q0 -34 -10 -64.5t-27 -56.5
l73 -73zM418 331q0 27 -10.5 51.5t-28.5 42.5t-42.5 28.5t-51.5 10.5t-51.5 -10.5t-42.5 -28.5t-28.5 -42.5t-10.5 -51.5t10.5 -51.5t28.5 -42.5t42.5 -28.5t51.5 -10.5t51.5 10.5t42.5 28.5t28.5 42.5t10.5 51.5z" />
    <glyph glyph-name="yen" unicode="&#xa5;" 
d="M474 416h183l-15 -74h-221l-26 -121h221l-16 -73h-221l-31 -148h-116l31 148h-220l16 73h220l26 121h-220l15 74h182l-130 364h114l111 -337l257 337h125z" />
    <glyph glyph-name="brokenbar" unicode="&#xa6;" horiz-adv-x="345" 
d="M130 477v326h83v-326h-83zM130 -23v326h83v-326h-83z" />
    <glyph glyph-name="section" unicode="&#xa7;" horiz-adv-x="644" 
d="M533 642q-1 49 -29 75t-79 26q-54 0 -87 -21.5t-39 -50.5q-2 -5 -2 -10v-10q0 -22 16 -37.5t57 -29.5l96 -33q74 -26 111.5 -57.5t37.5 -85.5q0 -17 -5 -42q-13 -58 -55 -95.5t-115 -47.5q37 -14 54.5 -42t17.5 -63q0 -15 -3 -30q-17 -80 -79 -121.5t-174 -41.5
q-91 0 -143 41t-59 125l95 31q1 -55 33 -84t92 -29q62 0 95 21t41 60q2 5 2 10v10q0 50 -77 78l-98 36q-76 28 -113 59t-37 84q0 16 5 41q12 57 54 92t107 46q-57 37 -57 92q0 8 1 15.5t3 15.5q7 33 27.5 61.5t52 49.5t72.5 33t90 12q88 0 135 -39t49 -115zM513 386
q0 29 -20 49.5t-71 37.5l-71 24q-71 0 -110.5 -24t-47.5 -61q-3 -13 -3 -25q0 -28 20.5 -47.5t70.5 -37.5l67 -24q75 0 114 21.5t48 60.5q3 14 3 26z" />
    <glyph glyph-name="dieresis" unicode="&#xa8;" horiz-adv-x="500" 
d="M484 670h-99l26 120h99zM290 670h-100l26 120h100z" />
    <glyph glyph-name="copyright" unicode="&#xa9;" horiz-adv-x="777" 
d="M746 357q0 -74 -28 -139t-77 -113.5t-114 -76.5t-139 -28t-139 28t-113.5 76.5t-76.5 113.5t-28 139t28 139t76.5 113.5t113.5 76.5t139 28t139 -28t114 -76.5t77 -113.5t28 -139zM695 357q0 63 -24 118.5t-66 97.5t-97.5 66t-118.5 24t-118.5 -24t-97.5 -66t-66 -97.5
t-24 -118.5t24 -118.5t66 -97.5t97.5 -66t118.5 -24t118.5 24t97.5 66t66 97.5t24 118.5zM498 146q-39 -26 -101 -26q-41 0 -77.5 14.5t-63.5 44t-42.5 74.5t-15.5 105q0 53 15 95.5t41.5 72.5t62.5 46.5t78 16.5h6q52 0 91.5 -24.5t64.5 -72.5l-58 -57q-22 43 -47.5 59
t-54.5 16q-23 0 -44 -10t-37 -29t-25.5 -47.5t-9.5 -65.5q0 -76 32 -117t85 -41q13 0 27 3t28 11.5t27.5 24.5t25.5 43l57 -59q-26 -51 -65 -77z" />
    <glyph glyph-name="ordfeminine" unicode="&#xaa;" horiz-adv-x="315" 
d="M345 492q-41 -9 -57 0q-7 4 -13 12t-6 18q-17 -13 -44.5 -24.5t-55.5 -11.5q-42 0 -60.5 16t-18.5 45q0 5 0.5 9.5t1.5 9.5q7 41 36.5 62t85.5 36q29 8 54 17.5t27 20.5q1 3 1 8q0 12 -12 16.5t-37 4.5q-20 0 -44 -11t-53 -42l-20 51q26 27 58.5 42.5t71.5 15.5
q45 0 73.5 -14t28.5 -52q0 -10 -3 -22l-29 -134q0 -2 -0.5 -3.5t-0.5 -2.5q0 -3 2 -7q3 -3 10 -3q9 0 30 7zM257.5 631.5q-15.5 -6.5 -38.5 -13.5q-26 -7 -45 -15.5t-22 -32.5v-4q0 -11 6.5 -18t26.5 -7q23 0 47.5 10t38.5 30l14 65q-12 -8 -27.5 -14.5z" />
    <glyph glyph-name="guillemotleft" unicode="&#xab;" horiz-adv-x="640" 
d="M619 426l-240 -171l167 -171l-24 -110l-235 239l18 84l337 239zM380 426l-240 -171l167 -171l-24 -110l-235 239l18 84l337 239z" />
    <glyph glyph-name="logicalnot" unicode="&#xac;" horiz-adv-x="562" 
d="M410 101v199h-380v88h469v-287h-89z" />
    <glyph glyph-name="uni00AD" unicode="&#xad;" horiz-adv-x="500" 
d="M40 228v65h410v-65h-410z" />
    <glyph glyph-name="registered" unicode="&#xae;" horiz-adv-x="777" 
d="M746 357q0 -74 -28 -139t-77 -113.5t-114 -76.5t-139 -28t-139 28t-113.5 76.5t-76.5 113.5t-28 139t28 139t76.5 113.5t113.5 76.5t139 28t139 -28t114 -76.5t77 -113.5t28 -139zM695 357q0 63 -24 118.5t-66 97.5t-97.5 66t-118.5 24t-118.5 -24t-97.5 -66t-66 -97.5
t-24 -118.5t24 -118.5t66 -97.5t97.5 -66t118.5 -24t118.5 24t97.5 66t66 97.5t24 118.5zM503 135l-104 175h-71v-175h-81v450h154q34 0 62.5 -8.5t49.5 -25t33 -41.5t12 -58q0 -48 -19.5 -78t-55.5 -48l113 -191h-93zM474 451q0 31 -24.5 43.5t-54.5 12.5h-67v-121h68
q32 0 55 13.5t23 51.5z" />
    <glyph glyph-name="macron" unicode="&#xaf;" horiz-adv-x="500" 
d="M491 688h-300l16 74h300z" />
    <glyph glyph-name="degree" unicode="&#xb0;" horiz-adv-x="315" 
d="M284 654q0 -25 -10 -48.5t-27 -40.5t-40 -27.5t-50 -10.5q-25 0 -48.5 9.5t-40.5 27t-27.5 40.5t-10.5 50q0 26 9.5 49t27 40t40.5 27.5t50 10.5q26 0 49 -10t40.5 -27t27.5 -40.5t10 -49.5zM237 655q1 32 -22 55.5t-58 23.5q-32 0 -56 -22t-24 -57q0 -33 22.5 -57
t57.5 -24q32 0 55.5 22t24.5 59z" />
    <glyph glyph-name="plusminus" unicode="&#xb1;" horiz-adv-x="660" 
d="M381 317v-165h-103v165h-217v97h217v157h103v-157h217v-97h-217zM61 10v93h537v-93h-537z" />
    <glyph glyph-name="uni00B2" unicode="&#xb2;" horiz-adv-x="360" 
d="M414 687q0 -14 -3 -31q-5 -26 -15 -46.5t-27 -37.5t-41.5 -31.5t-59.5 -28.5q-45 -18 -69 -36.5t-27 -29.5h199l-18 -86h-305l7 32q14 66 66.5 113t126.5 78q41 17 55.5 34t19.5 38q1 5 1 13q0 16 -12 25t-41 9t-47.5 -15t-28.5 -51l-82 11q9 30 24.5 55t38 44t51 29.5
t63.5 10.5q60 0 92 -26.5t32 -72.5z" />
    <glyph glyph-name="uni00B3" unicode="&#xb3;" horiz-adv-x="360" 
d="M417 700q0 -12 -3 -26q-8 -35 -29 -58t-49 -31q27 -6 42 -26.5t15 -49.5v-10.5t-2 -11.5q-6 -30 -22.5 -54.5t-41 -42t-56 -27t-67.5 -9.5q-52 0 -91.5 29t-49.5 89l81 33q3 -37 25.5 -54.5t50.5 -17.5q31 0 55.5 12t31.5 43q1 5 1 13q0 45 -74 45h-47l16 74h41
q39 0 59 11t25 38q1 3 1 10q0 13 -11 21.5t-40 8.5q-27 0 -51 -16.5t-38 -46.5l-67 29q29 56 73.5 83.5t99.5 27.5q59 0 90.5 -22.5t31.5 -63.5z" />
    <glyph glyph-name="acute" unicode="&#xb4;" horiz-adv-x="500" 
d="M252 624l-19 69l175 118l58 -75z" />
    <glyph glyph-name="mu" unicode="&#xb5;" horiz-adv-x="632" 
d="M503 0h-101l16 75q-29 -39 -83.5 -63t-118.5 -24q-26 0 -47.5 5t-41.5 14l-39 -187h-109l156 733h109l-75 -353q-3 -16 -3 -30q0 -42 26.5 -65t70.5 -23q50 0 96 25.5t73 76.5l79 369h110z" />
    <glyph glyph-name="paragraph" unicode="&#xb6;" horiz-adv-x="632" 
d="M475 -131h-86l178 839h-118l-178 -839h-88l106 496q-24 2 -54 11t-57 28t-45 50t-18 77q0 25 6 53q11 52 37 91.5t62.5 66.5t81.5 40.5t94 13.5h276z" />
    <glyph glyph-name="periodcentered" unicode="&#xb7;" horiz-adv-x="345" 
d="M222 186h-129l29 140h129z" />
    <glyph glyph-name="cedilla" unicode="&#xb8;" horiz-adv-x="500" 
d="M283 -86q0 -5 -0.5 -9.5t-1.5 -9.5q-8 -38 -45.5 -61.5t-91.5 -23.5q-33 0 -60 7t-43 18l27 43q11 -8 30 -13t38 -5q29 0 44 10.5t19 27.5q0 2 0.5 3.5t0.5 3.5q0 10 -7 17t-21 7t-37 -9l-51 16l46 85l69 -4l-27 -46q11 3 21 4t19 1q36 0 53.5 -17.5t17.5 -44.5z" />
    <glyph glyph-name="uni00B9" unicode="&#xb9;" horiz-adv-x="360" 
d="M266 360h-87l67 317l-84 -30l-1 70q37 12 65 27t48 36h81z" />
    <glyph glyph-name="ordmasculine" unicode="&#xba;" horiz-adv-x="315" 
d="M381 678q0 -16 -5 -41q-14 -65 -59 -106.5t-111 -41.5q-50 0 -80.5 28.5t-30.5 80.5q0 20 4 39q7 33 23 60t38 46.5t50 30.5t59 11q52 0 82 -28t30 -79zM318 665q0 29 -16 46.5t-45 17.5q-30 0 -59 -23.5t-39 -68.5q-3 -13 -3 -25q0 -30 16.5 -48t45.5 -18q32 0 59.5 22
t37.5 69q3 15 3 28z" />
    <glyph glyph-name="guillemotright" unicode="&#xbb;" horiz-adv-x="640" 
d="M580 213l-337 -239l24 110l239 171l-166 171l23 110l235 -239zM341 213l-337 -239l24 110l239 171l-166 171l23 110l235 -239z" />
    <glyph glyph-name="onequarter" unicode="&#xbc;" horiz-adv-x="741" 
d="M239 360h-87l67 317l-84 -30l-1 70q37 12 65 27t48 36h81zM104 -23h-81l629 826h81zM674 75h-61l-16 -75h-86l16 75h-202l13 63l263 282h85l-58 -272h61zM431 148h111l34 158z" />
    <glyph glyph-name="onehalf" unicode="&#xbd;" horiz-adv-x="741" 
d="M239 360h-87l67 317l-84 -30l-1 70q37 12 65 27t48 36h81zM84 -23h-81l629 826h81zM709 327q0 -14 -3 -31q-6 -26 -16 -46.5t-27 -37.5t-41.5 -31.5t-59.5 -28.5q-45 -18 -69 -36.5t-27 -29.5h199l-18 -86h-305l8 32q17 66 68 113t124 78q41 17 56 34t20 38q1 5 1 13
q0 16 -12 25t-41 9t-47.5 -15t-28.5 -51l-83 11q9 30 25 55t38.5 44t51 29.5t63.5 10.5q60 0 92 -26.5t32 -72.5z" />
    <glyph glyph-name="threequarters" unicode="&#xbe;" horiz-adv-x="741" 
d="M415 700q0 -12 -3 -26q-8 -35 -29 -58t-49 -31q27 -6 42 -26.5t15 -49.5v-10.5t-2 -11.5q-6 -30 -22.5 -54.5t-41 -42t-56 -27t-67.5 -9.5q-52 0 -91.5 29t-49.5 89l81 33q3 -37 25.5 -54.5t50.5 -17.5q31 0 55.5 12t31.5 43q1 5 1 13q0 45 -74 45h-47l16 74h41
q39 0 59 11t25 38q1 3 1 10q0 13 -11 21.5t-40 8.5q-27 0 -51 -16.5t-38 -46.5l-67 29q29 56 73.5 83.5t99.5 27.5q59 0 90.5 -22.5t31.5 -63.5zM136 -23h-81l629 826h81zM674 75h-61l-16 -75h-86l16 75h-202l13 63l263 282h85l-58 -272h61zM431 148h111l34 158z" />
    <glyph glyph-name="questiondown" unicode="&#xbf;" 
d="M470 463h-117l29 133h117zM529 -74q-30 -41 -71.5 -69.5t-91.5 -43.5t-104 -15q-48 0 -87 12.5t-67 35t-43 53t-15 66.5q0 20 4 36q15 72 53.5 118t99.5 83q25 16 46 29t37 28t27.5 34.5t17.5 47.5q2 8 5 22.5t4 25.5h106q-2 -13 -5 -29.5t-5 -25.5q-7 -36 -21.5 -63
t-35 -49t-45.5 -40t-54 -35q-45 -26 -74 -58.5t-39 -78.5q-2 -6 -2 -11.5v-11.5q0 -44 34.5 -70t87.5 -26q31 0 59.5 10t52.5 29t41.5 45.5t26.5 59.5l102 -17q-14 -51 -44 -92z" />
    <glyph glyph-name="Agrave" unicode="&#xc0;" horiz-adv-x="703" 
d="M571 819l-200 93l84 82l158 -103zM534 0l-32 222h-309l-128 -222h-120l445 780h145l113 -780h-114zM486.5 354q-3.5 26 -8.5 61.5t-11 76t-11 76.5t-8 64t-3 38v2h-3q-3 -8 -17.5 -34.5t-34.5 -63t-43.5 -77.5t-44.5 -77.5t-36 -63.5l-20 -36h245q-1 8 -4.5 34z" />
    <glyph glyph-name="Aacute" unicode="&#xc1;" horiz-adv-x="703" 
d="M368 819l-12 72l202 103l50 -82zM534 0l-32 222h-309l-128 -222h-120l445 780h145l113 -780h-114zM486.5 354q-3.5 26 -8.5 61.5t-11 76t-11 76.5t-8 64t-3 38v2h-3q-3 -8 -17.5 -34.5t-34.5 -63t-43.5 -77.5t-44.5 -77.5t-36 -63.5l-20 -36h245q-1 8 -4.5 34z" />
    <glyph glyph-name="Acircumflex" unicode="&#xc2;" horiz-adv-x="703" 
d="M602 820l-115 82l-151 -82l-32 51l147 113h105l101 -113zM534 0l-32 222h-309l-128 -222h-120l445 780h145l113 -780h-114zM486.5 354q-3.5 26 -8.5 61.5t-11 76t-11 76.5t-8 64t-3 38v2h-3q-3 -8 -17.5 -34.5t-34.5 -63t-43.5 -77.5t-44.5 -77.5t-36 -63.5l-20 -36h245
q-1 8 -4.5 34z" />
    <glyph glyph-name="Atilde" unicode="&#xc3;" horiz-adv-x="703" 
d="M658 883q-22 -19 -48.5 -34t-58.5 -15q-20 0 -37.5 9.5t-35.5 21.5q-13 8 -31 19.5t-35 11.5q-23 0 -46.5 -13t-61.5 -47l21 102q24 21 51 35t56 14q21 0 38.5 -10t34.5 -21q18 -11 34.5 -21t31.5 -10q23 0 47 13t61 47zM534 0l-32 222h-309l-128 -222h-120l445 780h145
l113 -780h-114zM486.5 354q-3.5 26 -8.5 61.5t-11 76t-11 76.5t-8 64t-3 38v2h-3q-3 -8 -17.5 -34.5t-34.5 -63t-43.5 -77.5t-44.5 -77.5t-36 -63.5l-20 -36h245q-1 8 -4.5 34z" />
    <glyph glyph-name="Adieresis" unicode="&#xc4;" horiz-adv-x="703" 
d="M628 840h-99l25 120h99zM420 840h-100l25 120h100zM534 0l-32 222h-309l-128 -222h-120l445 780h145l113 -780h-114zM486.5 354q-3.5 26 -8.5 61.5t-11 76t-11 76.5t-8 64t-3 38v2h-3q-3 -8 -17.5 -34.5t-34.5 -63t-43.5 -77.5t-44.5 -77.5t-36 -63.5l-20 -36h245
q-1 8 -4.5 34z" />
    <glyph glyph-name="Aring" unicode="&#xc5;" horiz-adv-x="703" 
d="M606 939v-11t-2 -12q-5 -23 -18 -43.5t-32 -36t-41.5 -24.5t-45.5 -9q-41 0 -66 26t-25 64v11t2 12q5 23 18 43.5t32 36t41.5 24.5t45.5 9q41 0 66 -26t25 -64zM534 0l-32 222h-309l-128 -222h-120l445 780h145l113 -780h-114zM549 927q0 20 -12.5 32.5t-33.5 12.5
q-23 0 -43.5 -16.5t-25.5 -39.5q-1 -4 -1 -12q0 -20 13 -32.5t33 -12.5q24 0 44 16.5t25 40.5q1 4 1 11zM486.5 354q-3.5 26 -8.5 61.5t-11 76t-11 76.5t-8 64t-3 38v2h-3q-3 -8 -17.5 -34.5t-34.5 -63t-43.5 -77.5t-44.5 -77.5t-36 -63.5l-20 -36h245q-1 8 -4.5 34z" />
    <glyph glyph-name="AE" unicode="&#xc6;" horiz-adv-x="899" 
d="M940 683h-311l-49 -233h265l-21 -95h-265l-54 -257h325l-21 -98h-427l45 210h-235l-156 -210h-113l579 780h459zM264 308h183l74 347z" />
    <glyph glyph-name="Ccedilla" unicode="&#xc7;" horiz-adv-x="722" 
d="M670 578q-14 53 -59 86t-111 33q-50 0 -98 -21.5t-88.5 -61t-71 -95.5t-45.5 -125q-6 -28 -8.5 -52.5t-2.5 -47.5q0 -53 14.5 -92.5t39.5 -65.5t59 -38.5t74 -12.5q32 0 64.5 8.5t62.5 24.5t56 39t45 51l56 -73q-25 -34 -58.5 -62t-73.5 -48.5t-86 -31.5t-96 -11h-4
l-6 -11q11 3 21 4t19 1q36 0 53.5 -17.5t17.5 -44.5q0 -5 -0.5 -9.5t-1.5 -9.5q-8 -38 -45.5 -61.5t-91.5 -23.5q-33 0 -60 7t-43 18l27 43q11 -8 30 -13t38 -5q29 0 44 10.5t19 27.5q0 2 0.5 3.5t0.5 3.5q0 10 -7 17t-21 7t-37 -9l-51 16l28 52q-100 19 -155.5 91.5
t-55.5 190.5q0 56 14 124q20 90 61 164.5t98.5 127.5t128.5 82.5t150 29.5q52 0 93.5 -11.5t72 -31.5t50.5 -47.5t29 -59.5z" />
    <glyph glyph-name="Egrave" unicode="&#xc8;" horiz-adv-x="668" 
d="M562 819l-200 93l84 82l158 -103zM697 683h-398l-49 -233h349l-21 -95h-349l-54 -257h417l-21 -98h-532l166 780h513z" />
    <glyph glyph-name="Eacute" unicode="&#xc9;" horiz-adv-x="668" 
d="M388 819l-12 72l202 103l50 -82zM697 683h-398l-49 -233h349l-21 -95h-349l-54 -257h417l-21 -98h-532l166 780h513z" />
    <glyph glyph-name="Ecircumflex" unicode="&#xca;" horiz-adv-x="668" 
d="M607 820l-115 82l-151 -82l-32 51l147 113h105l101 -113zM697 683h-398l-49 -233h349l-21 -95h-349l-54 -257h417l-21 -98h-532l166 780h513z" />
    <glyph glyph-name="Edieresis" unicode="&#xcb;" horiz-adv-x="668" 
d="M635 840h-99l25 120h99zM427 840h-100l25 120h100zM697 683h-398l-49 -233h349l-21 -95h-349l-54 -257h417l-21 -98h-532l166 780h513z" />
    <glyph glyph-name="Igrave" unicode="&#xcc;" horiz-adv-x="312" 
d="M376 819l-200 93l84 82l158 -103zM164 0h-118l166 780h118z" />
    <glyph glyph-name="Iacute" unicode="&#xcd;" horiz-adv-x="312" 
d="M178 819l-12 72l202 103l50 -82zM164 0h-118l166 780h118z" />
    <glyph glyph-name="Icircumflex" unicode="&#xce;" horiz-adv-x="312" 
d="M413 820l-115 82l-151 -82l-32 51l147 113h105l101 -113zM165 0h-118l166 780h118z" />
    <glyph glyph-name="Idieresis" unicode="&#xcf;" horiz-adv-x="312" 
d="M438 840h-99l25 120h99zM230 840h-100l25 120h100zM165 0h-118l166 780h118z" />
    <glyph glyph-name="Eth" unicode="&#xd0;" horiz-adv-x="777" 
d="M763 496q0 -49 -12 -105q-18 -83 -57.5 -154.5t-97.5 -124t-131.5 -82.5t-159.5 -30h-266l73 343h-59l15 72h59l78 365h260q72 0 127.5 -20t93.5 -57t57.5 -89.5t19.5 -117.5zM645 474q0 96 -55 152t-162 56h-129l-57 -267h215l-15 -72h-215l-52 -245h135q64 0 118 23
t96 63t70.5 93t41.5 114q9 44 9 83z" />
    <glyph glyph-name="Ntilde" unicode="&#xd1;" horiz-adv-x="772" 
d="M695 883q-22 -19 -48.5 -34t-58.5 -15q-20 0 -37.5 9.5t-35.5 21.5q-13 8 -31 19.5t-35 11.5q-23 0 -46.5 -13t-61.5 -47l21 102q24 21 51 35t56 14q21 0 38.5 -10t34.5 -21q18 -11 34.5 -21t31.5 -10q23 0 47 13t61 47zM627 0h-145l-174 527q-3 9 -6.5 25.5t-6.5 34.5
t-5.5 35t-3.5 29h-3q-5 -35 -13 -84t-19 -101l-99 -466h-109l166 780h142l173 -524q5 -14 9.5 -31t8.5 -34.5t7 -32.5t3 -25h3q2 13 5 34.5t6.5 45.5t8 48.5t8.5 43.5l101 475h109z" />
    <glyph glyph-name="Ograve" unicode="&#xd2;" horiz-adv-x="798" 
d="M615 819l-200 93l84 82l158 -103zM779 508q0 -58 -13 -117q-18 -86 -57 -161t-94.5 -130t-126 -86.5t-151.5 -31.5q-66 0 -116.5 21.5t-84 60t-50.5 92t-17 117.5q0 28 3 57.5t10 60.5q18 85 57 159.5t94.5 129.5t126 86.5t151.5 31.5q67 0 117 -21.5t83.5 -60.5
t50.5 -92t17 -116zM660 491q0 95 -44.5 151t-126.5 56q-49 0 -95.5 -22.5t-85 -63t-67 -97t-43.5 -124.5q-11 -55 -11 -99q0 -48 11.5 -86.5t33 -66t53.5 -42.5t73 -15q50 0 96.5 23t85 64t67 97.5t42.5 124.5q6 27 8.5 52t2.5 48z" />
    <glyph glyph-name="Oacute" unicode="&#xd3;" horiz-adv-x="798" 
d="M410 819l-12 72l202 103l50 -82zM779 508q0 -58 -13 -117q-18 -86 -57 -161t-94.5 -130t-126 -86.5t-151.5 -31.5q-66 0 -116.5 21.5t-84 60t-50.5 92t-17 117.5q0 28 3 57.5t10 60.5q18 85 57 159.5t94.5 129.5t126 86.5t151.5 31.5q67 0 117 -21.5t83.5 -60.5t50.5 -92
t17 -116zM660 491q0 95 -44.5 151t-126.5 56q-49 0 -95.5 -22.5t-85 -63t-67 -97t-43.5 -124.5q-11 -55 -11 -99q0 -48 11.5 -86.5t33 -66t53.5 -42.5t73 -15q50 0 96.5 23t85 64t67 97.5t42.5 124.5q6 27 8.5 52t2.5 48z" />
    <glyph glyph-name="Ocircumflex" unicode="&#xd4;" horiz-adv-x="798" 
d="M649 820l-115 82l-151 -82l-32 51l147 113h105l101 -113zM779 508q0 -58 -13 -117q-18 -86 -57 -161t-94.5 -130t-126 -86.5t-151.5 -31.5q-66 0 -116.5 21.5t-84 60t-50.5 92t-17 117.5q0 28 3 57.5t10 60.5q18 85 57 159.5t94.5 129.5t126 86.5t151.5 31.5
q67 0 117 -21.5t83.5 -60.5t50.5 -92t17 -116zM660 491q0 95 -44.5 151t-126.5 56q-49 0 -95.5 -22.5t-85 -63t-67 -97t-43.5 -124.5q-11 -55 -11 -99q0 -48 11.5 -86.5t33 -66t53.5 -42.5t73 -15q50 0 96.5 23t85 64t67 97.5t42.5 124.5q6 27 8.5 52t2.5 48z" />
    <glyph glyph-name="Otilde" unicode="&#xd5;" horiz-adv-x="798" 
d="M705 883q-22 -19 -48.5 -34t-58.5 -15q-20 0 -37.5 9.5t-35.5 21.5q-13 8 -31 19.5t-35 11.5q-23 0 -46.5 -13t-61.5 -47l21 102q24 21 51 35t56 14q21 0 38.5 -10t34.5 -21q18 -11 34.5 -21t31.5 -10q23 0 47 13t61 47zM779 508q0 -58 -13 -117q-18 -86 -57 -161
t-94.5 -130t-126 -86.5t-151.5 -31.5q-66 0 -116.5 21.5t-84 60t-50.5 92t-17 117.5q0 28 3 57.5t10 60.5q18 85 57 159.5t94.5 129.5t126 86.5t151.5 31.5q67 0 117 -21.5t83.5 -60.5t50.5 -92t17 -116zM660 491q0 95 -44.5 151t-126.5 56q-49 0 -95.5 -22.5t-85 -63
t-67 -97t-43.5 -124.5q-11 -55 -11 -99q0 -48 11.5 -86.5t33 -66t53.5 -42.5t73 -15q50 0 96.5 23t85 64t67 97.5t42.5 124.5q6 27 8.5 52t2.5 48z" />
    <glyph glyph-name="Odieresis" unicode="&#xd6;" horiz-adv-x="798" 
d="M672 840h-99l25 120h99zM464 840h-100l25 120h100zM779 508q0 -58 -13 -117q-18 -86 -57 -161t-94.5 -130t-126 -86.5t-151.5 -31.5q-66 0 -116.5 21.5t-84 60t-50.5 92t-17 117.5q0 28 3 57.5t10 60.5q18 85 57 159.5t94.5 129.5t126 86.5t151.5 31.5q67 0 117 -21.5
t83.5 -60.5t50.5 -92t17 -116zM660 491q0 95 -44.5 151t-126.5 56q-49 0 -95.5 -22.5t-85 -63t-67 -97t-43.5 -124.5q-11 -55 -11 -99q0 -48 11.5 -86.5t33 -66t53.5 -42.5t73 -15q50 0 96.5 23t85 64t67 97.5t42.5 124.5q6 27 8.5 52t2.5 48z" />
    <glyph glyph-name="multiply" unicode="&#xd7;" horiz-adv-x="660" 
d="M395 280l212 -212l-66 -66l-212 212l-212 -212l-66 66l212 212l-213 214l66 66l213 -214l213 214l66 -66z" />
    <glyph glyph-name="Oslash" unicode="&#xd8;" horiz-adv-x="798" 
d="M758 636q21 -57 21 -129q0 -58 -13 -116q-18 -86 -57 -161t-94.5 -130t-126 -86.5t-151.5 -31.5q-64 0 -113 20t-83 56l-96 -90l-42 48l101 94q-35 70 -35 163q0 28 3 57.5t10 60.5q18 85 57 159.5t94.5 129.5t126 86.5t151.5 31.5q76 0 130 -27.5t88 -76.5l95 89l41 -47
zM579.5 674.5q-37.5 23.5 -90.5 23.5q-49 0 -95.5 -22.5t-85 -63t-67 -97t-43.5 -124.5q-24 -113 3 -191l436 408q-20 43 -57.5 66.5zM661 492q0 13 -1 25t-3 24l-427 -400q45 -59 128 -59q50 0 96.5 23t85 64t67 97.5t42.5 124.5q12 54 12 101z" />
    <glyph glyph-name="Ugrave" unicode="&#xd9;" horiz-adv-x="774" 
d="M588 819l-200 93l84 82l158 -103zM673 254q-13 -64 -46 -114.5t-79.5 -85.5t-104 -53.5t-120.5 -18.5q-113 0 -178 54t-65 151q0 33 7 67l112 526h116l-110 -515q-6 -28 -6 -54q0 -64 37.5 -97t107.5 -33q83 0 141 46.5t78 137.5l110 515h112z" />
    <glyph glyph-name="Uacute" unicode="&#xda;" horiz-adv-x="774" 
d="M408 819l-12 72l202 103l50 -82zM673 254q-13 -64 -46 -114.5t-79.5 -85.5t-104 -53.5t-120.5 -18.5q-113 0 -178 54t-65 151q0 33 7 67l112 526h116l-110 -515q-6 -28 -6 -54q0 -64 37.5 -97t107.5 -33q83 0 141 46.5t78 137.5l110 515h112z" />
    <glyph glyph-name="Ucircumflex" unicode="&#xdb;" horiz-adv-x="774" 
d="M635 820l-115 82l-151 -82l-32 51l147 113h105l101 -113zM673 254q-13 -64 -46 -114.5t-79.5 -85.5t-104 -53.5t-120.5 -18.5q-113 0 -178 54t-65 151q0 33 7 67l112 526h116l-110 -515q-6 -28 -6 -54q0 -64 37.5 -97t107.5 -33q83 0 141 46.5t78 137.5l110 515h112z" />
    <glyph glyph-name="Udieresis" unicode="&#xdc;" horiz-adv-x="774" 
d="M661 840h-99l25 120h99zM453 840h-100l25 120h100zM673 254q-13 -64 -46 -114.5t-79.5 -85.5t-104 -53.5t-120.5 -18.5q-113 0 -178 54t-65 151q0 33 7 67l112 526h116l-110 -515q-6 -28 -6 -54q0 -64 37.5 -97t107.5 -33q83 0 141 46.5t78 137.5l110 515h112z" />
    <glyph glyph-name="Yacute" unicode="&#xdd;" horiz-adv-x="617" 
d="M343 819l-12 72l202 103l50 -82zM371 283l-60 -283h-115l60 283l-153 497h114l115 -384l281 384h121z" />
    <glyph glyph-name="Thorn" unicode="&#xde;" horiz-adv-x="691" 
d="M684 468q0 -32 -7 -63q-12 -56 -39 -102.5t-66 -80.5t-88.5 -52.5t-107.5 -18.5h-190l-32 -151h-115l166 780h115l-26 -121h191q93 0 146 -52t53 -139zM567 444q0 57 -36 87.5t-95 30.5h-165l-66 -314h167q32 0 63 10t56.5 30t44.5 49.5t27 67.5q4 19 4 39z" />
    <glyph glyph-name="germandbls" unicode="&#xdf;" horiz-adv-x="592" 
d="M581 656q0 -24 -6 -54q-11 -51 -42.5 -100.5t-80.5 -77.5q39 -14 65.5 -50.5t26.5 -93.5q0 -23 -6 -52q-26 -121 -94 -178t-157 -57q-32 0 -69.5 10.5t-74.5 34.5l62 100q28 -22 56 -32t54 -10q39 0 72.5 32t47.5 100q4 17 4 35q0 29 -11 50t-30.5 35t-46 21t-57.5 7h-61
l19 92h61q38 0 66 13t47 32.5t30 43.5t15 45q3 14 3 25q0 36 -23 56.5t-65 20.5q-57 0 -93.5 -37.5t-50.5 -103.5l-120 -563h-103l120 563q23 107 88.5 170t177.5 63q81 0 128.5 -33.5t47.5 -106.5z" />
    <glyph glyph-name="agrave" unicode="&#xe0;" horiz-adv-x="591" 
d="M436 624l-168 112l90 75l125 -118zM507 -6q-27 -6 -51.5 -4.5t-42.5 10.5t-27.5 25.5t-7.5 40.5q-16 -19 -40.5 -33.5t-53.5 -24.5t-62 -15t-65 -5q-85 0 -119 38t-21 107q8 42 27.5 73.5t49.5 54.5t69.5 39t86.5 26q32 7 62 16t54 19.5t39 21.5t17 23q9 42 -17.5 57
t-84.5 15q-21 0 -47.5 -6.5t-53 -18t-50.5 -27.5t-40 -36l-30 80q44 44 108.5 69.5t137.5 25.5q109 0 159 -39.5t31 -127.5l-56 -263q-8 -38 11.5 -49t57.5 -1zM345.5 274q-38.5 -14 -84.5 -25q-56 -13 -92 -34.5t-44 -71.5q-10 -69 74 -69q22 0 48.5 6t51 17.5t45.5 28
t32 37.5l30 143q-22 -18 -60.5 -32z" />
    <glyph glyph-name="aacute" unicode="&#xe1;" horiz-adv-x="591" 
d="M281 624l-19 69l175 118l58 -75zM507 -6q-27 -6 -51.5 -4.5t-42.5 10.5t-27.5 25.5t-7.5 40.5q-16 -19 -40.5 -33.5t-53.5 -24.5t-62 -15t-65 -5q-85 0 -119 38t-21 107q8 42 27.5 73.5t49.5 54.5t69.5 39t86.5 26q32 7 62 16t54 19.5t39 21.5t17 23q9 42 -17.5 57
t-84.5 15q-21 0 -47.5 -6.5t-53 -18t-50.5 -27.5t-40 -36l-30 80q44 44 108.5 69.5t137.5 25.5q109 0 159 -39.5t31 -127.5l-56 -263q-8 -38 11.5 -49t57.5 -1zM345.5 274q-38.5 -14 -84.5 -25q-56 -13 -92 -34.5t-44 -71.5q-10 -69 74 -69q22 0 48.5 6t51 17.5t45.5 28
t32 37.5l30 143q-22 -18 -60.5 -32z" />
    <glyph glyph-name="acircumflex" unicode="&#xe2;" horiz-adv-x="591" 
d="M496 630l-116 82l-150 -82l-32 51l147 113h105l101 -113zM507 -6q-27 -6 -51.5 -4.5t-42.5 10.5t-27.5 25.5t-7.5 40.5q-16 -19 -40.5 -33.5t-53.5 -24.5t-62 -15t-65 -5q-85 0 -119 38t-21 107q8 42 27.5 73.5t49.5 54.5t69.5 39t86.5 26q32 7 62 16t54 19.5t39 21.5
t17 23q9 42 -17.5 57t-84.5 15q-21 0 -47.5 -6.5t-53 -18t-50.5 -27.5t-40 -36l-30 80q44 44 108.5 69.5t137.5 25.5q109 0 159 -39.5t31 -127.5l-56 -263q-8 -38 11.5 -49t57.5 -1zM345.5 274q-38.5 -14 -84.5 -25q-56 -13 -92 -34.5t-44 -71.5q-10 -69 74 -69q22 0 48.5 6
t51 17.5t45.5 28t32 37.5l30 143q-22 -18 -60.5 -32z" />
    <glyph glyph-name="atilde" unicode="&#xe3;" horiz-adv-x="591" 
d="M551 704q-22 -19 -48.5 -34t-58.5 -15q-20 0 -37.5 9.5t-35.5 21.5q-13 8 -31 19.5t-35 11.5q-23 0 -46.5 -13t-61.5 -47l21 102q24 21 51 35t56 14q21 0 38.5 -10t34.5 -21q18 -11 34.5 -21t31.5 -10q23 0 47 13t61 47zM507 -6q-27 -6 -51.5 -4.5t-42.5 10.5t-27.5 25.5
t-7.5 40.5q-16 -19 -40.5 -33.5t-53.5 -24.5t-62 -15t-65 -5q-85 0 -119 38t-21 107q8 42 27.5 73.5t49.5 54.5t69.5 39t86.5 26q32 7 62 16t54 19.5t39 21.5t17 23q9 42 -17.5 57t-84.5 15q-21 0 -47.5 -6.5t-53 -18t-50.5 -27.5t-40 -36l-30 80q44 44 108.5 69.5
t137.5 25.5q109 0 159 -39.5t31 -127.5l-56 -263q-8 -38 11.5 -49t57.5 -1zM345.5 274q-38.5 -14 -84.5 -25q-56 -13 -92 -34.5t-44 -71.5q-10 -69 74 -69q22 0 48.5 6t51 17.5t45.5 28t32 37.5l30 143q-22 -18 -60.5 -32z" />
    <glyph glyph-name="adieresis" unicode="&#xe4;" horiz-adv-x="591" 
d="M518 670h-99l26 120h99zM324 670h-100l26 120h100zM507 -6q-27 -6 -51.5 -4.5t-42.5 10.5t-27.5 25.5t-7.5 40.5q-16 -19 -40.5 -33.5t-53.5 -24.5t-62 -15t-65 -5q-85 0 -119 38t-21 107q8 42 27.5 73.5t49.5 54.5t69.5 39t86.5 26q32 7 62 16t54 19.5t39 21.5t17 23
q9 42 -17.5 57t-84.5 15q-21 0 -47.5 -6.5t-53 -18t-50.5 -27.5t-40 -36l-30 80q44 44 108.5 69.5t137.5 25.5q109 0 159 -39.5t31 -127.5l-56 -263q-8 -38 11.5 -49t57.5 -1zM345.5 274q-38.5 -14 -84.5 -25q-56 -13 -92 -34.5t-44 -71.5q-10 -69 74 -69q22 0 48.5 6
t51 17.5t45.5 28t32 37.5l30 143q-22 -18 -60.5 -32z" />
    <glyph glyph-name="aring" unicode="&#xe5;" horiz-adv-x="591" 
d="M496 727q-5 -23 -18.5 -43.5t-32 -36t-41 -24.5t-45.5 -9t-42 9t-31 24.5t-16.5 36t0.5 43.5t18 43.5t32 36t41.5 24.5t45.5 9t42 -9t31 -24.5t16.5 -36t-0.5 -43.5zM507 -6q-27 -6 -51.5 -4.5t-42.5 10.5t-27.5 25.5t-7.5 40.5q-16 -19 -40.5 -33.5t-53.5 -24.5t-62 -15
t-65 -5q-85 0 -119 38t-21 107q8 42 27.5 73.5t49.5 54.5t69.5 39t86.5 26q32 7 62 16t54 19.5t39 21.5t17 23q9 42 -17.5 57t-84.5 15q-21 0 -47.5 -6.5t-53 -18t-50.5 -27.5t-40 -36l-30 80q44 44 108.5 69.5t137.5 25.5q109 0 159 -39.5t31 -127.5l-56 -263
q-8 -38 11.5 -49t57.5 -1zM440 727q5 23 -8.5 39.5t-37.5 16.5q-23 0 -43 -16.5t-25 -39.5q-5 -24 8 -40.5t36 -16.5q24 0 44.5 16.5t25.5 40.5zM345.5 274q-38.5 -14 -84.5 -25q-56 -13 -92 -34.5t-44 -71.5q-10 -69 74 -69q22 0 48.5 6t51 17.5t45.5 28t32 37.5l30 143
q-22 -18 -60.5 -32z" />
    <glyph glyph-name="ae" unicode="&#xe6;" horiz-adv-x="907" 
d="M887 374q0 -21 -2.5 -43.5t-8.5 -47.5l-393 -54q-1 -7 -1.5 -13t-0.5 -13q0 -60 34 -93t94 -33q55 0 105.5 28.5t85.5 79.5l36 -70q-50 -60 -109.5 -93.5t-141.5 -33.5q-69 0 -114.5 28t-67.5 80q-25 -33 -56.5 -54t-65 -33t-67.5 -16.5t-65 -4.5q-70 0 -104.5 28
t-34.5 81q0 8 1 17t3 19q15 82 71.5 127.5t145.5 65.5q30 7 59.5 14.5t54 17.5t40.5 21.5t19 26.5q1 5 1.5 9t0.5 9q0 31 -27.5 42.5t-78.5 11.5q-21 0 -45 -6.5t-48 -18t-45.5 -27.5t-37.5 -36l-29 80q43 44 100.5 69.5t129.5 25.5q75 0 120.5 -18.5t60.5 -60.5
q40 38 89 58.5t106 20.5q90 0 138 -50.5t48 -140.5zM791 370q0 49 -28 78t-82 29q-69 0 -117 -46t-68 -129l293 41q1 7 1.5 13.5t0.5 13.5zM407 318q-14 -11 -34 -20t-42 -16.5t-45 -14t-44 -11.5q-54 -13 -88 -38t-42 -75q-1 -4 -1 -8v-7q0 -54 73 -54q20 0 48 5.5t57 17.5
t55 31.5t43 46.5q-3 47 9 102q2 11 5 21z" />
    <glyph glyph-name="ccedilla" unicode="&#xe7;" horiz-adv-x="576" 
d="M524 396q-20 40 -56.5 59.5t-82.5 19.5q-33 0 -68.5 -11.5t-67 -36t-56 -62t-35.5 -88.5q-6 -28 -6 -53q0 -37 12.5 -64.5t33 -45.5t47.5 -27t57 -9q46 0 94.5 20.5t83.5 60.5l21 -82q-48 -45 -104 -67t-129 -22h-7l-9 -17q11 3 21 4t19 1q36 0 53.5 -17.5t17.5 -44.5
q0 -5 -0.5 -9.5t-1.5 -9.5q-8 -38 -45.5 -61.5t-91.5 -23.5q-33 0 -60 7t-43 18l27 43q11 -8 30 -13t38 -5q29 0 44 10.5t19 27.5q0 2 0.5 3.5t0.5 3.5q0 10 -7 17t-21 7t-37 -9l-51 16l33 60q-69 17 -113 68t-44 137q0 18 1.5 37t6.5 39q15 69 48 123t79 90.5t101.5 55.5
t114.5 19q69 0 115.5 -20.5t75.5 -60.5z" />
    <glyph glyph-name="egrave" unicode="&#xe8;" horiz-adv-x="602" 
d="M460 624l-168 112l90 75l125 -118zM578 369q0 -41 -12 -91l-427 -54q0 -5 -0.5 -8.5t-0.5 -7.5q0 -62 39 -96.5t104 -34.5q57 0 112.5 28.5t92.5 79.5l41 -70q-53 -60 -118.5 -93.5t-153.5 -33.5q-102 0 -159 56t-57 153q0 38 9 80q13 63 42.5 115.5t72 91t96.5 60
t116 21.5q97 0 150 -52t53 -144zM477 367q0 48 -32.5 79t-89.5 31q-72 0 -126.5 -45.5t-74.5 -124.5l322 42q1 5 1 9v9z" />
    <glyph glyph-name="eacute" unicode="&#xe9;" horiz-adv-x="602" 
d="M289 624l-19 69l175 118l58 -75zM578 369q0 -41 -12 -91l-427 -54q0 -5 -0.5 -8.5t-0.5 -7.5q0 -62 39 -96.5t104 -34.5q57 0 112.5 28.5t92.5 79.5l41 -70q-53 -60 -118.5 -93.5t-153.5 -33.5q-102 0 -159 56t-57 153q0 38 9 80q13 63 42.5 115.5t72 91t96.5 60
t116 21.5q97 0 150 -52t53 -144zM477 367q0 48 -32.5 79t-89.5 31q-72 0 -126.5 -45.5t-74.5 -124.5l322 42q1 5 1 9v9z" />
    <glyph glyph-name="ecircumflex" unicode="&#xea;" horiz-adv-x="602" 
d="M510 630l-116 82l-150 -82l-32 51l147 113h105l101 -113zM578 369q0 -41 -12 -91l-427 -54q0 -5 -0.5 -8.5t-0.5 -7.5q0 -62 39 -96.5t104 -34.5q57 0 112.5 28.5t92.5 79.5l41 -70q-53 -60 -118.5 -93.5t-153.5 -33.5q-102 0 -159 56t-57 153q0 38 9 80
q13 63 42.5 115.5t72 91t96.5 60t116 21.5q97 0 150 -52t53 -144zM477 367q0 48 -32.5 79t-89.5 31q-72 0 -126.5 -45.5t-74.5 -124.5l322 42q1 5 1 9v9z" />
    <glyph glyph-name="edieresis" unicode="&#xeb;" horiz-adv-x="602" 
d="M536 670h-99l26 120h99zM342 670h-100l26 120h100zM578 369q0 -41 -12 -91l-427 -54q0 -5 -0.5 -8.5t-0.5 -7.5q0 -62 39 -96.5t104 -34.5q57 0 112.5 28.5t92.5 79.5l41 -70q-53 -60 -118.5 -93.5t-153.5 -33.5q-102 0 -159 56t-57 153q0 38 9 80q13 63 42.5 115.5
t72 91t96.5 60t116 21.5q97 0 150 -52t53 -144zM477 367q0 48 -32.5 79t-89.5 31q-72 0 -126.5 -45.5t-74.5 -124.5l322 42q1 5 1 9v9z" />
    <glyph glyph-name="igrave" unicode="&#xec;" horiz-adv-x="264" 
d="M288 624l-168 112l90 75l125 -118zM132 0h-111l118 553h111z" />
    <glyph glyph-name="iacute" unicode="&#xed;" horiz-adv-x="264" 
d="M129 624l-19 69l175 118l58 -75zM132 0h-111l118 553h111z" />
    <glyph glyph-name="icircumflex" unicode="&#xee;" horiz-adv-x="264" 
d="M343 630l-116 82l-150 -82l-32 51l147 113h105l101 -113zM132 0h-111l118 553h111z" />
    <glyph glyph-name="idieresis" unicode="&#xef;" horiz-adv-x="264" 
d="M365 670h-99l26 120h99zM171 670h-100l26 120h100zM132 0h-111l118 553h111z" />
    <glyph glyph-name="eth" unicode="&#xf0;" horiz-adv-x="620" 
d="M567 687q24 -38 34 -84.5t10 -95.5q0 -61 -11 -121t-25 -111q-13 -48 -37.5 -99t-64 -92.5t-94.5 -68t-128 -26.5q-94 0 -147 50t-53 149q0 20 2.5 43t7.5 48q14 65 42.5 116.5t69 88t91 56t108.5 19.5q18 0 39 -4t40.5 -11.5t35.5 -18t24 -23.5q0 17 -3.5 37t-10 40
t-15.5 38t-21 31l-223 -85l-13 60l179 67q-24 7 -55 7q-41 0 -82 -10.5t-64 -23.5l-1 95q35 15 77 23t84 8q51 0 95 -12.5t69 -38.5l86 34l12 -60zM478 344q0 63 -32.5 94t-90.5 31q-72 0 -118 -49.5t-66 -140.5q-9 -40 -9 -74q0 -57 26.5 -91.5t83.5 -34.5q38 0 70 15
t57.5 42t43.5 63.5t27 79.5q4 18 6 34t2 31z" />
    <glyph glyph-name="ntilde" unicode="&#xf1;" horiz-adv-x="632" 
d="M580 704q-22 -19 -48.5 -34t-58.5 -15q-20 0 -37.5 9.5t-35.5 21.5q-13 8 -31 19.5t-35 11.5q-23 0 -46.5 -13t-61.5 -47l21 102q24 21 51 35t56 14q21 0 38.5 -10t34.5 -21q18 -11 34.5 -21t31.5 -10q23 0 47 13t61 47zM588 420q0 -11 -1.5 -22.5t-3.5 -23.5l-79 -374
h-109l76 357q3 17 3 30q0 42 -26.5 65t-71.5 23q-49 0 -95 -25.5t-74 -76.5l-79 -373h-109l118 553h100l-17 -76q28 38 81 63t122 25q77 0 121 -39.5t44 -105.5z" />
    <glyph glyph-name="ograve" unicode="&#xf2;" horiz-adv-x="636" 
d="M473 624l-168 112l90 75l125 -118zM605 356q0 -37 -9 -79q-14 -66 -44.5 -119.5t-74 -91t-98.5 -58t-119 -20.5q-106 0 -163.5 56t-57.5 153q0 38 9 80q14 66 44.5 119t74 90.5t98.5 58t118 20.5q108 0 165 -56t57 -153zM492 338q0 66 -34 101.5t-94 35.5
q-34 0 -67 -13.5t-60.5 -39t-47.5 -62t-30 -83.5q-3 -16 -5 -30.5t-2 -28.5q0 -67 35 -104t92 -37q36 0 69 13.5t60 39t47 63t30 84.5q7 31 7 61z" />
    <glyph glyph-name="oacute" unicode="&#xf3;" horiz-adv-x="636" 
d="M301 624l-19 69l175 118l58 -75zM605 356q0 -37 -9 -79q-14 -66 -44.5 -119.5t-74 -91t-98.5 -58t-119 -20.5q-106 0 -163.5 56t-57.5 153q0 38 9 80q14 66 44.5 119t74 90.5t98.5 58t118 20.5q108 0 165 -56t57 -153zM492 338q0 66 -34 101.5t-94 35.5q-34 0 -67 -13.5
t-60.5 -39t-47.5 -62t-30 -83.5q-3 -16 -5 -30.5t-2 -28.5q0 -67 35 -104t92 -37q36 0 69 13.5t60 39t47 63t30 84.5q7 31 7 61z" />
    <glyph glyph-name="ocircumflex" unicode="&#xf4;" horiz-adv-x="636" 
d="M529 630l-116 82l-150 -82l-32 51l147 113h105l101 -113zM605 356q0 -37 -9 -79q-14 -66 -44.5 -119.5t-74 -91t-98.5 -58t-119 -20.5q-106 0 -163.5 56t-57.5 153q0 38 9 80q14 66 44.5 119t74 90.5t98.5 58t118 20.5q108 0 165 -56t57 -153zM492 338q0 66 -34 101.5
t-94 35.5q-34 0 -67 -13.5t-60.5 -39t-47.5 -62t-30 -83.5q-3 -16 -5 -30.5t-2 -28.5q0 -67 35 -104t92 -37q36 0 69 13.5t60 39t47 63t30 84.5q7 31 7 61z" />
    <glyph glyph-name="otilde" unicode="&#xf5;" horiz-adv-x="636" 
d="M591 704q-22 -19 -48.5 -34t-58.5 -15q-20 0 -37.5 9.5t-35.5 21.5q-13 8 -31 19.5t-35 11.5q-23 0 -46.5 -13t-61.5 -47l21 102q24 21 51 35t56 14q21 0 38.5 -10t34.5 -21q18 -11 34.5 -21t31.5 -10q23 0 47 13t61 47zM605 356q0 -37 -9 -79q-14 -66 -44.5 -119.5
t-74 -91t-98.5 -58t-119 -20.5q-106 0 -163.5 56t-57.5 153q0 38 9 80q14 66 44.5 119t74 90.5t98.5 58t118 20.5q108 0 165 -56t57 -153zM492 338q0 66 -34 101.5t-94 35.5q-34 0 -67 -13.5t-60.5 -39t-47.5 -62t-30 -83.5q-3 -16 -5 -30.5t-2 -28.5q0 -67 35 -104t92 -37
q36 0 69 13.5t60 39t47 63t30 84.5q7 31 7 61z" />
    <glyph glyph-name="odieresis" unicode="&#xf6;" horiz-adv-x="636" 
d="M550 670h-99l26 120h99zM356 670h-100l26 120h100zM605 356q0 -37 -9 -79q-14 -66 -44.5 -119.5t-74 -91t-98.5 -58t-119 -20.5q-106 0 -163.5 56t-57.5 153q0 38 9 80q14 66 44.5 119t74 90.5t98.5 58t118 20.5q108 0 165 -56t57 -153zM492 338q0 66 -34 101.5t-94 35.5
q-34 0 -67 -13.5t-60.5 -39t-47.5 -62t-30 -83.5q-3 -16 -5 -30.5t-2 -28.5q0 -67 35 -104t92 -37q36 0 69 13.5t60 39t47 63t30 84.5q7 31 7 61z" />
    <glyph glyph-name="divide" unicode="&#xf7;" horiz-adv-x="660" 
d="M405 496q0 -31 -22 -52.5t-53 -21.5t-53 21.5t-22 52.5q0 32 22 53.5t53 21.5t53 -21.5t22 -53.5zM52 248v91h555v-91h-555zM405 78q0 -31 -22 -53t-53 -22t-53 22t-22 53q0 32 22 53.5t53 21.5t53 -21.5t22 -53.5z" />
    <glyph glyph-name="oslash" unicode="&#xf8;" horiz-adv-x="636" 
d="M579 467q26 -47 26 -111q0 -37 -9 -79q-14 -66 -44.5 -119.5t-74 -91t-98.5 -58t-119 -20.5q-93 0 -150 45l-67 -62l-38 45l65 60q-31 51 -31 123q0 36 9 78q14 66 44.5 119t74 90.5t98.5 58t118 20.5q52 0 92 -13.5t68 -39.5l58 54l38 -45zM364 475q-34 0 -67 -13.5
t-60 -39t-47.5 -62t-30.5 -83.5q-3 -16 -5 -30t-2 -28q0 -17 2.5 -31.5t6.5 -27.5l300 276q-34 39 -97 39zM492 338q0 12 -1.5 22.5t-3.5 20.5l-295 -272q34 -32 87 -32q36 0 69 13.5t60 39t47 63t30 84.5q7 31 7 61z" />
    <glyph glyph-name="ugrave" unicode="&#xf9;" horiz-adv-x="632" 
d="M458 624l-168 112l90 75l125 -118zM503 0h-101l16 75q-29 -39 -83.5 -63t-118.5 -24q-76 0 -121.5 39t-45.5 105q0 11 1.5 21.5t3.5 21.5l81 378h109l-75 -353q-3 -16 -3 -30q0 -42 26.5 -65t70.5 -23q50 0 96 25.5t73 76.5l79 369h110z" />
    <glyph glyph-name="uacute" unicode="&#xfa;" horiz-adv-x="632" 
d="M303 624l-19 69l175 118l58 -75zM503 0h-101l16 75q-29 -39 -83.5 -63t-118.5 -24q-76 0 -121.5 39t-45.5 105q0 11 1.5 21.5t3.5 21.5l81 378h109l-75 -353q-3 -16 -3 -30q0 -42 26.5 -65t70.5 -23q50 0 96 25.5t73 76.5l79 369h110z" />
    <glyph glyph-name="ucircumflex" unicode="&#xfb;" horiz-adv-x="632" 
d="M527 630l-116 82l-150 -82l-32 51l147 113h105l101 -113zM503 0h-101l16 75q-29 -39 -83.5 -63t-118.5 -24q-76 0 -121.5 39t-45.5 105q0 11 1.5 21.5t3.5 21.5l81 378h109l-75 -353q-3 -16 -3 -30q0 -42 26.5 -65t70.5 -23q50 0 96 25.5t73 76.5l79 369h110z" />
    <glyph glyph-name="udieresis" unicode="&#xfc;" horiz-adv-x="632" 
d="M546 670h-99l26 120h99zM352 670h-100l26 120h100zM503 0h-101l16 75q-29 -39 -83.5 -63t-118.5 -24q-76 0 -121.5 39t-45.5 105q0 11 1.5 21.5t3.5 21.5l81 378h109l-75 -353q-3 -16 -3 -30q0 -42 26.5 -65t70.5 -23q50 0 96 25.5t73 76.5l79 369h110z" />
    <glyph glyph-name="yacute" unicode="&#xfd;" horiz-adv-x="555" 
d="M265 624l-19 69l175 118l58 -75zM274 -43q-24 -44 -51.5 -74.5t-62 -49.5t-78 -27.5t-99.5 -8.5l-9 95h16q44 0 72.5 5t50 18.5t39.5 37.5t39 62l-113 538h114l69 -332q3 -15 5 -35.5t2 -42.5q0 -6 -0.5 -12t-0.5 -12q8 24 19 49t26 53l177 332h112z" />
    <glyph glyph-name="thorn" unicode="&#xfe;" horiz-adv-x="629" 
d="M600 372q0 -22 -3 -45.5t-8 -49.5q-15 -71 -44 -125t-68 -90.5t-87 -55t-102 -18.5q-49 0 -89 19t-59 48l-55 -257h-109l209 982h109l-63 -295q26 37 75 58.5t105 21.5q90 0 139.5 -49t49.5 -144zM487 346q0 66 -32 98t-87 32q-29 0 -57 -11t-51 -30t-39.5 -44t-22.5 -54
l-38 -178q18 -36 46.5 -59.5t77.5 -23.5q33 0 63.5 12.5t56 37t45 62.5t30.5 89q8 40 8 69z" />
    <glyph glyph-name="ydieresis" unicode="&#xff;" horiz-adv-x="555" 
d="M513 670h-99l26 120h99zM319 670h-100l26 120h100zM274 -43q-24 -44 -51.5 -74.5t-62 -49.5t-78 -27.5t-99.5 -8.5l-9 95h16q44 0 72.5 5t50 18.5t39.5 37.5t39 62l-113 538h114l69 -332q3 -15 5 -35.5t2 -42.5q0 -6 -0.5 -12t-0.5 -12q8 24 19 49t26 53l177 332h112z
" />
    <glyph glyph-name="OE" unicode="&#x152;" horiz-adv-x="909" 
d="M950 683h-311l-49 -233h265l-21 -95h-265l-54 -257h325l-21 -98h-427l7 32q-29 -23 -66 -36.5t-80 -13.5q-96 0 -147 62.5t-51 183.5q0 71 20 166q20 92 53.5 166.5t79 127t101 81.5t117.5 29q41 0 75 -13.5t51 -33.5l6 29h413zM481.5 674.5q-27.5 21.5 -70.5 21.5
q-36 0 -71 -20.5t-65 -59.5t-54.5 -95t-39.5 -127q-9 -41 -13 -76t-4 -65q0 -86 31.5 -127t86.5 -41q40 0 77 23.5t69 61.5l94 443q-13 40 -40.5 61.5z" />
    <glyph glyph-name="oe" unicode="&#x153;" horiz-adv-x="962" 
d="M942 374q0 -21 -2.5 -43.5t-8.5 -47.5l-393 -54q-1 -7 -1.5 -13t-0.5 -13q0 -60 34 -93t94 -33q55 0 105.5 28.5t85.5 79.5l36 -70q-50 -60 -109.5 -93.5t-141.5 -33.5q-67 0 -112.5 27t-67.5 78q-42 -51 -99.5 -78t-124.5 -27q-94 0 -145 54t-51 148q0 43 10 87
q14 66 42.5 119t69 90.5t90.5 58t107 20.5q67 0 112 -27t66 -78q42 49 97.5 77t121.5 28q90 0 138 -50.5t48 -140.5zM846 370q0 49 -28 78t-82 29q-69 0 -117 -46t-68 -129l293 41q1 7 1.5 13.5t0.5 13.5zM453 341q0 65 -30.5 99.5t-82.5 34.5q-31 0 -61 -13.5t-55.5 -39
t-45 -62t-29.5 -83.5q-7 -31 -7 -62q0 -66 31 -102t82 -36q32 0 62 13.5t55.5 39t44.5 63t29 84.5q4 17 5.5 33.5t1.5 30.5z" />
    <glyph glyph-name="Scaron" unicode="&#x160;" horiz-adv-x="681" 
d="M509 828h-105l-99 113l54 51l115 -82l151 82l33 -51zM577 580q-8 63 -46 92.5t-100 29.5q-34 0 -63.5 -9t-51.5 -24t-36.5 -35.5t-19.5 -43.5q-1 -5 -1.5 -10.5t-0.5 -10.5q0 -29 21.5 -51.5t71.5 -39.5l109 -38q75 -26 115 -67t40 -107q0 -23 -6 -52
q-23 -109 -107 -170.5t-218 -61.5q-114 0 -176.5 55.5t-73.5 146.5l99 58q5 -35 19.5 -64.5t36.5 -50.5t51.5 -33t63.5 -12q76 0 126 33.5t61 87.5q3 15 3 29q0 38 -26.5 64t-81.5 46l-105 39q-71 26 -105 62t-34 92q0 23 6 50q9 44 35.5 82.5t65.5 67.5t90 46t109 17
q101 0 158 -37.5t71 -118.5z" />
    <glyph glyph-name="scaron" unicode="&#x161;" horiz-adv-x="538" 
d="M401 637h-105l-99 113l54 51l116 -82l150 82l33 -51zM467 394q-20 40 -59.5 62.5t-93.5 22.5q-50 0 -80 -16.5t-37 -46.5q-1 -3 -1 -6.5v-6.5q0 -22 22 -37t81 -29q93 -22 137 -57t44 -93q0 -19 -4 -38q-17 -76 -82 -118.5t-180 -42.5q-74 0 -131.5 31t-79.5 81l67 83
q20 -46 66 -75t100 -29q57 0 89 18t39 51q1 5 1.5 9t0.5 9q0 31 -30.5 50.5t-95.5 33.5q-82 18 -119 51.5t-37 79.5q0 8 1 15.5t3 15.5q7 34 27 62t51.5 48.5t73.5 31.5t93 11q77 0 128 -25t69 -65z" />
    <glyph glyph-name="Ydieresis" unicode="&#x178;" horiz-adv-x="617" 
d="M589 840h-99l25 120h99zM381 840h-100l25 120h100zM371 283l-60 -283h-115l60 283l-153 497h114l115 -384l281 384h121z" />
    <glyph glyph-name="florin" unicode="&#x192;" horiz-adv-x="540" 
d="M604 654q-17 11 -33.5 17t-33.5 6q-18 0 -36 -9q-22 -11 -39 -40t-39 -84q-8 -18 -16 -38.5t-15 -40.5h99l-14 -67h-110q-18 -49 -36 -99t-35 -96.5t-32 -86.5t-27 -69q-40 -93 -79.5 -143t-80.5 -72q-39 -22 -83 -22q-37 0 -77 17l27 77q17 -11 33.5 -17t33.5 -6
q18 0 36 9q22 11 40 43t38 80q36 86 72 188t71 197h-113l14 67h124q4 12 8.5 23.5t9.5 22.5q37 91 78 141.5t81 73.5q41 22 84 22q37 0 76 -17z" />
    <glyph glyph-name="circumflex" unicode="&#x2c6;" horiz-adv-x="500" 
d="M464 630l-116 82l-150 -82l-32 51l147 113h105l101 -113z" />
    <glyph glyph-name="tilde" unicode="&#x2dc;" horiz-adv-x="500" 
d="M518 704q-22 -19 -48.5 -34t-58.5 -15q-20 0 -37.5 9.5t-35.5 21.5q-13 8 -31 19.5t-35 11.5q-23 0 -46.5 -13t-61.5 -47l21 102q24 21 51 35t56 14q21 0 38.5 -10t34.5 -21q18 -11 34.5 -21t31.5 -10q23 0 47 13t61 47z" />
    <glyph glyph-name="acutecomb" unicode="&#x301;" horiz-adv-x="500" 
d="M252 624l-19 69l175 118l58 -75z" />
    <glyph glyph-name="uni0306" unicode="&#x306;" horiz-adv-x="500" 
d="M492.5 736q-19.5 -20 -44 -34.5t-52.5 -22.5t-56 -8t-52.5 8t-43 22.5t-30 34.5t-12.5 44l77 23q2 -24 22.5 -42t53.5 -18t61.5 18t40.5 42l67 -23q-12 -24 -31.5 -44z" />
    <glyph glyph-name="uni0308" unicode="&#x308;" horiz-adv-x="500" 
d="M484 670h-99l26 120h99zM290 670h-100l26 120h100z" />
    <glyph glyph-name="uni0338" unicode="&#x338;" horiz-adv-x="400" 
d="M28 -23h-91l485 826h91z" />
    <glyph glyph-name="afii10023" unicode="&#x401;" horiz-adv-x="643" 
d="M623 840h-99l26 120h99zM429 840h-100l26 120h100zM673 683h-376l-48 -228h321l-21 -96h-321l-55 -261h394l-21 -98h-507l166 780h489z" />
    <glyph glyph-name="afii10051" unicode="&#x402;" horiz-adv-x="832" 
d="M788 236q-12 -66 -37.5 -113t-61.5 -77.5t-81 -45t-98 -14.5q-19 0 -42 2.5t-47 8t-46.5 14t-40.5 20.5l66 104q32 -23 63.5 -31.5t62.5 -8.5q51 0 89.5 36t53.5 108q10 45 3 76t-25 50t-45 27.5t-58 8.5h-153l-85 -401h-112l145 682h-231l21 98h579l-21 -98h-236
l-39 -182h162q58 0 103 -18t73.5 -51.5t39 -82.5t-1.5 -112z" />
    <glyph glyph-name="afii10052" unicode="&#x403;" horiz-adv-x="595" 
d="M423 813l-19 69l176 118l58 -75zM658 678h-359l-144 -678h-116l166 780h475z" />
    <glyph glyph-name="afii10053" unicode="&#x404;" horiz-adv-x="716" 
d="M656 570q-15 57 -57.5 92.5t-114.5 35.5q-47 0 -91 -18t-81.5 -51t-66.5 -80t-46 -105h329l-20 -95h-331q-10 -69 0 -119.5t35.5 -82.5t63.5 -47.5t84 -15.5q67 0 125 36t96 92l73 -55q-54 -80 -132.5 -127.5t-188.5 -47.5q-78 0 -135.5 28.5t-91.5 82t-42 130t12 172.5
q18 87 58 160.5t96.5 127.5t127 84.5t150.5 30.5q56 0 96.5 -14t69.5 -38t47 -55t29 -66z" />
    <glyph glyph-name="afii10054" unicode="&#x405;" horiz-adv-x="681" 
d="M577 580q-8 63 -46 92.5t-100 29.5q-34 0 -63.5 -9t-51.5 -24t-36.5 -35.5t-19.5 -43.5q-8 -38 12.5 -65t78.5 -47l109 -38q88 -31 128.5 -84t20.5 -142q-23 -109 -107 -170.5t-218 -61.5q-114 0 -176.5 55.5t-73.5 146.5l99 58q5 -35 19.5 -64.5t36.5 -50.5t51.5 -33
t63.5 -12q76 0 126 33.5t61 87.5q11 51 -14.5 83t-90.5 56l-105 39q-85 32 -117 78.5t-16 125.5q9 44 35.5 82.5t65.5 67.5t90 46t109 17q101 0 158 -37.5t71 -118.5z" />
    <glyph glyph-name="afii10055" unicode="&#x406;" horiz-adv-x="312" 
d="M164 0h-118l166 780h118z" />
    <glyph glyph-name="afii10056" unicode="&#x407;" horiz-adv-x="312" 
d="M427 840h-99l25 120h99zM233 840h-100l25 120h100zM164 0h-118l166 780h118z" />
    <glyph glyph-name="afii10057" unicode="&#x408;" horiz-adv-x="452" 
d="M334 164q-19 -90 -82.5 -136t-157.5 -46q-38 0 -69.5 5.5t-60.5 13.5l16 105q28 -12 59 -18t57 -6q45 0 80.5 24.5t46.5 77.5l127 596h115z" />
    <glyph glyph-name="afii10058" unicode="&#x409;" horiz-adv-x="1120" 
d="M1077 248q-12 -54 -39.5 -99.5t-67 -78.5t-89 -51.5t-105.5 -18.5h-292l144 682h-308l-43 -205q-27 -127 -77 -251t-133 -241l-99 42q42 56 73.5 111t55.5 111t42 114.5t31 121.5l62 295h528l-59 -280h179q58 0 100.5 -18t68 -51t33 -79.5t-4.5 -103.5zM959 250
q8 39 1 68.5t-25.5 49t-45 29t-57.5 9.5h-151l-66 -312h149q34 0 65.5 9.5t57.5 29t44.5 49t27.5 69.5v-1z" />
    <glyph glyph-name="afii10059" unicode="&#x40a;" horiz-adv-x="1127" 
d="M1084 248q-11 -54 -38.5 -99.5t-67.5 -78.5t-89.5 -51.5t-105.5 -18.5h-297l86 406h-334l-86 -406h-113l166 780h113l-60 -280h334l60 280h115l-60 -280h180q58 0 100.5 -18t68 -51t33 -79.5t-4.5 -103.5zM966 251q8 39 1 68.5t-25.5 48.5t-45 28.5t-57.5 9.5h-152
l-66 -312h150q34 0 65.5 10t57.5 29.5t45 49t27 68.5z" />
    <glyph glyph-name="afii10060" unicode="&#x40b;" horiz-adv-x="851" 
d="M723 0h-116l70 328q13 60 -11 96t-88 36q-51 0 -103.5 -25.5t-88.5 -79.5l-76 -355h-116l145 682h-231l21 98h579l-21 -98h-232l-43 -202q28 32 78 53.5t116 21.5q53 0 93 -16t65 -44t34 -66t-1 -83z" />
    <glyph glyph-name="afii10061" unicode="&#x40c;" horiz-adv-x="688" 
d="M432 813l-18 69l175 118l58 -75zM644 590q-29 -63 -69 -110t-94 -76l134 -404h-131l-113 368q-13 -4 -30 -7t-36.5 -5.5t-40 -3.5t-39.5 -1l-75 -351h-112l166 780h112l-69 -322q61 0 106.5 8t80 26.5t60 49.5t45.5 76l73 162h119z" />
    <glyph glyph-name="afii10062" unicode="&#x40e;" horiz-adv-x="630" 
d="M616 897.5q-21 -22.5 -47 -38.5t-55.5 -24.5t-59.5 -8.5t-56 8.5t-46 24.5t-32 38.5t-12 50.5l82 26q2 -27 24 -46t57 -19t65 19t44 46l70 -26q-13 -28 -34 -50.5zM200 0h-121l186 274l-139 506h119l100 -392l262 392h124z" />
    <glyph glyph-name="afii10145" unicode="&#x40f;" horiz-adv-x="755" 
d="M606 0h-225l-42 -193h-116l42 193h-226l166 780h114l-146 -684h340l146 684h113z" />
    <glyph glyph-name="afii10017" unicode="&#x410;" horiz-adv-x="669" 
d="M498 0l-31 222h-280l-127 -222h-113l441 780h117l107 -780h-114zM456 351q-3 25 -7.5 59t-9.5 73t-9.5 74t-7 61.5t-1.5 34.5l-2 1q-3 -9 -17.5 -35.5t-33.5 -61.5t-41 -74t-41 -73.5t-33 -59t-17 -31.5h223q0 7 -3 32z" />
    <glyph glyph-name="afii10018" unicode="&#x411;" horiz-adv-x="681" 
d="M664 678h-366l-38 -178h180q58 0 100.5 -18t68 -51t33.5 -79.5t-4 -103.5q-12 -54 -39.5 -99.5t-67 -78.5t-89.5 -51.5t-106 -18.5h-297l166 780h480zM519 250q8 39 1 68.5t-25.5 49t-45 29t-57.5 9.5h-152l-66 -312h150q34 0 65.5 9.5t57.5 29t45 49t27 68.5z" />
    <glyph glyph-name="afii10019" unicode="&#x412;" horiz-adv-x="680" 
d="M662 586q-15 -70 -58 -111.5t-100 -56.5v-2q31 -5 58 -19.5t45.5 -39t25.5 -59.5t-3 -81q-11 -51 -38 -91t-67.5 -68t-93 -43t-112.5 -15h-280l166 780h258q54 0 95 -14.5t67 -40t36 -61t1 -78.5zM548 569q7 33 -1 55.5t-26.5 36t-44.5 19.5t-55 6h-123l-49 -228h140
q61 0 103.5 25.5t55.5 85.5zM522 230q7 35 -2.5 60t-30 41t-49 24t-60.5 8h-151l-57 -268h154q37 0 69.5 8.5t58 25t43.5 42t25 59.5z" />
    <glyph glyph-name="afii10020" unicode="&#x413;" horiz-adv-x="597" 
d="M658 678h-359l-144 -678h-116l166 780h475z" />
    <glyph glyph-name="afii10021" unicode="&#x414;" horiz-adv-x="732" 
d="M598 95h70l-47 -224h-114l27 129h-448l-27 -129h-115l47 224h48q74 104 115.5 209t66.5 221l54 255h469zM358 684l-33 -159q-23 -110 -63 -217.5t-106 -212.5h335l125 589h-258z" />
    <glyph glyph-name="afii10022" unicode="&#x415;" horiz-adv-x="643" 
d="M673 683h-376l-48 -228h321l-21 -96h-321l-55 -261h394l-21 -98h-507l166 780h489z" />
    <glyph glyph-name="afii10024" unicode="&#x416;" horiz-adv-x="959" 
d="M928 591q-32 -69 -72 -117t-93 -75l128 -399h-126l-105 366q-20 -6 -49.5 -9t-56.5 -3l-75 -354h-110l75 354q-27 0 -55 3t-45 9l-260 -366h-126l297 399q-41 28 -60.5 75.5t-21.5 116.5l-8 189h113l5 -163q2 -45 12.5 -77t32 -52t55.5 -29t82 -9l70 330h110l-70 -330
q48 0 85.5 9t67.5 29t54 51.5t45 77.5l75 163h114z" />
    <glyph glyph-name="afii10025" unicode="&#x417;" horiz-adv-x="698" 
d="M678 598q-17 -72 -68.5 -117.5t-127.5 -60.5q41 -7 71.5 -25.5t49.5 -46t25 -63.5t-3 -78q-23 -106 -112 -165t-229 -59q-112 0 -179.5 49t-78.5 131l100 46q3 -28 16.5 -52t36 -42t53 -28t65.5 -10q85 0 142.5 37t71.5 102q16 72 -34 113.5t-168 41.5h-114l21 95h109
q111 0 167.5 34.5t69.5 92.5q5 25 -3 46t-26.5 36.5t-44.5 24t-57 8.5q-69 0 -112.5 -34t-69.5 -85l-92 44q17 37 45 67.5t65 52.5t82.5 34.5t96.5 12.5q59 0 106.5 -15.5t79 -42.5t44 -64t2.5 -80z" />
    <glyph glyph-name="afii10026" unicode="&#x418;" horiz-adv-x="757" 
d="M604 0h-112l101 477q2 10 7.5 30t11.5 41t11 37.5t6 19.5h-2q-4 -5 -15 -26t-25 -40l-426 -539h-118l166 780h114l-103 -484q-2 -10 -7 -27.5l-10 -35t-9 -32t-5 -18.5h3q2 4 5.5 12t8.5 17.5t11 19t12 16.5l424 532h117z" />
    <glyph glyph-name="afii10027" unicode="&#x419;" horiz-adv-x="757" 
d="M681 897.5q-21 -22.5 -47.5 -38.5t-56 -24.5t-59.5 -8.5q-60 0 -102 33t-44 89l82 26q2 -27 24 -46t57 -19t65.5 19t43.5 46l71 -26q-13 -28 -34 -50.5zM604 0h-112l101 477q2 10 7.5 30t11.5 41t11 37.5t6 19.5h-2q-4 -5 -15 -26t-25 -40l-426 -539h-118l166 780h114
l-103 -484q-2 -10 -7 -27.5l-10 -35t-9 -32t-5 -18.5h3q2 4 5.5 12t8.5 17.5t11 19t12 16.5l424 532h117z" />
    <glyph glyph-name="afii10028" unicode="&#x41a;" horiz-adv-x="688" 
d="M644 590q-29 -63 -69 -110t-94 -76l134 -404h-131l-113 368q-13 -4 -30 -7t-36.5 -5.5t-40 -3.5t-39.5 -1l-75 -351h-112l166 780h112l-69 -322q61 0 106.5 8t80 26.5t60 49.5t45.5 76l73 162h119z" />
    <glyph glyph-name="afii10029" unicode="&#x41b;" horiz-adv-x="741" 
d="M593 0h-110l145 682h-308l-43 -205q-27 -127 -77 -251t-133 -241l-99 42q42 56 73.5 111t55.5 111t42 114.5t31 121.5l62 295h526z" />
    <glyph glyph-name="afii10030" unicode="&#x41c;" horiz-adv-x="905" 
d="M749 0h-110l114 534q2 11 5.5 25.5t7.5 29t8.5 27t7.5 19.5h-2q-12 -23 -23 -41q-9 -16 -16.5 -30t-9.5 -17l-252 -395h-101l-85 397q-1 4 -3 16.5t-4 26.5t-3.5 27t-1.5 17l-3 -1q-2 -20 -5 -46.5t-9 -52.5l-113 -536h-105l166 780h135l103 -471q0 -2 0.5 -7.5t1 -11.5
t0.5 -11v-8h3q2 5 7.5 18.5t7.5 18.5l299 472h145z" />
    <glyph glyph-name="afii10031" unicode="&#x41d;" horiz-adv-x="749" 
d="M601 0h-116l77 358h-334l-76 -358h-114l166 780h113l-69 -325h334l69 325h115z" />
    <glyph glyph-name="afii10032" unicode="&#x41e;" horiz-adv-x="794" 
d="M769 393q-17 -80 -54.5 -154t-92.5 -131t-126.5 -91t-157.5 -34q-85 0 -142 34t-88 91t-36.5 131t11.5 154q17 79 54 152.5t91.5 130t126.5 90.5t157 34q86 0 143 -34t88 -90.5t37 -130t-11 -152.5zM651 393q30 145 -13 224t-148 79q-50 0 -96 -20.5t-84 -59t-66.5 -95
t-43.5 -128.5t-11.5 -128.5t24.5 -96t58 -60.5t89 -21q51 0 97 21t84 60.5t66.5 96t43.5 128.5z" />
    <glyph glyph-name="afii10033" unicode="&#x41f;" horiz-adv-x="743" 
d="M594 0h-113l145 682h-328l-144 -682h-115l166 780h554z" />
    <glyph glyph-name="afii10034" unicode="&#x420;" horiz-adv-x="681" 
d="M694 530q-12 -57 -37.5 -104.5t-63.5 -81t-87 -52t-108 -18.5h-188l-58 -274h-113l166 780h285q55 0 98 -18t70.5 -51t37 -79t-1.5 -102zM577 527q8 39 2.5 68t-22 49t-43 30t-61.5 10h-156l-66 -313h157q32 0 62.5 10t56 29.5t44 49t26.5 67.5z" />
    <glyph glyph-name="afii10035" unicode="&#x421;" horiz-adv-x="715" 
d="M656 569q-16 55 -56 90.5t-111 35.5q-52 0 -99 -21.5t-85.5 -60.5t-66.5 -94t-42 -123q-17 -81 -11.5 -138.5t29 -95t63 -55t88.5 -17.5q34 0 65.5 10t59 27t51 40t41.5 50l77 -59q-54 -80 -132.5 -127.5t-188.5 -47.5q-78 0 -136 29t-91.5 82.5t-42 130t11.5 171.5
q18 87 58 161t96.5 128t127.5 84.5t150 30.5q56 0 97.5 -14t70 -38t46.5 -55.5t28 -66.5z" />
    <glyph glyph-name="afii10036" unicode="&#x422;" horiz-adv-x="601" 
d="M673 680h-226l-145 -680h-114l145 680h-225l21 100h565z" />
    <glyph glyph-name="afii10037" unicode="&#x423;" horiz-adv-x="630" 
d="M200 0h-121l186 274l-139 506h119l100 -392l262 392h124z" />
    <glyph glyph-name="afii10038" unicode="&#x424;" horiz-adv-x="798" 
d="M785 386q-13 -60 -45 -110t-80 -87.5t-109.5 -61t-133.5 -30.5l-21 -97h-107l21 97q-69 8 -119.5 34t-81.5 67t-41 94t3 114q13 62 45.5 111.5t80 86t108.5 59t131 29.5l19 88h107l-19 -87q70 -8 121.5 -34.5t82.5 -67.5t41 -93.5t-3 -111.5zM682 395q9 41 1.5 76
t-29 61.5t-55.5 42.5t-79 20l-85 -401q48 4 89 20.5t73.5 42.5t54 61.5t30.5 76.5zM330 574q-41 -17 -73 -43t-53.5 -60.5t-30.5 -75.5q-9 -40 -1.5 -74.5t28.5 -61t54.5 -43.5t77.5 -22l85 401q-46 -4 -87 -21z" />
    <glyph glyph-name="afii10039" unicode="&#x425;" horiz-adv-x="649" 
d="M417 396l169 -396h-121l-127 311l-254 -311h-130l338 408l-157 372h118l118 -286l232 286h131z" />
    <glyph glyph-name="afii10040" unicode="&#x426;" horiz-adv-x="762" 
d="M627 96h52l-48 -226h-116l28 130h-504l166 780h114l-145 -684h340l145 684h113z" />
    <glyph glyph-name="afii10041" unicode="&#x427;" horiz-adv-x="745" 
d="M597 0h-114l67 312q-13 -16 -33.5 -34t-47.5 -32t-60.5 -23.5t-72.5 -9.5q-63 0 -109.5 17.5t-75.5 50t-39 78t2 100.5l68 321h110l-62 -295q-19 -89 13.5 -126t117.5 -37q36 0 69 10t60.5 26t49 35t35.5 38l74 349h113z" />
    <glyph glyph-name="afii10042" unicode="&#x428;" horiz-adv-x="931" 
d="M783 0h-744l165 780h109l-145 -683h211l145 683h109l-145 -683h205l145 683h110z" />
    <glyph glyph-name="afii10043" unicode="&#x429;" horiz-adv-x="952" 
d="M809 96h60l-48 -226h-116l28 130h-695l166 780h109l-145 -683h211l145 683h109l-145 -684h211l145 684h110z" />
    <glyph glyph-name="afii10044" unicode="&#x42a;" horiz-adv-x="837" 
d="M790 238q-12 -54 -38 -98t-63.5 -75t-85 -48t-103.5 -17h-315l145 684h-221l20 97h335l-59 -281h179q58 0 102 -19.5t71 -54.5t36 -83t-3 -105zM673 250q8 39 1 68.5t-25 49t-45 29t-58 9.5h-161l-66 -312h159q34 0 65.5 9.5t57.5 29t44.5 49t27.5 69.5v-1z" />
    <glyph glyph-name="afii10045" unicode="&#x42b;" horiz-adv-x="956" 
d="M809 0h-115l166 780h114zM641 237q-12 -54 -38 -98t-63.5 -74.5t-85 -47.5t-103.5 -17h-313l166 780h113l-60 -282h171q58 0 103 -19.5t73.5 -54.5t38.5 -82.5t-2 -104.5zM523 250q8 39 1 68.5t-25.5 48.5t-45 28.5t-57.5 9.5h-158l-67 -311h156q34 0 65.5 9.5t58 29
t45 49t27.5 68.5z" />
    <glyph glyph-name="afii10046" unicode="&#x42c;" horiz-adv-x="684" 
d="M637 238q-12 -54 -38 -98t-64 -75t-86 -48t-104 -17h-307l166 781h115l-60 -281h169q58 0 102.5 -19.5t72 -54.5t37 -83t-2.5 -105zM519 250q8 39 1 68.5t-25.5 49t-45 29t-57.5 9.5h-152l-67 -312h150q34 0 65.5 9.5t57.5 29t45 49t28 69.5v-1z" />
    <glyph glyph-name="afii10047" unicode="&#x42d;" horiz-adv-x="716" 
d="M698 385q-20 -96 -58.5 -170.5t-92.5 -126.5t-121.5 -79t-145.5 -27q-111 0 -176 47t-86 128l97 55q14 -56 57 -92t110 -36q46 0 90.5 15.5t84 47.5t70.5 82.5t50 119.5h-331l20 95h329q8 58 -1 105t-32.5 80t-60 51t-83.5 18q-72 0 -124.5 -35.5t-91.5 -92.5l-80 55
q25 35 55 66t67 55t82.5 38t101.5 14q80 0 139 -32t94.5 -88t45 -131t-8.5 -162z" />
    <glyph glyph-name="afii10048" unicode="&#x42e;" horiz-adv-x="991" 
d="M965 386q-18 -84 -52 -158t-83 -128.5t-113 -86t-141 -31.5q-73 0 -123 29t-78.5 79.5t-36 118t4.5 143.5h-118l-74 -352h-113l166 780h112l-70 -333h119q21 73 55.5 137t81.5 111.5t106.5 75t130.5 27.5q77 0 128.5 -33.5t79 -90t31.5 -131t-13 -157.5zM854 391
q32 152 -2.5 229.5t-128.5 77.5q-91 0 -160 -77.5t-101 -229.5q-32 -151 2 -230t128 -79q91 0 160.5 79t101.5 230z" />
    <glyph glyph-name="afii10049" unicode="&#x42f;" 
d="M541 0h-112l67 315h-157l-246 -315h-133l271 336q-31 11 -54.5 30.5t-37.5 49t-17.5 67.5t6.5 84q23 106 101.5 159.5t192.5 53.5h285zM423 684q-32 0 -62 -8t-54 -24.5t-41 -41.5t-24 -59q-16 -73 18.5 -108t103.5 -35h152l58 276h-151z" />
    <glyph glyph-name="afii10065" unicode="&#x430;" horiz-adv-x="573" 
d="M497 -8q-23 -5 -42 -5q-41 0 -66 19.5t-23 58.5q-32 -37 -84.5 -57t-115.5 -20q-86 0 -123 39.5t-24 110.5q1 2 1 3t1 3q8 38 28 66.5t49 49t65.5 34.5t77.5 24q72 17 121 36.5t57 52.5q8 42 -18.5 60.5t-83.5 18.5q-20 0 -41.5 -5.5t-41.5 -16t-37.5 -26t-30.5 -34.5
l-72 46q41 60 106 90t136 30q103 0 154 -43.5t32 -130.5l-59 -273q-10 -51 31 -51q14 0 35 6zM338.5 271q-39.5 -14 -86.5 -25q-48 -12 -82.5 -34.5t-43.5 -67.5q-1 -2 -1 -3t-1 -3q-5 -34 12 -51.5t61 -17.5q22 0 47.5 5.5t49.5 16.5t44 29t31 42l30 140q-21 -17 -60.5 -31
z" />
    <glyph glyph-name="afii10066" unicode="&#x431;" horiz-adv-x="602" 
d="M561 666.5q-44 -27.5 -101 -39.5q-52 -11 -89.5 -24t-65 -29t-47 -34.5t-36.5 -40.5q29 28 65.5 43.5t77.5 15.5q65 0 108.5 -22t67.5 -59.5t28.5 -88.5t-7.5 -109q-12 -59 -38 -112t-65 -92.5t-92 -63t-119 -23.5t-110 23.5t-68 63.5t-29 93t7 111q23 109 68.5 192
t120.5 140q41 32 86.5 55t109.5 39q42 11 74 33t54 54l82 -51q-38 -47 -82 -74.5zM454 279q19 89 -10 142.5t-100 53.5q-33 0 -64 -14.5t-57 -40t-45 -61.5t-28 -80q-9 -45 -7 -82.5t15.5 -64.5t39 -42t61.5 -15q35 0 66.5 14.5t56.5 41.5t43.5 64.5t28.5 83.5z" />
    <glyph glyph-name="afii10067" unicode="&#x432;" horiz-adv-x="562" 
d="M531 414q-21 -94 -120 -118q47 -8 74 -45t13 -101q-16 -76 -75.5 -113t-153.5 -37h-251l119 558h206q48 0 86 -10t63 -29t35.5 -45.5t3.5 -59.5zM425 409q7 31 -18.5 50t-73.5 19h-110l-31 -145h117q48 0 78 19t38 57zM399 167q8 39 -19 63t-81 24h-124l-36 -174h138
q53 0 83.5 24.5t38.5 62.5z" />
    <glyph glyph-name="afii10068" unicode="&#x433;" horiz-adv-x="468" 
d="M492 466h-265l-99 -466h-109l118 558h374z" />
    <glyph glyph-name="afii10069" unicode="&#x434;" horiz-adv-x="625" 
d="M491 90h67l-39 -180h-104l20 90h-361l-20 -90h-104l39 180h60q21 32 36.5 64t27.5 65.5t21.5 70t18.5 76.5l41 192h396zM271 471l-27 -127q-17 -76 -36.5 -136.5t-53.5 -117.5h236l81 381h-200z" />
    <glyph glyph-name="afii10070" unicode="&#x435;" horiz-adv-x="602" 
d="M559 253h-408q-8 -40 -2.5 -72.5t21.5 -55t41.5 -35t58.5 -12.5q55 0 103.5 27.5t72.5 77.5l81 -40q-21 -34 -47 -62.5t-58 -49t-71 -32t-86 -11.5q-61 0 -108 21.5t-75.5 61t-37.5 95t6 124.5q14 66 44 118t71 88t92.5 55t109.5 19t101.5 -20.5t69.5 -58.5t33.5 -92.5
t-7.5 -123.5zM469.5 392q-4.5 27 -19.5 46.5t-38.5 30.5t-54.5 11q-34 0 -65 -12t-55.5 -32.5t-42 -47t-23.5 -56.5h296q7 33 2.5 60z" />
    <glyph glyph-name="afii10072" unicode="&#x436;" horiz-adv-x="789" 
d="M721 405q-24 -47 -52 -75.5t-69 -45.5l127 -284h-106l-111 258q-13 -2 -32 -3t-36 -1l-53 -254h-99l54 254q-17 0 -30 1t-25 3l-219 -258h-118l250 284q-34 17 -50.5 45.5t-20.5 75.5l-14 153h100l10 -125q4 -51 35 -72t101 -21l46 218h98l-46 -218q36 0 63 5t47 16.5
t35 29t28 42.5l62 125h103z" />
    <glyph glyph-name="afii10073" unicode="&#x437;" horiz-adv-x="555" 
d="M520 423q-11 -54 -51.5 -84.5t-96.5 -41.5q27 -4 51 -16.5t40 -32t23 -45.5t0 -57q-17 -78 -86 -119t-194 -41q-93 0 -143.5 27t-69.5 73l85 50q13 -31 49 -47.5t97 -16.5q63 0 104.5 23t49.5 62q9 43 -29 69t-116 26h-94l17 80h84q79 0 118 24t47 59q7 29 -21.5 48.5
t-75.5 19.5q-48 0 -83 -13.5t-57 -38.5l-73 46q38 47 92 70t138 23q49 0 88 -11.5t65 -31t37.5 -46.5t4.5 -58z" />
    <glyph glyph-name="afii10074" unicode="&#x438;" horiz-adv-x="618" 
d="M489 0h-104l67 316q2 10 6 23t7.5 25.5t7 23t5.5 14.5h-3q-1 -3 -6 -10.5t-11.5 -17t-13.5 -19t-12 -14.5l-316 -341h-97l119 558h104l-65 -304q-3 -13 -7.5 -30.5t-9.5 -34t-9.5 -29.5t-7.5 -18h4q3 5 9.5 14.5t14 20.5t15 21t12.5 16l316 344h94z" />
    <glyph glyph-name="afii10075" unicode="&#x439;" horiz-adv-x="618" 
d="M558.5 708q-19.5 -20 -44 -34.5t-52.5 -22.5t-56 -8t-52.5 8t-43 22.5t-30 34.5t-12.5 44l77 23q2 -24 22.5 -42t53.5 -18t61.5 18t40.5 42l67 -23q-12 -24 -31.5 -44zM489 0h-104l67 316q2 10 6 23t7.5 25.5t7 23t5.5 14.5h-3q-1 -3 -6 -10.5t-11.5 -17t-13.5 -19
t-12 -14.5l-316 -341h-97l119 558h104l-65 -304q-3 -13 -7.5 -30.5t-9.5 -34t-9.5 -29.5t-7.5 -18h4q3 5 9.5 14.5t14 20.5t15 21t12.5 16l316 344h94z" />
    <glyph glyph-name="afii10076" unicode="&#x43a;" horiz-adv-x="559" 
d="M495 399q-24 -49 -54 -77.5t-75 -45.5l131 -276h-121l-113 252q-12 -2 -37 -3.5t-51 -1.5l-52 -247h-104l118 558h104l-46 -217q46 0 79.5 4t57.5 13.5t40.5 26t29.5 42.5l65 131h108z" />
    <glyph glyph-name="afii10077" unicode="&#x43b;" horiz-adv-x="614" 
d="M486 0h-106l100 469h-245l-29 -136q-11 -50 -23.5 -96t-29.5 -88.5t-39.5 -82.5t-52.5 -79l-101 28q30 38 53 73.5t40 73.5t30 80t23 91l48 225h451z" />
    <glyph glyph-name="afii10078" unicode="&#x43c;" horiz-adv-x="677" 
d="M548 0h-94l69 325q3 13 7.5 29.5t10 33t10 29.5t6.5 19h-3q-1 -3 -4.5 -10.5t-7.5 -16.5t-8.5 -17.5t-8.5 -14.5l-167 -249h-92l-64 244q-1 6 -2 14.5t-1 17.5v16.5v11.5h-3q0 -5 -1 -17.5t-3.5 -28.5t-5 -33.5t-5.5 -32.5l-68 -320h-94l119 558h114l77 -329l211 329h127
z" />
    <glyph glyph-name="afii10079" unicode="&#x43d;" horiz-adv-x="623" 
d="M488 0h-104l51 242h-262l-51 -242h-104l119 558h104l-48 -225h262l48 225h104z" />
    <glyph glyph-name="afii10080" unicode="&#x43e;" horiz-adv-x="626" 
d="M586 279q-13 -64 -41.5 -117.5t-70 -92t-95.5 -60t-119 -21.5q-64 0 -110.5 21.5t-73.5 60t-34 92t6 117.5q14 64 42.5 117.5t70 92t95.5 60t118 21.5q65 0 111.5 -21.5t73.5 -60t34 -92t-7 -117.5zM476 279q21 98 -13.5 147.5t-103.5 49.5q-33 0 -64.5 -12.5t-58.5 -37
t-47 -61.5t-31 -86q-20 -96 15 -146.5t102 -50.5q35 0 66.5 12.5t58 37.5t46.5 61.5t30 85.5z" />
    <glyph glyph-name="afii10081" unicode="&#x43f;" horiz-adv-x="624" 
d="M495 0h-105l99 464h-267l-99 -464h-104l119 558h476z" />
    <glyph glyph-name="afii10082" unicode="&#x440;" horiz-adv-x="617" 
d="M577 279q-30 -143 -106 -217t-188 -74q-50 0 -91.5 20t-55.5 48l-53 -249h-105l159 751h99l-17 -84h2q25 42 69.5 69t103.5 27q54 0 95 -19t65.5 -56t31 -91t-8.5 -125zM470 279q11 53 8 91.5t-18 63t-39 36.5t-55 12q-30 0 -57.5 -10.5t-50.5 -29.5t-39 -44.5t-22 -54.5
l-40 -189q19 -32 48 -53.5t74 -21.5q33 0 62.5 11.5t54.5 36t44 62.5t30 90z" />
    <glyph glyph-name="afii10083" unicode="&#x441;" horiz-adv-x="579" 
d="M491 393q-11 42 -42.5 62t-79.5 20q-32 0 -64.5 -11t-60.5 -34.5t-50 -60.5t-33 -89q-10 -50 -5 -87.5t22.5 -62t45.5 -36.5t63 -12q44 0 81.5 21t66.5 66l80 -42q-42 -66 -103.5 -102.5t-143.5 -36.5q-56 0 -103.5 19t-78.5 57t-42 94.5t5 131.5q15 70 47.5 122.5
t77.5 87.5t100 52.5t114 17.5q79 0 129 -35t64 -95z" />
    <glyph glyph-name="afii10084" unicode="&#x442;" horiz-adv-x="509" 
d="M532 466h-181l-99 -466h-108l99 466h-178l20 92h467z" />
    <glyph glyph-name="afii10085" unicode="&#x443;" horiz-adv-x="591" 
d="M141 -193h-112l172 256l-124 495h112l87 -389l252 389h115z" />
    <glyph glyph-name="afii10086" unicode="&#x444;" horiz-adv-x="974" 
d="M934 282q-31 -144 -104.5 -216t-179.5 -72q-22 0 -45.5 4.5t-45 13t-38 20.5t-23.5 26l-53 -251h-108l53 251q-13 -14 -31.5 -26t-39.5 -20.5t-43.5 -13t-43.5 -4.5q-52 0 -92.5 18t-65.5 54t-32 90t8 126t43.5 125.5t66 89.5t82.5 53.5t94 17.5q26 0 51 -5.5t45.5 -16
t34.5 -25t18 -32.5l62 291h101l-62 -292q23 37 67.5 58.5t95.5 21.5q52 0 93.5 -17.5t67 -53.5t32.5 -89.5t-8 -125.5zM828 282q11 53 7.5 90t-18.5 60.5t-39.5 34t-55.5 10.5q-28 0 -55 -9.5t-49.5 -28t-38.5 -44.5t-23 -59l-39 -184q22 -32 49.5 -52t73.5 -20
q31 0 59.5 11.5t53.5 35.5t44 62.5t31 92.5zM452.5 396q-5.5 26 -20 44t-37.5 27.5t-52 9.5q-30 0 -59 -10.5t-54 -34t-44.5 -60.5t-30.5 -90q-12 -54 -8.5 -92.5t18 -62.5t39 -35.5t54.5 -11.5q45 0 81.5 19.5t71.5 51.5l39 185q8 34 2.5 60z" />
    <glyph glyph-name="afii10087" unicode="&#x445;" horiz-adv-x="531" 
d="M329 285l142 -285h-113l-104 213l-180 -213h-124l259 298l-126 260h113l88 -190l166 190h122z" />
    <glyph glyph-name="afii10088" unicode="&#x446;" horiz-adv-x="631" 
d="M512 91h51l-38 -181h-104l19 90h-421l119 558h105l-100 -467h263l100 467h106z" />
    <glyph glyph-name="afii10089" unicode="&#x447;" horiz-adv-x="576" 
d="M448 0h-105l43 199q-24 -30 -64 -50t-100 -20q-31 0 -59 9t-49 26t-33 42.5t-10 59.5q0 7 -0.5 13.5t1.5 13.5l54 265h105l-51 -244q-10 -47 10.5 -67t63.5 -20q52 0 94 25.5t62 61.5l51 244h105z" />
    <glyph glyph-name="afii10090" unicode="&#x448;" horiz-adv-x="763" 
d="M634 0h-615l119 558h103l-100 -467h152l100 467h104l-100 -467h153l100 467h103z" />
    <glyph glyph-name="afii10091" unicode="&#x449;" horiz-adv-x="772" 
d="M653 91h51l-35 -164h-104l16 73h-562l119 558h103l-100 -467h152l100 467h104l-100 -467h153l100 467h103z" />
    <glyph glyph-name="afii10092" unicode="&#x44a;" horiz-adv-x="671" 
d="M621 186q-18 -87 -83.5 -136.5t-162.5 -49.5h-235l100 469h-175l19 89h280l-39 -182h107q49 0 88 -12t65 -36t36 -59.5t0 -82.5zM510 189q5 26 -0.5 44.5t-19 30.5t-33 17.5t-43.5 5.5h-107l-43 -198h107q55 0 91.5 24.5t47.5 75.5z" />
    <glyph glyph-name="afii10093" unicode="&#x44b;" horiz-adv-x="757" 
d="M628 0h-104l119 558h104zM486 183q-17 -82 -79.5 -132.5t-161.5 -50.5h-226l119 558h104l-39 -181h95q51 0 90.5 -12.5t64.5 -37t34 -60.5t-1 -84zM374 186q11 50 -14 76.5t-83 26.5h-94l-42 -201h84q57 0 97.5 24.5t51.5 73.5z" />
    <glyph glyph-name="afii10094" unicode="&#x44c;" horiz-adv-x="546" 
d="M497 187q-19 -88 -82 -137.5t-159 -49.5h-237l119 558h105l-39 -182h105q48 0 87.5 -12.5t65 -36.5t35.5 -59t0 -81zM384 189q6 26 0 44.5t-20 30.5t-33.5 17.5t-42.5 5.5h-105l-42 -198h95q54 0 95.5 24t52.5 76z" />
    <glyph glyph-name="afii10095" unicode="&#x44d;" horiz-adv-x="581" 
d="M542 271q-16 -75 -48.5 -129t-76 -88t-95.5 -50t-108 -16q-83 0 -138.5 36.5t-70.5 102.5l87 39q12 -45 48 -66t80 -21q32 0 63.5 9t59 28.5t49.5 49t35 70.5h-250l18 84h249q5 42 -4.5 72.5t-29 50t-47 28.5t-58.5 9q-96 0 -150 -82l-82 42q39 60 101.5 95t142.5 35
q59 0 107 -20.5t79 -59.5t42.5 -94.5t-3.5 -124.5z" />
    <glyph glyph-name="afii10096" unicode="&#x44e;" horiz-adv-x="814" 
d="M774 278q-12 -58 -38 -110.5t-65 -92.5t-91.5 -63.5t-118.5 -23.5q-59 0 -100.5 20t-66 54t-33.5 79.5t-2 96.5h-89l-51 -238h-100l118 557h100l-48 -226h90q17 47 43.5 90.5t64 76.5t84.5 52.5t104 19.5q65 0 108.5 -24.5t67.5 -65t29.5 -93t-6.5 -109.5zM674 278
q9 42 5.5 79t-18.5 64.5t-40 43.5t-60 16q-34 0 -66 -16t-58 -43.5t-45.5 -64.5t-28.5 -79q-9 -43 -5.5 -80t18 -64t40 -42.5t59.5 -15.5q35 0 67 15.5t58 42.5t45.5 64t28.5 80z" />
    <glyph glyph-name="afii10097" unicode="&#x44f;" horiz-adv-x="565" 
d="M436 0h-105l38 180h-57h-35t-19.5 0.5t-10.5 1.5l-135 -182h-127l162 201q-24 11 -42.5 28.5t-29.5 41t-14.5 52t3.5 59.5q9 42 31.5 74.5t55.5 55t75 34.5t90 12h239zM317 471q-57 0 -96.5 -26.5t-49.5 -74.5q-11 -50 16 -76t85 -26h116l43 203h-114z" />
    <glyph glyph-name="afii10071" unicode="&#x451;" horiz-adv-x="602" 
d="M537 670h-99l26 120h99zM343 670h-100l26 120h100zM559 253h-408q-8 -40 -2.5 -72.5t21.5 -55t41.5 -35t58.5 -12.5q55 0 103.5 27.5t72.5 77.5l81 -40q-21 -34 -47 -62.5t-58 -49t-71 -32t-86 -11.5q-61 0 -108 21.5t-75.5 61t-37.5 95t6 124.5q14 66 44 118t71 88
t92.5 55t109.5 19t101.5 -20.5t69.5 -58.5t33.5 -92.5t-7.5 -123.5zM469.5 392q-4.5 27 -19.5 46.5t-38.5 30.5t-54.5 11q-34 0 -65 -12t-55.5 -32.5t-42 -47t-23.5 -56.5h296q7 33 2.5 60z" />
    <glyph glyph-name="afii10099" unicode="&#x452;" horiz-adv-x="642" 
d="M509 -22q-10 -49 -30 -82.5t-52.5 -54t-78.5 -29.5t-109 -9l-8 96h17q43 0 70.5 4.5t44.5 15.5t26 30t15 48l75 350q12 57 -12.5 87.5t-76.5 30.5q-49 0 -98 -25.5t-77 -76.5l-77 -363h-109l130 611h-68l18 87h68l18 82h109l-18 -82h223l-19 -87h-222l-29 -138
q26 33 70 56.5t111 23.5q44 0 79.5 -14.5t58.5 -40t32 -61t0 -77.5z" />
    <glyph glyph-name="afii10100" unicode="&#x453;" horiz-adv-x="468" 
d="M306 624l-19 69l175 118l58 -75zM492 466h-265l-99 -466h-109l118 558h374z" />
    <glyph glyph-name="afii10101" unicode="&#x454;" horiz-adv-x="581" 
d="M501 398q-11 42 -47 62t-84 20q-31 0 -62.5 -9t-59.5 -28.5t-50 -50t-35 -72.5h249l-18 -84h-250q-4 -41 5.5 -70.5t29 -49t47 -28.5t59.5 -9q44 0 86.5 21t72.5 66l76 -39q-44 -66 -105 -102.5t-144 -36.5q-56 0 -103.5 19t-79 57t-43 94.5t4.5 131.5q15 70 45.5 122.5
t73.5 87.5t95.5 52.5t111.5 17.5q80 0 138 -35t72 -95z" />
    <glyph glyph-name="afii10102" unicode="&#x455;" horiz-adv-x="538" 
d="M467 394q-20 40 -59.5 62.5t-93.5 22.5q-50 0 -80 -16.5t-37 -46.5q-1 -3 -1 -6.5v-6.5q0 -22 22 -37t81 -29q93 -22 137 -57t44 -93q0 -19 -4 -38q-17 -76 -82 -118.5t-180 -42.5q-74 0 -131.5 31t-79.5 81l67 83q20 -46 66 -75t100 -29q57 0 89 18t39 51q1 5 1.5 9
t0.5 9q0 31 -30.5 50.5t-95.5 33.5q-82 18 -119 51.5t-37 79.5q0 8 1 15.5t3 15.5q7 34 27 62t51.5 48.5t73.5 31.5t93 11q77 0 128 -25t69 -65z" />
    <glyph glyph-name="afii10103" unicode="&#x456;" horiz-adv-x="264" 
d="M273 649h-116l28 131h116zM132 0h-111l119 558h111z" />
    <glyph glyph-name="afii10104" unicode="&#x457;" horiz-adv-x="264" 
d="M366 670h-99l26 120h99zM172 670h-100l26 120h100zM132 0h-111l119 558h111z" />
    <glyph glyph-name="afii10105" unicode="&#x458;" horiz-adv-x="282" 
d="M292 649h-114l28 131h114zM146 -22q-10 -49 -30.5 -82.5t-52.5 -54t-78 -29.5t-109 -9l-8 96h17q43 0 70.5 4.5t44.5 15.5t26 30t15 48l120 561h109z" />
    <glyph glyph-name="afii10106" unicode="&#x459;" horiz-adv-x="907" 
d="M855 164q-18 -82 -79.5 -123t-157.5 -41h-238l100 469h-245l-29 -136q-22 -100 -55.5 -184t-94.5 -162l-96 28q30 38 53 73.5t40 73.5t30 80t23 91l48 225h449l-45 -208h112q48 0 86.5 -13t63.5 -37t34.5 -58.5t0.5 -77.5zM745 175q5 23 -1.5 39t-20.5 26t-34 15t-43 5
h-107l-37 -173h112q54 0 87.5 21t43.5 67z" />
    <glyph glyph-name="afii10107" unicode="&#x45a;" horiz-adv-x="911" 
d="M858 164q-17 -82 -79 -123t-158 -41h-237l55 259h-262l-55 -259h-104l119 558h104l-45 -208h262l45 208h104l-45 -208h111q48 0 86.5 -13t63.5 -37t34.5 -58.5t0.5 -77.5zM748 175q5 23 -1.5 39t-20.5 26t-34 15t-43 5h-107l-37 -173h117q54 0 85 21t41 67z" />
    <glyph glyph-name="afii10108" unicode="&#x45b;" horiz-adv-x="642" 
d="M514 0h-109l74 347q12 57 -12.5 87.5t-76.5 30.5q-49 0 -98 -25.5t-77 -76.5l-77 -363h-109l130 611h-68l18 87h68l18 82h109l-18 -82h223l-19 -87h-222l-29 -138q26 33 70 56.5t111 23.5q44 0 79.5 -14.5t58.5 -40t32 -61t0 -77.5z" />
    <glyph glyph-name="afii10109" unicode="&#x45c;" horiz-adv-x="559" 
d="M320 624l-19 69l175 118l58 -75zM495 399q-24 -49 -54 -77.5t-75 -45.5l131 -276h-121l-113 252q-12 -2 -37 -3.5t-51 -1.5l-52 -247h-104l118 558h104l-46 -217q46 0 79.5 4t57.5 13.5t40.5 26t29.5 42.5l65 131h108z" />
    <glyph glyph-name="afii10110" unicode="&#x45e;" horiz-adv-x="591" 
d="M538.5 708q-19.5 -20 -44 -34.5t-52.5 -22.5t-56 -8t-52.5 8t-43 22.5t-30 34.5t-12.5 44l77 23q2 -24 22.5 -42t53.5 -18t61.5 18t40.5 42l67 -23q-12 -24 -31.5 -44zM141 -193h-112l172 256l-124 495h112l87 -389l252 389h115z" />
    <glyph glyph-name="afii10193" unicode="&#x45f;" horiz-adv-x="622" 
d="M493 0h-185l-36 -171h-104l36 171h-185l119 558h105l-99 -466h263l99 466h106z" />
    <glyph glyph-name="afii10050" unicode="&#x490;" horiz-adv-x="610" 
d="M658 678h-359l-144 -678h-116l166 780h360l33 157h115z" />
    <glyph glyph-name="afii10098" unicode="&#x491;" horiz-adv-x="478" 
d="M492 466h-265l-99 -466h-109l118 558h272l27 130h103z" />
    <glyph glyph-name="uni04C0" unicode="&#x4c0;" horiz-adv-x="312" 
d="M164 0h-118l166 780h118z" />
    <glyph glyph-name="endash" unicode="&#x2013;" horiz-adv-x="500" 
d="M493 226h-500l15 70h500z" />
    <glyph glyph-name="emdash" unicode="&#x2014;" horiz-adv-x="1000" 
d="M993 228h-1000l14 65h1000z" />
    <glyph glyph-name="quoteleft" unicode="&#x2018;" horiz-adv-x="345" 
d="M335 736.5q-19 -24.5 -27 -61.5h55l-30 -142h-129l30 140q11 51 39.5 88t70.5 60l36 -46q-26 -14 -45 -38.5z" />
    <glyph glyph-name="quoteright" unicode="&#x2019;" horiz-adv-x="345" 
d="M286 667q-11 -52 -39 -89t-69 -60l-38 47q26 14 44.5 38.5t26.5 61.5h-55l31 142h129z" />
    <glyph glyph-name="quotesinglbase" unicode="&#x201a;" horiz-adv-x="345" 
d="M144 2q-11 -52 -38.5 -89t-68.5 -60l-38 47q26 14 44.5 38.5t26.5 61.5h-55l30 142h129z" />
    <glyph glyph-name="quotedblleft" unicode="&#x201c;" horiz-adv-x="345" 
d="M392 736.5q-19 -24.5 -27 -61.5h50l-30 -142h-114l30 140q11 50 40.5 87.5t71.5 60.5l25 -46q-27 -14 -46 -38.5zM198 736.5q-19 -24.5 -27 -61.5h50l-30 -142h-114l30 140q11 50 40.5 87.5t71.5 60.5l25 -46q-27 -14 -46 -38.5z" />
    <glyph glyph-name="quotedblright" unicode="&#x201d;" horiz-adv-x="345" 
d="M414 667q-11 -50 -41 -88t-71 -61l-25 46q27 14 45.5 39t26.5 62h-50l31 142h114zM220 667q-11 -50 -41 -88t-71 -61l-25 46q27 14 45.5 39t26.5 62h-50l31 142h114z" />
    <glyph glyph-name="quotedblbase" unicode="&#x201e;" horiz-adv-x="345" 
d="M272 2q-11 -50 -40.5 -88t-70.5 -61l-25 46q26 14 45 39t27 62h-50l30 142h114zM78 2q-11 -50 -40.5 -88t-70.5 -61l-25 46q26 14 45 39t27 62h-50l30 142h114z" />
    <glyph glyph-name="dagger" unicode="&#x2020;" horiz-adv-x="573" 
d="M578 508h-188l-124 -583h-101l124 583h-188l22 102h188l45 215h101l-45 -215h188z" />
    <glyph glyph-name="daggerdbl" unicode="&#x2021;" horiz-adv-x="573" 
d="M583 538h-188l-69 -326h188l-21 -100h-188l-40 -187h-101l40 187h-188l21 100h188l69 326h-188l22 100h188l39 187h101l-39 -187h188z" />
    <glyph glyph-name="bullet" unicode="&#x2022;" horiz-adv-x="392" 
d="M307 306q0 -23 -9 -43t-24 -35t-35 -24t-43 -9t-43 9t-35 24t-24 35t-9 43t9 43t24 35t35 24t43 9t43 -9t35 -24t24 -35t9 -43z" />
    <glyph glyph-name="ellipsis" unicode="&#x2026;" horiz-adv-x="1000" 
d="M870 87v-6.5t-1 -7.5q-7 -30 -33.5 -51.5t-56.5 -21.5q-26 0 -43 16.5t-17 41.5q0 5 2 15q6 30 32 52t57 22q27 0 43.5 -17t16.5 -43zM536 87v-6.5t-1 -7.5q-7 -30 -33.5 -51.5t-56.5 -21.5q-26 0 -43 16.5t-17 41.5q0 5 2 15q6 30 32 52t57 22q27 0 43.5 -17t16.5 -43z
M202 87v-6.5t-1 -7.5q-7 -30 -33.5 -51.5t-56.5 -21.5q-26 0 -43 16.5t-17 41.5q0 5 2 15q6 30 32 52t57 22q27 0 43.5 -17t16.5 -43z" />
    <glyph glyph-name="perthousand" unicode="&#x2030;" horiz-adv-x="1000" 
d="M938 242q0 -30 -8 -67q-8 -39 -23.5 -74t-37.5 -61.5t-51.5 -42t-66.5 -15.5q-55 0 -78.5 35t-23.5 87q0 31 8 71q8 38 24 72.5t38.5 61t51.5 42.5t62 16q28 0 48 -9.5t32.5 -26.5t18.5 -39.5t6 -49.5zM413 671q0 -34 -7 -66q-8 -37 -24 -71.5t-39.5 -61.5t-52.5 -43
t-64 -16q-28 0 -47.5 9.5t-32 26t-18.5 39.5t-6 49q0 31 8 68q8 39 23 74t37.5 61.5t52 42t65.5 15.5q57 0 81 -36.5t24 -90.5zM62 0h-73l683 780h73zM614 244q0 -31 -8 -69q-8 -39 -23 -74t-37 -61.5t-51 -42t-66 -15.5q-28 0 -47.5 9.5t-32 26.5t-18 40t-5.5 50
q0 16 1.5 33t5.5 34q8 38 24.5 72.5t39.5 61t52 42.5t62 16q56 0 79.5 -35t23.5 -88zM862 238q0 33 -12 46.5t-32 13.5q-28 0 -51 -27t-38 -96q-7 -34 -7 -60q0 -32 11.5 -46.5t32.5 -14.5q29 0 51.5 27.5t36.5 93.5q5 19 6.5 34.5t1.5 28.5zM337 669q0 32 -12 45.5
t-32 13.5q-26 0 -49 -27t-38 -96q-8 -40 -8 -62q0 -31 11 -44.5t32 -13.5q30 0 52 27t36 93q4 20 6 35.5t2 28.5zM540 239q0 32 -12 45.5t-32 13.5q-26 0 -49 -27t-38 -96q-8 -40 -8 -62q0 -59 43 -59q30 0 52 27.5t36 93.5q5 20 6.5 35.5t1.5 28.5z" />
    <glyph glyph-name="guilsinglleft" unicode="&#x2039;" horiz-adv-x="640" 
d="M531 428l-305 -173l231 -173l-23 -108l-311 237l19 88l412 237z" />
    <glyph glyph-name="guilsinglright" unicode="&#x203a;" horiz-adv-x="640" 
d="M496 211l-413 -237l23 108l305 173l-231 173l23 108l312 -237z" />
    <glyph glyph-name="Euro" unicode="&#x20ac;" horiz-adv-x="722" 
d="M670 578q-14 53 -59 86t-111 33q-39 0 -77 -13.5t-72.5 -38t-64.5 -60.5t-52 -81h353l-15 -72h-366q-2 -9 -4.5 -18.5t-4.5 -19.5q-2 -9 -3.5 -17.5t-2.5 -16.5h308l-15 -72h-298q0 -52 15 -90t40 -63t59 -37.5t73 -12.5q32 0 64.5 8.5t62.5 24.5t56 39t45 51l56 -73
q-25 -34 -58.5 -62t-73.5 -48.5t-86 -31.5t-96 -11q-66 0 -118 19.5t-88 56.5t-55.5 90.5t-19.5 121.5v18h-35l15 72h28q1 8 2.5 16.5t3.5 17.5q2 10 4.5 19t4.5 19h-28l15 72h38q28 67 70 121.5t94 92.5t113 59t127 21q52 0 93.5 -11.5t72 -31.5t50.5 -47.5t29 -59.5z" />
    <glyph glyph-name="afii61352" unicode="&#x2116;" horiz-adv-x="1253" 
d="M1222 346q-20 -97 -84.5 -153.5t-164.5 -56.5q-49 0 -86.5 16.5t-61.5 45.5t-32.5 69.5t1.5 88.5q10 47 32.5 85t55 66t73.5 43t88 15q50 0 88 -17t61.5 -46t31.5 -69t-2 -87zM1150 0h-434l19 89h434zM627 0h-145l-174 527q-3 9 -6.5 25.5t-6.5 34.5t-5.5 35t-3.5 29h-3
q-5 -35 -13 -84t-19 -101l-99 -466h-109l166 780h142l173 -524q5 -14 10 -31t8.5 -34.5l6.5 -32.5t3 -25h3q2 13 5 34.5t6.5 45.5t8 48.5t8.5 43.5l101 475h109zM1125 350q14 63 -9 97.5t-75 34.5q-25 0 -49 -9t-44.5 -26t-35.5 -41.5t-22 -55.5q-13 -62 10.5 -97t74.5 -35
q52 0 94 34.5t56 97.5z" />
    <glyph glyph-name="trademark" unicode="&#x2122;" horiz-adv-x="790" 
d="M666 370v205q0 8 0.5 23t3.5 32l-85 -260h-81l-85 260q2 -15 2.5 -30.5t0.5 -25.5v-204h-79v410h96l98 -291q2 -5 4 -14t4 -20q2 11 4.5 19t4.5 16l96 290h96v-410h-80zM221 702v-332h-84v332h-111v78h303v-78h-108z" />
    <glyph glyph-name="Delta" unicode="&#x2206;" horiz-adv-x="700" 
d="M-1 0l342 797l334 -797h-676zM323 598l-215 -506h424z" />
    <glyph glyph-name="uni2219" unicode="&#x2219;" horiz-adv-x="345" 
d="M222 186h-129l29 140h129z" />
    <glyph glyph-name="radical" unicode="&#x221a;" horiz-adv-x="562" 
d="M414 -76h-105l-152 411l-119 -50l-38 86l213 93l137 -396l131 832h92z" />
    <glyph glyph-name="infinity" unicode="&#x221e;" horiz-adv-x="920" 
d="M912 389q0 -47 -16 -87.5t-46 -70t-71.5 -46t-92.5 -16.5q-33 0 -64 11.5t-57 30t-45 43t-30 51.5q-12 -28 -32 -52.5t-46 -43t-56 -29.5t-62 -11q-52 0 -93.5 16.5t-71 46t-45.5 70t-16 87.5t16 87t45.5 70t71.5 47t94 17q34 0 64 -10.5t55.5 -29t44.5 -43.5t31 -53
q10 27 28 51.5t43.5 43.5t56.5 30t67 11q51 0 93 -17t72 -47t46 -70t16 -87zM814 390q0 27 -10 50t-27.5 39.5t-42 26t-53.5 9.5q-51 0 -85.5 -29t-54.5 -77q-2 -6 -4.5 -11.5t-3.5 -7.5q1 -2 3.5 -9.5l4.5 -13.5q20 -46 56 -74.5t85 -28.5q28 0 52 9.5t42 26.5t28 40t10 50
zM447 390q-1 2 -3 7.5t-4 10.5q-20 48 -55 77.5t-86 29.5q-29 0 -53.5 -9.5t-42 -26t-27.5 -39.5t-10 -50t10 -50t27.5 -40t42 -26.5t52.5 -9.5q51 0 85.5 28.5t55.5 73.5q2 5 4.5 13.5t3.5 10.5z" />
    <glyph glyph-name="approxequal" unicode="&#x2248;" horiz-adv-x="839" 
d="M736.5 432q-57.5 -35 -126.5 -35q-56 0 -97.5 17.5t-79 39t-75.5 39t-86 17.5q-51 0 -89.5 -23.5t-64.5 -77.5l-51 61q13 28 34.5 52t49 41.5t59.5 27.5t66 10q54 0 96 -18.5t80 -40t76.5 -39t84.5 -17.5q27 0 52 8t46 22.5t38 34.5t27 44l54 -60q-36 -68 -93.5 -103z
M736.5 214q-57.5 -35 -126.5 -35q-56 0 -97.5 17.5t-79 39t-75.5 39t-86 17.5q-51 0 -89.5 -23.5t-64.5 -77.5l-51 61q13 28 34.5 52t49 41.5t59.5 27.5t66 10q54 0 96 -18t80 -39.5t76.5 -39.5t84.5 -18q54 1 98.5 31t64.5 78l54 -60q-36 -68 -93.5 -103z" />
    <glyph glyph-name="notequal" unicode="&#x2260;" horiz-adv-x="810" 
d="M406 247l-112 -207l-82 43l89 164h-220v83h265l67 123h-332v83h376l97 178l82 -43l-74 -135h224v-83h-269l-67 -123h336v-83h-380z" />
    <glyph glyph-name="lessequal" unicode="&#x2264;" horiz-adv-x="795" 
d="M72 431v100l686 236v-108l-551 -175l551 -183v-108zM72 37v89h687v-89h-687z" />
    <glyph glyph-name="greaterequal" unicode="&#x2265;" horiz-adv-x="795" 
d="M101 193v108l551 183l-551 175v108l686 -236v-100zM100 37v89h687v-89h-687z" />
  </font>
</defs>
</svg>
