<?xml version="1.0" standalone="no"?>
<!DOCTYPE svg PUBLIC "-//W3C//DTD SVG 1.1//EN" "http://www.w3.org/Graphics/SVG/1.1/DTD/svg11.dtd" >
<svg xmlns="http://www.w3.org/2000/svg" xmlns:xlink="http://www.w3.org/1999/xlink" version="1.1">
<metadata>
Created by FontForge 20201107 at Wed May 31 17:00:00 2006
 By Unknown
Copyright (c)2006 Fontworks Japan, Inc. All Rights Reserved.
</metadata>
<defs>
<font id="SCEPS3RodinLATIN-Bold" horiz-adv-x="690" >
  <font-face 
    font-family="SCE-PS3 Rodin LATIN"
    font-weight="700"
    font-stretch="normal"
    units-per-em="1000"
    panose-1="2 0 8 0 0 0 0 0 0 0"
    ascent="800"
    descent="-200"
    x-height="554"
    cap-height="780"
    bbox="-65 -212 1248 1047"
    underline-thickness="50"
    underline-position="-100"
    unicode-range="U+0020-2265"
  />
<missing-glyph horiz-adv-x="500" 
d="M63 0v699h375v-699h-375zM125 63h250v574h-250v-574z" />
    <glyph glyph-name=".notdef" horiz-adv-x="500" 
d="M63 0v699h375v-699h-375zM125 63h250v574h-250v-574z" />
    <glyph glyph-name="NULL" horiz-adv-x="0" 
 />
    <glyph glyph-name="nonmarkingreturn" horiz-adv-x="367" 
 />
    <glyph glyph-name="space" unicode=" " horiz-adv-x="345" 
 />
    <glyph glyph-name="exclam" unicode="!" horiz-adv-x="400" 
d="M259 233h-120l-16 547h151zM124 0v154h149v-154h-149z" />
    <glyph glyph-name="quotedbl" unicode="&#x22;" horiz-adv-x="500" 
d="M401 482h-100l-14 298h135zM189 482h-100l-14 298h134z" />
    <glyph glyph-name="numbersign" unicode="#" 
d="M522 484l-33 -161h116v-125h-144l-42 -198h-107l43 198h-120l-42 -198h-108l43 198h-105v125h132l35 161h-107v125h134l38 171h104l-36 -171h121l37 171h105l-36 -171h114v-125h-142zM295 484l-33 -161h120l35 161h-122z" />
    <glyph glyph-name="dollar" unicode="$" 
d="M630 229q0 -98 -62 -156t-177 -68v-86h-82v85q-96 9 -160.5 59t-92.5 131l99 70q19 -54 61 -90.5t93 -48.5v228l-56 17q-90 27 -131.5 73t-41.5 125q0 42 16 78t45.5 63.5t72 45t95.5 21.5v64h82v-65q80 -8 136 -42.5t82 -101.5l-95 -71q-15 43 -46.5 68.5t-76.5 34.5
v-200l41 -13q45 -14 81.5 -34.5t62.5 -47.5t40 -61.5t14 -77.5zM309 667q-46 -5 -73 -30t-27 -58q0 -59 85 -87q3 -1 7 -2q3 -1 5 -2t3 -1v180zM495 212q0 40 -22 64.5t-67 43.5q-2 0 -8 3q-4 2 -7 3v-203q47 5 75.5 29t28.5 60z" />
    <glyph glyph-name="percent" unicode="%" horiz-adv-x="1000" 
d="M944 194q0 -42 -11.5 -81t-34.5 -68t-58.5 -46.5t-83.5 -17.5q-47 0 -82 18t-58.5 47.5t-35 68t-11.5 79.5q0 42 13.5 80.5t38 68t59 47.5t76.5 18q48 0 83.5 -18t58.5 -48t34.5 -68.5t11.5 -79.5zM279 0h-114l553 780h114zM431 585q0 -40 -13 -78.5t-38 -68.5t-59.5 -48
t-78.5 -18q-48 0 -83 18t-58 47.5t-34.5 68t-11.5 79.5q0 43 11.5 81.5t34.5 68t58 47t83 17.5t83.5 -18t59 -48t35 -68.5t11.5 -79.5zM829 194q0 63 -22 89.5t-51 26.5q-28 0 -50 -26.5t-22 -89.5q0 -59 21.5 -86.5t50.5 -27.5q31 0 52 27t21 87zM314 585q0 63 -21.5 89.5
t-50.5 26.5t-51 -26.5t-22 -89.5q0 -59 21.5 -86.5t51.5 -27.5t51 27t21 87z" />
    <glyph glyph-name="ampersand" unicode="&#x26;" horiz-adv-x="741" 
d="M680 -16q-35 17 -75.5 41t-72.5 48q-38 -39 -91 -65.5t-124 -26.5q-67 0 -118 17t-85 47.5t-51 73t-17 94.5q0 64 38 119.5t104 97.5q-31 48 -52.5 93t-21.5 90q0 38 13 71.5t38.5 59t63 40.5t86.5 15q47 0 84 -13.5t63 -37.5t39.5 -57t13.5 -73q0 -136 -160 -221
q29 -34 70 -75.5t89 -83.5q20 39 30 85.5t13 88.5l108 -34q-5 -60 -18.5 -111t-39.5 -98q35 -25 77 -49t80 -38zM395 614q0 35 -20 59t-57 24q-36 0 -59 -23.5t-23 -60.5q0 -32 16 -64t40 -67q56 30 79.5 61t23.5 71zM438 147q-55 51 -103.5 101.5t-86.5 95.5
q-36 -23 -57 -54t-21 -68q0 -26 9.5 -49.5t28.5 -41t48 -28t68 -10.5q36 0 64 15.5t50 38.5z" />
    <glyph glyph-name="quotesingle" unicode="'" horiz-adv-x="345" 
d="M226 481h-117l-14 299h151z" />
    <glyph glyph-name="parenleft" unicode="(" horiz-adv-x="400" 
d="M247 598q-51 -114 -51 -258q1 -149 53 -261t137 -183l-85 -57q-63 50 -107 106.5t-71 119.5t-39 131.5t-12 143.5t12 144t39 132t71 120t107 108l86 -56q-89 -76 -140 -190z" />
    <glyph glyph-name="parenright" unicode=")" horiz-adv-x="400" 
d="M328 340q0 -75 -12 -143.5t-39 -131.5t-71 -119.5t-107 -106.5l-85 57q85 71 137 183t53 261q0 144 -51 258t-140 190l86 56q63 -51 107 -108t71 -120t39 -132t12 -144z" />
    <glyph glyph-name="asterisk" unicode="*" horiz-adv-x="500" 
d="M342 525l66 -127l-80 -48l-78 123l-79 -122l-79 47l66 127l-142 7v91l142 9l-67 128l80 47l79 -123l77 123l81 -47l-66 -129l141 -8v-90z" />
    <glyph glyph-name="plus" unicode="+" 
d="M407 219v-219h-131v219h-220v125h220v211h131v-211h226v-125h-226z" />
    <glyph glyph-name="comma" unicode="," horiz-adv-x="345" 
d="M229.5 -83q-20.5 -40 -59.5 -63l-52 47q29 13 46 40t17 59h-83v163h152v-155q0 -51 -20.5 -91z" />
    <glyph glyph-name="hyphen" unicode="-" horiz-adv-x="476" 
d="M52 209v128h372v-128h-372z" />
    <glyph glyph-name="period" unicode="." horiz-adv-x="345" 
d="M98 0v163h152v-163h-152z" />
    <glyph glyph-name="slash" unicode="/" horiz-adv-x="400" 
d="M110 -23h-117l293 826h117z" />
    <glyph glyph-name="zero" unicode="0" 
d="M640 391q0 -92 -17.5 -167.5t-54 -129.5t-92 -83.5t-131.5 -29.5t-131.5 28t-91.5 81t-53.5 129t-17.5 172q0 87 17.5 161.5t53.5 129t91.5 86t131.5 31.5t131.5 -31t92 -85.5t54 -129t17.5 -162.5zM492 391q0 62 -9 113.5t-27.5 89t-46 58.5t-64.5 21t-64.5 -20.5
t-45.5 -57.5t-27 -89t-9 -115q0 -132 36.5 -208t109.5 -76t110 76t37 208z" />
    <glyph glyph-name="one" unicode="1" 
d="M309 0v570l-137 -59l-39 119q71 23 120 61t72 89h134v-780h-150z" />
    <glyph glyph-name="two" unicode="2" 
d="M80 0v81q0 58 19 106t51.5 87.5t75.5 70.5t92 55q45 22 75 43t49 41.5t27 41.5t8 42q0 49 -32.5 78t-94.5 29q-27 0 -50.5 -10.5t-40.5 -29.5t-27.5 -46.5t-11.5 -62.5l-134 34q2 54 23 98.5t57 75.5t85 48t106 17q65 0 115 -16.5t84.5 -46t52.5 -70.5t18 -89
q0 -42 -12 -78.5t-38.5 -69.5t-68 -62.5t-101.5 -57.5q-35 -16 -65 -36.5t-52 -44t-34.5 -48.5t-13.5 -51h387v-129h-549z" />
    <glyph glyph-name="three" unicode="3" 
d="M620 217q0 -109 -73.5 -172.5t-222.5 -63.5q-118 0 -189.5 50.5t-96.5 136.5l128 53q14 -57 57 -87t99 -30q31 0 58.5 8.5t48.5 23.5t33 37t12 49q0 58 -39.5 91t-116.5 33h-98v126h84q30 0 56 7.5t45.5 21.5t30.5 33.5t11 43.5q0 48 -32.5 74.5t-83.5 26.5
q-58 0 -92.5 -29t-42.5 -74l-127 41q8 37 28 70t53 58t79.5 39.5t106.5 14.5t108 -14.5t81 -41t51 -63.5t18 -82q0 -74 -39.5 -119.5t-103.5 -59.5q33 -5 63.5 -20t54 -40t37.5 -60.5t14 -81.5z" />
    <glyph glyph-name="four" unicode="4" 
d="M538 164v-164h-139v164h-362v127l349 489h152v-492h118v-124h-118zM399 601l-214 -313h214v313z" />
    <glyph glyph-name="five" unicode="5" 
d="M638 259q0 -68 -22 -120t-61 -87t-92.5 -53t-116.5 -18q-114 0 -190.5 51.5t-102.5 142.5l136 42q14 -55 58 -83.5t100 -28.5q28 0 54.5 9.5t47 29t33 48t12.5 67.5q0 41 -12.5 70t-33 48t-47 27.5t-54.5 8.5q-21 0 -42.5 -6.5t-40 -18t-33.5 -27t-23 -34.5l-137 28
l35 425h479v-125h-351l-20 -191l2 -1q19 26 61.5 44t94.5 18t100 -15t85 -47t59 -82.5t22 -121.5z" />
    <glyph glyph-name="six" unicode="6" 
d="M642 258q0 -66 -20 -117.5t-57 -87t-89.5 -54t-117.5 -18.5q-67 0 -124 23t-98 71t-64 123t-23 179q0 113 23.5 193t65 131t98.5 74.5t125 23.5q100 0 166.5 -37.5t101.5 -115.5l-110 -65q-20 52 -60.5 76t-98.5 24q-36 0 -67 -14.5t-54.5 -46t-37 -81.5t-13.5 -121
q10 19 27.5 36.5t41 31t51 21.5t57.5 8q53 0 103 -15t88.5 -46.5t62 -80t23.5 -115.5zM501 249q0 38 -12 65.5t-32 46.5t-47 28t-56 9q-58 0 -100 -32.5t-55 -89.5q4 -43 17.5 -76t34.5 -55.5t47.5 -34.5t56.5 -12q27 0 53.5 9t47 27.5t33 47t12.5 67.5z" />
    <glyph glyph-name="seven" unicode="7" 
d="M508 533q-54 -83 -89.5 -174t-53 -184.5t-17.5 -175.5h-153q1 92 23 186.5t57 181t80.5 159.5t92.5 123h-369v131h556v-103q-73 -61 -127 -144z" />
    <glyph glyph-name="eight" unicode="8" 
d="M646 222q0 -51 -21 -95t-60 -76.5t-95 -51t-125 -18.5q-68 0 -123.5 18t-95 50t-61 76t-21.5 97q0 70 34 124.5t109 77.5q-30 12 -50.5 29.5t-33 40t-18 48.5t-5.5 54q0 46 20 83.5t55.5 64t84 41t105.5 14.5q59 0 107.5 -14t84 -40t55 -64t19.5 -85q0 -56 -23 -102
t-81 -69q74 -26 106.5 -78.5t32.5 -124.5zM475 586q0 48 -36.5 76t-93.5 28q-55 0 -92 -27.5t-37 -76.5q0 -47 37 -75t92 -28q57 0 93.5 28t36.5 75zM499 231q0 56 -42 89t-111 33q-70 0 -112 -33t-42 -89q0 -33 13 -57.5t34.5 -41.5t49 -25.5t57.5 -8.5t57.5 8.5t49 25
t34 41.5t12.5 58z" />
    <glyph glyph-name="nine" unicode="9" 
d="M635 405q0 -115 -22 -195.5t-63 -131.5t-98.5 -74t-128.5 -23q-103 0 -171 40.5t-102 118.5l110 65q20 -52 63.5 -79t100.5 -27q39 0 70.5 15t54 47t35 82.5t12.5 120.5q-10 -20 -28 -38t-41 -31.5t-50.5 -21t-57.5 -7.5q-53 0 -103 15t-88.5 46.5t-62 79.5t-23.5 115
q0 66 20 117.5t57 87t89.5 54t117.5 18.5q68 0 124.5 -22.5t97.5 -70.5t64 -122.5t23 -178.5zM485 506q-4 43 -17.5 75.5t-34.5 55t-47.5 34t-56.5 11.5q-28 0 -54.5 -9t-46.5 -27.5t-32.5 -47t-12.5 -67.5q0 -37 12 -64.5t32.5 -46t47 -27.5t55.5 -9q58 0 100 32.5t55 89.5
z" />
    <glyph glyph-name="colon" unicode=":" horiz-adv-x="400" 
d="M127 398v157h151v-157h-151zM127 0v157h151v-157h-151z" />
    <glyph glyph-name="semicolon" unicode=";" horiz-adv-x="400" 
d="M127 397v158h151v-158h-151zM257.5 -83q-20.5 -40 -59.5 -63l-52 47q29 13 46 40t17 59h-82v158h151v-150q0 -51 -20.5 -91z" />
    <glyph glyph-name="less" unicode="&#x3c;" 
d="M86 211v131l476 250v-133l-348 -182l348 -178v-137z" />
    <glyph glyph-name="equal" unicode="=" 
d="M70 343v114h550v-114h-550zM70 111v115h550v-115h-550z" />
    <glyph glyph-name="greater" unicode="&#x3e;" 
d="M128 -38v137l348 178l-348 182v133l476 -250v-131z" />
    <glyph glyph-name="question" unicode="?" 
d="M610 592q0 -71 -27 -117t-82 -83q-21 -14 -38 -25.5t-29.5 -25t-19.5 -30t-7 -39.5v-5v-21.5t1 -23.5h-134q-2 14 -2 29v25q0 35 8 61.5t22.5 48.5t35.5 40t47 35q36 24 56 52.5t20 67.5q0 45 -35 72.5t-88 27.5t-88.5 -34t-37.5 -96l-135 21q2 54 24 96t58.5 71
t85.5 44.5t105 15.5q57 0 104.5 -15.5t82 -43.5t54 -66t19.5 -82zM268 0v154h147v-154h-147z" />
    <glyph glyph-name="at" unicode="@" horiz-adv-x="891" 
d="M844 444q0 -46 -12 -96t-37.5 -91t-66 -67.5t-98.5 -26.5q-31 0 -62 11.5t-49 39.5q-20 -26 -53.5 -41t-71.5 -15q-45 0 -79.5 15t-58 41t-35.5 61.5t-12 75.5q0 63 16 114.5t45 88.5t68.5 57t85.5 20q35 0 62 -14.5t38 -42.5l10 46l120 -25q-12 -61 -22 -112
q-4 -22 -8 -43.5t-8 -40t-6.5 -32.5t-3.5 -20q-3 -16 -3 -28q0 -28 12 -38.5t29 -11.5h3q18 0 36 10t31.5 31t22 54t8.5 79q0 58 -16 108.5t-50.5 88.5t-88.5 60t-129 22q-69 0 -128 -24t-102.5 -68t-68.5 -105t-25 -136q0 -78 24.5 -138.5t66.5 -102t98.5 -63t120.5 -21.5
q107 0 187 29.5t137 87.5l43 -65q-33 -35 -70 -60t-81 -41.5t-97.5 -24.5t-118.5 -8q-92 0 -166.5 28.5t-127.5 81.5t-82 128.5t-29 169.5q0 91 31.5 166.5t87.5 129.5t133 83.5t167 29.5q95 0 166.5 -27.5t119.5 -75t72.5 -112.5t24.5 -140zM500 457q-2 29 -21 45.5
t-49 16.5q-17 0 -33.5 -9.5t-30 -29t-22 -49t-8.5 -70.5q0 -48 22 -68t48 -20q35 0 49.5 17t19.5 37q3 11 6 27t6.5 34.5t7 36.5t5.5 32z" />
    <glyph glyph-name="A" unicode="A" horiz-adv-x="727" 
d="M576 0l-70 203h-286l-71 -203h-150l271 780h188l269 -780h-151zM418 454q-9 26 -17.5 52t-15.5 50t-12.5 44.5t-7.5 33.5h-8q-2 -13 -7 -33.5t-12 -44.5t-15 -50t-17 -52q-20 -60 -44 -126h201q-25 66 -45 126z" />
    <glyph glyph-name="B" unicode="B" horiz-adv-x="722" 
d="M684 218q0 -49 -18.5 -89.5t-53 -69t-84 -44t-110.5 -15.5h-327v780h308q54 0 98.5 -14.5t76 -40.5t48.5 -61.5t17 -78.5q0 -69 -32.5 -112t-89.5 -54l1 -2q32 -3 61.5 -17.5t53 -40t37.5 -61t14 -80.5zM492 558q0 26 -10 45t-26.5 32t-37.5 19t-44 6h-135v-197h145
q49 0 78.5 23.5t29.5 71.5zM535 238q0 28 -12 48.5t-31.5 34t-45 20.5t-52.5 7h-155v-224h159q61 0 99 29t38 85z" />
    <glyph glyph-name="C" unicode="C" horiz-adv-x="729" 
d="M591.5 23q-74.5 -42 -175.5 -42q-82 0 -149 28.5t-115 82t-74.5 129.5t-26.5 172q0 92 26.5 166.5t74.5 128t115 82.5t148 29q52 0 97 -11.5t81 -32t62.5 -48t41.5 -60.5l-94 -87q-11 23 -29 43t-41.5 34.5t-50 22.5t-55.5 8q-46 0 -85.5 -19t-68.5 -54t-46 -86t-17 -116
q0 -70 17.5 -122.5t47 -87.5t69 -52t84.5 -17q28 0 56 8t52.5 23t44.5 36t32 46l90 -92q-37 -70 -111.5 -112z" />
    <glyph glyph-name="D" unicode="D" horiz-adv-x="791" 
d="M740 390q0 -87 -25.5 -159t-73 -123t-115 -79.5t-150.5 -28.5h-285v780h281q83 0 151 -27.5t116 -78.5t74.5 -123t26.5 -161zM590 391q0 62 -16.5 111t-47.5 82.5t-74.5 51.5t-97.5 18h-113v-528h117q54 0 97 19.5t73 54.5t46 83.5t16 107.5z" />
    <glyph glyph-name="E" unicode="E" horiz-adv-x="678" 
d="M91 0v780h527v-125h-379v-193h329v-122h-329v-215h398v-125h-546z" />
    <glyph glyph-name="F" unicode="F" horiz-adv-x="636" 
d="M241 655v-214h315v-121h-315v-320h-150v780h509v-125h-359z" />
    <glyph glyph-name="G" unicode="G" horiz-adv-x="784" 
d="M608.5 17q-73.5 -36 -179.5 -36q-85 0 -154.5 28t-119 80.5t-77 129.5t-27.5 174q0 93 26.5 168.5t74.5 128t114 81t145 28.5q115 0 189.5 -43t108.5 -110l-93 -88q-27 52 -75 83.5t-115 31.5q-48 0 -89 -18.5t-70.5 -54.5t-46.5 -88t-17 -119q0 -71 18 -125t49 -90.5
t72 -55t87 -18.5q60 0 102 20.5t62 55.5v131h-189v124h318v-312q-40 -70 -113.5 -106z" />
    <glyph glyph-name="H" unicode="H" horiz-adv-x="792" 
d="M550 0v341h-309v-341h-150v780h150v-314h309v314h151v-780h-151z" />
    <glyph glyph-name="I" unicode="I" horiz-adv-x="342" 
d="M95 0v780h152v-780h-152z" />
    <glyph glyph-name="J" unicode="J" horiz-adv-x="484" 
d="M328 28q-59 -47 -158 -47q-43 0 -78.5 5t-63.5 13l-9 130q29 -11 63 -17t59 -6q42 0 69 22t27 69v583h150v-612q0 -93 -59 -140z" />
    <glyph glyph-name="K" unicode="K" horiz-adv-x="706" 
d="M548 0l-241 356l-70 -72v-284h-146v780h146v-311l288 311h173l-290 -317l316 -463h-176z" />
    <glyph glyph-name="L" unicode="L" horiz-adv-x="621" 
d="M91 0v780h150v-646h351v-134h-501z" />
    <glyph glyph-name="M" unicode="M" horiz-adv-x="934" 
d="M707 0v388q0 24 1 61.5t2.5 77t3.5 75.5t3 57h-5q-1 -17 -4 -38.5t-7.5 -43.5t-9 -42.5t-9.5 -36.5l-142 -498h-149l-147 496q-4 15 -9 36t-9.5 43.5t-8 44t-5.5 39.5h-5q2 -22 3.5 -58t3 -75t2.5 -77t1 -64v-385h-126v780h205l147 -502q5 -16 8.5 -37.5t6 -41.5t4.5 -35
t3 -20h3q1 4 2.5 19.5t4 35.5t6 41t7.5 37l143 503h212v-780h-136z" />
    <glyph glyph-name="N" unicode="N" horiz-adv-x="789" 
d="M514 0l-231 450q-10 20 -20.5 44.5t-19.5 50t-16 48.5t-11 40h-3q2 -18 5 -50t6 -69.5t5.5 -77.5t2.5 -74v-362h-141v780h179l231 -447q26 -50 47 -99t27 -80l4 -1q-3 20 -7 52.5t-7 68.5t-5 71.5t-2 60.5v374h140v-780h-184z" />
    <glyph glyph-name="O" unicode="O" horiz-adv-x="806" 
d="M751 392q0 -91 -24 -166.5t-69.5 -130t-110 -84.5t-145.5 -30t-146 30t-110.5 84.5t-70 130t-24.5 166.5q0 89 24.5 163.5t70 128.5t110.5 84.5t146 30.5t145.5 -30.5t110 -84.5t69.5 -128.5t24 -163.5zM600 392q0 65 -14.5 116.5t-40.5 87.5t-62.5 55.5t-80.5 19.5
q-42 0 -78.5 -19.5t-63.5 -55.5t-42.5 -87.5t-15.5 -116.5t15 -117.5t41.5 -89t63 -56.5t80.5 -20q42 0 78.5 20t63 56.5t41.5 89t15 117.5z" />
    <glyph glyph-name="P" unicode="P" horiz-adv-x="701" 
d="M658 521q0 -59 -17.5 -107t-50.5 -82t-80 -52.5t-107 -18.5h-164v-261h-148v780h314q57 0 103.5 -19t80 -53.5t51.5 -82t18 -104.5zM510 520q0 33 -10.5 58.5t-29.5 42.5t-44.5 25.5t-54.5 8.5h-134v-269h135q29 0 54 8.5t43.5 25t29.5 42t11 58.5z" />
    <glyph glyph-name="Q" unicode="Q" horiz-adv-x="802" 
d="M618 -145q-37 24 -77.5 63t-73.5 77q-10 -4 -29 -6t-36 -2q-81 0 -146 29.5t-110.5 83.5t-70 129t-24.5 166q0 89 24.5 163t70 127.5t110.5 83.5t146 30t146 -30t110 -83.5t69.5 -127.5t24.5 -163q0 -116 -40 -205.5t-114 -141.5q61 -62 155 -119zM603 395
q0 65 -14.5 117.5t-41 89t-63.5 56t-82 19.5q-42 0 -79 -19.5t-64.5 -56t-43.5 -89t-16 -117.5q0 -66 15 -118.5t42 -90t64.5 -57.5t81.5 -20q43 0 80 20t64 57.5t42 90t15 118.5z" />
    <glyph glyph-name="R" unicode="R" horiz-adv-x="726" 
d="M533 0l-155 313h-141v-313h-146v780h315q55 0 101 -15.5t79.5 -44.5t52 -70.5t18.5 -94.5q0 -94 -38.5 -145.5t-101.5 -71.5l191 -338h-175zM506 548q0 53 -36 80.5t-91 27.5h-142v-226h144q57 0 91 30t34 88z" />
    <glyph glyph-name="S" unicode="S" horiz-adv-x="698" 
d="M635 223q0 -115 -74 -178.5t-213 -63.5q-118 0 -194.5 54.5t-108.5 148.5l112 75q25 -69 77.5 -110t113.5 -41q66 0 101 27.5t35 72.5q0 42 -26.5 70t-89.5 49l-113 39q-46 16 -79.5 35.5t-55.5 45t-32.5 57.5t-10.5 74q0 45 18 85.5t52.5 70.5t83.5 47.5t111 17.5
q103 0 171 -37.5t100 -117.5l-109 -78q-20 55 -61 82.5t-96 27.5q-63 0 -95 -26.5t-32 -64.5q0 -32 23 -54t76 -39l120 -39q93 -30 144.5 -85t51.5 -145z" />
    <glyph glyph-name="T" unicode="T" horiz-adv-x="624" 
d="M387 655v-655h-151v655h-219v125h590v-125h-220z" />
    <glyph glyph-name="U" unicode="U" horiz-adv-x="792" 
d="M678 146q-23 -52 -63.5 -89t-96.5 -56.5t-122 -19.5q-68 0 -124 20t-96.5 56.5t-62.5 88.5t-22 116v518h150v-505q0 -85 41.5 -126.5t113.5 -41.5q71 0 115 42t44 126v505h146v-518q0 -64 -23 -116z" />
    <glyph glyph-name="V" unicode="V" horiz-adv-x="710" 
d="M449 0h-190l-250 780h162l155 -499q3 -9 5.5 -18t4.5 -17q7 -26 12 -47t8 -41h4q5 26 11.5 57t17.5 67l153 498h156z" />
    <glyph glyph-name="W" unicode="W" horiz-adv-x="956" 
d="M761 0h-165l-94 468q-4 18 -7.5 41.5t-6.5 47.5t-5 46t-2 36h-2q-1 -15 -3 -36.5t-4.5 -45.5t-6 -47.5t-7.5 -41.5l-92 -468h-170l-172 780h148l97 -472q3 -16 5.5 -36.5t4 -42t2.5 -42t2 -38.5h3q1 17 3 37.5t4 42t5 41.5t6 36l97 474h158l103 -473q3 -13 5.5 -31.5
t5 -39.5t4.5 -43t3 -41h3q1 19 2.5 40.5t3 42t3 39t4.5 31.5l92 475h142z" />
    <glyph glyph-name="X" unicode="X" horiz-adv-x="666" 
d="M489 0l-159 277l-161 -277h-161l239 399l-228 381h165l148 -259l149 259h162l-226 -376l241 -404h-169z" />
    <glyph glyph-name="Y" unicode="Y" horiz-adv-x="632" 
d="M392 272v-272h-151v272l-252 508h154l175 -365l177 365h148z" />
    <glyph glyph-name="Z" unicode="Z" horiz-adv-x="683" 
d="M59 0v120l392 535h-365v125h541v-111l-395 -544h395v-125h-568z" />
    <glyph glyph-name="bracketleft" unicode="[" horiz-adv-x="400" 
d="M109 -150v980h277v-109h-158v-762h158v-109h-277z" />
    <glyph glyph-name="backslash" unicode="\" horiz-adv-x="400" 
d="M286 -23l-293 826h117l293 -826h-117z" />
    <glyph glyph-name="bracketright" unicode="]" horiz-adv-x="400" 
d="M14 -150v109h159v762h-159v109h277v-980h-277z" />
    <glyph glyph-name="asciicircum" unicode="^" 
d="M506 299l-161 342l-162 -342l-105 53l184 428h164l187 -428z" />
    <glyph glyph-name="underscore" unicode="_" horiz-adv-x="500" 
d="M0 -160v84h500v-84h-500z" />
    <glyph glyph-name="grave" unicode="`" horiz-adv-x="400" 
d="M290 600l-221 130l71 104l212 -134z" />
    <glyph glyph-name="a" unicode="a" horiz-adv-x="602" 
d="M570 -7q-11 -3 -22.5 -4t-22.5 -1q-42 0 -74.5 18t-39.5 53q-26 -37 -80 -54t-117 -17q-85 0 -128 39.5t-45 109.5v5q0 80 48.5 125t144.5 66q28 6 53 13.5t43.5 15.5t29.5 17.5t11 21.5q0 32 -22.5 44t-72.5 12q-19 0 -42.5 -6.5t-47 -17.5t-44 -27t-32.5 -34l-58 102
q38 45 97.5 69t137.5 24q116 0 174.5 -42.5t58.5 -133.5v-237q0 -26 13 -37t36 -11q14 0 29 3zM376 288q-14 -14 -42 -25t-65 -21q-42 -11 -66 -29t-24 -56v-6q2 -55 71 -55q18 0 38 5t38 15t31.5 24.5t18.5 33.5v114z" />
    <glyph glyph-name="b" unicode="b" horiz-adv-x="649" 
d="M608 278q0 -72 -17.5 -126t-49.5 -90.5t-76 -55t-98 -18.5q-27 0 -53 5.5t-48 15.5t-39.5 24t-27.5 31l-25 -64h-103v780h142v-279q18 31 60 48.5t93 17.5q55 0 100 -18.5t76.5 -55t48.5 -90.5t17 -125zM464 278q0 89 -36 132t-97 43q-25 0 -47 -9.5t-38.5 -26.5
t-26 -39.5t-9.5 -49.5v-153q19 -31 48 -53.5t74 -22.5q57 0 94.5 44t37.5 135z" />
    <glyph glyph-name="c" unicode="c" horiz-adv-x="584" 
d="M459.5 9q-50.5 -21 -128.5 -21q-58 0 -110.5 18.5t-92.5 54.5t-63.5 90.5t-23.5 126.5q0 68 22 121.5t61 91t92 57t115 19.5q72 0 122.5 -18.5t89.5 -54.5l-48 -112q-26 36 -64 53t-81 17q-30 0 -59.5 -10.5t-53 -31.5t-38 -54t-14.5 -78t14 -78t37.5 -55t54 -32.5
t62.5 -10.5q42 0 83.5 19t66.5 55l47 -104q-40 -42 -90.5 -63z" />
    <glyph glyph-name="d" unicode="d" horiz-adv-x="656" 
d="M467 0v74q-11 -23 -30 -39.5t-42.5 -27t-49 -15t-49.5 -4.5q-55 0 -102 18.5t-81 55t-53 90.5t-19 125t20.5 125.5t55 91t80.5 55t97 18.5q54 0 91 -15.5t58 -41.5v270h142v-780h-118zM447 371q-16 37 -47 60t-76 23q-28 0 -53.5 -11t-44.5 -33.5t-30 -56t-11 -78.5
q0 -89 39.5 -132t100.5 -43q25 0 47.5 9.5t39 26t26 39.5t9.5 50v146z" />
    <glyph glyph-name="e" unicode="e" horiz-adv-x="612" 
d="M172 218q8 -57 51.5 -87t103.5 -30q54 0 100 24t72 69l70 -86q-22 -29 -47 -51.5t-55 -37.5t-67 -23t-82 -8q-63 0 -114 20.5t-87 58t-56 91.5t-20 120q0 62 18.5 114.5t53.5 91.5t85.5 61t115.5 22q60 0 108 -20t82 -57t52 -89.5t18 -116.5v-15zM401 429.5
q-34 26.5 -88 26.5q-62 0 -100.5 -35t-42.5 -102l270 36q-5 48 -39 74.5z" />
    <glyph glyph-name="f" unicode="f" horiz-adv-x="355" 
d="M346 683q-37 0 -59.5 -4t-34.5 -13t-15.5 -22.5t-3.5 -32.5v-56h107v-111h-101v-444h-142v444h-79v111h79v59q0 47 10.5 81.5t37 57t72.5 34t117 12.5l25 -116h-13z" />
    <glyph glyph-name="g" unicode="g" horiz-adv-x="644" 
d="M556.5 -77.5q-16.5 -41.5 -52 -70t-91.5 -42.5t-135 -14q-25 0 -51 1.5t-49.5 4.5t-43 6.5t-33.5 6.5l-32 131q22 -8 48.5 -14t54 -10t54 -6.5t48.5 -2.5q89 0 126 29.5t37 85.5v56q-21 -27 -61 -43.5t-88 -16.5q-54 0 -99 17t-78 50.5t-51.5 83.5t-18.5 117t18.5 118.5
t51 86t76.5 52.5t95 18q63 0 105 -18.5t62 -51.5l20 58h104v-535q0 -56 -16.5 -97.5zM437 374q-17 38 -48 59t-75 21q-57 0 -95.5 -39t-38.5 -124q0 -84 38.5 -124.5t96.5 -40.5q25 0 47 8.5t38.5 23.5t26.5 36t10 45v135z" />
    <glyph glyph-name="h" unicode="h" horiz-adv-x="652" 
d="M440 0v350q0 50 -28 76.5t-71 26.5q-44 0 -79 -23t-49 -67v-363h-142v780h142v-282q20 30 60.5 49.5t106.5 19.5q45 0 82 -13t64 -37t42 -58t15 -76v-383h-143z" />
    <glyph glyph-name="i" unicode="i" horiz-adv-x="290" 
d="M71 636v144h148v-144h-148zM74 0v555h143v-555h-143z" />
    <glyph glyph-name="j" unicode="j" horiz-adv-x="302" 
d="M85 636v144h147v-144h-147zM215.5 -100.5q-14.5 -35.5 -46 -57.5t-80.5 -31.5t-119 -9.5l-35 120h11q46 0 74 4t43 14.5t20 28.5t5 46v541h142v-569q0 -51 -14.5 -86.5z" />
    <glyph glyph-name="k" unicode="k" horiz-adv-x="575" 
d="M429 0l-165 234l-53 -61v-173h-136v780h142v-345q0 -17 -0.5 -36t-1.5 -36q-1 -20 -3 -40h3q5 9 13 21q7 11 17.5 25t25.5 32l133 154h157l-202 -227l229 -328h-159z" />
    <glyph glyph-name="l" unicode="l" horiz-adv-x="293" 
d="M74 0v780h145v-780h-145z" />
    <glyph glyph-name="m" unicode="m" horiz-adv-x="905" 
d="M693 0v350q0 101 -81 101q-40 0 -65 -27.5t-25 -67.5v-356h-141v350q0 101 -79 101q-34 0 -56 -22t-33 -57v-372h-142v555h130v-64q18 33 55.5 54.5t97.5 21.5q54 0 91.5 -23.5t54.5 -63.5q17 40 61.5 63.5t104.5 23.5q38 0 69 -13t53.5 -37t34.5 -58t12 -75v-384h-142z
" />
    <glyph glyph-name="n" unicode="n" horiz-adv-x="652" 
d="M440 0v350q0 50 -28 76.5t-71 26.5q-44 0 -79 -23t-49 -67v-363h-142v555h130v-71q20 38 65.5 60.5t114.5 22.5q45 0 82.5 -15t64 -41.5t41 -62.5t14.5 -78v-370h-143z" />
    <glyph glyph-name="o" unicode="o" horiz-adv-x="649" 
d="M608 277q0 -66 -19.5 -119t-56 -91t-89 -58.5t-118.5 -20.5q-65 0 -117.5 20.5t-89.5 58.5t-57 91t-20 119t20 119.5t57 91.5t89.5 58.5t117.5 20.5q66 0 118.5 -20.5t89 -58.5t56 -91.5t19.5 -119.5zM464 277q0 83 -38 129.5t-101 46.5q-61 0 -100.5 -46.5t-39.5 -129.5
q0 -40 10.5 -73t29 -55.5t44.5 -35t56 -12.5q63 0 101 46.5t38 129.5z" />
    <glyph glyph-name="p" unicode="p" horiz-adv-x="649" 
d="M608 278q0 -72 -18 -126t-51 -90.5t-78.5 -55t-99.5 -18.5q-41 0 -83 15t-65 39v-235h-142v748h129v-77q8 21 24.5 37.5t38.5 28t47 17.5t50 6q55 0 100.5 -18.5t78.5 -55t51 -90.5t18 -125zM464 278q0 89 -36 132t-97 43q-25 0 -47 -9.5t-38.5 -26.5t-26 -39.5
t-9.5 -49.5v-153q19 -31 48 -53.5t74 -22.5q57 0 94.5 44t37.5 135z" />
    <glyph glyph-name="q" unicode="q" horiz-adv-x="656" 
d="M447 -193v245q-19 -29 -57.5 -46.5t-89.5 -17.5q-55 0 -102 18.5t-81 55t-53.5 90.5t-19.5 125t20 125.5t54 91t79.5 55t96.5 18.5q63 0 105.5 -21t62.5 -51l22 60h104v-748h-141zM450 371q-16 37 -47 60t-76 23q-61 0 -100 -44.5t-39 -134.5q0 -89 39.5 -132t100.5 -43
q25 0 47.5 9.5t39 26t26 39.5t9.5 50v146z" />
    <glyph glyph-name="r" unicode="r" horiz-adv-x="422" 
d="M279.5 440.5q-48.5 -18.5 -66.5 -70.5v-370h-142v555h124v-57q14 18 31 31t39 21t50 12t65 5l23 -122q-75 14 -123.5 -4.5z" />
    <glyph glyph-name="s" unicode="s" horiz-adv-x="558" 
d="M520 155q0 -81 -60.5 -124t-178.5 -43q-76 0 -142 28t-104 79l61 100q17 -22 39.5 -40t48 -31t51.5 -20t50 -7q46 0 67.5 15.5t21.5 41.5q0 32 -28.5 50t-99.5 33q-103 21 -148 64.5t-45 105.5q0 35 15 64t44 50.5t71 33.5t97 12q76 0 136 -23.5t90 -63.5l-57 -96
q-30 38 -75 59t-96 21q-42 0 -62.5 -15t-20.5 -38q0 -11 4.5 -20t16 -17t32.5 -14.5t54 -13.5q113 -23 165.5 -69t52.5 -122z" />
    <glyph glyph-name="t" unicode="t" horiz-adv-x="391" 
d="M348 -12q-66 0 -112 7.5t-74.5 27t-41 52t-12.5 81.5v288h-79v111h85v174h136v-174h95v-111h-95v-258q0 -28 4 -44.5t17 -24t38 -9.5t67 -2z" />
    <glyph glyph-name="u" unicode="u" horiz-adv-x="652" 
d="M451 0v70q-21 -42 -69 -62t-108 -20q-45 0 -82.5 14t-64.5 39t-42 60t-15 77v377h142v-344q0 -50 28 -76.5t72 -26.5q43 0 78 22.5t49 67.5v357h142v-555h-130z" />
    <glyph glyph-name="v" unicode="v" horiz-adv-x="555" 
d="M357 0h-154l-205 554h153l108 -304q11 -30 17 -61t8 -59h3q2 28 8 59.5t16 60.5l101 304h146z" />
    <glyph glyph-name="w" unicode="w" horiz-adv-x="810" 
d="M652 0h-158l-75 335q-2 11 -4 26t-3.5 31.5t-2 32t-0.5 27.5h-3q0 -12 -1 -27.5t-2.5 -31.5t-3.5 -31.5t-5 -26.5l-79 -335h-166l-150 555h144l83 -343q2 -8 3.5 -23.5t3 -32.5t2.5 -32.5t1 -23.5h3q0 7 0.5 22.5t1.5 32.5t2.5 32.5t3.5 22.5l80 345h158l85 -348
q2 -9 3.5 -24t2.5 -30.5t1.5 -30t0.5 -22.5h3q0 8 1 22.5t1.5 30.5t2 30.5t3.5 23.5l80 348h137z" />
    <glyph glyph-name="x" unicode="x" horiz-adv-x="531" 
d="M386 0l-119 185l-123 -185h-154l196 292l-178 263h154l106 -162l105 162h149l-172 -257l195 -298h-159z" />
    <glyph glyph-name="y" unicode="y" horiz-adv-x="576" 
d="M367 -29q-16 -48 -40 -81t-58 -54t-79 -30t-104 -9l-36 119h11q44 0 72.5 4t47 16t31 33.5t25.5 55.5l-224 529h151l116 -280q12 -29 18 -59t11 -56h2q4 28 9.5 54.5t15.5 59.5l86 281h139z" />
    <glyph glyph-name="z" unicode="z" horiz-adv-x="546" 
d="M35 0v92l286 346h-264v117h443v-94l-284 -344h297v-117h-478z" />
    <glyph glyph-name="braceleft" unicode="{" horiz-adv-x="400" 
d="M355 -159h-47q-32 0 -63 7.5t-55 24.5t-39 44.5t-15 66.5v8t1 9q2 22 6 50t8.5 56.5t8 55.5t3.5 46v4q0 40 -14 55t-40 15h-23v114h23q26 0 40 15t14 56v4q0 19 -3.5 46t-8 55.5t-8.5 56.5t-6 50q-1 5 -1 9v8q0 39 15 66t39 44t55 24.5t63 7.5h47l17 -100h-39
q-76 0 -76 -74q0 -5 0.5 -9t0.5 -9q1 -20 5 -45.5t8.5 -52.5t8 -53.5t3.5 -48.5q0 -48 -18.5 -74t-49.5 -33q31 -7 49.5 -33.5t18.5 -73.5q0 -22 -3.5 -48.5t-8 -53.5t-8.5 -52.5t-5 -45.5q0 -5 -0.5 -9t-0.5 -9q0 -74 76 -74h39z" />
    <glyph glyph-name="bar" unicode="|" horiz-adv-x="345" 
d="M121 -23v826h102v-826h-102z" />
    <glyph glyph-name="braceright" unicode="}" horiz-adv-x="400" 
d="M291 283q-26 0 -40 -15t-14 -55v-4q0 -19 3.5 -46t8 -55.5t8.5 -56.5t6 -50q1 -5 1 -9v-8q0 -39 -15 -66.5t-39 -44.5t-55 -24.5t-63 -7.5h-47l-17 100h39q76 0 76 74q0 5 -0.5 9t-0.5 9q-1 20 -5 45.5t-8.5 52.5t-8 53.5t-3.5 48.5q0 47 18.5 73.5t49.5 33.5
q-31 7 -49.5 33t-18.5 74q0 22 3.5 48.5t8 53.5t8.5 52.5t5 45.5q0 5 0.5 9t0.5 9q0 74 -76 74h-39l17 100h47q32 0 63 -7.5t55 -24.5t39 -44t15 -66v-8t-1 -9q-2 -22 -6 -50t-8.5 -56.5t-8 -55.5t-3.5 -46v-4q0 -41 14 -56t40 -15h23v-114h-23z" />
    <glyph glyph-name="asciitilde" unicode="~" 
d="M593.5 243.5q-15.5 -11.5 -37.5 -21t-48 -16t-53 -6.5q-33 0 -60.5 10t-53 22t-50.5 21.5t-52 9.5q-51 0 -91 -18.5t-72 -45.5v130q10 11 27 22t38.5 20t47 14.5t51.5 5.5q32 0 58.5 -9.5t51.5 -21t50 -21t55 -9.5q54 0 94 19t67 43v-128q-7 -9 -22.5 -20.5z" />
    <glyph glyph-name="uni00A0" unicode="&#xa0;" horiz-adv-x="345" 
 />
    <glyph glyph-name="exclamdown" unicode="&#xa1;" horiz-adv-x="400" 
d="M124 427v154h149v-154h-149zM123 -199l16 547h120l15 -547h-151z" />
    <glyph glyph-name="cent" unicode="&#xa2;" horiz-adv-x="581" 
d="M458 15q-50 -20 -126 -20h-13t-13 1l-31 -107l-75 22l29 100q-39 12 -73 35t-58.5 56.5t-38.5 78t-14 99.5q0 68 21.5 120.5t60 89t91 55.5t114.5 19q16 0 30.5 -1t28.5 -4l31 104l75 -20l-31 -103q40 -16 73 -47l-44 -105q-24 31 -59 48l-98 -333h16q41 0 82 18t67 53
l44 -97q-39 -42 -89 -62zM347.5 449h-10.5q-7 0 -13 -0.5t-13 -1.5q-25 -4 -49.5 -16t-43.5 -32.5t-30.5 -50t-11.5 -68.5q0 -60 25.5 -97.5t61.5 -54.5l96 320q-6 1 -11.5 1z" />
    <glyph glyph-name="sterling" unicode="&#xa3;" horiz-adv-x="743" 
d="M598.5 6q-50.5 -17 -98.5 -17q-37 0 -70.5 8t-61.5 20q-17 7 -36.5 10t-40.5 3q-45 0 -88.5 -11.5t-73.5 -29.5l-67 102q33 19 61.5 43t49.5 51.5t32.5 58.5t11.5 64v8.5t-1 8.5h-158v94h137q-13 32 -26.5 63.5t-18.5 67.5q-3 17 -3 34q0 45 17.5 83t49.5 66.5t77.5 44.5
t100.5 16q114 0 175.5 -56.5t71.5 -150.5l-116 -37q-9 63 -43.5 95.5t-87.5 32.5q-57 0 -88 -31.5t-31 -76.5q0 -14 3 -28q8 -36 19.5 -62.5t22.5 -60.5h218v-94h-200q1 -8 1.5 -15t0.5 -15q0 -49 -21.5 -95t-69.5 -75q44 12 81 12q38 0 80 -14q20 -7 41 -12t44 -5
q32 0 67.5 13t77.5 48l61 -100q-50 -44 -100.5 -61z" />
    <glyph glyph-name="currency" unicode="&#xa4;" horiz-adv-x="567" 
d="M469 69l-68 67q-26 -15 -55 -23.5t-61 -8.5t-61.5 8.5t-55.5 23.5l-67 -67l-78 78l67 67q-15 26 -23.5 55.5t-8.5 61.5t8.5 61t23.5 55l-67 68l78 78l67 -68q53 33 117 33q32 0 61.5 -8.5t55.5 -23.5l67 67l78 -78l-67 -68q15 -26 23.5 -55t8.5 -61t-8.5 -61.5
t-23.5 -55.5l67 -67zM405 331q0 25 -9.5 46.5t-26 38t-38 26t-46.5 9.5t-46.5 -9.5t-38 -26t-26 -38t-9.5 -46.5t9.5 -46.5t26 -38t38 -26t46.5 -9.5t46.5 9.5t38 26t26 38t9.5 46.5z" />
    <glyph glyph-name="yen" unicode="&#xa5;" 
d="M463 422h166v-89h-209v-106h209v-90h-209v-137h-151v137h-207v90h207v106h-207v89h164l-193 358h154l158 -315l160 315h152z" />
    <glyph glyph-name="brokenbar" unicode="&#xa6;" horiz-adv-x="345" 
d="M121 477v326h102v-326h-102zM121 -23v326h102v-326h-102z" />
    <glyph glyph-name="section" unicode="&#xa7;" horiz-adv-x="674" 
d="M615 370q0 -60 -32.5 -97.5t-95.5 -48.5q39 -16 59.5 -52t20.5 -74q0 -86 -54 -129.5t-174 -43.5q-100 0 -162.5 43.5t-85.5 128.5l112 39q23 -105 135 -105q54 0 78.5 18t24.5 51q0 30 -19.5 49.5t-64.5 34.5l-112 38q-48 17 -83 34.5t-57.5 39t-33.5 48.5t-11 63
q0 57 31 92t87 46q-32 26 -46 54t-14 61q0 35 15 65.5t43.5 52.5t68.5 34.5t91 12.5q94 0 151 -40t74 -116l-108 -38q-11 42 -42 66t-74 24q-47 0 -69.5 -17t-22.5 -42q0 -27 16.5 -43.5t60.5 -30.5l107 -33q47 -14 81.5 -30.5t58 -38.5t35 -50t11.5 -66zM486 359
q0 17 -4.5 31.5t-15 26t-28.5 21.5t-46 18l-90 27q-57 0 -85 -20t-28 -49q0 -33 20 -53.5t73 -38.5l89 -30q60 0 87.5 18t27.5 49z" />
    <glyph glyph-name="dieresis" unicode="&#xa8;" horiz-adv-x="500" 
d="M289 675v135h123v-135h-123zM89 675v135h123v-135h-123z" />
    <glyph glyph-name="copyright" unicode="&#xa9;" horiz-adv-x="777" 
d="M746 357q0 -74 -28 -139t-77 -113.5t-114 -76.5t-139 -28t-139 28t-113.5 76.5t-76.5 113.5t-28 139t28 139t76.5 113.5t113.5 76.5t139 28t139 -28t114 -76.5t77 -113.5t28 -139zM686 357q0 61 -23.5 115t-64 94.5t-94.5 64t-115 23.5t-115 -23.5t-94.5 -64t-64 -94.5
t-23.5 -115t23.5 -115t64 -94.5t94.5 -64t115 -23.5t115 23.5t94.5 64t64 94.5t23.5 115zM502 145.5q-41 -25.5 -105 -25.5q-43 0 -81.5 15.5t-67.5 46t-45.5 75t-16.5 101.5q0 50 16 92.5t44 73.5t66.5 48t82.5 17q61 0 102.5 -25t65.5 -66l-77 -76q-19 35 -41 49t-48 14
q-21 0 -39.5 -8.5t-32.5 -24.5t-22.5 -40t-8.5 -54q0 -63 28 -98t76 -35q24 0 49.5 15t45.5 57l76 -78q-26 -48 -67 -73.5z" />
    <glyph glyph-name="ordfeminine" unicode="&#xaa;" horiz-adv-x="315" 
d="M302 488q-25 -5 -39 -5q-15 0 -27 5q-7 3 -12.5 10.5t-7.5 13.5q-17 -12 -44 -21.5t-53 -9.5q-54 0 -80 21t-28 63v7q0 39 27 62t85 36q12 3 25.5 7t24 8.5t17.5 9t7 8.5q0 8 -11 12.5t-40 4.5q-24 0 -49.5 -15.5t-41.5 -32.5l-43 67q23 21 59.5 38t75.5 17
q65 0 98.5 -19t33.5 -72v-119q0 -5 0.5 -9t3.5 -7q4 -4 11 -4q6 0 24 6zM199 633q-6 -5 -21.5 -11t-37.5 -11q-23 -6 -38 -15.5t-14 -20.5q1 -10 7 -15.5t23 -5.5q24 0 46 6.5t35 21.5v51z" />
    <glyph glyph-name="guillemotleft" unicode="&#xab;" horiz-adv-x="640" 
d="M297 198v118l296 236v-143l-191 -152l191 -152v-143zM48 198v118l296 236v-143l-191 -152l191 -152v-143z" />
    <glyph glyph-name="logicalnot" unicode="&#xac;" horiz-adv-x="562" 
d="M391 92v192h-361v115h475v-307h-114z" />
    <glyph glyph-name="uni00AD" unicode="&#xad;" horiz-adv-x="500" 
d="M40 223v76h410v-76h-410z" />
    <glyph glyph-name="registered" unicode="&#xae;" horiz-adv-x="777" 
d="M746 357q0 -74 -28 -139t-77 -113.5t-114 -76.5t-139 -28t-139 28t-113.5 76.5t-76.5 113.5t-28 139t28 139t76.5 113.5t113.5 76.5t139 28t139 -28t114 -76.5t77 -113.5t28 -139zM457 443q0 12 -6 20t-15.5 12t-21.5 5.5t-24 1.5h-44v-84h45q14 0 26 1.5t21 6t14 13.5
t5 24zM686 357q0 61 -23.5 115t-64 94.5t-94.5 64t-115 23.5t-115 -23.5t-94.5 -64t-64 -94.5t-23.5 -115t23.5 -115t64 -94.5t94.5 -64t115 -23.5q57 0 107 20t89 55h-102l-94 162h-43v-162h-106v450h156q37 0 68 -8.5t53.5 -26t35.5 -44t13 -62.5q0 -48 -19.5 -77
t-51.5 -46l102 -175q42 41 65.5 95t23.5 116z" />
    <glyph glyph-name="macron" unicode="&#xaf;" horiz-adv-x="500" 
d="M90 684v104h320v-104h-320z" />
    <glyph glyph-name="degree" unicode="&#xb0;" horiz-adv-x="315" 
d="M305 638q0 -70 -39 -112.5t-108 -42.5q-68 0 -108 42.5t-40 112.5q0 69 40 111t108 42q69 0 108 -42t39 -111zM223 638q0 38 -17.5 61t-47.5 23q-29 0 -47 -23t-18 -61t18 -61.5t47 -23.5q30 0 47.5 23t17.5 62z" />
    <glyph glyph-name="plusminus" unicode="&#xb1;" horiz-adv-x="660" 
d="M398 298v-146h-136v146h-201v126h201v147h136v-147h200v-126h-200zM61 3v120h537v-120h-537z" />
    <glyph glyph-name="uni00B2" unicode="&#xb2;" horiz-adv-x="360" 
d="M35 360v68q0 28 10 51.5t27 43.5t39.5 36t46.5 29q71 38 71 71q0 19 -13 29.5t-35 10.5q-20 0 -35 -17t-17 -59l-91 20q1 35 13 62.5t31.5 46.5t45 29t55.5 10q71 0 107.5 -36.5t36.5 -89.5q0 -47 -27 -82t-88 -65q-27 -13 -46 -29t-25 -33h187v-96h-293z" />
    <glyph glyph-name="uni00B3" unicode="&#xb3;" horiz-adv-x="360" 
d="M332 488q0 -61 -38 -97.5t-113 -36.5q-61 0 -100.5 32.5t-53.5 86.5l88 39q5 -31 24.5 -48.5t40.5 -17.5q24 0 38.5 11.5t14.5 32.5q0 45 -59 45h-50v91h44q23 0 37.5 12t14.5 30q0 17 -11.5 26.5t-28.5 9.5q-43 0 -49 -54l-90 28q11 51 45 83.5t97 32.5t98.5 -32.5
t35.5 -83.5q0 -32 -14.5 -55.5t-34.5 -31.5q25 -8 44.5 -33t19.5 -70z" />
    <glyph glyph-name="acute" unicode="&#xb4;" horiz-adv-x="500" 
d="M169 619l-44 90l156 121l91 -93z" />
    <glyph glyph-name="mu" unicode="&#xb5;" horiz-adv-x="652" 
d="M451 0v70q-21 -42 -69 -62t-108 -20q-32 0 -62 8v-176h-142v735h142v-344q0 -50 28 -76.5t72 -26.5q43 0 78 22.5t49 67.5v357h142v-555h-130z" />
    <glyph glyph-name="paragraph" unicode="&#xb6;" horiz-adv-x="656" 
d="M472 -131v812h-93v-812h-113v476q-29 4 -66 16t-70 38t-55.5 69.5t-22.5 109.5q0 53 19 93.5t51.5 68t76 41.5t91.5 14h292v-926h-110z" />
    <glyph glyph-name="periodcentered" unicode="&#xb7;" horiz-adv-x="345" 
d="M98 176v160h149v-160h-149z" />
    <glyph glyph-name="cedilla" unicode="&#xb8;" horiz-adv-x="500" 
d="M375 -112q0 -45 -33.5 -72.5t-97.5 -27.5q-35 0 -67.5 9.5t-58.5 23.5l18 53q19 -11 43 -18.5t42 -7.5q29 0 40.5 9.5t11.5 27.5q0 12 -8 19t-19 7q-14 0 -25 -8l-82 16l29 95l89 -4l-17 -46q21 6 41 6q40 0 67 -22t27 -60z" />
    <glyph glyph-name="uni00B9" unicode="&#xb9;" horiz-adv-x="360" 
d="M158 360v277l-72 -25l-22 88q38 14 66 32t40 48h86v-420h-98z" />
    <glyph glyph-name="ordmasculine" unicode="&#xba;" horiz-adv-x="315" 
d="M292 654q0 -27 -10.5 -51.5t-29 -43t-43 -29.5t-52.5 -11q-27 0 -51.5 10.5t-43 28.5t-29.5 43t-11 53q0 27 10.5 51.5t28.5 43t43 29.5t53 11q27 0 51.5 -10.5t43 -29t29.5 -43t11 -52.5zM226 655q1 27 -19 47.5t-50 20.5q-27 0 -48 -19t-21 -49q0 -29 19.5 -49.5
t49.5 -20.5q27 0 47.5 19t21.5 51z" />
    <glyph glyph-name="guillemotright" unicode="&#xbb;" horiz-adv-x="640" 
d="M304 -38v143l191 152l-191 152v143l296 -236v-118zM55 -38v143l191 152l-191 152v143l296 -236v-118z" />
    <glyph glyph-name="onequarter" unicode="&#xbc;" horiz-adv-x="741" 
d="M662 61v-62h-93v62h-178v87l179 276h92v-271h55v-92h-55zM180 -23h-107l447 826h107zM118 360v277l-72 -25l-22 88q38 14 66 32t40 48h86v-420h-98zM569 267l-71 -114h71v114z" />
    <glyph glyph-name="onehalf" unicode="&#xbd;" horiz-adv-x="741" 
d="M421 0v68q0 28 10 51.5t27 43.5t39.5 36t46.5 29q71 38 71 71q0 19 -13 29.5t-35 10.5q-20 0 -35 -17t-17 -59l-91 20q1 35 13 62.5t31.5 46.5t45 29t55.5 10q71 0 107.5 -36.5t36.5 -89.5q0 -47 -27 -82t-88 -65q-27 -13 -46 -29t-25 -33h187v-96h-293zM180 -23h-107
l447 826h107zM118 360v277l-72 -25l-22 88q38 14 66 32t40 48h86v-420h-98z" />
    <glyph glyph-name="threequarters" unicode="&#xbe;" horiz-adv-x="741" 
d="M220 -23h-107l447 826h107zM662 61v-62h-93v62h-178v87l179 276h92v-271h55v-92h-55zM322 488q0 -61 -38 -97.5t-113 -36.5q-61 0 -100.5 32.5t-53.5 86.5l88 39q5 -31 24.5 -48.5t40.5 -17.5q24 0 38.5 11.5t14.5 32.5q0 45 -59 45h-50v91h44q23 0 37.5 12t14.5 30
q0 17 -11.5 26.5t-28.5 9.5q-43 0 -49 -54l-90 28q11 51 45 83.5t97 32.5t98.5 -32.5t35.5 -83.5q0 -32 -14.5 -55.5t-34.5 -31.5q25 -8 44.5 -33t19.5 -70zM569 267l-71 -114h71v114z" />
    <glyph glyph-name="questiondown" unicode="&#xbf;" 
d="M284 443v154h147v-154h-147zM598 -71q-22 -42 -58.5 -71t-85.5 -44.5t-105 -15.5q-57 0 -104.5 15.5t-82 43.5t-54 66t-19.5 82q0 71 27 117t82 83q21 14 38 25.5t29.5 25t19.5 30t7 39.5v5v21.5t-1 23.5h134q2 -14 2 -29v-25q0 -34 -8 -61t-22.5 -49t-35.5 -40t-47 -35
q-36 -24 -56 -52.5t-20 -67.5q0 -45 35 -72.5t88 -27.5t88.5 34t37.5 96l135 -21q-2 -54 -24 -96z" />
    <glyph glyph-name="Agrave" unicode="&#xc0;" horiz-adv-x="727" 
d="M458 812l-203 118l91 93l156 -121zM575 0l-70 203h-286l-71 -203h-150l271 780h188l269 -780h-151zM417 454q-9 26 -17.5 52t-15.5 50t-12.5 44.5t-7.5 33.5h-8q-2 -13 -7 -33.5t-12 -44.5t-15 -50t-17 -52q-20 -60 -44 -126h201q-25 66 -45 126z" />
    <glyph glyph-name="Aacute" unicode="&#xc1;" horiz-adv-x="727" 
d="M282 812l-44 90l156 121l91 -93zM575 0l-70 203h-286l-71 -203h-150l271 780h188l269 -780h-151zM417 454q-9 26 -17.5 52t-15.5 50t-12.5 44.5t-7.5 33.5h-8q-2 -13 -7 -33.5t-12 -44.5t-15 -50t-17 -52q-20 -60 -44 -126h201q-25 66 -45 126z" />
    <glyph glyph-name="Acircumflex" unicode="&#xc2;" horiz-adv-x="727" 
d="M489 797l-130 95l-130 -95l-53 72l122 132h120l125 -132zM575 0l-70 203h-286l-71 -203h-150l271 780h188l269 -780h-151zM417 454q-9 26 -17.5 52t-15.5 50t-12.5 44.5t-7.5 33.5h-8q-2 -13 -7 -33.5t-12 -44.5t-15 -50t-17 -52q-20 -60 -44 -126h201q-25 66 -45 126z
" />
    <glyph glyph-name="Atilde" unicode="&#xc3;" horiz-adv-x="727" 
d="M495.5 841q-23.5 -15 -55.5 -15q-20 0 -39.5 9.5t-40.5 21.5q-7 4 -16 9.5t-19 10t-19.5 8t-17.5 3.5q-23 0 -44 -13t-52 -47v122q19 20 43 34.5t53 14.5q21 0 41 -10t39 -21q20 -11 38.5 -21t33.5 -10q23 0 44.5 13t51.5 47v-122q-17 -19 -40.5 -34zM575 0l-70 203h-286
l-71 -203h-150l271 780h188l269 -780h-151zM417 454q-9 26 -17.5 52t-15.5 50t-12.5 44.5t-7.5 33.5h-8q-2 -13 -7 -33.5t-12 -44.5t-15 -50t-17 -52q-20 -60 -44 -126h201q-25 66 -45 126z" />
    <glyph glyph-name="Adieresis" unicode="&#xc4;" horiz-adv-x="727" 
d="M400 840v135h123v-135h-123zM200 840v135h123v-135h-123zM575 0l-70 203h-286l-71 -203h-150l271 780h188l269 -780h-151zM417 454q-9 26 -17.5 52t-15.5 50t-12.5 44.5t-7.5 33.5h-8q-2 -13 -7 -33.5t-12 -44.5t-15 -50t-17 -52q-20 -60 -44 -126h201q-25 66 -45 126z
" />
    <glyph glyph-name="Aring" unicode="&#xc5;" horiz-adv-x="727" 
d="M483 925q0 -25 -9.5 -47.5t-26 -39t-39 -26t-47.5 -9.5t-47.5 9.5t-39 26t-26 39t-9.5 47.5t9.5 47.5t26 39t39 26t47.5 9.5t47.5 -9.5t39 -26t26 -39t9.5 -47.5zM576 0l-70 203h-286l-71 -203h-150l271 780h188l269 -780h-151zM415 925q0 23 -15.5 39t-38.5 16
t-38.5 -16t-15.5 -39t15.5 -38t38.5 -15t38.5 15t15.5 38zM418 454q-9 26 -17.5 52t-15.5 50t-12.5 44.5t-7.5 33.5h-8q-2 -13 -7 -33.5t-12 -44.5t-15 -50t-17 -52q-20 -60 -44 -126h201q-25 66 -45 126z" />
    <glyph glyph-name="AE" unicode="&#xc6;" horiz-adv-x="904" 
d="M434 0v195h-213l-98 -195h-144l399 780h475v-125h-291v-193h246v-122h-246v-215h306v-125h-434zM434 619l-150 -299h150v299z" />
    <glyph glyph-name="Ccedilla" unicode="&#xc7;" horiz-adv-x="729" 
d="M591.5 23q-74.5 -42 -175.5 -42h-11l-6 -17q21 6 41 6q40 0 67 -22t27 -60q0 -45 -33.5 -72.5t-97.5 -27.5q-35 0 -67.5 9.5t-58.5 23.5l18 53q19 -11 43 -18.5t42 -7.5q29 0 40.5 9.5t11.5 27.5q0 12 -8 19t-19 7q-14 0 -25 -8l-82 16l22 73q-61 15 -111 49t-85 85.5
t-54 118.5t-19 148q0 92 26.5 166.5t74.5 128t115 82.5t148 29q52 0 97 -11.5t81 -32t62.5 -48t41.5 -60.5l-94 -87q-11 23 -29 43t-41.5 34.5t-50 22.5t-55.5 8q-46 0 -85.5 -19t-68.5 -54t-46 -86t-17 -116q0 -70 17.5 -122.5t47 -87.5t69 -52t84.5 -17q28 0 56 8t52.5 23
t44.5 36t32 46l90 -92q-37 -70 -111.5 -112z" />
    <glyph glyph-name="Egrave" unicode="&#xc8;" horiz-adv-x="678" 
d="M445 812l-203 118l91 93l156 -121zM91 0v780h527v-125h-378v-193h328v-122h-328v-215h397v-125h-546z" />
    <glyph glyph-name="Eacute" unicode="&#xc9;" horiz-adv-x="678" 
d="M269 812l-44 90l156 121l91 -93zM91 0v780h527v-125h-378v-193h328v-122h-328v-215h397v-125h-546z" />
    <glyph glyph-name="Ecircumflex" unicode="&#xca;" horiz-adv-x="678" 
d="M478 797l-130 95l-130 -95l-53 72l122 132h120l125 -132zM93 0v780h527v-125h-378v-193h328v-122h-328v-215h397v-125h-546z" />
    <glyph glyph-name="Edieresis" unicode="&#xcb;" horiz-adv-x="678" 
d="M394 840v135h123v-135h-123zM194 840v135h123v-135h-123zM91 0v780h527v-125h-378v-193h328v-122h-328v-215h397v-125h-546z" />
    <glyph glyph-name="Igrave" unicode="&#xcc;" horiz-adv-x="342" 
d="M266 812l-203 118l91 93l156 -121zM93 0v780h152v-780h-152z" />
    <glyph glyph-name="Iacute" unicode="&#xcd;" horiz-adv-x="342" 
d="M90 812l-44 90l156 121l91 -93zM93 0v780h152v-780h-152z" />
    <glyph glyph-name="Icircumflex" unicode="&#xce;" horiz-adv-x="342" 
d="M300 797l-130 95l-130 -95l-53 72l122 132h120l125 -132zM93 0v780h152v-780h-152z" />
    <glyph glyph-name="Idieresis" unicode="&#xcf;" horiz-adv-x="342" 
d="M208 840v135h123v-135h-123zM8 840v135h123v-135h-123zM93 0v780h152v-780h-152z" />
    <glyph glyph-name="Eth" unicode="&#xd0;" horiz-adv-x="791" 
d="M740 390q0 -87 -25.5 -159t-73 -123t-115 -79.5t-150.5 -28.5h-285v333h-56v92h56v355h281q83 0 151 -27.5t116 -78.5t74.5 -123t26.5 -161zM590 391q0 62 -16.5 111t-47.5 82.5t-74.5 51.5t-97.5 18h-113v-229h183v-92h-183v-207h117q54 0 97 19.5t73 54.5t46 83.5
t16 107.5z" />
    <glyph glyph-name="Ntilde" unicode="&#xd1;" horiz-adv-x="789" 
d="M526.5 841q-23.5 -15 -55.5 -15q-20 0 -39.5 9.5t-40.5 21.5q-7 4 -16 9.5t-19 10t-19.5 8t-17.5 3.5q-23 0 -44 -13t-52 -47v122q19 20 43 34.5t53 14.5q21 0 41 -10t39 -21q20 -11 38.5 -21t33.5 -10q23 0 44.5 13t51.5 47v-122q-17 -19 -40.5 -34zM514 0l-231 450
q-10 20 -20.5 44.5t-19.5 50t-16 48.5t-11 40h-3q2 -18 5 -50t6 -69.5t5.5 -77.5t2.5 -74v-362h-141v780h179l231 -447q26 -50 47 -99t27 -80l4 -1q-3 20 -7 52.5t-7 68.5t-5 71.5t-2 60.5v374h140v-780h-184z" />
    <glyph glyph-name="Ograve" unicode="&#xd2;" horiz-adv-x="806" 
d="M500 812l-203 118l91 93l156 -121zM752 392q0 -91 -24 -166.5t-69.5 -130t-110.5 -84.5t-146 -30t-146 30t-110.5 84.5t-70 130t-24.5 166.5q0 89 24.5 163.5t70 128.5t110.5 84.5t146 30.5t146 -30.5t110.5 -84.5t69.5 -128.5t24 -163.5zM600 392q0 65 -14.5 116.5
t-40.5 87.5t-62.5 55.5t-80.5 19.5q-42 0 -78.5 -19.5t-63.5 -55.5t-42.5 -87.5t-15.5 -116.5t15 -117.5t41.5 -89t63 -56.5t80.5 -20q43 0 79 20t62.5 56.5t41.5 89t15 117.5z" />
    <glyph glyph-name="Oacute" unicode="&#xd3;" horiz-adv-x="806" 
d="M324 812l-44 90l156 121l91 -93zM752 392q0 -91 -24 -166.5t-69.5 -130t-110.5 -84.5t-146 -30t-146 30t-110.5 84.5t-70 130t-24.5 166.5q0 89 24.5 163.5t70 128.5t110.5 84.5t146 30.5t146 -30.5t110.5 -84.5t69.5 -128.5t24 -163.5zM600 392q0 65 -14.5 116.5
t-40.5 87.5t-62.5 55.5t-80.5 19.5q-42 0 -78.5 -19.5t-63.5 -55.5t-42.5 -87.5t-15.5 -116.5t15 -117.5t41.5 -89t63 -56.5t80.5 -20q43 0 79 20t62.5 56.5t41.5 89t15 117.5z" />
    <glyph glyph-name="Ocircumflex" unicode="&#xd4;" horiz-adv-x="806" 
d="M531 797l-130 95l-130 -95l-53 72l122 132h120l125 -132zM752 392q0 -91 -24 -166.5t-69.5 -130t-110.5 -84.5t-146 -30t-146 30t-110.5 84.5t-70 130t-24.5 166.5q0 89 24.5 163.5t70 128.5t110.5 84.5t146 30.5t146 -30.5t110.5 -84.5t69.5 -128.5t24 -163.5zM600 392
q0 65 -14.5 116.5t-40.5 87.5t-62.5 55.5t-80.5 19.5q-42 0 -78.5 -19.5t-63.5 -55.5t-42.5 -87.5t-15.5 -116.5t15 -117.5t41.5 -89t63 -56.5t80.5 -20q43 0 79 20t62.5 56.5t41.5 89t15 117.5z" />
    <glyph glyph-name="Otilde" unicode="&#xd5;" horiz-adv-x="806" 
d="M537.5 841q-23.5 -15 -55.5 -15q-20 0 -39.5 9.5t-40.5 21.5q-7 4 -16 9.5t-19 10t-19.5 8t-17.5 3.5q-23 0 -44 -13t-52 -47v122q19 20 43 34.5t53 14.5q21 0 41 -10t39 -21q20 -11 38.5 -21t33.5 -10q23 0 44.5 13t51.5 47v-122q-17 -19 -40.5 -34zM752 392
q0 -91 -24 -166.5t-69.5 -130t-110.5 -84.5t-146 -30t-146 30t-110.5 84.5t-70 130t-24.5 166.5q0 89 24.5 163.5t70 128.5t110.5 84.5t146 30.5t146 -30.5t110.5 -84.5t69.5 -128.5t24 -163.5zM600 392q0 65 -14.5 116.5t-40.5 87.5t-62.5 55.5t-80.5 19.5
q-42 0 -78.5 -19.5t-63.5 -55.5t-42.5 -87.5t-15.5 -116.5t15 -117.5t41.5 -89t63 -56.5t80.5 -20q43 0 79 20t62.5 56.5t41.5 89t15 117.5z" />
    <glyph glyph-name="Odieresis" unicode="&#xd6;" horiz-adv-x="806" 
d="M442 840v135h123v-135h-123zM242 840v135h123v-135h-123zM752 392q0 -91 -24 -166.5t-69.5 -130t-110.5 -84.5t-146 -30t-146 30t-110.5 84.5t-70 130t-24.5 166.5q0 89 24.5 163.5t70 128.5t110.5 84.5t146 30.5t146 -30.5t110.5 -84.5t69.5 -128.5t24 -163.5zM600 392
q0 65 -14.5 116.5t-40.5 87.5t-62.5 55.5t-80.5 19.5q-42 0 -78.5 -19.5t-63.5 -55.5t-42.5 -87.5t-15.5 -116.5t15 -117.5t41.5 -89t63 -56.5t80.5 -20q43 0 79 20t62.5 56.5t41.5 89t15 117.5z" />
    <glyph glyph-name="multiply" unicode="&#xd7;" horiz-adv-x="660" 
d="M415 281l197 -198l-86 -86l-197 197l-197 -197l-86 86l197 197l-198 199l86 86l198 -199l198 199l86 -86z" />
    <glyph glyph-name="Oslash" unicode="&#xd8;" horiz-adv-x="806" 
d="M691 636q29 -51 44.5 -112t15.5 -132q0 -91 -24 -166.5t-69.5 -130t-110 -84.5t-145.5 -30q-63 0 -116 18t-95 52l-77 -90l-66 62l80 94q-38 53 -57.5 122.5t-19.5 152.5q0 89 24.5 163.5t70 128.5t110.5 84.5t146 30.5q72 0 130.5 -23.5t102.5 -67.5l71 82l65 -61z
M480.5 652.5q-35.5 18.5 -78.5 18.5q-42 0 -78.5 -19.5t-63.5 -55.5t-42.5 -87.5t-15.5 -116.5q0 -89 28 -156l312 363q-26 35 -61.5 53.5zM600 392q0 67 -15 119l-303 -353q51 -49 120 -49q42 0 78.5 20t63 56.5t41.5 89t15 117.5z" />
    <glyph glyph-name="Ugrave" unicode="&#xd9;" horiz-adv-x="792" 
d="M493 812l-203 118l91 93l156 -121zM678 146q-23 -52 -63.5 -89t-96.5 -56.5t-122 -19.5q-68 0 -124 20t-96.5 56.5t-62.5 88.5t-22 116v518h150v-505q0 -85 41.5 -126.5t113.5 -41.5q71 0 115 42t44 126v505h146v-518q0 -64 -23 -116z" />
    <glyph glyph-name="Uacute" unicode="&#xda;" horiz-adv-x="792" 
d="M317 812l-44 90l156 121l91 -93zM678 146q-23 -52 -63.5 -89t-96.5 -56.5t-122 -19.5q-68 0 -124 20t-96.5 56.5t-62.5 88.5t-22 116v518h150v-505q0 -85 41.5 -126.5t113.5 -41.5q71 0 115 42t44 126v505h146v-518q0 -64 -23 -116z" />
    <glyph glyph-name="Ucircumflex" unicode="&#xdb;" horiz-adv-x="792" 
d="M524 797l-130 95l-130 -95l-53 72l122 132h120l125 -132zM678 146q-23 -52 -63.5 -89t-96.5 -56.5t-122 -19.5q-68 0 -124 20t-96.5 56.5t-62.5 88.5t-22 116v518h150v-505q0 -85 41.5 -126.5t113.5 -41.5q71 0 115 42t44 126v505h146v-518q0 -64 -23 -116z" />
    <glyph glyph-name="Udieresis" unicode="&#xdc;" horiz-adv-x="792" 
d="M436 840v135h123v-135h-123zM236 840v135h123v-135h-123zM678 146q-23 -52 -63.5 -89t-96.5 -56.5t-122 -19.5q-68 0 -124 20t-96.5 56.5t-62.5 88.5t-22 116v518h150v-505q0 -85 41.5 -126.5t113.5 -41.5q71 0 115 42t44 126v505h146v-518q0 -64 -23 -116z" />
    <glyph glyph-name="Yacute" unicode="&#xdd;" horiz-adv-x="632" 
d="M239 812l-44 90l156 121l91 -93zM392 272v-272h-150v272l-253 508h155l175 -365l176 365h148z" />
    <glyph glyph-name="Thorn" unicode="&#xde;" horiz-adv-x="701" 
d="M658 407q0 -59 -17.5 -107t-50.5 -82t-80 -52.5t-107 -18.5h-164v-147h-148v780h148v-114h166q57 0 103.5 -19t80 -53.5t51.5 -82t18 -104.5zM510 406q0 33 -10.5 58.5t-29.5 42.5t-44.5 25.5t-54.5 8.5h-134v-269h135q29 0 54 8.5t43.5 25t29.5 42t11 58.5z" />
    <glyph glyph-name="germandbls" unicode="&#xdf;" horiz-adv-x="640" 
d="M591 238q0 -61 -15.5 -106.5t-43 -76.5t-65.5 -46.5t-83 -15.5q-36 0 -77.5 11.5t-93.5 42.5l52 129q38 -27 65 -38.5t52 -11.5q14 0 27.5 7.5t24 22t17.5 35t7 47.5q0 34 -11.5 57.5t-32.5 38t-50 21t-64 6.5h-66v122h66q34 0 56 9t35 23t18 32t5 37q0 45 -30 67.5
t-72 22.5q-51 0 -80 -31t-29 -90v-553h-133v553q0 114 60.5 178.5t181.5 64.5q51 0 94.5 -13.5t75 -40t49 -66t17.5 -92.5q0 -48 -18 -87.5t-55 -68.5q48 -23 82 -69.5t34 -120.5z" />
    <glyph glyph-name="agrave" unicode="&#xe0;" horiz-adv-x="602" 
d="M368 619l-203 118l91 93l156 -121zM570 -7q-11 -3 -22.5 -4t-22.5 -1q-42 0 -74.5 18t-39.5 53q-26 -37 -80 -54t-117 -17q-85 0 -128 39.5t-45 109.5v5q0 80 48.5 125t144.5 66q28 6 53 13.5t43.5 15.5t29.5 17.5t11 21.5q0 32 -22.5 44t-72.5 12q-19 0 -42.5 -6.5
t-47 -17.5t-44 -27t-32.5 -34l-58 102q38 45 97.5 69t137.5 24q116 0 174.5 -42.5t58.5 -133.5v-237q0 -26 13 -37t36 -11q14 0 29 3zM376 288q-14 -14 -42 -25t-65 -21q-42 -11 -66 -29t-24 -56v-6q2 -55 71 -55q18 0 38 5t38 15t31.5 24.5t18.5 33.5v114z" />
    <glyph glyph-name="aacute" unicode="&#xe1;" horiz-adv-x="602" 
d="M216 619l-44 90l156 121l91 -93zM570 -7q-11 -3 -22.5 -4t-22.5 -1q-42 0 -74.5 18t-39.5 53q-26 -37 -80 -54t-117 -17q-85 0 -128 39.5t-45 109.5v5q0 80 48.5 125t144.5 66q28 6 53 13.5t43.5 15.5t29.5 17.5t11 21.5q0 32 -22.5 44t-72.5 12q-19 0 -42.5 -6.5
t-47 -17.5t-44 -27t-32.5 -34l-58 102q38 45 97.5 69t137.5 24q116 0 174.5 -42.5t58.5 -133.5v-237q0 -26 13 -37t36 -11q14 0 29 3zM376 288q-14 -14 -42 -25t-65 -21q-42 -11 -66 -29t-24 -56v-6q2 -55 71 -55q18 0 38 5t38 15t31.5 24.5t18.5 33.5v114z" />
    <glyph glyph-name="acircumflex" unicode="&#xe2;" horiz-adv-x="602" 
d="M423 616l-130 95l-130 -95l-53 72l122 132h120l125 -132zM570 -7q-11 -3 -22.5 -4t-22.5 -1q-42 0 -74.5 18t-39.5 53q-26 -37 -80 -54t-117 -17q-85 0 -128 39.5t-45 109.5v5q0 80 48.5 125t144.5 66q28 6 53 13.5t43.5 15.5t29.5 17.5t11 21.5q0 32 -22.5 44t-72.5 12
q-19 0 -42.5 -6.5t-47 -17.5t-44 -27t-32.5 -34l-58 102q38 45 97.5 69t137.5 24q116 0 174.5 -42.5t58.5 -133.5v-237q0 -26 13 -37t36 -11q14 0 29 3zM376 288q-14 -14 -42 -25t-65 -21q-42 -11 -66 -29t-24 -56v-6q2 -55 71 -55q18 0 38 5t38 15t31.5 24.5t18.5 33.5v114
z" />
    <glyph glyph-name="atilde" unicode="&#xe3;" horiz-adv-x="602" 
d="M430.5 660q-23.5 -15 -55.5 -15q-20 0 -39.5 9.5t-40.5 21.5q-7 4 -16 9.5t-19 10t-19.5 8t-17.5 3.5q-23 0 -44 -13t-52 -47v122q19 20 43 34.5t53 14.5q21 0 41 -10t39 -21q20 -11 38.5 -21t33.5 -10q23 0 44.5 13t51.5 47v-122q-17 -19 -40.5 -34zM570 -7
q-11 -3 -22.5 -4t-22.5 -1q-42 0 -74.5 18t-39.5 53q-26 -37 -80 -54t-117 -17q-85 0 -128 39.5t-45 109.5v5q0 80 48.5 125t144.5 66q28 6 53 13.5t43.5 15.5t29.5 17.5t11 21.5q0 32 -22.5 44t-72.5 12q-19 0 -42.5 -6.5t-47 -17.5t-44 -27t-32.5 -34l-58 102
q38 45 97.5 69t137.5 24q116 0 174.5 -42.5t58.5 -133.5v-237q0 -26 13 -37t36 -11q14 0 29 3zM376 288q-14 -14 -42 -25t-65 -21q-42 -11 -66 -29t-24 -56v-6q2 -55 71 -55q18 0 38 5t38 15t31.5 24.5t18.5 33.5v114z" />
    <glyph glyph-name="adieresis" unicode="&#xe4;" horiz-adv-x="602" 
d="M332 675v135h123v-135h-123zM132 675v135h123v-135h-123zM570 -7q-11 -3 -22.5 -4t-22.5 -1q-42 0 -74.5 18t-39.5 53q-26 -37 -80 -54t-117 -17q-85 0 -128 39.5t-45 109.5v5q0 80 48.5 125t144.5 66q28 6 53 13.5t43.5 15.5t29.5 17.5t11 21.5q0 32 -22.5 44t-72.5 12
q-19 0 -42.5 -6.5t-47 -17.5t-44 -27t-32.5 -34l-58 102q38 45 97.5 69t137.5 24q116 0 174.5 -42.5t58.5 -133.5v-237q0 -26 13 -37t36 -11q14 0 29 3zM376 288q-14 -14 -42 -25t-65 -21q-42 -11 -66 -29t-24 -56v-6q2 -55 71 -55q18 0 38 5t38 15t31.5 24.5t18.5 33.5v114
z" />
    <glyph glyph-name="aring" unicode="&#xe5;" horiz-adv-x="602" 
d="M417 718q0 -25 -9.5 -47.5t-26 -39t-39 -26t-47.5 -9.5t-47.5 9.5t-39 26t-26 39t-9.5 47.5t9.5 47.5t26 39t39 26t47.5 9.5t47.5 -9.5t39 -26t26 -39t9.5 -47.5zM570 -7q-11 -3 -22.5 -4t-22.5 -1q-42 0 -74.5 18t-39.5 53q-26 -37 -80 -54t-117 -17q-85 0 -128 39.5
t-45 109.5v5q0 80 48.5 125t144.5 66q28 6 53 13.5t43.5 15.5t29.5 17.5t11 21.5q0 32 -22.5 44t-72.5 12q-19 0 -42.5 -6.5t-47 -17.5t-44 -27t-32.5 -34l-58 102q38 45 97.5 69t137.5 24q116 0 174.5 -42.5t58.5 -133.5v-237q0 -26 13 -37t36 -11q14 0 29 3zM349 718
q0 23 -15.5 39t-38.5 16t-38.5 -16t-15.5 -39t15.5 -38t38.5 -15t38.5 15t15.5 38zM376 288q-14 -14 -42 -25t-65 -21q-42 -11 -66 -29t-24 -56v-6q2 -55 71 -55q18 0 38 5t38 15t31.5 24.5t18.5 33.5v114z" />
    <glyph glyph-name="ae" unicode="&#xe6;" horiz-adv-x="946" 
d="M522 218q8 -57 46.5 -87t97.5 -30q51 0 92.5 24t67.5 69l67 -86q-21 -29 -44.5 -51.5t-51 -37.5t-62 -23t-78.5 -8q-69 0 -121 25t-86 73q-23 -29 -51.5 -48t-59.5 -30t-63 -15.5t-62 -4.5q-85 0 -128 39.5t-45 109.5v5q0 80 48.5 125t144.5 66q28 6 52.5 13.5t42.5 15.5
t28 18t10 21q0 30 -25.5 43t-75.5 13q-19 0 -41 -6.5t-43.5 -17.5t-40.5 -27t-31 -34l-58 102q38 45 92.5 69t132.5 24q144 0 199 -70q31 32 76 51t101 19q58 0 103.5 -20t77 -57t48 -89t16.5 -116v-16zM734.5 429.5q-30.5 26.5 -82.5 26.5q-59 0 -93.5 -35t-38.5 -102
l250 36q-5 48 -35.5 74.5zM406 184q-6 26 -8.5 52t-2.5 55q-17 -14 -50.5 -26t-75.5 -23q-41 -11 -68.5 -30t-27.5 -57v-5q1 -27 21.5 -40.5t55.5 -13.5q19 0 42 7.5t45.5 19.5t41 28t27.5 33z" />
    <glyph glyph-name="ccedilla" unicode="&#xe7;" horiz-adv-x="584" 
d="M459.5 9q-50.5 -21 -128.5 -21h-6l-9 -24q21 6 41 6q40 0 67 -22t27 -60q0 -45 -33.5 -72.5t-97.5 -27.5q-35 0 -67.5 9.5t-58.5 23.5l18 53q19 -11 43 -18.5t42 -7.5q29 0 40.5 9.5t11.5 27.5q0 12 -8 19t-19 7q-14 0 -25 -8l-82 16l25 81q-42 12 -78.5 35.5t-63.5 58.5
t-42 81t-15 103q0 68 22 121.5t61 91t92 57t115 19.5q72 0 122.5 -18.5t89.5 -54.5l-48 -112q-26 36 -64 53t-81 17q-30 0 -59.5 -10.5t-53 -31.5t-38 -54t-14.5 -78t14 -78t37.5 -55t54 -32.5t62.5 -10.5q42 0 83.5 19t66.5 55l47 -104q-40 -42 -90.5 -63z" />
    <glyph glyph-name="egrave" unicode="&#xe8;" horiz-adv-x="612" 
d="M391 619l-203 118l91 93l156 -121zM172 218q8 -57 51.5 -87t103.5 -30q54 0 100 24t72 69l70 -86q-22 -29 -47 -51.5t-55 -37.5t-67 -23t-82 -8q-63 0 -114 20.5t-87 58t-56 91.5t-20 120q0 62 18.5 114.5t53.5 91.5t85.5 61t115.5 22q60 0 108 -20t82 -57t52 -89.5
t18 -116.5v-15zM401 429.5q-34 26.5 -88 26.5q-62 0 -100.5 -35t-42.5 -102l270 36q-5 48 -39 74.5z" />
    <glyph glyph-name="eacute" unicode="&#xe9;" horiz-adv-x="612" 
d="M226 619l-44 90l156 121l91 -93zM172 218q8 -57 51.5 -87t103.5 -30q54 0 100 24t72 69l70 -86q-22 -29 -47 -51.5t-55 -37.5t-67 -23t-82 -8q-63 0 -114 20.5t-87 58t-56 91.5t-20 120q0 62 18.5 114.5t53.5 91.5t85.5 61t115.5 22q60 0 108 -20t82 -57t52 -89.5
t18 -116.5v-15zM401 429.5q-34 26.5 -88 26.5q-62 0 -100.5 -35t-42.5 -102l270 36q-5 48 -39 74.5z" />
    <glyph glyph-name="ecircumflex" unicode="&#xea;" horiz-adv-x="612" 
d="M443 616l-130 95l-130 -95l-53 72l122 132h120l125 -132zM172 218q8 -57 51.5 -87t103.5 -30q54 0 100 24t72 69l70 -86q-22 -29 -47 -51.5t-55 -37.5t-67 -23t-82 -8q-63 0 -114 20.5t-87 58t-56 91.5t-20 120q0 62 18.5 114.5t53.5 91.5t85.5 61t115.5 22q60 0 108 -20
t82 -57t52 -89.5t18 -116.5v-15zM401 429.5q-34 26.5 -88 26.5q-62 0 -100.5 -35t-42.5 -102l270 36q-5 48 -39 74.5z" />
    <glyph glyph-name="edieresis" unicode="&#xeb;" horiz-adv-x="612" 
d="M351 675v135h123v-135h-123zM151 675v135h123v-135h-123zM172 218q8 -57 51.5 -87t103.5 -30q54 0 100 24t72 69l70 -86q-22 -29 -47 -51.5t-55 -37.5t-67 -23t-82 -8q-63 0 -114 20.5t-87 58t-56 91.5t-20 120q0 62 18.5 114.5t53.5 91.5t85.5 61t115.5 22q60 0 108 -20
t82 -57t52 -89.5t18 -116.5v-15zM401 429.5q-34 26.5 -88 26.5q-62 0 -100.5 -35t-42.5 -102l270 36q-5 48 -39 74.5z" />
    <glyph glyph-name="igrave" unicode="&#xec;" horiz-adv-x="290" 
d="M226 619l-203 118l91 93l156 -121zM74 0v555h143v-555h-143z" />
    <glyph glyph-name="iacute" unicode="&#xed;" horiz-adv-x="290" 
d="M65 619l-44 90l156 121l91 -93zM74 0v555h143v-555h-143z" />
    <glyph glyph-name="icircumflex" unicode="&#xee;" horiz-adv-x="290" 
d="M276 616l-130 95l-130 -95l-53 72l122 132h120l125 -132zM74 0v555h143v-555h-143z" />
    <glyph glyph-name="idieresis" unicode="&#xef;" horiz-adv-x="290" 
d="M184 675v135h123v-135h-123zM-16 675v135h123v-135h-123zM74 0v555h143v-555h-143z" />
    <glyph glyph-name="eth" unicode="&#xf0;" horiz-adv-x="626" 
d="M583 349q0 -20 -0.5 -39t-1.5 -36q-3 -50 -19 -101t-49 -92t-84 -66.5t-124 -25.5q-56 0 -104 18.5t-83.5 55t-55.5 91t-20 125.5q0 64 18.5 117t52.5 91t83 59t109 21q14 0 33 -3t37.5 -8t35.5 -12.5t27 -15.5q-5 20 -18.5 50t-40.5 59l-216 -91l-32 81l142 60
q-5 1 -9.5 1h-9.5q-40 0 -79.5 -11.5t-68.5 -26.5l-27 120q35 14 77.5 22.5t87.5 8.5q49 0 96.5 -12t86.5 -38l83 35l33 -80l-51 -22q28 -39 46 -81t28 -85.5t13.5 -86.5t3.5 -82zM450 279q0 88 -38.5 130.5t-104.5 42.5t-97.5 -47t-31.5 -126q0 -78 32 -126.5t97 -48.5
q66 0 104.5 47t38.5 128z" />
    <glyph glyph-name="ntilde" unicode="&#xf1;" horiz-adv-x="652" 
d="M466.5 660q-23.5 -15 -55.5 -15q-20 0 -39.5 9.5t-40.5 21.5q-7 4 -16 9.5t-19 10t-19.5 8t-17.5 3.5q-23 0 -44 -13t-52 -47v122q19 20 43 34.5t53 14.5q21 0 41 -10t39 -21q20 -11 38.5 -21t33.5 -10q23 0 44.5 13t51.5 47v-122q-17 -19 -40.5 -34zM440 0v350
q0 50 -28 76.5t-71 26.5q-44 0 -79 -23t-49 -67v-363h-142v555h130v-71q20 38 65.5 60.5t114.5 22.5q45 0 82.5 -15t64 -41.5t41 -62.5t14.5 -78v-370h-143z" />
    <glyph glyph-name="ograve" unicode="&#xf2;" horiz-adv-x="649" 
d="M403 619l-203 118l91 93l156 -121zM608 277q0 -66 -19.5 -119t-56 -91t-89 -58.5t-118.5 -20.5q-65 0 -117.5 20.5t-89.5 58.5t-57 91t-20 119t20 119.5t57 91.5t89.5 58.5t117.5 20.5q66 0 118.5 -20.5t89 -58.5t56 -91.5t19.5 -119.5zM464 277q0 83 -38 129.5
t-101 46.5q-61 0 -100.5 -46.5t-39.5 -129.5q0 -40 10.5 -73t29 -55.5t44.5 -35t56 -12.5q63 0 101 46.5t38 129.5z" />
    <glyph glyph-name="oacute" unicode="&#xf3;" horiz-adv-x="649" 
d="M235 619l-44 90l156 121l91 -93zM608 277q0 -66 -19.5 -119t-56 -91t-89 -58.5t-118.5 -20.5q-65 0 -117.5 20.5t-89.5 58.5t-57 91t-20 119t20 119.5t57 91.5t89.5 58.5t117.5 20.5q66 0 118.5 -20.5t89 -58.5t56 -91.5t19.5 -119.5zM464 277q0 83 -38 129.5t-101 46.5
q-61 0 -100.5 -46.5t-39.5 -129.5q0 -40 10.5 -73t29 -55.5t44.5 -35t56 -12.5q63 0 101 46.5t38 129.5z" />
    <glyph glyph-name="ocircumflex" unicode="&#xf4;" horiz-adv-x="649" 
d="M452 616l-130 95l-130 -95l-53 72l122 132h120l125 -132zM608 277q0 -66 -19.5 -119t-56 -91t-89 -58.5t-118.5 -20.5q-65 0 -117.5 20.5t-89.5 58.5t-57 91t-20 119t20 119.5t57 91.5t89.5 58.5t117.5 20.5q66 0 118.5 -20.5t89 -58.5t56 -91.5t19.5 -119.5zM464 277
q0 83 -38 129.5t-101 46.5q-61 0 -100.5 -46.5t-39.5 -129.5q0 -40 10.5 -73t29 -55.5t44.5 -35t56 -12.5q63 0 101 46.5t38 129.5z" />
    <glyph glyph-name="otilde" unicode="&#xf5;" horiz-adv-x="649" 
d="M457.5 660q-23.5 -15 -55.5 -15q-20 0 -39.5 9.5t-40.5 21.5q-7 4 -16 9.5t-19 10t-19.5 8t-17.5 3.5q-23 0 -44 -13t-52 -47v122q19 20 43 34.5t53 14.5q21 0 41 -10t39 -21q20 -11 38.5 -21t33.5 -10q23 0 44.5 13t51.5 47v-122q-17 -19 -40.5 -34zM608 277
q0 -66 -19.5 -119t-56 -91t-89 -58.5t-118.5 -20.5q-65 0 -117.5 20.5t-89.5 58.5t-57 91t-20 119t20 119.5t57 91.5t89.5 58.5t117.5 20.5q66 0 118.5 -20.5t89 -58.5t56 -91.5t19.5 -119.5zM464 277q0 83 -38 129.5t-101 46.5q-61 0 -100.5 -46.5t-39.5 -129.5
q0 -40 10.5 -73t29 -55.5t44.5 -35t56 -12.5q63 0 101 46.5t38 129.5z" />
    <glyph glyph-name="odieresis" unicode="&#xf6;" horiz-adv-x="649" 
d="M359 675v135h123v-135h-123zM159 675v135h123v-135h-123zM608 277q0 -66 -19.5 -119t-56 -91t-89 -58.5t-118.5 -20.5q-65 0 -117.5 20.5t-89.5 58.5t-57 91t-20 119t20 119.5t57 91.5t89.5 58.5t117.5 20.5q66 0 118.5 -20.5t89 -58.5t56 -91.5t19.5 -119.5zM464 277
q0 83 -38 129.5t-101 46.5q-61 0 -100.5 -46.5t-39.5 -129.5q0 -40 10.5 -73t29 -55.5t44.5 -35t56 -12.5q63 0 101 46.5t38 129.5z" />
    <glyph glyph-name="divide" unicode="&#xf7;" horiz-adv-x="660" 
d="M418 489q0 -37 -25.5 -62.5t-62.5 -25.5t-62.5 25.5t-25.5 62.5t25.5 62.5t62.5 25.5t62.5 -25.5t25.5 -62.5zM52 238v117h555v-117h-555zM418 91q0 -37 -25.5 -62.5t-62.5 -25.5t-62.5 25.5t-25.5 62.5t25.5 62.5t62.5 25.5t62.5 -25.5t25.5 -62.5z" />
    <glyph glyph-name="oslash" unicode="&#xf8;" horiz-adv-x="649" 
d="M608 277q0 -66 -19.5 -119t-56 -91t-89 -58.5t-118.5 -20.5q-94 0 -159 41l-57 -63l-57 55l53 59q-31 38 -47.5 87.5t-16.5 109.5q0 66 20 119.5t57 91.5t89.5 58.5t117.5 20.5q52 0 95.5 -13t77.5 -37l49 54l57 -55q-6 -7 -14 -16q-7 -8 -15.5 -18t-19.5 -21
q26 -35 39.5 -81.5t13.5 -102.5zM325 453q-61 0 -100.5 -46.5t-39.5 -129.5q0 -26 4 -48t12 -42l211 234q-35 32 -87 32zM464 277q0 42 -10 73l-203 -226q32 -23 74 -23q63 0 101 46.5t38 129.5z" />
    <glyph glyph-name="ugrave" unicode="&#xf9;" horiz-adv-x="652" 
d="M403 619l-203 118l91 93l156 -121zM451 0v70q-21 -42 -69 -62t-108 -20q-45 0 -82.5 14t-64.5 39t-42 60t-15 77v377h142v-344q0 -50 28 -76.5t72 -26.5q43 0 78 22.5t49 67.5v357h142v-555h-130z" />
    <glyph glyph-name="uacute" unicode="&#xfa;" horiz-adv-x="652" 
d="M235 619l-44 90l156 121l91 -93zM451 0v70q-21 -42 -69 -62t-108 -20q-45 0 -82.5 14t-64.5 39t-42 60t-15 77v377h142v-344q0 -50 28 -76.5t72 -26.5q43 0 78 22.5t49 67.5v357h142v-555h-130z" />
    <glyph glyph-name="ucircumflex" unicode="&#xfb;" horiz-adv-x="652" 
d="M452 616l-130 95l-130 -95l-53 72l122 132h120l125 -132zM451 0v70q-21 -42 -69 -62t-108 -20q-45 0 -82.5 14t-64.5 39t-42 60t-15 77v377h142v-344q0 -50 28 -76.5t72 -26.5q43 0 78 22.5t49 67.5v357h142v-555h-130z" />
    <glyph glyph-name="udieresis" unicode="&#xfc;" horiz-adv-x="652" 
d="M359 675v135h123v-135h-123zM159 675v135h123v-135h-123zM451 0v70q-21 -42 -69 -62t-108 -20q-45 0 -82.5 14t-64.5 39t-42 60t-15 77v377h142v-344q0 -50 28 -76.5t72 -26.5q43 0 78 22.5t49 67.5v357h142v-555h-130z" />
    <glyph glyph-name="yacute" unicode="&#xfd;" horiz-adv-x="576" 
d="M206 619l-44 90l156 121l91 -93zM367 -29q-16 -48 -40 -81t-58 -54t-79 -30t-104 -9l-36 119h11q44 0 72.5 4t47 16t31 33.5t25.5 55.5l-224 529h151l116 -280q12 -29 18 -59t11 -56h2q4 28 9.5 54.5t15.5 59.5l86 281h139z" />
    <glyph glyph-name="thorn" unicode="&#xfe;" horiz-adv-x="649" 
d="M608 278q0 -72 -17.5 -126t-49.5 -90.5t-76 -55t-98 -18.5q-48 0 -88.5 16t-65.5 42v-248h-142v982h142v-279q18 31 60 48.5t93 17.5q55 0 100 -18.5t76.5 -55t48.5 -90.5t17 -125zM464 278q0 89 -36 132t-97 43q-25 0 -47 -9.5t-38.5 -26.5t-26 -39.5t-9.5 -49.5v-153
q19 -31 49 -53.5t73 -22.5q57 0 94.5 44t37.5 135z" />
    <glyph glyph-name="ydieresis" unicode="&#xff;" horiz-adv-x="576" 
d="M330 675v135h123v-135h-123zM130 675v135h123v-135h-123zM367 -29q-16 -48 -40 -81t-58 -54t-79 -30t-104 -9l-36 119h11q44 0 72.5 4t47 16t31 33.5t25.5 55.5l-224 529h151l116 -280q12 -29 18 -59t11 -56h2q4 28 9.5 54.5t15.5 59.5l86 281h139z" />
    <glyph glyph-name="OE" unicode="&#x152;" horiz-adv-x="934" 
d="M468 0v31q-26 -22 -61.5 -36t-80.5 -14q-67 0 -119 27.5t-88 80.5t-55 129.5t-19 174.5q0 92 19 167t55 128t88 82t118 29q43 0 80.5 -13.5t62.5 -33.5v28h419v-125h-291v-193h246v-122h-246v-215h306v-125h-434zM468 572q-20 48 -54.5 71.5t-79.5 23.5q-33 0 -61 -18.5
t-48.5 -53.5t-32 -86t-11.5 -116q0 -142 43 -210.5t111 -68.5q42 0 77 24t56 66v368z" />
    <glyph glyph-name="oe" unicode="&#x153;" horiz-adv-x="985" 
d="M554 218q8 -57 47 -87t99 -30q52 0 94.5 24t68.5 69l69 -86q-22 -29 -45.5 -51.5t-52 -37.5t-63.5 -23t-80 -8q-62 0 -112 21.5t-83 59.5q-32 -38 -80.5 -59.5t-109.5 -21.5t-109 20.5t-81.5 58.5t-51.5 91t-18 119t18 119.5t51.5 91.5t81.5 58.5t109 20.5q62 0 110 -22
t80 -59q32 36 80.5 58.5t110.5 22.5q59 0 105.5 -20t78.5 -57t49 -89t17 -116v-16zM770 429.5q-31 26.5 -84 26.5q-60 0 -95 -35t-39 -102l254 36q-5 48 -36 74.5zM430 277q0 83 -32.5 129.5t-91.5 46.5q-57 0 -91 -46.5t-34 -129.5q0 -81 34 -128.5t91 -47.5
q59 0 91.5 46.5t32.5 129.5z" />
    <glyph glyph-name="Scaron" unicode="&#x160;" horiz-adv-x="698" 
d="M405 823h-120l-122 132l53 72l130 -95l130 95l54 -72zM635 223q0 -115 -74 -178.5t-213 -63.5q-118 0 -194.5 54.5t-108.5 148.5l112 75q25 -69 77 -110t113 -41q67 0 102 27.5t35 72.5q0 42 -27 69.5t-90 49.5l-113 39q-46 16 -79.5 35.5t-55.5 45t-32.5 57.5t-10.5 74
q0 45 18 85.5t52.5 70.5t84 47.5t111.5 17.5q103 0 171 -37.5t100 -117.5l-109 -78q-20 55 -61.5 82.5t-95.5 27.5q-64 0 -95.5 -26.5t-31.5 -64.5q0 -32 23 -54t75 -39l121 -39q92 -30 144 -85t52 -145z" />
    <glyph glyph-name="scaron" unicode="&#x161;" horiz-adv-x="558" 
d="M337 622h-120l-122 132l53 72l130 -95l130 95l54 -72zM520 155q0 -81 -60.5 -124t-178.5 -43q-76 0 -142 28t-104 79l61 100q17 -22 39.5 -40t48 -31t51.5 -20t50 -7q46 0 67.5 15.5t21.5 41.5q0 32 -28.5 50t-99.5 33q-103 21 -148 64.5t-45 105.5q0 35 15 64t44 50.5
t71 33.5t97 12q76 0 136 -23.5t90 -63.5l-57 -96q-30 38 -75 59t-96 21q-42 0 -62.5 -15t-20.5 -38q0 -11 4.5 -20t16 -17t32.5 -14.5t54 -13.5q113 -23 165.5 -69t52.5 -122z" />
    <glyph glyph-name="Ydieresis" unicode="&#x178;" horiz-adv-x="632" 
d="M359 840v135h123v-135h-123zM159 840v135h123v-135h-123zM392 272v-272h-150v272l-253 508h155l175 -365l176 365h148z" />
    <glyph glyph-name="florin" unicode="&#x192;" horiz-adv-x="555" 
d="M540 634q-18 14 -38 22t-39 8q-15 0 -29 -6q-19 -10 -30 -34.5t-22 -79.5q-3 -15 -6 -32t-7 -37h98v-97h-113q-6 -43 -12.5 -88.5t-13 -89t-13 -83t-13.5 -70.5q-20 -92 -51.5 -141.5t-72.5 -73.5q-17 -10 -39.5 -15.5t-47.5 -5.5q-43 0 -82 16l10 97q21 -14 41 -22.5
t37 -8.5q15 0 28 7q20 11 31 38t21 75q8 38 15.5 83t14.5 93l14 96t14 93h-110v97h125q2 10 3.5 19t3.5 17q18 91 51 141.5t73 73.5q17 10 39.5 15.5t47.5 5.5q43 0 82 -16z" />
    <glyph glyph-name="circumflex" unicode="&#x2c6;" horiz-adv-x="500" 
d="M380 616l-130 95l-130 -95l-53 72l122 132h120l125 -132z" />
    <glyph glyph-name="tilde" unicode="&#x2dc;" horiz-adv-x="500" 
d="M381.5 660q-23.5 -15 -55.5 -15q-20 0 -39.5 9.5t-40.5 21.5q-7 4 -16 9.5t-19 10t-19.5 8t-17.5 3.5q-23 0 -44 -13t-52 -47v122q20 21 43.5 35t52.5 14q21 0 41 -10t39 -21q20 -11 38.5 -21t33.5 -10q23 0 44.5 13t51.5 47v-122q-17 -19 -40.5 -34z" />
    <glyph glyph-name="acutecomb" unicode="&#x301;" horiz-adv-x="500" 
d="M169 619l-44 90l156 121l91 -93z" />
    <glyph glyph-name="uni0306" unicode="&#x306;" horiz-adv-x="500" 
d="M368.5 683q-47.5 -32 -118.5 -32t-118.5 32t-67.5 87l82 53q11 -29 37.5 -49.5t66.5 -20.5t66.5 20.5t37.5 49.5l82 -53q-20 -55 -67.5 -87z" />
    <glyph glyph-name="uni0308" unicode="&#x308;" horiz-adv-x="500" 
d="M289 675v135h123v-135h-123zM89 675v135h123v-135h-123z" />
    <glyph glyph-name="uni0338" unicode="&#x338;" horiz-adv-x="400" 
d="M110 -23h-117l293 826h117z" />
    <glyph glyph-name="afii10023" unicode="&#x401;" horiz-adv-x="643" 
d="M388 840v135h123v-135h-123zM188 840v135h123v-135h-123zM94 0v780h490v-124h-345v-188h288v-122h-288v-222h364v-124h-509z" />
    <glyph glyph-name="afii10051" unicode="&#x402;" horiz-adv-x="830" 
d="M795 251q0 -65 -16.5 -113.5t-47 -80.5t-73 -48t-94.5 -16q-39 0 -85 12t-93 43l56 130q29 -24 60.5 -33t57.5 -9q35 0 59.5 28.5t24.5 88.5q0 35 -12.5 60t-32.5 41t-46 24t-52 8h-126v-386h-147v654h-211v126h570v-127h-213v-148h157q59 0 107.5 -17t83.5 -50t54 -80
t19 -107z" />
    <glyph glyph-name="afii10052" unicode="&#x403;" horiz-adv-x="598" 
d="M294 812l-45 90l156 121l92 -93zM242 648v-648h-151v780h477v-132h-326z" />
    <glyph glyph-name="afii10053" unicode="&#x404;" horiz-adv-x="719" 
d="M585.5 30q-68.5 -51 -182.5 -51q-80 0 -145 29.5t-111 84t-71 131t-25 170.5q0 87 24.5 161t70.5 129t111.5 86t147.5 31q59 0 104 -15.5t79.5 -42t59.5 -60.5t43 -71l-104 -64q-26 54 -71 87.5t-113 33.5q-42 0 -77 -14.5t-61 -42t-43 -66.5t-23 -88h292v-120h-294
q5 -60 23 -102.5t46 -70.5t64.5 -41t78.5 -13q31 0 57.5 9.5t48.5 26.5t39 39.5t29 47.5l109 -66q-38 -87 -106.5 -138z" />
    <glyph glyph-name="afii10054" unicode="&#x405;" horiz-adv-x="698" 
d="M635 223q0 -115 -74 -178.5t-213 -63.5q-118 0 -194.5 54.5t-108.5 148.5l112 75q25 -69 77.5 -110t113.5 -41q66 0 101 27.5t35 72.5q0 42 -26.5 70t-89.5 49l-113 39q-46 16 -79.5 35.5t-55.5 45t-32.5 57.5t-10.5 74q0 45 18 85.5t52.5 70.5t83.5 47.5t111 17.5
q103 0 171 -37.5t100 -117.5l-109 -78q-20 55 -61 82.5t-96 27.5q-63 0 -95 -26.5t-32 -64.5q0 -32 23 -54t76 -39l120 -39q93 -30 144.5 -85t51.5 -145z" />
    <glyph glyph-name="afii10055" unicode="&#x406;" horiz-adv-x="342" 
d="M95 0v780h152v-780h-152z" />
    <glyph glyph-name="afii10056" unicode="&#x407;" horiz-adv-x="342" 
d="M208 840v135h123v-135h-123zM8 840v135h123v-135h-123zM95 0v780h152v-780h-152z" />
    <glyph glyph-name="afii10057" unicode="&#x408;" horiz-adv-x="484" 
d="M328 28q-59 -47 -158 -47q-43 0 -78.5 5t-63.5 13l-9 130q29 -11 63 -17t59 -6q42 0 69 22t27 69v583h150v-612q0 -93 -59 -140z" />
    <glyph glyph-name="afii10058" unicode="&#x409;" horiz-adv-x="1095" 
d="M1063 249q0 -54 -17.5 -99.5t-50.5 -78.5t-80.5 -52t-106.5 -19h-289v656h-261v-171q0 -127 -24 -254.5t-81 -244.5l-140 53q59 111 81.5 221.5t22.5 236.5v283h543v-275h144q60 0 107.5 -17.5t81.5 -50.5t52 -80.5t18 -107.5zM908 253q0 35 -12 60.5t-31.5 41.5
t-45 23.5t-51.5 7.5h-108v-265h107q29 0 55 7.5t45 23.5t30 41t11 60z" />
    <glyph glyph-name="afii10059" unicode="&#x40a;" horiz-adv-x="1097" 
d="M1066 249q0 -54 -17.5 -99.5t-50.5 -78.5t-80.5 -52t-106.5 -19h-296v381h-277v-381h-147v780h147v-275h277v275h147v-275h144q60 0 108 -17.5t81.5 -50.5t52 -80.5t18.5 -107.5zM911 253q0 35 -12 60t-31.5 41t-45 23.5t-51.5 7.5h-109v-264h107q29 0 55 7.5t45 23.5
t30 41t11 60h1z" />
    <glyph glyph-name="afii10060" unicode="&#x40b;" horiz-adv-x="848" 
d="M632 0v316q0 24 -6 46t-19.5 38.5t-34 26.5t-50.5 10q-48 0 -89 -23.5t-61 -58.5v-355h-144v654h-211v126h570v-127h-215v-168q12 14 29 27t39 23t50.5 16.5t63.5 6.5q50 0 91.5 -15t71.5 -42t46.5 -64.5t16.5 -82.5v-354h-148z" />
    <glyph glyph-name="afii10061" unicode="&#x40c;" horiz-adv-x="706" 
d="M317 812l-44 90l161 121l86 -93zM525 0l-178 355q-13 -5 -40 -7t-52 -4q-5 0 -9.5 -0.5t-9.5 -0.5v-343h-145v780h145v-298q51 0 88 6.5t63 21.5t41.5 40t23.5 62l36 168h151l-46 -203q-14 -60 -41.5 -104t-72.5 -72l216 -401h-170z" />
    <glyph glyph-name="afii10062" unicode="&#x40e;" horiz-adv-x="642" 
d="M456.5 845q-47.5 -32 -118.5 -32t-118.5 32t-68.5 87l82 53q11 -29 37.5 -49.5t66.5 -20.5t66.5 20.5t37.5 49.5l83 -53q-20 -55 -67.5 -87zM272 0h-154l129 276l-237 504h162l155 -342l152 342h156z" />
    <glyph glyph-name="afii10145" unicode="&#x40f;" horiz-adv-x="756" 
d="M454 0v-193h-151v193h-212v780h147v-656h279v656h148v-780h-211z" />
    <glyph glyph-name="afii10017" unicode="&#x410;" horiz-adv-x="689" 
d="M534 0l-68 203h-243l-70 -203h-145l263 780h146l264 -780h-147zM423 327q-9 30 -20 71t-21.5 82.5t-18.5 78t-11 55.5h-6q-3 -20 -12.5 -56t-21.5 -77.5t-24.5 -82.5t-23.5 -71h158h1z" />
    <glyph glyph-name="afii10018" unicode="&#x411;" horiz-adv-x="676" 
d="M642 248q0 -54 -18 -99.5t-51.5 -78.5t-81 -51.5t-105.5 -18.5h-295v780h519v-124h-371v-151h144q59 0 107 -18t82 -51t52 -80.5t18 -107.5zM487 252q0 35 -12.5 60.5t-32 41.5t-44.5 23.5t-51 7.5h-108v-264h107q29 0 55 7.5t45 23t30 40.5t11 60z" />
    <glyph glyph-name="afii10019" unicode="&#x412;" horiz-adv-x="679" 
d="M641 219q0 -49 -18 -89t-52.5 -69t-84 -45t-112.5 -16h-283v780h261q55 0 99.5 -14.5t76 -41t48.5 -62.5t17 -78q0 -67 -31 -107.5t-85 -55.5l1 -3q32 -5 61 -20t52 -39.5t36.5 -59.5t13.5 -80zM452 563q0 26 -9.5 44.5t-26.5 30t-40 16.5t-50 5h-90v-189h102
q55 0 84.5 22t29.5 71zM497 236q0 28 -11.5 49t-31.5 35t-46.5 21t-55.5 7h-116v-226h122q63 0 101 28t38 86z" />
    <glyph glyph-name="afii10020" unicode="&#x413;" horiz-adv-x="592" 
d="M241 648v-648h-150v780h476v-132h-326z" />
    <glyph glyph-name="afii10021" unicode="&#x414;" horiz-adv-x="743" 
d="M563 -129v129h-387v-129h-151v253h52q48 101 66 202.5t18 215.5v238h483v-656h70v-253h-151zM504 656h-208v-114q0 -105 -15 -210.5t-53 -207.5h276v532z" />
    <glyph glyph-name="afii10022" unicode="&#x415;" horiz-adv-x="643" 
d="M94 0v780h490v-124h-345v-188h288v-122h-288v-222h364v-124h-509z" />
    <glyph glyph-name="afii10024" unicode="&#x416;" horiz-adv-x="975" 
d="M805 0l-172 355q-12 -5 -34 -6.5t-40 -2.5v-346h-141v346q-18 1 -40 2.5t-34 6.5l-173 -355h-163l210 397q-83 52 -115 180l-52 203h147l41 -168q18 -73 58.5 -107t119.5 -34v309h141v-309q78 0 119.5 33.5t58.5 107.5l41 168h148l-51 -203q-17 -63 -45 -108.5t-72 -71.5
l210 -397h-162z" />
    <glyph glyph-name="afii10025" unicode="&#x417;" horiz-adv-x="684" 
d="M645 216q0 -54 -20.5 -97.5t-59.5 -74t-96.5 -47t-131.5 -16.5q-117 0 -193 48.5t-108 133.5l117 60q8 -26 25.5 -48t41.5 -38.5t53 -25.5t59 -9q78 0 121.5 31.5t43.5 88.5q0 63 -52.5 99t-148.5 36h-133v123h125q89 0 133.5 28t44.5 76q0 23 -11.5 41t-30 31t-43 20
t-50.5 7q-60 0 -98 -27.5t-53 -72.5l-117 49q9 35 31.5 66t57 54t80 36.5t101.5 13.5q63 0 114.5 -14.5t89 -41t58 -63t20.5 -81.5q0 -72 -38.5 -117.5t-109.5 -62.5q39 -7 71.5 -24.5t56 -44t37 -61t13.5 -76.5z" />
    <glyph glyph-name="afii10026" unicode="&#x418;" horiz-adv-x="754" 
d="M513 0v377q0 11 1 37t2.5 53t3 49t1.5 24h-3q-1 -5 -8 -27t-18 -43l-261 -470h-140v780h142v-388q0 -12 -1 -34l-2 -44t-2.5 -39.5t-1.5 -19.5h3q0 2 2 9.5t5 17.5t7 20.5t9 19.5l262 458h149v-780h-150z" />
    <glyph glyph-name="afii10027" unicode="&#x419;" horiz-adv-x="754" 
d="M510.5 845q-47.5 -32 -118.5 -32t-118.5 32t-68.5 87l82 53q11 -29 37.5 -49.5t66.5 -20.5t66.5 20.5t37.5 49.5l83 -53q-20 -55 -67.5 -87zM513 0v377q0 11 1 37t2.5 53t3 49t1.5 24h-3q-1 -5 -8 -27t-18 -43l-261 -470h-140v780h142v-388q0 -12 -1 -34l-2 -44
t-2.5 -39.5t-1.5 -19.5h3q0 2 2 9.5t5 17.5t7 20.5t9 19.5l262 458h149v-780h-150z" />
    <glyph glyph-name="afii10028" unicode="&#x41a;" horiz-adv-x="705" 
d="M525 0l-178 355q-13 -5 -40 -7t-52 -4q-5 0 -9.5 -0.5t-9.5 -0.5v-343h-145v780h145v-298q51 0 88 6.5t63 21.5t41.5 40t23.5 62l36 168h151l-46 -203q-14 -60 -41.5 -104t-72.5 -72l216 -401h-170z" />
    <glyph glyph-name="afii10029" unicode="&#x41b;" horiz-adv-x="749" 
d="M515 0v656h-261v-171q0 -127 -24 -254.5t-81 -244.5l-140 53q59 111 81.5 221.5t22.5 236.5v283h544v-780h-142z" />
    <glyph glyph-name="afii10030" unicode="&#x41c;" horiz-adv-x="911" 
d="M680 0v481q0 12 0.5 27t1.5 30t2 28t2 21h-2q-7 -22 -12 -40q-5 -16 -9 -30t-6 -19l-138 -346h-130l-141 349q-2 6 -6 17.5t-8.5 24.5t-8 25t-4.5 19h-3q6 -45 6 -103v-484h-133v780h182l177 -433q3 -8 4.5 -19.5t3.5 -19.5q0 -2 0.5 -3.5t0.5 -2.5h3q1 2 3.5 17.5
t6.5 26.5l170 434h178v-780h-140z" />
    <glyph glyph-name="afii10031" unicode="&#x41d;" horiz-adv-x="754" 
d="M515 0v344h-277v-344h-147v780h147v-312h277v312h148v-780h-148z" />
    <glyph glyph-name="afii10032" unicode="&#x41e;" horiz-adv-x="806" 
d="M755 393q0 -81 -22 -155.5t-65.5 -131.5t-109.5 -91t-154 -34t-154 34t-110.5 91t-66.5 131.5t-22 155.5q0 80 22 154t66.5 130.5t110.5 90.5t154 34t154 -34t109.5 -91t65.5 -131t22 -153zM601 393q0 141 -52.5 208t-144.5 67q-43 0 -79.5 -16.5t-63.5 -50.5t-42 -86
t-15 -122q0 -140 54 -209t146 -69q44 0 80 17.5t62 52t40.5 86.5t14.5 122z" />
    <glyph glyph-name="afii10033" unicode="&#x41f;" horiz-adv-x="750" 
d="M512 0v656h-274v-656h-146v780h567v-780h-147z" />
    <glyph glyph-name="afii10034" unicode="&#x420;" horiz-adv-x="687" 
d="M644 527q0 -61 -18 -109.5t-51.5 -82.5t-82 -52t-108.5 -18h-148v-265h-145v780h297q59 0 106.5 -19t80.5 -52.5t51 -80t18 -101.5zM491 522q0 69 -36.5 101.5t-96.5 32.5h-122v-268h122q27 0 51.5 8.5t42.5 25t28.5 41.5t10.5 59z" />
    <glyph glyph-name="afii10035" unicode="&#x421;" horiz-adv-x="719" 
d="M646.5 91q-26.5 -35 -61.5 -59.5t-80.5 -37.5t-102.5 -13q-80 0 -145 29.5t-110.5 83.5t-70.5 131t-25 171q0 86 24.5 160.5t70 129t111.5 85.5t148 31q59 0 104 -15.5t79.5 -41.5t59.5 -60t43 -71l-114 -70q-12 25 -28.5 47t-37.5 38t-48 25t-61 9q-49 0 -86.5 -19
t-63 -54t-39 -84.5t-13.5 -111.5q0 -73 15 -125t42.5 -85t66 -48.5t85.5 -15.5q30 0 56 10t46.5 26.5t36.5 38t27 45.5l117 -70q-19 -44 -45.5 -79z" />
    <glyph glyph-name="afii10036" unicode="&#x422;" horiz-adv-x="604" 
d="M376 652v-652h-148v653h-211v127h570v-128h-211z" />
    <glyph glyph-name="afii10037" unicode="&#x423;" horiz-adv-x="645" 
d="M273 0h-154l129 276l-237 504h162l155 -342l152 342h156z" />
    <glyph glyph-name="afii10038" unicode="&#x424;" horiz-adv-x="803" 
d="M764 395q0 -62 -20 -114t-58 -90.5t-92 -63.5t-123 -33v-94h-140v94q-69 8 -123 32.5t-91.5 63.5t-57.5 90.5t-20 114.5t20.5 115t58.5 90.5t92 62.5t121 32v85h140v-85q69 -9 123.5 -33.5t92 -63t57.5 -90t20 -113.5zM635 395q0 35 -12 65.5t-33.5 53.5t-52.5 38t-70 19
v-354q78 10 123 58t45 120zM335 571q-78 -9 -122.5 -57.5t-44.5 -118.5q0 -71 45 -119t122 -59v354z" />
    <glyph glyph-name="afii10039" unicode="&#x425;" horiz-adv-x="662" 
d="M484 0l-160 270l-156 -270h-162l240 409l-217 371h168l139 -231l128 231h163l-211 -368l240 -412h-172z" />
    <glyph glyph-name="afii10040" unicode="&#x426;" horiz-adv-x="763" 
d="M566 -130v130h-475v780h147v-656h279v656h148v-656h52v-254h-151z" />
    <glyph glyph-name="afii10041" unicode="&#x427;" horiz-adv-x="762" 
d="M528 0v295q-7 -15 -25 -30.5t-43.5 -29t-58.5 -22t-71 -8.5q-68 0 -118 20.5t-82.5 55t-48.5 80t-16 96.5v323h143v-281q0 -81 42.5 -116.5t124.5 -35.5q34 0 59.5 9t43.5 23.5t30 31t19 31.5v338h145v-780h-144z" />
    <glyph glyph-name="afii10042" unicode="&#x428;" horiz-adv-x="936" 
d="M92 0v780h141v-655h168v655h140v-655h162v655h142v-780h-753z" />
    <glyph glyph-name="afii10043" unicode="&#x429;" horiz-adv-x="960" 
d="M764 -130v130h-673v780h142v-655h167v655h140v-656h167v656h142v-656h66v-254h-151z" />
    <glyph glyph-name="afii10044" unicode="&#x42a;" horiz-adv-x="839" 
d="M796 247q0 -53 -18 -98.5t-51.5 -78.5t-80.5 -51.5t-106 -18.5h-309v656h-214v124h362v-276h157q60 0 108 -17.5t81.5 -50.5t52 -81t18.5 -108zM640 252q0 35 -12 60t-31.5 41t-44.5 23.5t-52 7.5h-121v-263h120q29 0 55 7.5t45 23t30 40.5t11 60z" />
    <glyph glyph-name="afii10045" unicode="&#x42b;" horiz-adv-x="987" 
d="M749 0v780h148v-780h-148zM653 248q0 -54 -18 -99.5t-51 -78.5t-80.5 -51.5t-106.5 -18.5h-307v780h145v-275h158q60 0 108 -17.5t81.5 -51t52 -81t18.5 -107.5zM498 252q0 35 -12 60.5t-32 41.5t-45 23.5t-51 7.5h-123v-264h122q29 0 55 7.5t45 23t30 40.5t11 60z" />
    <glyph glyph-name="afii10046" unicode="&#x42c;" horiz-adv-x="686" 
d="M643 248q0 -54 -17.5 -99.5t-50.5 -78.5t-80.5 -51.5t-106.5 -18.5h-297v780h149v-276h144q60 0 107.5 -17.5t81.5 -50.5t52 -80.5t18 -107.5zM488 252q0 35 -12 60.5t-31.5 41.5t-45 23.5t-51.5 7.5h-108v-265h107q29 0 55 7.5t45 23.5t30 41t11 60z" />
    <glyph glyph-name="afii10047" unicode="&#x42d;" horiz-adv-x="719" 
d="M668 394q0 -94 -25 -170.5t-71 -131t-111 -84t-145 -29.5q-114 0 -182.5 51t-106.5 138l109 66q12 -25 29 -47.5t39 -39.5t48.5 -26.5t57.5 -9.5q42 0 78.5 13t64.5 41t46 70.5t23 102.5h-294v120h292q-6 49 -23 88t-43 66.5t-61 42t-77 14.5q-68 0 -113 -33.5t-71 -87.5
l-104 64q18 37 43 71t59.5 60.5t79.5 42t104 15.5q82 0 147.5 -31t111.5 -86t70.5 -129t24.5 -161z" />
    <glyph glyph-name="afii10048" unicode="&#x42e;" horiz-adv-x="1015" 
d="M964 392q0 -88 -19 -163.5t-58 -131t-97.5 -87t-138.5 -31.5q-72 0 -127.5 27t-94.5 75t-61 113t-27 141h-105v-335h-145v780h145v-324h104q7 74 29.5 137t61.5 109t94 72.5t126 26.5q80 0 138.5 -32t97.5 -87.5t58 -130t19 -159.5zM820 392q0 75 -11 128t-32.5 86.5
t-53 48.5t-72.5 15q-38 0 -69 -15t-53 -48.5t-34 -86.5t-12 -128q0 -150 43 -216t125 -66q79 0 124 66t45 216z" />
    <glyph glyph-name="afii10049" unicode="&#x42f;" horiz-adv-x="687" 
d="M451 0v297h-105l-174 -297h-164l194 327q-71 25 -108 80t-37 143q0 52 18 94.5t51 72.5t80.5 46.5t106.5 16.5h283v-780h-145zM451 656h-115q-57 0 -93.5 -28.5t-36.5 -86.5q0 -63 35 -94t93 -31h117v240z" />
    <glyph glyph-name="afii10065" unicode="&#x430;" horiz-adv-x="575" 
d="M554 -8q-29 -6 -56 -5.5t-49.5 9t-38.5 24t-22 38.5q-24 -35 -73 -52.5t-106 -17.5q-86 0 -127 37.5t-41 112.5v4q0 38 13 66.5t36.5 50.5t56 37t71.5 25q20 5 45 13.5t47 19t37 23t15 25.5q0 65 -96 65q-35 0 -68 -19t-48 -54l-103 51q14 34 37.5 58.5t53.5 40.5
t65.5 23.5t72.5 7.5q107 0 163 -40.5t56 -129.5v-270q0 -42 39 -42q17 0 35 7zM364 277q-10 -9 -27.5 -16t-37.5 -13t-40 -12.5t-34 -13.5q-25 -10 -37.5 -27t-12.5 -45v-6q2 -56 70 -56q17 0 36 5t35.5 14.5t29 24.5t18.5 36v109z" />
    <glyph glyph-name="afii10066" unicode="&#x431;" horiz-adv-x="623" 
d="M582 279q0 -60 -16.5 -113t-50 -92.5t-84.5 -62.5t-120 -23q-68 0 -118.5 23t-83.5 63t-49.5 92.5t-16.5 112.5q0 81 15 151t51 125.5t96 96t149 64.5q34 9 63 29.5t43 49.5l109 -66q-29 -45 -70.5 -73.5t-93.5 -37.5q-48 -8 -83 -19.5t-60 -26.5t-42 -33.5t-30 -39.5
q20 23 53 40t68 17q68 0 119 -21t85 -58t50.5 -87.5t16.5 -110.5zM441 279q0 83 -35.5 128.5t-97.5 45.5q-60 0 -97 -45.5t-37 -128.5q0 -86 34.5 -134t99.5 -48q62 0 97.5 47.5t35.5 134.5z" />
    <glyph glyph-name="afii10067" unicode="&#x432;" horiz-adv-x="571" 
d="M538 156q0 -40 -16.5 -69.5t-46 -49t-70 -28.5t-89.5 -9h-246v563h226q106 0 163 -37.5t57 -106.5q0 -49 -22.5 -78.5t-70.5 -43.5q49 -8 82 -42t33 -99zM381 404q0 26 -22 41.5t-67 15.5h-87v-118h89q86 0 86 61h1zM407 173q0 32 -26 51.5t-77 19.5h-99v-143h108
q49 0 71.5 20t22.5 52z" />
    <glyph glyph-name="afii10068" unicode="&#x433;" horiz-adv-x="474" 
d="M212 445v-445h-141v563h383v-118h-242z" />
    <glyph glyph-name="afii10069" unicode="&#x434;" horiz-adv-x="640" 
d="M478 -90v90h-321v-90h-135v204h63q26 64 34.5 129t8.5 141v179h415v-449h69v-204h-134zM411 449h-158v-98q0 -69 -6 -126t-25 -111h188z" />
    <glyph glyph-name="afii10070" unicode="&#x435;" horiz-adv-x="612" 
d="M574 275v-15t-1 -15h-393q1 -65 38 -103.5t94 -38.5q51 0 87 24t48 66l117 -45q-14 -35 -36 -64.5t-52 -50.5t-69.5 -33t-88.5 -12q-63 0 -114 19.5t-87.5 57.5t-56 93t-19.5 126q0 68 20.5 122t56.5 91.5t86.5 57.5t110.5 20t108 -21t81.5 -60t51.5 -94.5t18 -124.5z
M433 345q0 26 -9 47t-25 36t-38 23t-47 8q-28 0 -51.5 -9t-41 -24.5t-27 -36t-9.5 -43.5v-3h248v2z" />
    <glyph glyph-name="afii10072" unicode="&#x436;" horiz-adv-x="824" 
d="M675 0l-156 247q-8 -2 -20 -3t-23 -1v-243h-126v243q-12 0 -24 1t-20 3l-156 -247h-145l188 279q-37 17 -58.5 47.5t-33.5 76.5l-44 160h131l31 -124q11 -43 39.5 -63t90.5 -20v207h126v-207q63 0 91 20t38 63l31 124h133l-43 -160q-13 -46 -34.5 -76.5t-59.5 -47.5
l188 -279h-144z" />
    <glyph glyph-name="afii10073" unicode="&#x437;" horiz-adv-x="560" 
d="M519 154q0 -77 -61 -122.5t-196 -45.5q-93 0 -148.5 25t-89.5 73l95 64q40 -54 143 -54q55 0 84 19t29 50q0 35 -35.5 57t-107.5 22h-96v99h87q70 0 98 19t28 51q0 23 -27.5 38t-67.5 15q-83 0 -112 -40l-99 58q30 48 83 70.5t142 22.5q53 0 95 -11t71 -30t44.5 -45.5
t15.5 -58.5q0 -56 -30.5 -88.5t-84.5 -41.5q27 -3 52.5 -14.5t45 -30t31 -44t11.5 -57.5z" />
    <glyph glyph-name="afii10074" unicode="&#x438;" horiz-adv-x="640" 
d="M433 0v265q0 10 1 24t2 27.5t2 23.5t2 13h-4q0 -1 -3.5 -9.5t-8 -19t-10 -21t-9.5 -16.5l-204 -287h-130v563h136v-261q0 -13 -1 -31.5t-2.5 -35.5t-3 -30t-2.5 -16h4q1 3 6 13.5t11 23t12.5 24.5t10.5 18l203 295h124v-563h-136z" />
    <glyph glyph-name="afii10075" unicode="&#x439;" horiz-adv-x="640" 
d="M448.5 683q-47.5 -32 -118.5 -32t-118.5 32t-68.5 87l82 53q11 -29 37.5 -49.5t66.5 -20.5t66.5 20.5t37.5 49.5l83 -53q-20 -55 -67.5 -87zM433 0v265q0 10 1 24t2 27.5t2 23.5t2 13h-4q0 -1 -3.5 -9.5t-8 -19t-10 -21t-9.5 -16.5l-204 -287h-130v563h136v-261
q0 -13 -1 -31.5t-2.5 -35.5t-3 -30t-2.5 -16h4q1 3 6 13.5t11 23t12.5 24.5t10.5 18l203 295h124v-563h-136z" />
    <glyph glyph-name="afii10076" unicode="&#x43a;" horiz-adv-x="598" 
d="M435 0l-156 242q-5 -1 -26.5 -2t-44.5 -1v-239h-137v563h137v-203q39 0 68 3t48.5 11t31 22.5t17.5 38.5l31 128h143l-43 -163q-13 -49 -36.5 -78.5t-61.5 -46.5l186 -275h-157z" />
    <glyph glyph-name="afii10077" unicode="&#x43b;" horiz-adv-x="635" 
d="M427 0v449h-208v-103q0 -101 -18 -189.5t-63 -168.5l-132 35q23 39 39 75.5t26 75.5t14.5 81t4.5 91v217h474v-563h-137z" />
    <glyph glyph-name="afii10078" unicode="&#x43c;" horiz-adv-x="704" 
d="M512 0v286q0 14 1.5 33t3 36t3 30.5t2.5 16.5h-3q-1 -2 -2.5 -10t-3.5 -17.5t-4.5 -20t-4.5 -17.5l-88 -209h-125l-90 206q-2 7 -4 17l-4 20t-3.5 18t-2.5 10h-3q0 -3 1.5 -16t3 -30.5t2.5 -36t1 -33.5v-283h-121v563h161l123 -308l116 308h162v-563h-121z" />
    <glyph glyph-name="afii10079" unicode="&#x43d;" horiz-adv-x="640" 
d="M433 0v227h-226v-227h-136v563h136v-220h226v220h136v-563h-136z" />
    <glyph glyph-name="afii10080" unicode="&#x43e;" horiz-adv-x="632" 
d="M592 282q0 -63 -17.5 -117t-52 -93.5t-86 -61.5t-119.5 -22q-67 0 -118.5 22t-86.5 61.5t-53 93.5t-18 117t18 117t53 93t86.5 61t118.5 22q68 0 119.5 -22t86 -61.5t52 -93t17.5 -116.5zM449 282q0 88 -36 129.5t-96 41.5q-57 0 -95 -42t-38 -129q0 -88 38 -131t95 -43
q60 0 96 42.5t36 131.5z" />
    <glyph glyph-name="afii10081" unicode="&#x43f;" horiz-adv-x="648" 
d="M441 0v441h-233v-441h-137v563h506v-563h-136z" />
    <glyph glyph-name="afii10082" unicode="&#x440;" horiz-adv-x="632" 
d="M591 281q0 -145 -61.5 -219t-176.5 -74q-52 0 -90 17.5t-54 43.5v-232h-138v746h128v-77h3q17 37 57 62.5t97 25.5q54 0 97 -18.5t74 -55t47.5 -91.5t16.5 -128zM451 281q0 95 -36 138.5t-88 43.5q-25 0 -47 -9.5t-38 -26t-25 -39.5t-9 -50v-170q20 -28 49.5 -45.5
t67.5 -17.5q57 0 91.5 41t34.5 135z" />
    <glyph glyph-name="afii10083" unicode="&#x441;" horiz-adv-x="590" 
d="M472 30q-58 -42 -150 -42q-58 0 -109 17.5t-89.5 53.5t-60.5 91.5t-22 131.5q0 69 20.5 123.5t58 92t89.5 57.5t114 20q88 0 148.5 -40.5t83.5 -105.5l-109 -51q-30 74 -119 74q-28 0 -53.5 -9.5t-44.5 -30t-30.5 -53t-11.5 -77.5q0 -89 38.5 -132t102.5 -43
q38 0 70.5 20t49.5 64l108 -43q-26 -76 -84 -118z" />
    <glyph glyph-name="afii10084" unicode="&#x442;" horiz-adv-x="516" 
d="M325 445v-445h-140v445h-164v118h475v-118h-171z" />
    <glyph glyph-name="afii10085" unicode="&#x443;" horiz-adv-x="618" 
d="M259 -183h-138l119 259l-226 487h147l149 -334l153 334h140z" />
    <glyph glyph-name="afii10086" unicode="&#x444;" horiz-adv-x="971" 
d="M930 285q0 -72 -16.5 -126t-47.5 -90t-73.5 -54t-95.5 -18q-19 0 -40.5 3.5t-41 10.5t-35.5 17t-25 23v-234h-140v234q-9 -13 -24.5 -23t-35 -17t-40.5 -10.5t-41 -3.5q-51 0 -94 18t-73.5 54t-48 90t-17.5 126q0 74 19.5 128t52 89t75.5 52.5t89 17.5q48 0 87 -17.5
t55 -47.5v273h132v-275q16 33 56.5 50t86.5 17q51 0 94.5 -17.5t75 -52.5t49 -89t17.5 -128zM792 285q0 48 -9.5 81t-26.5 53t-39.5 28.5t-48.5 8.5q-49 0 -81 -31.5t-32 -97.5v-162q23 -26 50 -42.5t65 -16.5q26 0 48.5 9.5t39 30.5t25.5 55.5t9 83.5zM417 327
q0 66 -33 97.5t-81 31.5q-25 0 -47.5 -8.5t-39.5 -28.5t-27 -53t-10 -81q0 -49 9.5 -83.5t26 -55.5t38.5 -30.5t47 -9.5q39 0 66.5 16.5t50.5 42.5v162z" />
    <glyph glyph-name="afii10087" unicode="&#x445;" horiz-adv-x="551" 
d="M392 0l-123 184l-122 -184h-143l199 287l-179 276h151l110 -164l102 164h145l-182 -267l197 -296h-155z" />
    <glyph glyph-name="afii10088" unicode="&#x446;" horiz-adv-x="656" 
d="M492 -90v90h-421v563h137v-447h229v447h137v-447h52v-206h-134z" />
    <glyph glyph-name="afii10089" unicode="&#x447;" horiz-adv-x="586" 
d="M377 0v191q-18 -29 -56 -46.5t-101 -17.5q-32 0 -61.5 9.5t-52.5 28.5t-37 48.5t-14 68.5v281h137v-234q0 -42 24.5 -59t59.5 -17q42 0 67.5 21.5t33.5 51.5v237h138v-563h-138z" />
    <glyph glyph-name="afii10090" unicode="&#x448;" horiz-adv-x="796" 
d="M71 0v563h133v-446h126v446h135v-446h126v446h134v-563h-654z" />
    <glyph glyph-name="afii10091" unicode="&#x449;" horiz-adv-x="807" 
d="M643 -82v82h-572v563h133v-446h126v446h135v-446h126v446h134v-446h52v-199h-134z" />
    <glyph glyph-name="afii10092" unicode="&#x44a;" horiz-adv-x="693" 
d="M652 193q0 -43 -15.5 -78.5t-43.5 -61t-68 -39.5t-89 -14h-253v448h-163v115h300v-174h112q100 0 160 -49t60 -147zM506 197q0 42 -29.5 61t-72.5 19h-84v-165h84q48 0 75 20t27 65z" />
    <glyph glyph-name="afii10093" unicode="&#x44b;" horiz-adv-x="812" 
d="M607 0v563h134v-563h-134zM531 191q0 -42 -15 -77t-43 -60.5t-68 -39.5t-90 -14h-244v563h135v-174h104q103 0 162 -49t59 -149zM384 194q0 42 -27.5 62.5t-74.5 20.5h-78v-165h78q48 0 75 19.5t27 62.5z" />
    <glyph glyph-name="afii10094" unicode="&#x44c;" horiz-adv-x="579" 
d="M538 193q0 -43 -15.5 -79t-44 -61t-68.5 -39t-89 -14h-250v563h137v-174h108q50 0 91 -12.5t70 -37t45 -61t16 -85.5zM389 197q0 21 -8.5 36t-22.5 25t-32 14.5t-38 4.5h-82v-165h82q46 0 73.5 19.5t27.5 65.5z" />
    <glyph glyph-name="afii10095" unicode="&#x44d;" horiz-adv-x="598" 
d="M557 282q0 -77 -22 -132.5t-60.5 -91.5t-89.5 -53t-110 -17q-92 0 -153.5 42t-87.5 118l107 39q8 -22 22 -37.5t31 -26t36.5 -15.5t38.5 -5q29 0 55 7t46 22.5t33 39.5t17 57h-214v107h213q-4 33 -17.5 56t-33 38t-44.5 22t-53 7q-45 0 -78 -18t-49 -56l-109 44
q11 32 33.5 59t54 46.5t70 30t81.5 10.5q63 0 115 -20t89.5 -58t58 -92t20.5 -123z" />
    <glyph glyph-name="afii10096" unicode="&#x44e;" horiz-adv-x="840" 
d="M799 281q0 -60 -15.5 -113.5t-47.5 -93.5t-81.5 -63.5t-118.5 -23.5q-60 0 -105.5 18.5t-77 50.5t-50 76.5t-24.5 95.5h-79v-228h-129v563h129v-215h80q8 47 27 88.5t50.5 72t75.5 48.5t102 18q68 0 117.5 -24t82 -64.5t48.5 -93.5t16 -112zM672 281q0 39 -10.5 72
t-29 57.5t-43.5 38t-54 13.5q-28 0 -52.5 -13.5t-42.5 -38t-28 -57.5t-10 -72q0 -40 10 -73t28 -57t42.5 -37t53.5 -13t54 13t43 37t28.5 57t10.5 73z" />
    <glyph glyph-name="afii10097" unicode="&#x44f;" horiz-adv-x="578" 
d="M370 0v173h-65.5t-24.5 1l-86 -174h-155l109 190q-51 21 -83 68t-32 113q0 42 16 77t45 60.5t70 40t91 14.5h252v-563h-137zM370 451h-91q-48 0 -77.5 -20t-29.5 -64q0 -42 29 -62.5t77 -20.5h92v167z" />
    <glyph glyph-name="afii10071" unicode="&#x451;" horiz-adv-x="612" 
d="M351 675v135h123v-135h-123zM151 675v135h123v-135h-123zM574 275v-15t-1 -15h-393q1 -65 38 -103.5t94 -38.5q51 0 87 24t48 67l117 -46q-14 -35 -36 -64.5t-52 -50.5t-69 -33t-89 -12q-63 0 -114 19.5t-87.5 57.5t-56 93t-19.5 126q0 68 20.5 122t56.5 91.5t86.5 57.5
t110.5 20t108 -20.5t81.5 -59.5t51.5 -94.5t18 -125.5zM433 345q0 26 -9 47t-25 36t-38 23t-47 8q-28 0 -51.5 -9t-41 -25t-27 -36.5t-9.5 -43.5v-2h248v2z" />
    <glyph glyph-name="afii10099" unicode="&#x452;" horiz-adv-x="662" 
d="M578.5 -100.5q-14.5 -35.5 -46 -57.5t-80.5 -31.5t-119 -9.5l-35 120h11q46 0 74 4t43 14.5t20 28.5t5 46v321q0 50 -28.5 76.5t-71.5 26.5q-44 0 -79 -23t-49 -67v-348h-139v603h-66v110h66v67h139v-66h207v-110h-207v-125q20 30 60.5 50t106.5 20q45 0 82 -13t64 -37
t42 -58t15 -76v-379q0 -51 -14.5 -86.5z" />
    <glyph glyph-name="afii10100" unicode="&#x453;" horiz-adv-x="474" 
d="M222 619l-45 90l156 121l92 -93zM212 445v-445h-141v563h383v-118h-242z" />
    <glyph glyph-name="afii10101" unicode="&#x454;" horiz-adv-x="598" 
d="M476.5 30q-61.5 -42 -153.5 -42q-58 0 -109.5 17t-90 53t-60.5 91.5t-22 132.5q0 69 20.5 123t58 92t89.5 58t115 20q43 0 81.5 -10.5t70 -30t54 -46.5t33.5 -59l-109 -44q-16 38 -49 56t-78 18q-28 0 -53 -7t-44.5 -22t-33 -38t-17.5 -56h213v-107h-214q4 -33 17 -57
t33 -39.5t46 -22.5t55 -7q19 0 38.5 5t36.5 15.5t31 26t22 37.5l107 -39q-26 -76 -87.5 -118z" />
    <glyph glyph-name="afii10102" unicode="&#x455;" horiz-adv-x="558" 
d="M520 155q0 -81 -60.5 -124t-178.5 -43q-76 0 -142 28t-104 79l61 100q17 -22 39.5 -40t48 -31t51.5 -20t50 -7q46 0 67.5 15.5t21.5 41.5q0 32 -28.5 50t-99.5 33q-103 21 -148 64.5t-45 105.5q0 35 15 64t44 50.5t71 33.5t97 12q76 0 136 -23.5t90 -63.5l-57 -96
q-30 38 -75 59t-96 21q-42 0 -62.5 -15t-20.5 -38q0 -11 4.5 -20t16 -17t32.5 -14.5t54 -13.5q113 -23 165.5 -69t52.5 -122z" />
    <glyph glyph-name="afii10103" unicode="&#x456;" horiz-adv-x="290" 
d="M71 636v144h148v-144h-148zM74 0v563h143v-563h-143z" />
    <glyph glyph-name="afii10104" unicode="&#x457;" horiz-adv-x="290" 
d="M184 675v135h123v-135h-123zM-16 675v135h123v-135h-123zM74 0v563h143v-563h-143z" />
    <glyph glyph-name="afii10105" unicode="&#x458;" horiz-adv-x="302" 
d="M85 636v144h147v-144h-147zM215.5 -100.5q-14.5 -35.5 -46 -57.5t-80.5 -31.5t-119 -9.5l-35 120h11q46 0 74 4t43 14.5t20 28.5t5 46v549h142v-577q0 -51 -14.5 -86.5z" />
    <glyph glyph-name="afii10106" unicode="&#x459;" horiz-adv-x="935" 
d="M899 180q0 -40 -15.5 -73.5t-44 -57t-68.5 -36.5t-89 -13h-249v449h-208v-103q0 -101 -18 -189.5t-63 -168.5l-133 35q23 39 39 75.5t26 75.5t14.5 81t4.5 91v217h474v-200h108q50 0 91 -11.5t70 -34.5t45 -57t16 -80zM756 182q0 19 -8.5 32t-22.5 21.5t-32 12t-38 3.5
h-88v-141h88q46 0 73.5 15.5t27.5 56.5z" />
    <glyph glyph-name="afii10107" unicode="&#x45a;" horiz-adv-x="941" 
d="M899 180q0 -40 -15.5 -73.5t-44 -57t-68.5 -36.5t-89 -13h-249v249h-226v-249h-136v563h136v-200h226v200h136v-200h108q50 0 91 -11.5t70 -34.5t45 -57t16 -80zM756 182q0 19 -8.5 32t-22.5 21.5t-32 12t-38 3.5h-88v-141h88q46 0 73.5 15.5t27.5 56.5z" />
    <glyph glyph-name="afii10108" unicode="&#x45b;" horiz-adv-x="662" 
d="M450 0v335q0 50 -28 76.5t-71 26.5q-44 0 -79 -23t-49 -67v-348h-139v603h-66v110h66v67h139v-66h207v-110h-207v-125q20 30 60.5 50t106.5 20q45 0 82 -13t64 -37t42 -58t15 -76v-365h-143z" />
    <glyph glyph-name="afii10109" unicode="&#x45c;" horiz-adv-x="598" 
d="M249 619l-44 90l156 121l91 -93zM435 0l-156 242q-5 -1 -26.5 -2t-44.5 -1v-239h-137v563h137v-203q39 0 68 3t48.5 11t31 22.5t17.5 38.5l31 128h143l-43 -163q-13 -49 -36.5 -78.5t-61.5 -46.5l186 -275h-157z" />
    <glyph glyph-name="afii10110" unicode="&#x45e;" horiz-adv-x="618" 
d="M438.5 683q-47.5 -32 -118.5 -32t-118.5 32t-68.5 87l82 53q11 -29 37.5 -49.5t66.5 -20.5t66.5 20.5t37.5 49.5l83 -53q-20 -55 -67.5 -87zM259 -183h-138l119 259l-226 487h147l149 -334l153 334h140z" />
    <glyph glyph-name="afii10193" unicode="&#x45f;" horiz-adv-x="645" 
d="M390 0v-183h-134v183h-185v563h137v-447h229v447h137v-563h-184z" />
    <glyph glyph-name="afii10050" unicode="&#x490;" horiz-adv-x="603" 
d="M241 649v-649h-150v780h326v189h150v-320h-326z" />
    <glyph glyph-name="afii10098" unicode="&#x491;" horiz-adv-x="483" 
d="M212 446v-446h-141v563h250v145h133v-262h-242z" />
    <glyph glyph-name="uni04C0" unicode="&#x4c0;" horiz-adv-x="342" 
d="M95 0v780h152v-780h-152z" />
    <glyph glyph-name="endash" unicode="&#x2013;" horiz-adv-x="500" 
d="M0 219v84h500v-84h-500z" />
    <glyph glyph-name="emdash" unicode="&#x2014;" horiz-adv-x="1000" 
d="M0 223v76h1000v-76h-1000z" />
    <glyph glyph-name="quoteleft" unicode="&#x2018;" horiz-adv-x="345" 
d="M126 502v164q0 58 23 98t65 64l59 -58q-26 -14 -40.5 -39t-14.5 -64h66v-165h-158z" />
    <glyph glyph-name="quoteright" unicode="&#x2019;" horiz-adv-x="345" 
d="M197 551q-23 -40 -65 -64l-59 58q26 14 40.5 39t14.5 64h-66v165h158v-164q0 -58 -23 -98z" />
    <glyph glyph-name="quotesinglbase" unicode="&#x201a;" horiz-adv-x="345" 
d="M197 -97q-23 -40 -65 -64l-59 58q26 14 40.5 39t14.5 64h-66v165h158v-164q0 -58 -23 -98z" />
    <glyph glyph-name="quotedblleft" unicode="&#x201c;" horiz-adv-x="400" 
d="M236 502v164q0 54 24.5 96t66.5 66l44 -57q-26 -14 -40.5 -39.5t-14.5 -64.5h58v-165h-138zM26 502v164q0 54 24.5 96t66.5 66l44 -57q-26 -14 -40.5 -39.5t-14.5 -64.5h58v-165h-138z" />
    <glyph glyph-name="quotedblright" unicode="&#x201d;" horiz-adv-x="400" 
d="M349.5 553q-24.5 -42 -66.5 -66l-44 57q26 14 40.5 39.5t14.5 64.5h-58v165h138v-164q0 -54 -24.5 -96zM139.5 553q-24.5 -42 -66.5 -66l-44 57q26 14 40.5 39.5t14.5 64.5h-58v165h138v-164q0 -54 -24.5 -96z" />
    <glyph glyph-name="quotedblbase" unicode="&#x201e;" horiz-adv-x="400" 
d="M349.5 -95q-24.5 -42 -66.5 -66l-44 57q26 14 40.5 39.5t14.5 64.5h-58v165h138v-164q0 -54 -24.5 -96zM139.5 -95q-24.5 -42 -66.5 -66l-44 57q26 14 40.5 39.5t14.5 64.5h-58v165h138v-164q0 -54 -24.5 -96z" />
    <glyph glyph-name="dagger" unicode="&#x2020;" horiz-adv-x="573" 
d="M351 493v-568h-131v568h-174v130h174v202h131v-202h175v-130h-175z" />
    <glyph glyph-name="daggerdbl" unicode="&#x2021;" horiz-adv-x="573" 
d="M351 102v-177h-131v177h-174v131h174v284h-174v131h174v177h131v-177h175v-131h-175v-284h175v-131h-175z" />
    <glyph glyph-name="bullet" unicode="&#x2022;" horiz-adv-x="392" 
d="M317 306q0 -25 -9.5 -47t-26 -38.5t-38.5 -26t-47 -9.5t-47 9.5t-38.5 26t-26 38.5t-9.5 47t9.5 47t26 38.5t38.5 26t47 9.5t47 -9.5t38.5 -26t26 -38.5t9.5 -47z" />
    <glyph glyph-name="ellipsis" unicode="&#x2026;" horiz-adv-x="1000" 
d="M920 85q0 -17 -7 -32.5t-18.5 -27t-27 -18.5t-33.5 -7q-35 0 -60.5 25t-25.5 60q0 18 7 34t18.5 27.5t27 18.5t33.5 7t33.5 -7t27 -18.5t18.5 -27.5t7 -34zM586 85q0 -17 -7 -32.5t-18.5 -27t-27 -18.5t-33.5 -7t-33.5 7t-27 18.5t-18.5 27t-7 32.5q0 18 7 34t18.5 27.5
t27 18.5t33.5 7t33.5 -7t27 -18.5t18.5 -27.5t7 -34zM252 85q0 -35 -25.5 -60t-60.5 -25q-18 0 -33.5 7t-27 18.5t-18.5 27t-7 32.5q0 18 7 34t18.5 27.5t27 18.5t33.5 7t33.5 -7t27 -18.5t18.5 -27.5t7 -34z" />
    <glyph glyph-name="perthousand" unicode="&#x2030;" horiz-adv-x="1000" 
d="M949 176q0 -39 -8 -74.5t-25 -62.5t-44.5 -43t-65.5 -16q-37 0 -63.5 16.5t-42.5 43.5t-23.5 62.5t-7.5 73.5q0 39 9 74.5t26.5 63t43 44t58.5 16.5q38 0 65.5 -16.5t44.5 -44.5t25 -63.5t8 -73.5zM338 603q0 -38 -9.5 -73.5t-28 -63t-45 -44t-61.5 -16.5
q-38 0 -64.5 16.5t-43.5 43.5t-25 62.5t-8 74.5q0 40 8 76t25 63t43.5 43t64.5 16t65.5 -16.5t45 -44.5t25.5 -63.5t8 -73.5zM123 0h-84l517 780h85zM625 176q0 -39 -7.5 -74.5t-24 -62.5t-43 -43t-64.5 -16t-64.5 16.5t-43.5 43.5t-25 62.5t-8 73.5q0 39 9.5 74.5t28 63
t44.5 44t59 16.5q38 0 64.5 -16.5t43 -44.5t24 -63.5t7.5 -73.5zM855 176q0 32 -3.5 53.5t-9.5 34.5t-15 18.5t-21 5.5q-11 0 -20 -5.5t-15.5 -18.5t-10 -34.5t-3.5 -53.5q0 -62 13 -85.5t36 -23.5q24 0 36.5 23.5t12.5 85.5zM244 603q0 32 -3.5 53.5t-10 34.5t-15.5 18.5
t-21 5.5q-11 0 -20 -5.5t-15.5 -18.5t-10 -34.5t-3.5 -53.5q0 -62 13 -86t36 -24q24 0 37 24t13 86zM535 176q0 32 -3.5 53.5t-10 34.5t-15.5 18.5t-20 5.5q-12 0 -21 -5.5t-15.5 -18.5t-10 -34.5t-3.5 -53.5q0 -62 13.5 -85.5t36.5 -23.5t36 23.5t13 85.5z" />
    <glyph glyph-name="guilsinglleft" unicode="&#x2039;" horiz-adv-x="640" 
d="M112 192v130l406 230v-143l-278 -152l278 -152v-143z" />
    <glyph glyph-name="guilsinglright" unicode="&#x203a;" horiz-adv-x="640" 
d="M122 -38v143l278 152l-278 152v143l406 -230v-130z" />
    <glyph glyph-name="Euro" unicode="&#x20ac;" horiz-adv-x="730" 
d="M591.5 23q-74.5 -42 -175.5 -42q-68 0 -126 19.5t-103.5 57t-77 91.5t-46.5 123h-38v92h27q-1 8 -1 14.5v14.5v17t1 17h-27v92h41q16 65 47.5 116.5t76.5 88t102 56t123 19.5q52 0 97 -11.5t81 -32t62.5 -48t41.5 -60.5l-94 -87q-11 23 -29 43t-41.5 34.5t-50 22.5
t-55.5 8q-66 0 -118.5 -38.5t-78.5 -110.5h316v-92h-335q-1 -8 -1 -16.5v-17.5v-15t1 -14h278v-92h-262q25 -80 79 -119t122 -39q28 0 56 8t52.5 23t44.5 36t32 46l90 -92q-37 -70 -111.5 -112z" />
    <glyph glyph-name="afii61352" unicode="&#x2116;" horiz-adv-x="1296" 
d="M1248 365q0 -100 -60 -156t-166 -56t-166 56t-60 156q0 48 16 87.5t45 67t71 43t94 15.5t94 -15t71 -42.5t45 -67t16 -88.5zM798 0v102h449v-102h-449zM514 0l-231 450q-10 20 -20.5 44.5t-19.5 50t-16 48.5t-11 40h-3q2 -18 5 -50t6 -69.5t5.5 -77.5t2.5 -74v-362h-141
v780h179l231 -447q26 -50 47 -99t27 -80l4 -1q-3 20 -7 52.5t-7 68.5t-5 71.5t-2 60.5v374h140v-780h-184zM1130 365q0 51 -30 80.5t-78 29.5t-78 -29.5t-30 -80.5t30 -80.5t78 -29.5t78 29.5t30 80.5z" />
    <glyph glyph-name="trademark" unicode="&#x2122;" horiz-adv-x="810" 
d="M664 369v154v17t1 22h-2l-49 -193h-99l-50 193h-2q2 -12 2 -22.5v-17.5v-153h-104v411h117l79 -243q2 -6 4.5 -15.5t3.5 -20.5h3q4 21 9 37l74 242h118v-411h-105zM239 677v-308h-109v308h-106v103h318v-103h-103z" />
    <glyph glyph-name="Delta" unicode="&#x2206;" horiz-adv-x="712" 
d="M8 0l348 800l344 -800h-692zM334 558l-190 -443h380z" />
    <glyph glyph-name="uni2219" unicode="&#x2219;" horiz-adv-x="345" 
d="M98 176v160h149v-160h-149z" />
    <glyph glyph-name="radical" unicode="&#x221a;" horiz-adv-x="591" 
d="M446 -75h-131l-147 394l-116 -50l-50 112l240 103l118 -348l120 778h124z" />
    <glyph glyph-name="infinity" unicode="&#x221e;" horiz-adv-x="922" 
d="M886 390q0 -49 -16 -90.5t-46 -72t-74 -47.5t-100 -17q-29 0 -58 10t-54.5 27t-45.5 39.5t-31 46.5q-12 -25 -33 -47.5t-46.5 -39.5t-54 -26.5t-55.5 -9.5q-57 0 -101 17t-74 47t-45.5 71.5t-15.5 90.5q0 48 15.5 90t45.5 72.5t74 48t101 17.5q62 0 112.5 -33.5
t77.5 -86.5q10 23 28 45t42.5 38.5t54.5 26.5t63 10q56 0 100 -17.5t74 -48t46 -72t16 -89.5zM758 390q0 46 -31 76t-83 30q-43 0 -74.5 -25t-48.5 -64q-2 -4 -3.5 -8.5l-2.5 -7.5q2 -8 7 -18q19 -38 49.5 -62t72.5 -24q51 0 82.5 29t31.5 74zM407 390q-1 2 -2.5 7.5
t-3.5 8.5q-17 39 -48.5 64.5t-74.5 25.5q-52 0 -83 -29.5t-31 -75.5q0 -45 31.5 -74.5t82.5 -29.5q42 0 71.5 23t49.5 61q7 13 8 19z" />
    <glyph glyph-name="approxequal" unicode="&#x2248;" horiz-adv-x="847" 
d="M789 491q-15 -21 -41 -41.5t-66 -35.5t-97 -15q-39 0 -69.5 7.5t-55.5 18.5t-47 24.5t-44.5 24.5t-48 18.5t-57.5 7.5q-27 0 -54 -7.5t-51 -20.5t-43 -31.5t-31 -41.5l-48 90q17 29 41 52.5t54.5 40.5t65.5 26.5t72 9.5q38 0 68 -7.5t55 -18.5t47 -24.5t45 -24.5
t48.5 -18.5t57.5 -7.5q57 0 103 27.5t70 69.5l48 -90q-7 -12 -22 -33zM811 288q-7 -12 -22 -33.5t-41 -42t-66 -35.5t-97 -15q-59 0 -99 16t-73.5 35t-67.5 35t-82 16q-27 0 -54 -7.5t-51 -21t-43 -32t-31 -41.5l-48 90q17 29 41 52.5t54.5 41t65.5 27t72 9.5q57 0 96.5 -16
t73.5 -35t68.5 -35t82.5 -16q57 0 103 27.5t70 70.5l48 -91v1z" />
    <glyph glyph-name="notequal" unicode="&#x2260;" horiz-adv-x="803" 
d="M381 227l-110 -203l-106 57l79 146h-195v108h252l59 109h-311v108h369l93 173l107 -57l-63 -116h199v-108h-256l-59 -109h315v-108h-373z" />
    <glyph glyph-name="lessequal" unicode="&#x2264;" horiz-adv-x="789" 
d="M49 423v117l687 236v-132l-529 -163l529 -165v-130zM40 15v116h705v-116h-705z" />
    <glyph glyph-name="greaterequal" unicode="&#x2265;" horiz-adv-x="789" 
d="M53 186v130l529 165l-529 163v132l687 -236v-117zM44 15v116h705v-116h-705z" />
  </font>
</defs>
</svg>
