<?xml version="1.0" standalone="no"?>
<!DOCTYPE svg PUBLIC "-//W3C//DTD SVG 1.1//EN" "http://www.w3.org/Graphics/SVG/1.1/DTD/svg11.dtd" >
<svg xmlns="http://www.w3.org/2000/svg" xmlns:xlink="http://www.w3.org/1999/xlink" version="1.1">
<metadata>
Created by FontForge 20191125 at Wed May 31 17:00:00 2006
 By convertio
Copyright (c)2006 Fontworks Japan, Inc. All Rights Reserved.
</metadata>
<defs>
<font id="SCEPS3RodinLATIN-BoldItalic" horiz-adv-x="690" >
  <font-face 
    font-family="SCE-PS3 Rodin LATIN"
    font-weight="700"
    font-style="italic"
    font-stretch="normal"
    units-per-em="1000"
    panose-1="2 0 8 0 0 0 0 0 0 0"
    ascent="800"
    descent="-200"
    x-height="554"
    cap-height="780"
    bbox="-137 -212 1276.05 1047"
    underline-thickness="50"
    underline-position="-100"
    unicode-range="U+0020-2265"
  />
<missing-glyph horiz-adv-x="500" 
d="M63 0v699h375v-699h-375zM125 63h250v574h-250v-574z" />
    <glyph glyph-name=".notdef" horiz-adv-x="500" 
d="M63 0v699h375v-699h-375zM125 63h250v574h-250v-574z" />
    <glyph glyph-name="NULL" horiz-adv-x="0" 
 />
    <glyph glyph-name="nonmarkingreturn" horiz-adv-x="367" 
 />
    <glyph glyph-name="space" unicode=" " horiz-adv-x="345" 
 />
    <glyph glyph-name="exclam" unicode="!" horiz-adv-x="400" 
d="M254 233h-120l100 547h151zM218 0h-149l33 154h149z" />
    <glyph glyph-name="quotedbl" unicode="&#x22;" horiz-adv-x="500" 
d="M448 482h-100l50 298h135zM236 482h-100l50 298h134z" />
    <glyph glyph-name="numbersign" unicode="#" 
d="M712 484h-142l-67 -161h116l-27 -125h-144l-84 -198h-107l85 198h-120l-84 -198h-108l85 198h-105l27 125h132l69 161h-107l26 125h134l75 171h104l-73 -171h121l74 171h105l-73 -171h114zM343 484l-67 -161h120l69 161h-122z" />
    <glyph glyph-name="dollar" unicode="$" 
d="M578 560q-6 43 -32.5 68.5t-68.5 34.5l-43 -200l39 -13q73 -24 114.5 -66t41.5 -108q0 -11 -1.5 -23t-3.5 -24q-21 -98 -95.5 -156t-191.5 -68l-18 -86h-82l18 85q-94 9 -148 59t-65 131l114 70q8 -54 42.5 -90.5t82.5 -48.5l48 228l-52 17q-69 23 -103 57t-34 90
q0 24 6 51q9 42 32.5 78t59 63.5t81.5 45t100 21.5l14 64h82l-14 -65q78 -8 126.5 -42.5t60.5 -101.5zM316 637q-32 -25 -39 -58q-2 -10 -2 -15q0 -48 69 -72l6 -2q2 -1 4.5 -2t3.5 -1l38 180q-48 -5 -80 -30zM488 236q0 29 -17.5 48.5t-51.5 35.5q-3 0 -8 3q-3 2 -6 3
l-43 -203q48 5 81.5 29t41.5 60q3 14 3 24z" />
    <glyph glyph-name="percent" unicode="%" horiz-adv-x="1000" 
d="M936 253q0 -29 -6 -59q-9 -42 -28.5 -81t-49 -68t-68.5 -46.5t-87 -17.5q-39 0 -67 12t-46 33t-26.5 49.5t-8.5 60.5q0 28 6 58q9 42 31 80.5t52.5 68t69 47.5t80.5 18q39 0 67 -12.5t46 -33.5t26.5 -49t8.5 -60zM224 0h-114l719 780h114zM507 643q0 -14 -2 -28.5
t-5 -29.5q-9 -40 -30 -78.5t-52 -68.5t-69.5 -48t-82.5 -18q-39 0 -67 12t-46 33t-26.5 49.5t-8.5 60.5q0 28 6 58q9 43 29 81.5t49.5 68t68 47t86.5 17.5q39 0 67.5 -12.5t46.5 -33.5t27 -49.5t9 -60.5zM821 242q0 36 -15.5 52t-38.5 16q-28 0 -55.5 -26.5t-41.5 -89.5
q-2 -12 -3.5 -23t-1.5 -21q0 -36 15 -53t38 -17q31 0 57.5 27t39.5 87q6 27 6 48zM389 633q0 37 -15 52.5t-38 15.5q-29 0 -56.5 -26.5t-41.5 -89.5q-2 -12 -3.5 -23t-1.5 -20q0 -36 15 -53.5t39 -17.5q30 0 57 27t39 87q6 29 6 48z" />
    <glyph glyph-name="ampersand" unicode="&#x26;" horiz-adv-x="741" 
d="M622 -16q-32 17 -67 41t-62 48q-48 -39 -106 -65.5t-129 -26.5q-116 0 -172 47.5t-56 127.5q0 27 6 57q14 64 63.5 119.5t124.5 97.5q-16 38 -27.5 74.5t-11.5 72.5q0 20 4 36q8 38 28 71.5t51 59t72 40.5t90 15q81 0 123.5 -37.5t42.5 -100.5q0 -18 -5 -43
q-14 -69 -66.5 -124t-140.5 -97q22 -34 54 -75.5t72 -83.5q28 39 48 85.5t32 88.5l100 -34q-17 -60 -42 -111t-60 -98q30 -25 66.5 -49t71.5 -38zM471 614q8 35 -7.5 59t-52.5 24q-36 0 -64 -23.5t-36 -60.5q-3 -12 -3 -26q0 -25 8.5 -51t22.5 -54q63 30 93.5 61t38.5 71z
M414 147q-44 51 -81.5 101.5t-66.5 95.5q-41 -23 -68.5 -54t-35.5 -68q-3 -15 -3 -28q0 -43 31 -72t99 -29q36 0 67.5 15.5t57.5 38.5z" />
    <glyph glyph-name="quotesingle" unicode="'" horiz-adv-x="345" 
d="M273 481h-117l50 299h151z" />
    <glyph glyph-name="parenleft" unicode="(" horiz-adv-x="400" 
d="M318.5 598q-75.5 -114 -105.5 -258q-8 -38 -11.5 -73.5t-3.5 -68.5q0 -98 29.5 -173.5t81.5 -128.5l-97 -57q-76 72 -109 156.5t-33 181.5q0 39 5 79.5t14 83.5q16 75 43 144t67.5 132t96 120t129.5 108l74 -56q-105 -76 -180.5 -190z" />
    <glyph glyph-name="parenright" unicode=")" horiz-adv-x="400" 
d="M364 506q0 -40 -5 -81t-14 -85q-16 -75 -42.5 -143.5t-67 -131.5t-96 -119.5t-129.5 -106.5l-73 57q50 35 94.5 81t81.5 102t64.5 121.5t43.5 139.5q16 73 16 143q0 95 -29 172t-83 133l98 56q75 -72 108 -156.5t33 -181.5z" />
    <glyph glyph-name="asterisk" unicode="*" horiz-adv-x="500" 
d="M541 533l-142 -8l39 -127l-91 -48l-51 123l-105 -122l-69 47l93 127l-141 7l19 91l144 9l-39 128l90 47l52 -123l104 123l71 -47l-94 -129l139 -8z" />
    <glyph glyph-name="plus" unicode="+" 
d="M407 219v-219h-131v219h-220v125h220v211h131v-211h226v-125h-226z" />
    <glyph glyph-name="comma" unicode="," horiz-adv-x="345" 
d="M197 8q-11 -51 -39.5 -91t-73.5 -63l-42 47q32 13 54.5 40t29.5 59h-83l35 163h152z" />
    <glyph glyph-name="hyphen" unicode="-" horiz-adv-x="476" 
d="M413 209h-372l28 128h372z" />
    <glyph glyph-name="period" unicode="." horiz-adv-x="345" 
d="M195 0h-152l35 163h152z" />
    <glyph glyph-name="slash" unicode="/" horiz-adv-x="400" 
d="M50 -23h-117l469 826h117z" />
    <glyph glyph-name="zero" unicode="0" 
d="M685 540q0 -67 -17 -149q-19 -92 -53 -167.5t-81.5 -129.5t-109.5 -83.5t-138 -29.5q-117 0 -171.5 65t-54.5 183q0 74 19 162q18 87 51.5 161.5t81 129t110 86t138.5 31.5q59 0 101.5 -18.5t70 -52.5t40.5 -82t13 -106zM535 519q0 71 -24.5 112.5t-77.5 41.5
q-37 0 -68.5 -20.5t-57.5 -57.5t-46 -89t-34 -115q-8 -38 -12 -72t-4 -63q0 -72 25 -110.5t77 -38.5q73 0 126 76t81 208q15 71 15 128z" />
    <glyph glyph-name="one" unicode="1" 
d="M404 0h-150l121 570l-149 -59l-14 119q75 23 132.5 61t91.5 89h134z" />
    <glyph glyph-name="two" unicode="2" 
d="M700 626q0 -12 -1 -24t-4 -25q-9 -42 -29 -78.5t-53.5 -69.5t-81.5 -62.5t-113 -57.5q-38 -16 -72.5 -36.5t-61.5 -44t-45.5 -48.5t-24.5 -51h387l-27 -129h-549l17 81q12 59 41.5 107t70 87t90.5 70t104 55q50 22 84.5 43t58 41.5t36 41.5t16.5 42q3 14 3 26
q0 38 -27 59.5t-81 21.5q-55 0 -99.5 -40t-61.5 -109l-127 34q14 54 44.5 98.5t73 75.5t95 48t109.5 17q113 0 170.5 -47.5t57.5 -125.5z" />
    <glyph glyph-name="three" unicode="3" 
d="M671 641q0 -11 -1.5 -21.5t-3.5 -21.5q-16 -74 -65 -119.5t-116 -59.5q27 -4 51 -15.5t42 -30.5t28.5 -45t10.5 -60q0 -24 -6 -51q-23 -109 -110 -172.5t-236 -63.5q-118 0 -179 50.5t-67 136.5l139 53q2 -57 38.5 -87t92.5 -30q31 0 60.5 8.5t53.5 23.5t40.5 37t22.5 49
q2 8 3 15.5t1 14.5q0 45 -33.5 69.5t-99.5 24.5h-98l26 126h84q30 0 57.5 7.5t50 21.5t38 33.5t20.5 43.5q2 6 2 12v11q0 37 -26 57.5t-71 20.5q-58 0 -99 -29t-58 -74l-118 41q16 37 43.5 70t65.5 58t87.5 39.5t109.5 14.5q106 0 163 -43t57 -115z" />
    <glyph glyph-name="four" unicode="4" 
d="M636 164h-118l-35 -164h-139l35 164h-362l27 127l453 489h152l-105 -492h118zM191 288h214l67 313z" />
    <glyph glyph-name="five" unicode="5" 
d="M669 655h-351l-60 -192q25 26 72 44t99 18q45 0 84.5 -11t69 -34.5t46.5 -60t17 -87.5q0 -17 -1.5 -35t-6.5 -38q-14 -68 -47.5 -120t-80 -87t-103.5 -53t-120 -18q-114 0 -179.5 51.5t-72.5 142.5l145 42q3 -55 40 -83.5t94 -28.5q28 0 56.5 9.5t53.5 29t43.5 48
t26.5 67.5q2 12 3.5 22.5t1.5 20.5q0 29 -9.5 50t-26 34.5t-38 20t-45.5 6.5q-21 0 -44 -6.5t-44 -18t-39 -27t-30 -34.5l-132 28l126 425h479z" />
    <glyph glyph-name="six" unicode="6" 
d="M587 581q-9 52 -44 76t-93 24q-36 0 -70.5 -14.5t-64.5 -46t-54 -81.5t-39 -121q14 19 35.5 36.5t47.5 31t55 21.5t59 8q47 0 88.5 -11.5t73 -35t50 -60t18.5 -86.5q0 -32 -7 -64q-14 -66 -45 -117.5t-75.5 -87t-101 -54t-121.5 -18.5q-55 0 -99.5 15t-76 46t-49 79.5
t-17.5 114.5q0 59 17 141q24 113 64.5 193t93 131t114.5 74.5t130 23.5q100 0 158 -37.5t77 -115.5zM503 288q0 56 -34 83t-85 27q-58 0 -107 -32.5t-74 -89.5q-3 -19 -3 -37q0 -69 33.5 -105t87.5 -36q27 0 55.5 9t53 27.5t43 47t26.5 67.5q4 19 4 39z" />
    <glyph glyph-name="seven" unicode="7" 
d="M724 677q-87 -61 -158.5 -144t-126 -174t-91.5 -184.5t-55 -175.5h-153q20 92 62 186.5t96 181t114.5 159.5t118.5 123h-369l28 131h556z" />
    <glyph glyph-name="eight" unicode="8" 
d="M687 637q0 -22 -4 -41q-12 -56 -45 -102t-96 -69q54 -20 78.5 -57t24.5 -88q0 -29 -7 -58q-11 -51 -41.5 -95t-76 -76.5t-105.5 -51t-129 -18.5q-60 0 -107.5 14t-80 39.5t-50 60.5t-17.5 78q0 12 1 24t4 25q15 70 61 124.5t125 77.5q-42 17 -59 48.5t-17 70.5q0 26 6 53
q10 46 38 83.5t69 64t92.5 41t108.5 14.5q52 0 94 -11t71.5 -32t45.5 -51t16 -68zM547 607q0 38 -29.5 60.5t-80.5 22.5q-55 0 -97.5 -27.5t-53.5 -76.5q-1 -5 -1.5 -10.5t-0.5 -10.5q0 -38 30.5 -60t78.5 -22q57 0 99 28t53 75q2 5 2 10.5v10.5zM496 257q0 45 -34.5 70.5
t-95.5 25.5q-70 0 -119 -33t-61 -89q-3 -15 -3 -28q0 -26 10.5 -45.5t28 -33t41 -20t49.5 -6.5q30 0 59.5 8.5t54 25t42.5 41.5t25 58q3 14 3 26z" />
    <glyph glyph-name="nine" unicode="9" 
d="M683 546q0 -59 -17 -141q-24 -115 -63.5 -195.5t-91 -131.5t-114 -74t-133.5 -23q-103 0 -162.5 40.5t-76.5 118.5l124 65q8 -52 46 -79t95 -27q39 0 73.5 15t64 47t52.5 82.5t38 120.5q-14 -20 -35.5 -38t-47.5 -31.5t-55 -21t-59 -7.5q-46 0 -88 11.5t-73.5 35t-50 60
t-18.5 86.5q0 31 7 63q14 66 45 117.5t75.5 87t101 54t121.5 18.5q55 0 99.5 -15t76 -45.5t49 -78.5t17.5 -114zM540 541q0 69 -33.5 105t-87.5 36q-28 0 -56.5 -9t-52.5 -27.5t-42.5 -47t-26.5 -67.5q-4 -19 -4 -38q0 -55 35 -82t85 -27q58 0 106.5 32.5t74.5 89.5
q2 9 2 18v17z" />
    <glyph glyph-name="colon" unicode=":" horiz-adv-x="400" 
d="M308 398h-151l33 157h151zM223 0h-151l33 157h151z" />
    <glyph glyph-name="semicolon" unicode=";" horiz-adv-x="400" 
d="M307 397h-151l34 158h151zM225 8q-11 -51 -39.5 -91t-73.5 -63l-42 47q32 13 54.5 40t29.5 59h-82l34 158h151z" />
    <glyph glyph-name="less" unicode="&#x3c;" 
d="M86 211v131l476 250v-133l-348 -182l348 -178v-137z" />
    <glyph glyph-name="equal" unicode="=" 
d="M70 343v114h550v-114h-550zM70 111v115h550v-115h-550z" />
    <glyph glyph-name="greater" unicode="&#x3e;" 
d="M128 -38v137l348 178l-348 182v133l476 -250v-131z" />
    <glyph glyph-name="question" unicode="?" 
d="M685 630q0 -9 -1 -18.5t-3 -19.5q-15 -71 -52 -117t-100 -83q-24 -14 -44 -26t-35 -26t-25.5 -31t-15.5 -42q-2 -9 -4.5 -21.5t-4.5 -23.5h-134q2 14 5 29l5 25q7 35 20.5 61.5t32.5 48.5t44 40t55 35q42 24 67.5 52.5t33.5 67.5q2 5 2 10v10q0 36 -28 58t-75 22
q-53 0 -95.5 -34t-58.5 -96l-130 21q14 54 44.5 96t73.5 71t95 44.5t108 15.5q50 0 91 -12.5t69.5 -35t44 -53.5t15.5 -68zM360 0h-147l33 154h147z" />
    <glyph glyph-name="at" unicode="@" horiz-adv-x="891" 
d="M844 444q0 -46 -12 -96t-37.5 -91t-66 -67.5t-98.5 -26.5q-31 0 -62 11.5t-49 39.5q-20 -26 -53.5 -41t-71.5 -15q-45 0 -79.5 15t-58 41t-35.5 61.5t-12 75.5q0 63 16 114.5t45 88.5t68.5 57t85.5 20q35 0 62 -14.5t38 -42.5l10 46l120 -25q-12 -61 -22 -112
q-4 -22 -8 -43.5t-8 -40t-6.5 -32.5t-3.5 -20q-3 -16 -3 -28q0 -28 12 -38.5t29 -11.5h3q18 0 36 10t31.5 31t22 54t8.5 79q0 58 -16 108.5t-50.5 88.5t-88.5 60t-129 22q-69 0 -128 -24t-102.5 -68t-68.5 -105t-25 -136q0 -78 24.5 -138.5t66.5 -102t98.5 -63t120.5 -21.5
q107 0 187 29.5t137 87.5l43 -65q-33 -35 -70 -60t-81 -41.5t-97.5 -24.5t-118.5 -8q-92 0 -166.5 28.5t-127.5 81.5t-82 128.5t-29 169.5q0 91 31.5 166.5t87.5 129.5t133 83.5t167 29.5q95 0 166.5 -27.5t119.5 -75t72.5 -112.5t24.5 -140zM500 457q-2 29 -21 45.5
t-49 16.5q-17 0 -33.5 -9.5t-30 -29t-22 -49t-8.5 -70.5q0 -48 22 -68t48 -20q35 0 49.5 17t19.5 37q3 11 6 27t6.5 34.5t7 36.5t5.5 32z" />
    <glyph glyph-name="A" unicode="A" horiz-adv-x="727" 
d="M526 0l-27 203h-286l-114 -203h-155l437 780h188l103 -780h-146zM467 444q-6 48 -11.5 97.5t-5.5 80.5v12h-8q-4 -13 -13.5 -33.5t-21.5 -44.5t-26 -50l-28 -52q-33 -60 -71 -126h201q-9 61 -16 116z" />
    <glyph glyph-name="B" unicode="B" horiz-adv-x="722" 
d="M713 625q0 -17 -5 -40q-14 -69 -56 -112t-101 -54l1 -2q26 -3 49.5 -14t41 -29.5t28 -45t10.5 -59.5q0 -24 -6 -51q-10 -49 -37.5 -89.5t-68 -69t-93 -44t-113.5 -15.5h-327l166 780h308q95 0 149 -42.5t54 -112.5zM558 580q0 41 -29.5 60.5t-69.5 19.5h-135l-42 -197
h145q49 0 83.5 23.5t45.5 71.5q2 6 2 11.5v10.5zM533 260q0 22 -9.5 38.5t-26 27.5t-38.5 16.5t-46 5.5h-155l-48 -224h159q61 0 105.5 29t56.5 85q2 6 2 11.5v10.5z" />
    <glyph glyph-name="C" unicode="C" horiz-adv-x="729" 
d="M667 560q-6 23 -20 43t-34 34.5t-45 22.5t-54 8q-46 0 -89.5 -19t-80 -54t-64 -86t-41.5 -116q-10 -49 -10 -92q0 -47 12.5 -82t35 -58.5t53 -35t67.5 -11.5q28 0 58 8t57.5 23t52 36t41.5 46l71 -92q-52 -70 -135.5 -112t-184.5 -42q-68 0 -122 20t-91.5 57.5
t-57.5 91.5t-20 123q0 53 14 120q19 92 61.5 166.5t101.5 128t132.5 82.5t154.5 29q52 0 94.5 -11.5t74 -32t52 -48t29.5 -60.5z" />
    <glyph glyph-name="D" unicode="D" horiz-adv-x="791" 
d="M780 495q0 -49 -12 -105q-18 -87 -59 -159t-99.5 -123t-132 -79.5t-156.5 -28.5h-285l166 780h281q70 0 125 -20t93.5 -57t58.5 -89.5t20 -118.5zM627 469q0 88 -49 136.5t-140 48.5h-113l-112 -528h117q54 0 101.5 19.5t84.5 54.5t63.5 83.5t38.5 107.5q9 42 9 78z" />
    <glyph glyph-name="E" unicode="E" horiz-adv-x="678" 
d="M702 655h-379l-41 -193h329l-26 -122h-329l-45 -215h398l-27 -125h-546l166 780h527z" />
    <glyph glyph-name="F" unicode="F" horiz-adv-x="636" 
d="M684 655h-359l-45 -214h315l-26 -121h-315l-68 -320h-150l166 780h509z" />
    <glyph glyph-name="G" unicode="G" horiz-adv-x="784" 
d="M680 558q-17 52 -58 83.5t-108 31.5q-48 0 -93 -18.5t-82.5 -54.5t-65 -88t-41.5 -119q-5 -26 -8 -48.5t-3 -43.5q0 -49 13 -85.5t36.5 -61.5t55.5 -37.5t70 -12.5q60 0 106.5 20.5t73.5 55.5l28 131h-189l26 124h318l-66 -312q-55 -70 -136 -106t-187 -36
q-71 0 -127.5 19.5t-95.5 57t-60 92t-21 124.5q0 52 14 119q20 93 62 168.5t101 128t131.5 81t151.5 28.5q114 0 180 -43t85 -110z" />
    <glyph glyph-name="H" unicode="H" horiz-adv-x="792" 
d="M646 0h-151l72 341h-309l-72 -341h-150l166 780h150l-67 -314h309l67 314h151z" />
    <glyph glyph-name="I" unicode="I" horiz-adv-x="342" 
d="M192 0h-152l166 780h152z" />
    <glyph glyph-name="J" unicode="J" horiz-adv-x="484" 
d="M368 168q-20 -94 -88.5 -140.5t-168.5 -46.5q-43 0 -77.5 5t-60.5 13l18 130q27 -11 60 -17t58 -6q42 0 73.5 22t41.5 69l124 583h150z" />
    <glyph glyph-name="K" unicode="K" horiz-adv-x="706" 
d="M442 457l227 -457h-173l-165 363l-89 -73l-60 -290h-146l166 780h146l-66 -311l354 311h173z" />
    <glyph glyph-name="L" unicode="L" horiz-adv-x="621" 
d="M537 0h-501l166 780h150l-138 -646h351z" />
    <glyph glyph-name="M" unicode="M" horiz-adv-x="934" 
d="M788 0h-136l82 388q5 24 14.5 61.5t19.5 77t19 75.5t15 57h-5q-4 -17 -11.5 -38.5t-16.5 -43.5t-18.5 -42.5t-17.5 -36.5l-248 -498h-149l-42 496q-1 11 -1.5 25.5t-0.5 30.5q0 27 1.5 55.5t3.5 51.5h-5q-3 -22 -9 -58l-12.5 -75t-13.5 -77t-13 -64l-82 -385h-126
l166 780h205l40 -502q0 -5 0.5 -9.5t0.5 -9.5q0 -16 -1 -33.5t-2.5 -33t-2.5 -28t-1 -18.5v-2h3q2 4 6.5 19.5t11.5 35.5t14.5 41.5t15.5 36.5l250 503h212z" />
    <glyph glyph-name="N" unicode="N" horiz-adv-x="789" 
d="M643 0h-184l-135 450q-6 20 -11 44.5t-9 50t-6 48.5t-2 40h-3q-2 -18 -6 -50t-9 -69.5t-11 -77.5t-13 -74l-77 -362h-141l166 780h179l136 -447q15 -50 25.5 -99t10.5 -80l4 -1q1 20 4 52.5t7.5 68.5t10 71.5t10.5 60.5l80 374h140z" />
    <glyph glyph-name="O" unicode="O" horiz-adv-x="806" 
d="M792 509q0 -58 -13 -117q-19 -91 -59 -166.5t-97 -130t-128 -84.5t-152 -30q-67 0 -118.5 20.5t-87 59t-53.5 92.5t-18 120q0 58 13 119q19 89 59.5 163.5t97.5 128.5t128.5 84.5t152.5 30.5q67 0 118 -21t86 -59t53 -91.5t18 -118.5zM639 488q0 87 -39.5 135t-109.5 48
q-42 0 -82.5 -19.5t-75.5 -55.5t-61.5 -87.5t-40.5 -116.5q-10 -49 -10 -95q0 -88 39.5 -138t110.5 -50q42 0 82.5 20t75 56.5t61 89t39.5 117.5q11 55 11 96z" />
    <glyph glyph-name="P" unicode="P" horiz-adv-x="701" 
d="M721 585q0 -32 -7 -64q-13 -59 -40.5 -107t-68 -82t-91.5 -52.5t-111 -18.5h-164l-55 -261h-148l166 780h314q97 0 151 -53.5t54 -141.5zM570 554q0 51 -32 76t-83 25h-134l-57 -269h135q29 0 55.5 8.5t49 25t39 42t23.5 58.5q2 9 3 17.5t1 16.5z" />
    <glyph glyph-name="Q" unicode="Q" horiz-adv-x="802" 
d="M794 510q0 -56 -13 -115q-25 -116 -84 -205.5t-144 -141.5q47 -62 130 -119l-151 -74q-32 24 -64 63t-57 77q-11 -4 -30.5 -6t-36.5 -2q-67 0 -118.5 20.5t-87 58t-53.5 91t-18 119.5q0 58 13 119q19 89 59 163t97 127.5t128.5 83.5t152.5 30q67 0 118.5 -20.5t87 -58.5
t53.5 -91.5t18 -118.5zM643 491q0 88 -40 137t-112 49q-42 0 -83.5 -19.5t-76.5 -56t-62 -89t-41 -117.5q-11 -53 -11 -96q0 -89 40.5 -139.5t112.5 -50.5q43 0 84 20t76 57.5t61.5 90t40.5 118.5q11 55 11 96z" />
    <glyph glyph-name="R" unicode="R" horiz-adv-x="726" 
d="M726 608q0 -24 -6 -53q-20 -94 -70 -145.5t-116 -71.5l119 -338h-175l-88 313h-141l-67 -313h-146l166 780h315q48 0 86.5 -11.5t65.5 -34t42 -54t15 -72.5zM570 573q0 41 -29.5 62t-77.5 21h-142l-48 -226h144q57 0 97.5 30t52.5 88q3 14 3 25z" />
    <glyph glyph-name="S" unicode="S" horiz-adv-x="698" 
d="M569 566q-8 55 -43 82.5t-90 27.5q-63 0 -101 -26.5t-46 -64.5q-1 -5 -1.5 -8.5t-0.5 -8.5q0 -25 19.5 -43t62.5 -33l111 -39q72 -26 112.5 -68.5t40.5 -108.5q0 -24 -6 -53q-24 -115 -111.5 -178.5t-226.5 -63.5q-118 0 -183 54.5t-77 148.5l128 75q10 -69 54 -110
t105 -41q66 0 106.5 27.5t50.5 72.5q3 12 3 24q0 32 -22.5 54.5t-70.5 40.5l-105 39q-70 26 -104.5 63t-34.5 95q0 24 6 54q10 45 36.5 85.5t67 70.5t93.5 47.5t115 17.5q103 0 162.5 -37.5t75.5 -117.5z" />
    <glyph glyph-name="T" unicode="T" horiz-adv-x="624" 
d="M691 655h-220l-139 -655h-151l139 655h-219l27 125h590z" />
    <glyph glyph-name="U" unicode="U" horiz-adv-x="792" 
d="M702 262q-14 -64 -48 -116t-82.5 -89t-108.5 -56.5t-126 -19.5q-58 0 -105 15t-80 42.5t-50.5 67.5t-17.5 89q0 29 8 67l110 518h150l-108 -505q-6 -28 -6 -51q0 -59 33 -88t93 -29q72 0 124 41.5t70 126.5l108 505h146z" />
    <glyph glyph-name="V" unicode="V" horiz-adv-x="710" 
d="M394 0h-190l-84 780h154l49 -499q3 -30 3.5 -56t0.5 -48v-19h4q10 26 23 57t32 67l259 498h164z" />
    <glyph glyph-name="W" unicode="W" horiz-adv-x="956" 
d="M706 0h-165l5 468q0 18 2 41.5t4 47.5t4.5 46t5.5 36h-2q-4 -15 -10.5 -36.5t-14.5 -45.5t-16.5 -47.5t-16.5 -41.5l-191 -468h-170l-6 780h138l-4 -472q0 -16 -2 -36.5t-4.5 -42t-6 -42t-6.5 -38.5h3q5 17 11 37.5t12.5 42t14 41.5l13.5 36l198 474h164l2 -473v-6
q0 -13 -1.5 -31.5t-3.5 -38.5t-4.5 -40.5t-5.5 -38.5h3q5 19 11 40.5t12 42t12 39t11 31.5l193 475h146z" />
    <glyph glyph-name="X" unicode="X" horiz-adv-x="666" 
d="M443 403l160 -403h-159l-106 274l-214 -274h-171l328 415l-151 365h155l100 -255l197 255h172z" />
    <glyph glyph-name="Y" unicode="Y" horiz-adv-x="632" 
d="M395 272l-58 -272h-151l58 272l-144 508h144l97 -365l255 365h158z" />
    <glyph glyph-name="Z" unicode="Z" horiz-adv-x="683" 
d="M714 669l-510 -544h395l-27 -125h-568l26 120l505 535h-365l27 125h541z" />
    <glyph glyph-name="bracketleft" unicode="[" horiz-adv-x="400" 
d="M484 721h-158l-162 -762h158l-23 -109h-277l208 980h277z" />
    <glyph glyph-name="backslash" unicode="\" horiz-adv-x="400" 
d="M226 -23l-117 826h117l117 -826h-117z" />
    <glyph glyph-name="bracketright" unicode="]" horiz-adv-x="400" 
d="M204 -150h-277l23 109h159l162 762h-159l23 109h277z" />
    <glyph glyph-name="asciicircum" unicode="^" 
d="M515 299l-89 342l-234 -342l-94 53l275 428h164l96 -428z" />
    <glyph glyph-name="underscore" unicode="_" horiz-adv-x="500" 
d="M411 -160h-500l18 84h500z" />
    <glyph glyph-name="grave" unicode="`" horiz-adv-x="400" 
d="M363 600l-194 130l93 104l184 -134z" />
    <glyph glyph-name="a" unicode="a" horiz-adv-x="602" 
d="M514 -7q-28 -6 -54.5 -5t-47 9.5t-32.5 24t-11 37.5q-34 -37 -92 -54t-121 -17q-85 0 -120 39.5t-21 109.5q16 82 74.5 128t160.5 68q59 12 102.5 28.5t48.5 39.5q7 32 -13 44t-70 12q-19 0 -44 -6.5t-51 -17.5t-49.5 -27t-39.5 -34l-36 102q47 45 112 69t143 24
q116 0 165.5 -42.5t29.5 -133.5l-50 -237q-7 -33 12.5 -43t55.5 -2zM334.5 263q-30.5 -11 -69.5 -21q-45 -11 -73 -30.5t-36 -60.5q-9 -55 59 -55q18 0 39 5t41.5 15t37 24.5t25.5 33.5l24 114q-17 -14 -47.5 -25z" />
    <glyph glyph-name="b" unicode="b" horiz-adv-x="649" 
d="M623 373q0 -22 -3 -45.5t-8 -49.5q-15 -72 -44.5 -126t-69 -90.5t-87.5 -55t-102 -18.5q-55 0 -96.5 21t-54.5 55l-39 -64h-103l166 780h142l-60 -279q25 31 71 48.5t97 17.5q91 0 141 -49t50 -145zM475 341q0 57 -27 84.5t-76 27.5q-25 0 -49 -9.5t-44 -26.5t-34 -39.5
t-20 -49.5l-33 -153q12 -31 36.5 -53.5t69.5 -22.5q57 0 104 44t66 135q7 34 7 63z" />
    <glyph glyph-name="c" unicode="c" horiz-adv-x="584" 
d="M521 382q-18 36 -52.5 53t-77.5 17q-30 0 -61.5 -10.5t-59.5 -31.5t-50 -54t-31 -78q-3 -13 -4 -24.5t-1 -22.5q0 -33 11 -57.5t29.5 -40t43 -23.5t52.5 -8q41 0 87 19t78 55l25 -104q-49 -42 -104 -63t-133 -21q-50 0 -93 13.5t-75 40.5t-50 67.5t-18 94.5
q0 17 1.5 35.5t6.5 38.5q15 68 48.5 121.5t80 91t104 57t119.5 19.5q72 0 118 -18.5t78 -54.5z" />
    <glyph glyph-name="d" unicode="d" horiz-adv-x="656" 
d="M530 0h-118l16 74q-16 -23 -38.5 -39.5t-48 -27t-52.5 -15t-51 -4.5q-93 0 -148 51t-55 151q0 41 10 87q15 71 47 125.5t74.5 91t92.5 55t101 18.5q54 0 87.5 -15.5t48.5 -41.5l58 270h142zM436.5 431q-26.5 23 -71.5 23q-28 0 -56 -11t-51.5 -33.5t-41.5 -56t-28 -78.5
q-7 -31 -7 -59q0 -59 30 -87.5t80 -28.5q25 0 49.5 9.5t44.5 26t34.5 39.5t20.5 50l31 146q-8 37 -34.5 60z" />
    <glyph glyph-name="e" unicode="e" horiz-adv-x="612" 
d="M588 364q0 -44 -12 -95l-413 -51v-9q0 -53 36 -80.5t94 -27.5q54 0 105 24t87 69l52 -86q-57 -59 -121.5 -89.5t-155.5 -30.5q-106 0 -165 56t-59 155q0 37 9 79q13 62 42.5 114.5t73 91.5t99 61t120.5 22q101 0 154.5 -54.5t53.5 -148.5zM461 370q0 41 -28.5 63.5
t-77.5 22.5q-62 0 -108 -35t-64 -102l277 36q1 5 1 15z" />
    <glyph glyph-name="f" unicode="f" horiz-adv-x="355" 
d="M436 683q-37 0 -60.5 -4t-37 -13t-20 -22.5t-10.5 -32.5l-12 -56h107l-24 -111h-101l-94 -444h-142l94 444h-79l24 111h79l13 59q10 47 27.5 81.5t49 57t79.5 34t120 12.5v-116h-13z" />
    <glyph glyph-name="g" unicode="g" horiz-adv-x="644" 
d="M522 20q-12 -56 -37.5 -97.5t-67 -70t-100 -42.5t-137.5 -14q-51 0 -99 6t-74 13l-4 131q20 -8 45 -14t52 -10t53 -6.5t48 -2.5q89 0 132 29.5t55 85.5l12 56q-27 -27 -70.5 -43.5t-91.5 -16.5q-90 0 -144.5 47.5t-54.5 141.5q0 36 9 79q14 67 43.5 118.5t69.5 86
t88 52.5t99 18q63 0 101 -18.5t51 -51.5l32 58h104zM425.5 433q-26.5 21 -70.5 21q-57 0 -103.5 -39t-64.5 -124q-6 -30 -6 -54q0 -57 29 -84t77 -27q25 0 49 8.5t43.5 23.5t34 36t19.5 45l28 135q-9 38 -35.5 59z" />
    <glyph glyph-name="h" unicode="h" horiz-adv-x="652" 
d="M614 426q0 -11 -1.5 -21.5t-3.5 -21.5l-81 -383h-143l74 350q3 15 3 28q0 36 -22 55.5t-58 19.5q-44 0 -84 -23t-63 -67l-77 -363h-142l166 780h142l-60 -282q26 30 71 49.5t111 19.5q78 0 123 -37.5t45 -103.5z" />
    <glyph glyph-name="i" unicode="i" horiz-adv-x="290" 
d="M299 636h-148l31 144h148zM162 0h-143l118 555h143z" />
    <glyph glyph-name="j" unicode="j" horiz-adv-x="302" 
d="M312 636h-147l31 144h147zM172 -14q-11 -51 -33 -86.5t-58 -57.5t-87 -31.5t-121 -9.5l-10 120h11q46 0 75 4t46 14.5t26 28.5t15 46l115 541h142z" />
    <glyph glyph-name="k" unicode="k" horiz-adv-x="575" 
d="M374 328l159 -328h-149l-115 240l-76 -67l-37 -173h-136l166 780h142l-99 -449l238 224h157z" />
    <glyph glyph-name="l" unicode="l" horiz-adv-x="293" 
d="M164 0h-145l166 780h145z" />
    <glyph glyph-name="m" unicode="m" horiz-adv-x="905" 
d="M867 433q0 -11 -1 -23.5t-4 -25.5l-82 -384h-142l74 350q2 11 3.5 21t1.5 19q0 61 -64 61q-40 0 -71 -27.5t-39 -67.5l-76 -356h-141l74 350q2 11 3.5 21t1.5 19q0 61 -62 61q-34 0 -60.5 -22t-45.5 -57l-79 -372h-142l118 555h130l-14 -64q26 33 68 54.5t102 21.5
q54 0 86.5 -23.5t40.5 -63.5q26 40 75.5 63.5t109.5 23.5q64 0 99.5 -36t35.5 -98z" />
    <glyph glyph-name="n" unicode="n" horiz-adv-x="652" 
d="M612 415q0 -20 -5 -45l-79 -370h-143l74 350q3 15 3 28q0 36 -22 55.5t-58 19.5q-44 0 -84 -23t-63 -67l-77 -363h-142l118 555h130l-15 -71q28 38 78.5 60.5t119.5 22.5q78 0 121.5 -42.5t43.5 -109.5z" />
    <glyph glyph-name="o" unicode="o" horiz-adv-x="649" 
d="M621 356q0 -37 -9 -79q-14 -66 -45 -119t-75.5 -91t-101.5 -58.5t-123 -20.5q-111 0 -171 56.5t-60 155.5q0 37 9 77q14 66 45.5 119.5t76.5 91.5t102 58.5t122 20.5q112 0 171 -56.5t59 -154.5zM474 333q0 57 -28.5 88.5t-79.5 31.5q-30 0 -58.5 -12t-52 -34.5
t-40.5 -55.5t-26 -74q-6 -28 -6 -54q0 -57 28.5 -89.5t79.5 -32.5q63 0 111 46.5t66 129.5q6 30 6 56z" />
    <glyph glyph-name="p" unicode="p" horiz-adv-x="649" 
d="M622 369q0 -44 -10 -91q-15 -72 -45 -126t-70.5 -90.5t-90 -55t-103.5 -18.5q-20 0 -40.5 4t-39 11t-33 17t-23.5 22l-50 -235h-142l159 748h129l-16 -77q12 21 32 37.5t44.5 28t51 17.5t51.5 6q91 0 143.5 -50t52.5 -148zM475 341q0 57 -27 84.5t-76 27.5
q-25 0 -49 -9.5t-44 -26.5t-34 -39.5t-20 -49.5l-33 -153q12 -31 36.5 -53.5t69.5 -22.5q57 0 104 44t66 135q7 34 7 63z" />
    <glyph glyph-name="q" unicode="q" horiz-adv-x="656" 
d="M492 -193h-141l52 245q-25 -29 -67.5 -46.5t-93.5 -17.5q-93 0 -148.5 51.5t-55.5 151.5q0 20 2.5 41.5t7.5 44.5q15 71 46.5 125.5t73.5 91t91.5 55t100.5 18.5q63 0 101 -21t51 -51l35 60h104zM439.5 431q-26.5 23 -71.5 23q-61 0 -109 -44.5t-68 -134.5q-7 -31 -7 -59
q0 -59 30 -87.5t80 -28.5q25 0 49.5 9.5t44.5 26t34.5 39.5t20.5 50l31 146q-8 37 -34.5 60z" />
    <glyph glyph-name="r" unicode="r" horiz-adv-x="422" 
d="M443 445q-72 14 -124.5 -4.5t-81.5 -70.5l-79 -370h-142l118 555h124l-12 -57q35 36 80.5 52t119.5 17z" />
    <glyph glyph-name="s" unicode="s" horiz-adv-x="558" 
d="M476 384q-23 38 -63 59t-91 21q-42 0 -66 -15t-29 -38q-1 -4 -1 -11q0 -17 20 -29.5t75 -24.5q93 -20 137 -56.5t44 -95.5q0 -20 -4 -39q-17 -81 -87 -124t-188 -43q-76 0 -135.5 28t-87.5 79l82 100q12 -22 31 -40t42 -31t47.5 -20t48.5 -7q46 0 70.5 15.5t30.5 41.5
q1 4 1.5 7t0.5 7q0 25 -26 40t-87 29q-85 18 -122.5 52.5t-37.5 83.5q0 18 4 34q7 35 28 64t54.5 50.5t78.5 33.5t100 12q76 0 130.5 -23.5t76.5 -63.5z" />
    <glyph glyph-name="t" unicode="t" horiz-adv-x="391" 
d="M384 444h-95l-54 -258q-6 -25 -6 -41q0 -14 5.5 -22t19 -11.5t35.5 -4.5t55 -1l-54 -118q-55 0 -95 5t-66 18t-38 34.5t-12 53.5q0 13 2 27t5 30l61 288h-79l24 111h85l37 174h136l-37 -174h95z" />
    <glyph glyph-name="u" unicode="u" horiz-adv-x="652" 
d="M526 0h-130l15 70q-30 -42 -82.5 -62t-112.5 -20q-78 0 -123 40t-45 106q0 19 5 44l80 377h142l-73 -344q-3 -15 -3 -28q0 -36 22 -55.5t59 -19.5q43 0 83 22.5t63 67.5l76 357h142z" />
    <glyph glyph-name="v" unicode="v" horiz-adv-x="555" 
d="M302 0h-154l-87 554h145l43 -304q2 -17 2.5 -33t0.5 -33q0 -28 -3 -54h3q8 28 20.5 59.5t28.5 60.5l166 304h154z" />
    <glyph glyph-name="w" unicode="w" horiz-adv-x="810" 
d="M597 0h-158l-4 335q0 11 1.5 26t3.5 31.5t4.5 32t5.5 27.5h-3q-3 -12 -7 -27.5t-9 -31.5t-10.5 -31.5t-10.5 -26.5l-150 -335h-166l-32 555h144l10 -343v-3q0 -9 -1.5 -24.5t-3.5 -31.5t-4.5 -30.5t-4.5 -22.5h3q2 7 5.5 22.5t8.5 32.5t10 32.5t8 22.5l153 345h158
l11 -348v-3q0 -10 -2 -24.5t-4 -29.5t-4.5 -28.5t-4.5 -21.5h3q2 8 6 22.5t8 30.5t8.5 30.5t8.5 23.5l154 348h137z" />
    <glyph glyph-name="x" unicode="x" horiz-adv-x="531" 
d="M349 285l141 -285h-149l-86 177l-156 -177h-164l262 296l-126 259h144l76 -153l135 153h159z" />
    <glyph glyph-name="y" unicode="y" horiz-adv-x="576" 
d="M306 -29q-26 -48 -57 -81t-69.5 -54t-85.5 -30t-106 -9l-11 119h11q45 0 74 4t50 16t38 33.5t37 55.5l-111 529h142l56 -280q4 -20 5 -39t1 -38q0 -10 -0.5 -19.5t-0.5 -18.5h2q10 28 21 55t28 59l146 281h148z" />
    <glyph glyph-name="z" unicode="z" horiz-adv-x="546" 
d="M543 461l-357 -344h297l-25 -117h-478l20 92l359 346h-264l25 117h443z" />
    <glyph glyph-name="braceleft" unicode="{" horiz-adv-x="400" 
d="M474 739h-39q-44 0 -66 -23t-28 -69q-3 -20 -4 -45.5t-2.5 -52.5t-4 -53.5t-7.5 -48.5q-10 -48 -34.5 -74t-56.5 -33q23 -5 36.5 -23t13.5 -49q0 -18 -4 -35q-5 -22 -14 -48.5t-19 -53.5t-19.5 -52.5t-15.5 -45.5q-3 -12 -5.5 -22.5t-2.5 -19.5q0 -50 63 -50h39l-38 -100
h-47q-28 0 -54 6t-46.5 19t-32.5 33.5t-12 50.5q0 11 1.5 24t6.5 27q7 22 17 50t20 56.5t19 55.5t14 46q5 22 5 34q0 23 -11.5 31.5t-31.5 8.5h-23l24 114h23q27 0 44.5 16t25.5 59q3 19 5.5 46t4.5 55.5t4 56.5t5 50q6 44 25.5 74.5t48 49t62.5 27t68 8.5h47z" />
    <glyph glyph-name="bar" unicode="|" horiz-adv-x="345" 
d="M121 -23v826h102v-826h-102z" />
    <glyph glyph-name="braceright" unicode="}" horiz-adv-x="400" 
d="M361 730q0 -11 -1.5 -23.5t-6.5 -26.5q-6 -22 -16 -50t-20.5 -56.5t-20 -55.5t-14.5 -46q-2 -11 -3.5 -19t-1.5 -16q0 -23 11.5 -31.5t31.5 -8.5h23l-24 -114h-23q-27 0 -44.5 -16t-25.5 -58q-4 -19 -6 -46t-3.5 -55.5t-3.5 -56.5t-5 -50q-6 -44 -26 -74.5t-48.5 -49.5
t-62.5 -27.5t-68 -8.5h-47l4 100h39q44 0 66.5 23t28.5 69q3 20 4 45.5t2.5 52.5t4 53.5t7.5 48.5q10 47 34 73.5t56 33.5q-49 11 -49 71q0 19 4 36q5 22 14 48.5t19 53.5t19.5 52.5t15.5 45.5q7 22 7 41q0 51 -63 51h-39l38 100h47q29 0 55 -6t46.5 -19t32.5 -33.5
t12 -50.5z" />
    <glyph glyph-name="asciitilde" unicode="~" 
d="M617 264q-9 -9 -27 -20.5t-41.5 -21t-51 -16t-54.5 -6.5q-33 0 -58.5 10t-48.5 22t-46 21.5t-50 9.5q-51 0 -95 -18.5t-82 -45.5l28 130q12 11 31.5 22t43 20t50 14.5t52.5 5.5q32 0 56.5 -9.5t47 -21t45.5 -21t53 -9.5q54 0 98 19t76 43z" />
    <glyph glyph-name="uni00A0" unicode="&#xa0;" horiz-adv-x="345" 
 />
    <glyph glyph-name="exclamdown" unicode="&#xa1;" horiz-adv-x="400" 
d="M324 427h-149l32 154h149zM192 -199h-151l132 547h120z" />
    <glyph glyph-name="cent" unicode="&#xa2;" horiz-adv-x="581" 
d="M522 388q-16 30 -48 48l-169 -333h16q41 0 85.5 18t78.5 53l23 -97q-47 -41 -101.5 -61.5t-130.5 -20.5h-13t-13 1l-54 -107l-70 22l50 100q-60 20 -97.5 68t-37.5 126q0 35 9 75q14 68 47 120.5t79 89t102.5 55.5t118.5 19q16 0 30.5 -1t27.5 -4l53 104l71 -20l-53 -103
q37 -16 63 -47zM388.5 449h-10.5q-7 0 -13.5 -0.5t-13.5 -1.5q-26 -4 -53 -16t-50 -32.5t-41 -50t-26 -68.5q-2 -12 -3.5 -23t-1.5 -22q0 -41 16.5 -67t42.5 -40l164 320q-5 1 -10.5 1z" />
    <glyph glyph-name="sterling" unicode="&#xa3;" horiz-adv-x="743" 
d="M711 618q0 -8 -0.5 -15.5t-1.5 -15.5l-124 -37q0 5 0.5 8.5t0.5 7.5q0 56 -28 84t-77 28q-33 0 -59.5 -11t-45.5 -29.5t-29.5 -43.5t-10.5 -52q0 -36 6 -62.5t10 -60.5h218l-20 -94h-200q-5 -56 -37 -111t-94 -89q45 12 83 12t77 -14q18 -7 38.5 -12t43.5 -5q32 0 70 13
t87 48l40 -100q-59 -44 -113 -61t-102 -17q-37 0 -68.5 8t-57.5 20q-16 7 -35 10t-40 3q-45 0 -91 -11.5t-79 -29.5l-46 102q40 20 75.5 45.5t62.5 55.5t44.5 63.5t21.5 69.5h-158l20 94h137q-5 28 -11 56t-6 60v15q3 51 27 95.5t63 77.5t91 52t113 19q105 0 155 -47.5
t50 -128.5z" />
    <glyph glyph-name="currency" unicode="&#xa4;" horiz-adv-x="567" 
d="M469 69l-68 67q-26 -15 -55 -23.5t-61 -8.5t-61.5 8.5t-55.5 23.5l-67 -67l-78 78l67 67q-15 26 -23.5 55.5t-8.5 61.5t8.5 61t23.5 55l-67 68l78 78l67 -68q53 33 117 33q32 0 61.5 -8.5t55.5 -23.5l67 67l78 -78l-67 -68q15 -26 23.5 -55t8.5 -61t-8.5 -61.5
t-23.5 -55.5l67 -67zM405 331q0 25 -9.5 46.5t-26 38t-38 26t-46.5 9.5t-46.5 -9.5t-38 -26t-26 -38t-9.5 -46.5t9.5 -46.5t26 -38t38 -26t46.5 -9.5t46.5 9.5t38 26t26 38t9.5 46.5z" />
    <glyph glyph-name="yen" unicode="&#xa5;" 
d="M498 422h166l-19 -89h-209l-23 -106h209l-19 -90h-209l-29 -137h-151l29 137h-207l19 90h207l23 106h-207l19 89h164l-117 358h147l91 -315l227 315h159z" />
    <glyph glyph-name="brokenbar" unicode="&#xa6;" horiz-adv-x="345" 
d="M121 477v326h102v-326h-102zM121 -23v326h102v-326h-102z" />
    <glyph glyph-name="section" unicode="&#xa7;" horiz-adv-x="674" 
d="M532 631q-2 42 -28 66t-69 24q-47 0 -73 -17t-31 -42q-1 -5 -1.5 -8.5t-0.5 -7.5q0 -20 14.5 -33.5t48.5 -24.5l100 -33q75 -25 113.5 -57t38.5 -87q0 -10 -1.5 -20t-3.5 -21q-13 -60 -53 -97.5t-106 -48.5q29 -13 42.5 -39t13.5 -57q0 -15 -3 -30q-18 -86 -81.5 -129.5
t-183.5 -43.5q-100 0 -153 43.5t-58 128.5l120 39q0 -52 29 -78.5t84 -26.5q54 0 82 18t35 51q1 5 1.5 9t0.5 8q0 23 -16.5 38.5t-51.5 28.5l-104 38q-76 28 -113 60.5t-37 83.5q0 10 1.5 20t3.5 21q12 57 50.5 92t96.5 46q-21 20 -30 41t-9 44q0 15 3 30q8 35 29 65.5
t54 52.5t76 34.5t94 12.5q94 0 142.5 -40t49.5 -116zM510 383q0 24 -17 41.5t-59 31.5l-84 27q-57 0 -89.5 -20t-38.5 -49q-1 -5 -1.5 -9.5t-0.5 -9.5q0 -25 17 -41.5t58 -31.5l83 -30q60 0 91.5 18t37.5 49q3 14 3 24z" />
    <glyph glyph-name="dieresis" unicode="&#xa8;" horiz-adv-x="500" 
d="M500 675h-123l29 135h123zM300 675h-123l29 135h123z" />
    <glyph glyph-name="copyright" unicode="&#xa9;" horiz-adv-x="777" 
d="M746 357q0 -74 -28 -139t-77 -113.5t-114 -76.5t-139 -28t-139 28t-113.5 76.5t-76.5 113.5t-28 139t28 139t76.5 113.5t113.5 76.5t139 28t139 -28t114 -76.5t77 -113.5t28 -139zM686 357q0 61 -23.5 115t-64 94.5t-94.5 64t-115 23.5t-115 -23.5t-94.5 -64t-64 -94.5
t-23.5 -115t23.5 -115t64 -94.5t94.5 -64t115 -23.5t115 23.5t94.5 64t64 94.5t23.5 115zM502 145.5q-41 -25.5 -105 -25.5q-43 0 -81.5 15.5t-67.5 46t-45.5 75t-16.5 101.5q0 50 16 92.5t44 73.5t66.5 48t82.5 17q61 0 102.5 -25t65.5 -66l-77 -76q-19 35 -41 49t-48 14
q-21 0 -39.5 -8.5t-32.5 -24.5t-22.5 -40t-8.5 -54q0 -63 28 -98t76 -35q24 0 49.5 15t45.5 57l76 -78q-26 -48 -67 -73.5z" />
    <glyph glyph-name="ordfeminine" unicode="&#xaa;" horiz-adv-x="315" 
d="M351 488q-12 -2 -22 -3.5t-19 -1.5q-15 0 -25 5q-6 3 -10.5 10.5t-4.5 13.5q-20 -12 -49 -21.5t-55 -9.5q-92 0 -92 65q0 5 0.5 9.5t1.5 9.5q7 43 39 67t95 38q13 3 27 7t26 8.5t19.5 9t8.5 8.5v3q0 6 -10.5 10t-36.5 4q-12 0 -25.5 -4.5t-27 -11.5t-26 -15.5
t-22.5 -16.5l-29 67q28 21 68 38t79 17q56 0 85.5 -14t29.5 -51q0 -11 -3 -26l-25 -119q0 -2 -0.5 -4.5t-0.5 -4.5q0 -3 2 -7q2 -2 3.5 -3t6.5 -1q7 0 25 6zM254.5 622q-16.5 -6 -39.5 -11q-25 -6 -41.5 -15.5t-18.5 -20.5v-4q0 -17 26 -17q24 0 47 6.5t40 21.5l11 51
q-8 -5 -24.5 -11z" />
    <glyph glyph-name="guillemotleft" unicode="&#xab;" horiz-adv-x="640" 
d="M625 409l-223 -152l158 -152l-30 -143l-246 236l25 118l346 236zM376 409l-223 -152l158 -152l-30 -143l-246 236l25 118l346 236z" />
    <glyph glyph-name="logicalnot" unicode="&#xac;" horiz-adv-x="562" 
d="M391 92v192h-361v115h475v-307h-114z" />
    <glyph glyph-name="uni00AD" unicode="&#xad;" horiz-adv-x="500" 
d="M40 223v76h410v-76h-410z" />
    <glyph glyph-name="registered" unicode="&#xae;" horiz-adv-x="777" 
d="M746 357q0 -74 -28 -139t-77 -113.5t-114 -76.5t-139 -28t-139 28t-113.5 76.5t-76.5 113.5t-28 139t28 139t76.5 113.5t113.5 76.5t139 28t139 -28t114 -76.5t77 -113.5t28 -139zM457 443q0 12 -6 20t-15.5 12t-21.5 5.5t-24 1.5h-44v-84h45q14 0 26 1.5t21 6t14 13.5
t5 24zM686 357q0 61 -23.5 115t-64 94.5t-94.5 64t-115 23.5t-115 -23.5t-94.5 -64t-64 -94.5t-23.5 -115t23.5 -115t64 -94.5t94.5 -64t115 -23.5q57 0 107 20t89 55h-102l-94 162h-43v-162h-106v450h156q37 0 68 -8.5t53.5 -26t35.5 -44t13 -62.5q0 -48 -19.5 -77
t-51.5 -46l102 -175q42 41 65.5 95t23.5 116z" />
    <glyph glyph-name="macron" unicode="&#xaf;" horiz-adv-x="500" 
d="M500 684h-320l22 104h320z" />
    <glyph glyph-name="degree" unicode="&#xb0;" horiz-adv-x="315" 
d="M292 654q0 -27 -10.5 -51.5t-29 -43t-43 -29.5t-52.5 -11q-27 0 -51.5 10.5t-43 28.5t-29.5 43t-11 53q0 27 10.5 51.5t28.5 43t43 29.5t53 11q27 0 51.5 -10.5t43 -29t29.5 -43t11 -52.5zM226 655q0 28 -19.5 48t-49.5 20q-27 0 -48 -19t-21 -49q0 -29 19.5 -49.5
t49.5 -20.5q27 0 48 20.5t21 49.5z" />
    <glyph glyph-name="plusminus" unicode="&#xb1;" horiz-adv-x="660" 
d="M398 298v-146h-136v146h-201v126h201v147h136v-147h200v-126h-200zM61 3v120h537v-120h-537z" />
    <glyph glyph-name="uni00B2" unicode="&#xb2;" horiz-adv-x="360" 
d="M427 692q0 -13 -3 -27q-10 -47 -46.5 -82t-108.5 -65q-32 -13 -55 -29t-34 -33h201l-20 -96h-315l14 68q6 29 22 52.5t38.5 43t49.5 35.5t56 29q85 38 92 71q1 3 1 8q0 15 -12 23.5t-32 8.5q-22 0 -42 -17t-31 -59l-93 20q8 35 26.5 62.5t43.5 46.5t55 29t62 10
q66 0 98.5 -27.5t32.5 -71.5z" />
    <glyph glyph-name="uni00B3" unicode="&#xb3;" horiz-adv-x="360" 
d="M419 703q0 -11 -3 -25q-7 -32 -27 -55.5t-43 -31.5q20 -7 34.5 -25t14.5 -50q0 -13 -3 -28q-13 -61 -61.5 -97.5t-129.5 -36.5q-66 0 -101.5 32.5t-37.5 86.5l102 39v-2q0 -30 17 -47t39 -17q26 0 43.5 11.5t22.5 32.5q1 4 1 11q0 34 -54 34h-54l19 91h47q26 0 43.5 12
t21.5 30q1 3 1 8q0 14 -9.5 21t-26.5 7q-45 0 -65 -54l-90 28q23 51 66 83.5t111 32.5q59 0 90.5 -24.5t31.5 -66.5z" />
    <glyph glyph-name="acute" unicode="&#xb4;" horiz-adv-x="500" 
d="M251 619l-25 90l181 121l72 -93z" />
    <glyph glyph-name="mu" unicode="&#xb5;" horiz-adv-x="652" 
d="M526 0h-130l15 70q-30 -42 -82.5 -62t-112.5 -20q-31 0 -60 8l-37 -176h-142l156 735h142l-73 -344q-3 -15 -3 -28q0 -36 22 -55.5t59 -19.5q43 0 83 22.5t63 67.5l76 357h142z" />
    <glyph glyph-name="paragraph" unicode="&#xb6;" horiz-adv-x="656" 
d="M499 -131h-110l173 812h-93l-173 -812h-113l101 476q-25 3 -54.5 12.5t-55.5 29t-43.5 51t-17.5 79.5q0 30 7 61q11 53 39 93.5t66 68t84.5 41.5t94.5 14h292z" />
    <glyph glyph-name="periodcentered" unicode="&#xb7;" horiz-adv-x="345" 
d="M229 176h-149l34 160h149z" />
    <glyph glyph-name="cedilla" unicode="&#xb8;" horiz-adv-x="500" 
d="M301 -95q0 -4 -0.5 -8t-1.5 -9q-10 -45 -49 -72.5t-103 -27.5q-35 0 -65.5 9.5t-53.5 23.5l29 53q17 -11 39.5 -18.5t40.5 -7.5q29 0 42 9.5t18 27.5q0 2 0.5 3t0.5 2q0 10 -6.5 15.5t-16.5 5.5q-14 0 -27 -8l-78 16l49 95l88 -4l-27 -46q23 6 43 6q35 0 56.5 -17.5
t21.5 -47.5z" />
    <glyph glyph-name="uni00B9" unicode="&#xb9;" horiz-adv-x="360" 
d="M285 360h-105l58 277l-83 -25l-4 88q45 14 78 32t53 48h92z" />
    <glyph glyph-name="ordmasculine" unicode="&#xba;" horiz-adv-x="315" 
d="M390 679q0 -21 -4 -41q-15 -70 -63 -112.5t-117 -42.5q-57 0 -88.5 30.5t-31.5 82.5q0 17 5 42q7 35 23.5 63t40 48t53 31t63.5 11q58 0 88.5 -30t30.5 -82zM307 664q0 27 -13 42.5t-38 15.5q-29 0 -51.5 -23t-30.5 -61q-3 -13 -3 -26q0 -27 13.5 -43t36.5 -16
q30 0 52.5 23t30.5 62q3 14 3 26z" />
    <glyph glyph-name="guillemotright" unicode="&#xbb;" horiz-adv-x="640" 
d="M587 198l-346 -236l30 143l224 152l-159 152l30 143l246 -236zM338 198l-346 -236l30 143l224 152l-159 152l30 143l246 -236z" />
    <glyph glyph-name="onequarter" unicode="&#xbc;" horiz-adv-x="741" 
d="M255 360h-105l58 277l-83 -25l-4 88q45 14 78 32t53 48h92zM120 -23h-107l623 826h107zM677 61h-59l-13 -62h-100l13 62h-191l18 87l251 276h99l-57 -271h59zM462 153h76l24 114z" />
    <glyph glyph-name="onehalf" unicode="&#xbd;" horiz-adv-x="741" 
d="M255 360h-105l58 277l-83 -25l-4 88q45 14 78 32t53 48h92zM120 -23h-107l623 826h107zM727 332q0 -13 -3 -27q-10 -47 -46.5 -82t-108.5 -65q-32 -13 -55.5 -29t-34.5 -33h201l-20 -96h-315l14 68q6 29 22 52.5t38.5 43t49.5 35.5t56 29q86 39 93 71q1 3 1 8
q0 15 -12 23.5t-33 8.5q-22 0 -41.5 -17t-30.5 -59l-94 20q9 35 27.5 62.5t43.5 46.5t55 29t62 10q66 0 98.5 -27.5t32.5 -71.5z" />
    <glyph glyph-name="threequarters" unicode="&#xbe;" horiz-adv-x="741" 
d="M419 703q0 -11 -3 -25q-7 -32 -27 -55.5t-43 -31.5q20 -7 34.5 -25t14.5 -50q0 -13 -3 -28q-13 -61 -61.5 -97.5t-129.5 -36.5q-66 0 -101.5 32.5t-37.5 86.5l102 39v-2q0 -30 17 -47t39 -17q26 0 43.5 11.5t22.5 32.5q1 4 1 11q0 34 -54 34h-54l19 91h47q26 0 43.5 12
t21.5 30q1 3 1 8q0 14 -9.5 21t-26.5 7q-45 0 -65 -54l-90 28q23 51 66 83.5t111 32.5q59 0 90.5 -24.5t31.5 -66.5zM160 -23h-107l623 826h107zM677 61h-59l-13 -62h-100l13 62h-191l18 87l251 276h99l-57 -271h59zM462 153h76l24 114z" />
    <glyph glyph-name="questiondown" unicode="&#xbf;" 
d="M485 443h-147l33 154h147zM543 -71q-31 -42 -73.5 -71t-95 -44.5t-108.5 -15.5q-50 0 -91 12.5t-69.5 35t-44 53.5t-15.5 68q0 9 1 18.5t3 19.5q15 71 51.5 117t99.5 83q24 14 44.5 26t35.5 26t25.5 31t15.5 42q2 9 4.5 21.5t4.5 23.5h134q-2 -14 -5 -29l-5 -25
q-7 -34 -20.5 -61t-33 -49t-44 -40t-54.5 -35q-42 -24 -68 -52.5t-34 -67.5q-1 -5 -1.5 -9.5t-0.5 -9.5q0 -37 28.5 -59t75.5 -22q53 0 95.5 34t58.5 96l130 -21q-13 -54 -44 -96z" />
    <glyph glyph-name="Agrave" unicode="&#xc0;" horiz-adv-x="727" 
d="M583 817l-210 108l110 93l163 -111zM526 0l-27 203h-286l-114 -203h-155l437 780h188l103 -780h-146zM467 444q-6 48 -11.5 97.5t-5.5 80.5v12h-8q-4 -13 -13.5 -33.5t-21.5 -44.5t-26 -50l-28 -52q-33 -60 -71 -126h201q-9 61 -16 116z" />
    <glyph glyph-name="Aacute" unicode="&#xc1;" horiz-adv-x="727" 
d="M381 817l-25 90l209 111l72 -93zM526 0l-27 203h-286l-114 -203h-155l437 780h188l103 -780h-146zM467 444q-6 48 -11.5 97.5t-5.5 80.5v12h-8q-4 -13 -13.5 -33.5t-21.5 -44.5t-26 -50l-28 -52q-33 -60 -71 -126h201q-9 61 -16 116z" />
    <glyph glyph-name="Acircumflex" unicode="&#xc2;" horiz-adv-x="727" 
d="M618 803l-122 85l-158 -85l-38 72l158 122h120l109 -122zM526 0l-27 203h-286l-114 -203h-155l437 780h188l103 -780h-146zM467 444q-6 48 -11.5 97.5t-5.5 80.5v12h-8q-4 -13 -13.5 -33.5t-21.5 -44.5t-26 -50l-28 -52q-33 -60 -71 -126h201q-9 61 -16 116z" />
    <glyph glyph-name="Atilde" unicode="&#xc3;" horiz-adv-x="727" 
d="M671 875q-21 -19 -47.5 -34t-58.5 -15q-20 0 -37.5 9.5t-36.5 21.5q-13 8 -30.5 19.5t-34.5 11.5q-23 0 -47 -13t-62 -47l26 122q23 20 50 34.5t56 14.5q21 0 39 -10t35 -21q18 -11 34 -21t31 -10q23 0 47 13t62 47zM526 0l-27 203h-286l-114 -203h-155l437 780h188
l103 -780h-146zM467 444q-6 48 -11.5 97.5t-5.5 80.5v12h-8q-4 -13 -13.5 -33.5t-21.5 -44.5t-26 -50l-28 -52q-33 -60 -71 -126h201q-9 61 -16 116z" />
    <glyph glyph-name="Adieresis" unicode="&#xc4;" horiz-adv-x="727" 
d="M646 840h-123l28 135h123zM446 840h-123l28 135h123zM526 0l-27 203h-286l-114 -203h-155l437 780h188l103 -780h-146zM467 444q-6 48 -11.5 97.5t-5.5 80.5v12h-8q-4 -13 -13.5 -33.5t-21.5 -44.5t-26 -50l-28 -52q-33 -60 -71 -126h201q-9 61 -16 116z" />
    <glyph glyph-name="Aring" unicode="&#xc5;" horiz-adv-x="727" 
d="M628 950q0 -11 -3 -25q-6 -25 -20 -47.5t-34.5 -39t-44.5 -26t-49 -9.5q-44 0 -71.5 27t-27.5 69q0 13 3 26q5 25 19.5 47.5t34.5 39t44.5 26t49.5 9.5q44 0 71.5 -27.5t27.5 -69.5zM526 0l-27 203h-286l-114 -203h-155l437 780h188l103 -780h-146zM558 936
q0 19 -12 31.5t-32 12.5q-23 0 -41.5 -16t-23.5 -39q-1 -4 -1 -12q0 -18 11.5 -29.5t31.5 -11.5q23 0 42 15t24 38q1 4 1 11zM467 444q-6 48 -11.5 97.5t-5.5 80.5v12h-8q-4 -13 -13.5 -33.5t-21.5 -44.5t-26 -50l-28 -52q-33 -60 -71 -126h201q-9 61 -16 116z" />
    <glyph glyph-name="AE" unicode="&#xc6;" horiz-adv-x="904" 
d="M937 655h-291l-41 -193h246l-26 -122h-246l-45 -215h306l-27 -125h-434l41 195h-213l-139 -195h-144l565 780h475zM297 320h150l64 299z" />
    <glyph glyph-name="Ccedilla" unicode="&#xc7;" horiz-adv-x="729" 
d="M667 560q-6 23 -20 43t-34 34.5t-45 22.5t-54 8q-46 0 -89.5 -19t-80 -54t-64 -86t-41.5 -116q-10 -49 -10 -92q0 -47 12.5 -82t35 -58.5t53 -35t67.5 -11.5q28 0 58 8t57.5 23t52 36t41.5 46l71 -92q-52 -70 -135.5 -112t-184.5 -42h-11l-10 -17q23 6 43 6
q35 0 56.5 -17.5t21.5 -47.5q0 -4 -0.5 -8t-1.5 -9q-10 -45 -49 -72.5t-103 -27.5q-35 0 -65.5 9.5t-53.5 23.5l29 53q17 -11 39.5 -18.5t40.5 -7.5q29 0 42 9.5t18 27.5q0 2 0.5 3t0.5 2q0 10 -6.5 15.5t-16.5 5.5q-14 0 -27 -8l-78 16l37 73q-94 24 -145.5 96.5
t-51.5 184.5q0 53 14 120q19 92 61.5 166.5t101.5 128t132.5 82.5t154.5 29q52 0 94.5 -11.5t74 -32t52 -48t29.5 -60.5z" />
    <glyph glyph-name="Egrave" unicode="&#xc8;" horiz-adv-x="678" 
d="M565 817l-210 108l110 93l163 -111zM702 655h-379l-41 -193h329l-26 -122h-329l-45 -215h398l-27 -125h-546l166 780h527z" />
    <glyph glyph-name="Eacute" unicode="&#xc9;" horiz-adv-x="678" 
d="M391 817l-25 90l209 111l72 -93zM702 655h-379l-41 -193h329l-26 -122h-329l-45 -215h398l-27 -125h-546l166 780h527z" />
    <glyph glyph-name="Ecircumflex" unicode="&#xca;" horiz-adv-x="678" 
d="M621 803l-122 85l-158 -85l-38 72l158 122h120l109 -122zM705 655h-379l-41 -193h329l-26 -122h-329l-45 -215h398l-27 -125h-546l166 780h527z" />
    <glyph glyph-name="Edieresis" unicode="&#xcb;" horiz-adv-x="678" 
d="M646 840h-123l28 135h123zM446 840h-123l28 135h123zM702 655h-379l-41 -193h329l-26 -122h-329l-45 -215h398l-27 -125h-546l166 780h527z" />
    <glyph glyph-name="Igrave" unicode="&#xcc;" horiz-adv-x="342" 
d="M384 817l-210 108l110 93l163 -111zM192 0h-152l166 780h152z" />
    <glyph glyph-name="Iacute" unicode="&#xcd;" horiz-adv-x="342" 
d="M195 817l-25 90l209 111l72 -93zM192 0h-152l166 780h152z" />
    <glyph glyph-name="Icircumflex" unicode="&#xce;" horiz-adv-x="342" 
d="M429 803l-122 85l-158 -85l-38 72l158 122h120l109 -122zM193 0h-152l166 780h152z" />
    <glyph glyph-name="Idieresis" unicode="&#xcf;" horiz-adv-x="342" 
d="M458 840h-123l28 135h123zM258 840h-123l28 135h123zM193 0h-152l166 780h152z" />
    <glyph glyph-name="Eth" unicode="&#xd0;" horiz-adv-x="791" 
d="M780 495q0 -49 -12 -105q-18 -87 -59 -159t-99.5 -123t-132 -79.5t-156.5 -28.5h-285l71 333h-56l19 92h56l76 355h281q70 0 125 -20t93.5 -57t58.5 -89.5t20 -118.5zM627 469q0 88 -49 136.5t-140 48.5h-113l-49 -229h183l-19 -92h-183l-44 -207h117q54 0 101.5 19.5
t84.5 54.5t63.5 83.5t38.5 107.5q9 42 9 78z" />
    <glyph glyph-name="Ntilde" unicode="&#xd1;" horiz-adv-x="789" 
d="M708 875q-21 -19 -47.5 -34t-58.5 -15q-20 0 -37.5 9.5t-36.5 21.5q-13 8 -30.5 19.5t-34.5 11.5q-23 0 -47 -13t-62 -47l26 122q23 20 50 34.5t56 14.5q21 0 39 -10t35 -21q18 -11 34 -21t31 -10q23 0 47 13t62 47zM643 0h-184l-135 450q-6 20 -11 44.5t-9 50t-6 48.5
t-2 40h-3q-2 -18 -6 -50t-9 -69.5t-11 -77.5t-13 -74l-77 -362h-141l166 780h179l136 -447q15 -50 25.5 -99t10.5 -80l4 -1q1 20 4 52.5t7.5 68.5t10 71.5t10.5 60.5l80 374h140z" />
    <glyph glyph-name="Ograve" unicode="&#xd2;" horiz-adv-x="806" 
d="M619 817l-210 108l110 93l163 -111zM792 509q0 -58 -13 -117q-19 -91 -59 -166.5t-97 -130t-128 -84.5t-152 -30q-67 0 -118.5 20.5t-87 59t-53.5 92.5t-18 120q0 58 13 119q19 89 59.5 163.5t97.5 128.5t128.5 84.5t152.5 30.5q67 0 118 -21t86 -59t53 -91.5t18 -118.5z
M639 488q0 87 -39.5 135t-109.5 48q-42 0 -82.5 -19.5t-75.5 -55.5t-61.5 -87.5t-40.5 -116.5q-10 -49 -10 -95q0 -88 39.5 -138t110.5 -50q42 0 82.5 20t75 56.5t61 89t39.5 117.5q11 55 11 96z" />
    <glyph glyph-name="Oacute" unicode="&#xd3;" horiz-adv-x="806" 
d="M421 817l-25 90l209 111l72 -93zM792 509q0 -58 -13 -117q-19 -91 -59 -166.5t-97 -130t-128 -84.5t-152 -30q-67 0 -118.5 20.5t-87 59t-53.5 92.5t-18 120q0 58 13 119q19 89 59.5 163.5t97.5 128.5t128.5 84.5t152.5 30.5q67 0 118 -21t86 -59t53 -91.5t18 -118.5z
M639 488q0 87 -39.5 135t-109.5 48q-42 0 -82.5 -19.5t-75.5 -55.5t-61.5 -87.5t-40.5 -116.5q-10 -49 -10 -95q0 -88 39.5 -138t110.5 -50q42 0 82.5 20t75 56.5t61 89t39.5 117.5q11 55 11 96z" />
    <glyph glyph-name="Ocircumflex" unicode="&#xd4;" horiz-adv-x="806" 
d="M657 803l-122 85l-158 -85l-38 72l158 122h120l109 -122zM792 509q0 -58 -13 -117q-19 -91 -59 -166.5t-97 -130t-128 -84.5t-152 -30q-67 0 -118.5 20.5t-87 59t-53.5 92.5t-18 120q0 58 13 119q19 89 59.5 163.5t97.5 128.5t128.5 84.5t152.5 30.5q67 0 118 -21t86 -59
t53 -91.5t18 -118.5zM639 488q0 87 -39.5 135t-109.5 48q-42 0 -82.5 -19.5t-75.5 -55.5t-61.5 -87.5t-40.5 -116.5q-10 -49 -10 -95q0 -88 39.5 -138t110.5 -50q42 0 82.5 20t75 56.5t61 89t39.5 117.5q11 55 11 96z" />
    <glyph glyph-name="Otilde" unicode="&#xd5;" horiz-adv-x="806" 
d="M711 875q-21 -19 -47.5 -34t-58.5 -15q-20 0 -37.5 9.5t-36.5 21.5q-13 8 -30.5 19.5t-34.5 11.5q-23 0 -47 -13t-62 -47l26 122q23 20 50 34.5t56 14.5q21 0 39 -10t35 -21q18 -11 34 -21t31 -10q23 0 47 13t62 47zM792 509q0 -58 -13 -117q-19 -91 -59 -166.5t-97 -130
t-128 -84.5t-152 -30q-67 0 -118.5 20.5t-87 59t-53.5 92.5t-18 120q0 58 13 119q19 89 59.5 163.5t97.5 128.5t128.5 84.5t152.5 30.5q67 0 118 -21t86 -59t53 -91.5t18 -118.5zM639 488q0 87 -39.5 135t-109.5 48q-42 0 -82.5 -19.5t-75.5 -55.5t-61.5 -87.5t-40.5 -116.5
q-10 -49 -10 -95q0 -88 39.5 -138t110.5 -50q42 0 82.5 20t75 56.5t61 89t39.5 117.5q11 55 11 96z" />
    <glyph glyph-name="Odieresis" unicode="&#xd6;" horiz-adv-x="806" 
d="M686 840h-123l28 135h123zM486 840h-123l28 135h123zM792 509q0 -58 -13 -117q-19 -91 -59 -166.5t-97 -130t-128 -84.5t-152 -30q-67 0 -118.5 20.5t-87 59t-53.5 92.5t-18 120q0 58 13 119q19 89 59.5 163.5t97.5 128.5t128.5 84.5t152.5 30.5q67 0 118 -21t86 -59
t53 -91.5t18 -118.5zM639 488q0 87 -39.5 135t-109.5 48q-42 0 -82.5 -19.5t-75.5 -55.5t-61.5 -87.5t-40.5 -116.5q-10 -49 -10 -95q0 -88 39.5 -138t110.5 -50q42 0 82.5 20t75 56.5t61 89t39.5 117.5q11 55 11 96z" />
    <glyph glyph-name="multiply" unicode="&#xd7;" horiz-adv-x="660" 
d="M415 281l197 -198l-86 -86l-197 197l-197 -197l-86 86l197 197l-198 199l86 86l198 -199l198 199l86 -86z" />
    <glyph glyph-name="Oslash" unicode="&#xd8;" horiz-adv-x="806" 
d="M771 636q21 -57 21 -127q0 -58 -13 -117q-19 -91 -59 -166.5t-97 -130t-128 -84.5t-152 -30q-63 0 -112 18t-84 52l-96 -90l-53 62l100 94q-32 66 -32 154q0 59 13 121q19 89 59.5 163.5t97.5 128.5t128.5 84.5t152.5 30.5q72 0 125.5 -23.5t87.5 -67.5l89 82l52 -61z
M564.5 652.5q-31.5 18.5 -74.5 18.5q-42 0 -82.5 -19.5t-75.5 -55.5t-61.5 -87.5t-40.5 -116.5q-11 -55 -11 -97q0 -32 6 -59l389 363q-18 35 -49.5 53.5zM640 490q0 5 -0.5 10.5t-0.5 10.5l-378 -353q40 -49 109 -49q42 0 82.5 20t75 56.5t61 89t39.5 117.5q12 54 12 98z
" />
    <glyph glyph-name="Ugrave" unicode="&#xd9;" horiz-adv-x="792" 
d="M610 817l-210 108l110 93l163 -111zM702 262q-14 -64 -48 -116t-82.5 -89t-108.5 -56.5t-126 -19.5q-58 0 -105 15t-80 42.5t-50.5 67.5t-17.5 89q0 29 8 67l110 518h150l-108 -505q-6 -28 -6 -51q0 -59 33 -88t93 -29q72 0 124 41.5t70 126.5l108 505h146z" />
    <glyph glyph-name="Uacute" unicode="&#xda;" horiz-adv-x="792" 
d="M425 817l-25 90l209 111l72 -93zM702 262q-14 -64 -48 -116t-82.5 -89t-108.5 -56.5t-126 -19.5q-58 0 -105 15t-80 42.5t-50.5 67.5t-17.5 89q0 29 8 67l110 518h150l-108 -505q-6 -28 -6 -51q0 -59 33 -88t93 -29q72 0 124 41.5t70 126.5l108 505h146z" />
    <glyph glyph-name="Ucircumflex" unicode="&#xdb;" horiz-adv-x="792" 
d="M655 803l-122 85l-158 -85l-38 72l158 122h120l109 -122zM702 262q-14 -64 -48 -116t-82.5 -89t-108.5 -56.5t-126 -19.5q-58 0 -105 15t-80 42.5t-50.5 67.5t-17.5 89q0 29 8 67l110 518h150l-108 -505q-6 -28 -6 -51q0 -59 33 -88t93 -29q72 0 124 41.5t70 126.5
l108 505h146z" />
    <glyph glyph-name="Udieresis" unicode="&#xdc;" horiz-adv-x="792" 
d="M684 840h-123l28 135h123zM484 840h-123l28 135h123zM702 262q-14 -64 -48 -116t-82.5 -89t-108.5 -56.5t-126 -19.5q-58 0 -105 15t-80 42.5t-50.5 67.5t-17.5 89q0 29 8 67l110 518h150l-108 -505q-6 -28 -6 -51q0 -59 33 -88t93 -29q72 0 124 41.5t70 126.5l108 505
h146z" />
    <glyph glyph-name="Yacute" unicode="&#xdd;" horiz-adv-x="632" 
d="M349 817l-25 90l209 111l72 -93zM395 272l-58 -272h-151l58 272l-144 508h144l97 -365l255 365h158z" />
    <glyph glyph-name="Thorn" unicode="&#xde;" horiz-adv-x="701" 
d="M697 471q0 -32 -7 -64q-13 -59 -40.5 -107t-68 -82t-91.5 -52.5t-111 -18.5h-164l-31 -147h-148l166 780h148l-24 -114h166q97 0 151 -53.5t54 -141.5zM545 441q0 50 -31.5 75t-82.5 25h-134l-57 -269h135q29 0 55.5 8.5t49 25t38.5 42t23 58.5q4 17 4 35z" />
    <glyph glyph-name="germandbls" unicode="&#xdf;" horiz-adv-x="640" 
d="M623 637q0 -24 -6 -53q-10 -48 -36.5 -87.5t-69.5 -68.5q35 -19 58.5 -53t23.5 -86q0 -24 -6 -51q-13 -61 -38 -106.5t-59 -76.5t-75.5 -46.5t-86.5 -15.5q-36 0 -75.5 11.5t-84.5 42.5l79 129q33 -27 57.5 -38.5t49.5 -11.5q14 0 29 7.5t28.5 22t25 35t17.5 47.5
q2 8 3 16t1 15q0 50 -38 71t-98 21h-66l26 122h66q34 0 58 9t39.5 23t24.5 32t13 37q2 6 2 11v10q0 35 -24.5 52t-60.5 17q-51 0 -86 -31t-48 -90l-118 -553h-133l118 553q24 114 98 178.5t195 64.5q89 0 143 -40t54 -119z" />
    <glyph glyph-name="agrave" unicode="&#xe0;" horiz-adv-x="602" 
d="M445 619l-178 118l110 93l131 -121zM514 -7q-28 -6 -54.5 -5t-47 9.5t-32.5 24t-11 37.5q-34 -37 -92 -54t-121 -17q-85 0 -120 39.5t-21 109.5q16 82 74.5 128t160.5 68q59 12 102.5 28.5t48.5 39.5q7 32 -13 44t-70 12q-19 0 -44 -6.5t-51 -17.5t-49.5 -27t-39.5 -34
l-36 102q47 45 112 69t143 24q116 0 165.5 -42.5t29.5 -133.5l-50 -237q-7 -33 12.5 -43t55.5 -2zM334.5 263q-30.5 -11 -69.5 -21q-45 -11 -73 -30.5t-36 -60.5q-9 -55 59 -55q18 0 39 5t41.5 15t37 24.5t25.5 33.5l24 114q-17 -14 -47.5 -25z" />
    <glyph glyph-name="aacute" unicode="&#xe1;" horiz-adv-x="602" 
d="M293 619l-25 90l181 121l72 -93zM514 -7q-28 -6 -54.5 -5t-47 9.5t-32.5 24t-11 37.5q-34 -37 -92 -54t-121 -17q-85 0 -120 39.5t-21 109.5q16 82 74.5 128t160.5 68q59 12 102.5 28.5t48.5 39.5q7 32 -13 44t-70 12q-19 0 -44 -6.5t-51 -17.5t-49.5 -27t-39.5 -34
l-36 102q47 45 112 69t143 24q116 0 165.5 -42.5t29.5 -133.5l-50 -237q-7 -33 12.5 -43t55.5 -2zM334.5 263q-30.5 -11 -69.5 -21q-45 -11 -73 -30.5t-36 -60.5q-9 -55 59 -55q18 0 39 5t41.5 15t37 24.5t25.5 33.5l24 114q-17 -14 -47.5 -25z" />
    <glyph glyph-name="acircumflex" unicode="&#xe2;" horiz-adv-x="602" 
d="M499 616l-110 95l-150 -95l-38 72l150 132h120l97 -132zM514 -7q-28 -6 -54.5 -5t-47 9.5t-32.5 24t-11 37.5q-34 -37 -92 -54t-121 -17q-85 0 -120 39.5t-21 109.5q16 82 74.5 128t160.5 68q59 12 102.5 28.5t48.5 39.5q7 32 -13 44t-70 12q-19 0 -44 -6.5t-51 -17.5
t-49.5 -27t-39.5 -34l-36 102q47 45 112 69t143 24q116 0 165.5 -42.5t29.5 -133.5l-50 -237q-7 -33 12.5 -43t55.5 -2zM334.5 263q-30.5 -11 -69.5 -21q-45 -11 -73 -30.5t-36 -60.5q-9 -55 59 -55q18 0 39 5t41.5 15t37 24.5t25.5 33.5l24 114q-17 -14 -47.5 -25z" />
    <glyph glyph-name="atilde" unicode="&#xe3;" horiz-adv-x="602" 
d="M564 694q-22 -19 -48.5 -34t-58.5 -15q-20 0 -37.5 9.5t-35.5 21.5q-13 8 -31 19.5t-35 11.5q-23 0 -46.5 -13t-61.5 -47l25 122q23 20 50.5 34.5t56.5 14.5q21 0 38.5 -10t34.5 -21q18 -11 34.5 -21t31.5 -10q23 0 47 13t61 47zM514 -7q-28 -6 -54.5 -5t-47 9.5
t-32.5 24t-11 37.5q-34 -37 -92 -54t-121 -17q-85 0 -120 39.5t-21 109.5q16 82 74.5 128t160.5 68q59 12 102.5 28.5t48.5 39.5q7 32 -13 44t-70 12q-19 0 -44 -6.5t-51 -17.5t-49.5 -27t-39.5 -34l-36 102q47 45 112 69t143 24q116 0 165.5 -42.5t29.5 -133.5l-50 -237
q-7 -33 12.5 -43t55.5 -2zM334.5 263q-30.5 -11 -69.5 -21q-45 -11 -73 -30.5t-36 -60.5q-9 -55 59 -55q18 0 39 5t41.5 15t37 24.5t25.5 33.5l24 114q-17 -14 -47.5 -25z" />
    <glyph glyph-name="adieresis" unicode="&#xe4;" horiz-adv-x="602" 
d="M543 675h-123l29 135h123zM343 675h-123l29 135h123zM514 -7q-28 -6 -54.5 -5t-47 9.5t-32.5 24t-11 37.5q-34 -37 -92 -54t-121 -17q-85 0 -120 39.5t-21 109.5q16 82 74.5 128t160.5 68q59 12 102.5 28.5t48.5 39.5q7 32 -13 44t-70 12q-19 0 -44 -6.5t-51 -17.5
t-49.5 -27t-39.5 -34l-36 102q47 45 112 69t143 24q116 0 165.5 -42.5t29.5 -133.5l-50 -237q-7 -33 12.5 -43t55.5 -2zM334.5 263q-30.5 -11 -69.5 -21q-45 -11 -73 -30.5t-36 -60.5q-9 -55 59 -55q18 0 39 5t41.5 15t37 24.5t25.5 33.5l24 114q-17 -14 -47.5 -25z" />
    <glyph glyph-name="aring" unicode="&#xe5;" horiz-adv-x="602" 
d="M515 718q-6 -25 -20 -47.5t-34.5 -39t-44.5 -26t-49 -9.5t-45.5 9.5t-33.5 26t-18 39t1 47.5q5 25 19.5 47.5t34.5 39t44.5 26t49.5 9.5t45 -9.5t33 -26t18 -39t0 -47.5zM514 -7q-28 -6 -54.5 -5t-47 9.5t-32.5 24t-11 37.5q-34 -37 -92 -54t-121 -17q-85 0 -120 39.5
t-21 109.5q16 82 74.5 128t160.5 68q59 12 102.5 28.5t48.5 39.5q7 32 -13 44t-70 12q-19 0 -44 -6.5t-51 -17.5t-49.5 -27t-39.5 -34l-36 102q47 45 112 69t143 24q116 0 165.5 -42.5t29.5 -133.5l-50 -237q-7 -33 12.5 -43t55.5 -2zM447 718q5 23 -7.5 39t-35.5 16
t-41.5 -16t-23.5 -39t7 -38t35 -15t42 15t24 38zM334.5 263q-30.5 -11 -69.5 -21q-45 -11 -73 -30.5t-36 -60.5q-9 -55 59 -55q18 0 39 5t41.5 15t37 24.5t25.5 33.5l24 114q-17 -14 -47.5 -25z" />
    <glyph glyph-name="ae" unicode="&#xe6;" horiz-adv-x="946" 
d="M913 370q0 -49 -13 -101l-387 -51v-11q0 -52 31.5 -79t87.5 -27q51 0 98 24t82 69l49 -86q-28 -29 -56 -51.5t-59 -37.5t-67 -23t-80 -8q-69 0 -115.5 25t-70.5 73q-29 -29 -61.5 -48t-66 -30t-66.5 -15.5t-63 -4.5q-73 0 -109 29t-36 83q0 20 4 37q16 82 74.5 128
t160.5 68q59 12 100.5 28.5t46.5 39.5q1 3 1 6.5v5.5q0 44 -90 44q-19 0 -42.5 -6.5t-47.5 -17.5t-46 -27t-38 -34l-36 102q47 45 107 69t138 24q143 0 184 -70q38 32 87 51t105 19q96 0 145 -53t49 -144zM791 372q0 40 -24.5 62t-72.5 22q-59 0 -101 -35t-60 -102l257 36
q1 5 1 9v8zM402 291q-20 -14 -56.5 -26t-80.5 -23t-76 -31t-39 -61q-1 -4 -1 -11q0 -22 17.5 -32.5t48.5 -10.5q19 0 44 7.5t49.5 19.5t46.5 28t35 33v9q0 23 3.5 47.5t8.5 50.5z" />
    <glyph glyph-name="ccedilla" unicode="&#xe7;" horiz-adv-x="584" 
d="M521 382q-18 36 -52.5 53t-77.5 17q-30 0 -61.5 -10.5t-59.5 -31.5t-50 -54t-31 -78q-3 -13 -4 -24.5t-1 -22.5q0 -33 11 -57.5t29.5 -40t43 -23.5t52.5 -8q41 0 87 19t78 55l25 -104q-49 -42 -104 -63t-133 -21h-6l-14 -24q23 6 43 6q35 0 56.5 -17.5t21.5 -47.5
q0 -4 -0.5 -8t-1.5 -9q-10 -45 -49 -72.5t-103 -27.5q-35 0 -65.5 9.5t-53.5 23.5l29 53q17 -11 39.5 -18.5t40.5 -7.5q29 0 42 9.5t18 27.5q0 2 0.5 3t0.5 2q0 10 -6.5 15.5t-16.5 5.5q-14 0 -27 -8l-78 16l42 81q-66 20 -107 71t-41 134q0 17 1.5 35t6.5 38
q15 68 48.5 121.5t80 91t104 57t119.5 19.5q72 0 118 -18.5t78 -54.5z" />
    <glyph glyph-name="egrave" unicode="&#xe8;" horiz-adv-x="612" 
d="M468 619l-178 118l110 93l131 -121zM588 364q0 -44 -12 -95l-413 -51v-9q0 -53 36 -80.5t94 -27.5q54 0 105 24t87 69l52 -86q-57 -59 -121.5 -89.5t-155.5 -30.5q-106 0 -165 56t-59 155q0 37 9 79q13 62 42.5 114.5t73 91.5t99 61t120.5 22q101 0 154.5 -54.5
t53.5 -148.5zM461 370q0 41 -28.5 63.5t-77.5 22.5q-62 0 -108 -35t-64 -102l277 36q1 5 1 15z" />
    <glyph glyph-name="eacute" unicode="&#xe9;" horiz-adv-x="612" 
d="M303 619l-25 90l181 121l72 -93zM588 364q0 -44 -12 -95l-413 -51v-9q0 -53 36 -80.5t94 -27.5q54 0 105 24t87 69l52 -86q-57 -59 -121.5 -89.5t-155.5 -30.5q-106 0 -165 56t-59 155q0 37 9 79q13 62 42.5 114.5t73 91.5t99 61t120.5 22q101 0 154.5 -54.5t53.5 -148.5
zM461 370q0 41 -28.5 63.5t-77.5 22.5q-62 0 -108 -35t-64 -102l277 36q1 5 1 15z" />
    <glyph glyph-name="ecircumflex" unicode="&#xea;" horiz-adv-x="612" 
d="M519 616l-110 95l-150 -95l-38 72l150 132h120l97 -132zM588 364q0 -44 -12 -95l-413 -51v-9q0 -53 36 -80.5t94 -27.5q54 0 105 24t87 69l52 -86q-57 -59 -121.5 -89.5t-155.5 -30.5q-106 0 -165 56t-59 155q0 37 9 79q13 62 42.5 114.5t73 91.5t99 61t120.5 22
q101 0 154.5 -54.5t53.5 -148.5zM461 370q0 41 -28.5 63.5t-77.5 22.5q-62 0 -108 -35t-64 -102l277 36q1 5 1 15z" />
    <glyph glyph-name="edieresis" unicode="&#xeb;" horiz-adv-x="612" 
d="M562 675h-123l29 135h123zM362 675h-123l29 135h123zM588 364q0 -44 -12 -95l-413 -51v-9q0 -53 36 -80.5t94 -27.5q54 0 105 24t87 69l52 -86q-57 -59 -121.5 -89.5t-155.5 -30.5q-106 0 -165 56t-59 155q0 37 9 79q13 62 42.5 114.5t73 91.5t99 61t120.5 22
q101 0 154.5 -54.5t53.5 -148.5zM461 370q0 41 -28.5 63.5t-77.5 22.5q-62 0 -108 -35t-64 -102l277 36q1 5 1 15z" />
    <glyph glyph-name="igrave" unicode="&#xec;" horiz-adv-x="290" 
d="M303 619l-178 118l110 93l131 -121zM162 0h-143l118 555h143z" />
    <glyph glyph-name="iacute" unicode="&#xed;" horiz-adv-x="290" 
d="M142 619l-25 90l181 121l72 -93zM162 0h-143l118 555h143z" />
    <glyph glyph-name="icircumflex" unicode="&#xee;" horiz-adv-x="290" 
d="M352 616l-110 95l-150 -95l-38 72l150 132h120l97 -132zM162 0h-143l118 555h143z" />
    <glyph glyph-name="idieresis" unicode="&#xef;" horiz-adv-x="290" 
d="M395 675h-123l29 135h123zM195 675h-123l29 135h123zM162 0h-143l118 555h143z" />
    <glyph glyph-name="eth" unicode="&#xf0;" horiz-adv-x="626" 
d="M582 684q21 -42 30 -86.5t9 -91.5q0 -63 -11.5 -122.5t-25.5 -109.5q-13 -50 -40 -101t-68.5 -92t-98 -66.5t-129.5 -25.5q-47 0 -86 13t-66.5 39t-43 64.5t-15.5 89.5q0 39 9 84q14 64 44 117t72 91t95.5 59t113.5 21q14 0 32 -3t35.5 -8t32.5 -12.5t24 -15.5
q0 20 -7.5 50t-28.5 59l-235 -91l-15 81l155 60q-5 1 -9.5 1h-9.5q-40 0 -81.5 -11.5t-74.5 -26.5l-1 120q38 14 82 22.5t89 8.5q50 0 95 -12t78 -38l90 35l16 -80zM461 339q0 57 -29.5 85t-83.5 28q-66 0 -107.5 -47t-58.5 -126q-7 -31 -7 -62q0 -52 24 -82.5t75 -30.5
q33 0 62 12.5t52.5 35t40.5 55t25 72.5q7 31 7 60z" />
    <glyph glyph-name="ntilde" unicode="&#xf1;" horiz-adv-x="652" 
d="M600 694q-22 -19 -48.5 -34t-58.5 -15q-20 0 -37.5 9.5t-35.5 21.5q-13 8 -31 19.5t-35 11.5q-23 0 -46.5 -13t-61.5 -47l25 122q23 20 50.5 34.5t56.5 14.5q21 0 38.5 -10t34.5 -21q18 -11 34.5 -21t31.5 -10q23 0 47 13t61 47zM612 415q0 -20 -5 -45l-79 -370h-143
l74 350q3 15 3 28q0 36 -22 55.5t-58 19.5q-44 0 -84 -23t-63 -67l-77 -363h-142l118 555h130l-15 -71q28 38 78.5 60.5t119.5 22.5q78 0 121.5 -42.5t43.5 -109.5z" />
    <glyph glyph-name="ograve" unicode="&#xf2;" horiz-adv-x="649" 
d="M480 619l-178 118l110 93l131 -121zM621 356q0 -37 -9 -79q-14 -66 -45 -119t-75.5 -91t-101.5 -58.5t-123 -20.5q-111 0 -171 56.5t-60 155.5q0 37 9 77q14 66 45.5 119.5t76.5 91.5t102 58.5t122 20.5q112 0 171 -56.5t59 -154.5zM474 333q0 57 -28.5 88.5t-79.5 31.5
q-30 0 -58.5 -12t-52 -34.5t-40.5 -55.5t-26 -74q-6 -28 -6 -54q0 -57 28.5 -89.5t79.5 -32.5q63 0 111 46.5t66 129.5q6 30 6 56z" />
    <glyph glyph-name="oacute" unicode="&#xf3;" horiz-adv-x="649" 
d="M312 619l-25 90l181 121l72 -93zM621 356q0 -37 -9 -79q-14 -66 -45 -119t-75.5 -91t-101.5 -58.5t-123 -20.5q-111 0 -171 56.5t-60 155.5q0 37 9 77q14 66 45.5 119.5t76.5 91.5t102 58.5t122 20.5q112 0 171 -56.5t59 -154.5zM474 333q0 57 -28.5 88.5t-79.5 31.5
q-30 0 -58.5 -12t-52 -34.5t-40.5 -55.5t-26 -74q-6 -28 -6 -54q0 -57 28.5 -89.5t79.5 -32.5q63 0 111 46.5t66 129.5q6 30 6 56z" />
    <glyph glyph-name="ocircumflex" unicode="&#xf4;" horiz-adv-x="649" 
d="M528 616l-110 95l-150 -95l-38 72l150 132h120l97 -132zM621 356q0 -37 -9 -79q-14 -66 -45 -119t-75.5 -91t-101.5 -58.5t-123 -20.5q-111 0 -171 56.5t-60 155.5q0 37 9 77q14 66 45.5 119.5t76.5 91.5t102 58.5t122 20.5q112 0 171 -56.5t59 -154.5zM474 333
q0 57 -28.5 88.5t-79.5 31.5q-30 0 -58.5 -12t-52 -34.5t-40.5 -55.5t-26 -74q-6 -28 -6 -54q0 -57 28.5 -89.5t79.5 -32.5q63 0 111 46.5t66 129.5q6 30 6 56z" />
    <glyph glyph-name="otilde" unicode="&#xf5;" horiz-adv-x="649" 
d="M591 694q-22 -19 -48.5 -34t-58.5 -15q-20 0 -37.5 9.5t-35.5 21.5q-13 8 -31 19.5t-35 11.5q-23 0 -46.5 -13t-61.5 -47l25 122q23 20 50.5 34.5t56.5 14.5q21 0 38.5 -10t34.5 -21q18 -11 34.5 -21t31.5 -10q23 0 47 13t61 47zM621 356q0 -37 -9 -79q-14 -66 -45 -119
t-75.5 -91t-101.5 -58.5t-123 -20.5q-111 0 -171 56.5t-60 155.5q0 37 9 77q14 66 45.5 119.5t76.5 91.5t102 58.5t122 20.5q112 0 171 -56.5t59 -154.5zM474 333q0 57 -28.5 88.5t-79.5 31.5q-30 0 -58.5 -12t-52 -34.5t-40.5 -55.5t-26 -74q-6 -28 -6 -54
q0 -57 28.5 -89.5t79.5 -32.5q63 0 111 46.5t66 129.5q6 30 6 56z" />
    <glyph glyph-name="odieresis" unicode="&#xf6;" horiz-adv-x="649" 
d="M570 675h-123l29 135h123zM370 675h-123l29 135h123zM621 356q0 -37 -9 -79q-14 -66 -45 -119t-75.5 -91t-101.5 -58.5t-123 -20.5q-111 0 -171 56.5t-60 155.5q0 37 9 77q14 66 45.5 119.5t76.5 91.5t102 58.5t122 20.5q112 0 171 -56.5t59 -154.5zM474 333
q0 57 -28.5 88.5t-79.5 31.5q-30 0 -58.5 -12t-52 -34.5t-40.5 -55.5t-26 -74q-6 -28 -6 -54q0 -57 28.5 -89.5t79.5 -32.5q63 0 111 46.5t66 129.5q6 30 6 56z" />
    <glyph glyph-name="divide" unicode="&#xf7;" horiz-adv-x="660" 
d="M418 489q0 -37 -25.5 -62.5t-62.5 -25.5t-62.5 25.5t-25.5 62.5t25.5 62.5t62.5 25.5t62.5 -25.5t25.5 -62.5zM52 238v117h555v-117h-555zM418 91q0 -37 -25.5 -62.5t-62.5 -25.5t-62.5 25.5t-25.5 62.5t25.5 62.5t62.5 25.5t62.5 -25.5t25.5 -62.5z" />
    <glyph glyph-name="oslash" unicode="&#xf8;" horiz-adv-x="649" 
d="M641 500q-8 -8 -19 -18t-24 -21q23 -44 23 -105q0 -37 -9 -79q-14 -66 -45 -119t-75.5 -91t-101.5 -58.5t-123 -20.5q-94 0 -150 41l-70 -63l-46 55l66 59q-31 51 -31 121q0 36 9 76q14 66 45.5 119.5t76.5 91.5t102 58.5t122 20.5q103 0 162 -50l60 54l46 -55
q-8 -7 -18 -16zM366 453q-30 0 -58.5 -12t-52 -34.5t-40.5 -55.5t-26 -74q-10 -51 -3 -90l260 234q-27 32 -80 32zM474 329v10.5t-1 10.5l-251 -226q28 -23 69 -23q63 0 111 46.5t66 129.5q6 29 6 52z" />
    <glyph glyph-name="ugrave" unicode="&#xf9;" horiz-adv-x="652" 
d="M480 619l-178 118l110 93l131 -121zM526 0h-130l15 70q-30 -42 -82.5 -62t-112.5 -20q-78 0 -123 40t-45 106q0 19 5 44l80 377h142l-73 -344q-3 -15 -3 -28q0 -36 22 -55.5t59 -19.5q43 0 83 22.5t63 67.5l76 357h142z" />
    <glyph glyph-name="uacute" unicode="&#xfa;" horiz-adv-x="652" 
d="M312 619l-25 90l181 121l72 -93zM526 0h-130l15 70q-30 -42 -82.5 -62t-112.5 -20q-78 0 -123 40t-45 106q0 19 5 44l80 377h142l-73 -344q-3 -15 -3 -28q0 -36 22 -55.5t59 -19.5q43 0 83 22.5t63 67.5l76 357h142z" />
    <glyph glyph-name="ucircumflex" unicode="&#xfb;" horiz-adv-x="652" 
d="M528 616l-110 95l-150 -95l-38 72l150 132h120l97 -132zM526 0h-130l15 70q-30 -42 -82.5 -62t-112.5 -20q-78 0 -123 40t-45 106q0 19 5 44l80 377h142l-73 -344q-3 -15 -3 -28q0 -36 22 -55.5t59 -19.5q43 0 83 22.5t63 67.5l76 357h142z" />
    <glyph glyph-name="udieresis" unicode="&#xfc;" horiz-adv-x="652" 
d="M570 675h-123l29 135h123zM370 675h-123l29 135h123zM526 0h-130l15 70q-30 -42 -82.5 -62t-112.5 -20q-78 0 -123 40t-45 106q0 19 5 44l80 377h142l-73 -344q-3 -15 -3 -28q0 -36 22 -55.5t59 -19.5q43 0 83 22.5t63 67.5l76 357h142z" />
    <glyph glyph-name="yacute" unicode="&#xfd;" horiz-adv-x="576" 
d="M283 619l-25 90l181 121l72 -93zM306 -29q-26 -48 -57 -81t-69.5 -54t-85.5 -30t-106 -9l-11 119h11q45 0 74 4t50 16t38 33.5t37 55.5l-111 529h142l56 -280q4 -20 5 -39t1 -38q0 -10 -0.5 -19.5t-0.5 -18.5h2q10 28 21 55t28 59l146 281h148z" />
    <glyph glyph-name="thorn" unicode="&#xfe;" horiz-adv-x="649" 
d="M623 373q0 -22 -3 -45.5t-8 -49.5q-15 -72 -44.5 -126t-69 -90.5t-87.5 -55t-102 -18.5q-48 0 -85 16t-56 42l-53 -248h-142l209 982h142l-60 -279q25 31 71 48.5t97 17.5q91 0 141 -49t50 -145zM475 341q0 57 -27 84.5t-76 27.5q-25 0 -49 -9.5t-44 -26.5t-34 -39.5
t-20 -49.5l-33 -153q12 -31 37.5 -53.5t68.5 -22.5q57 0 104 44t66 135q7 34 7 63z" />
    <glyph glyph-name="ydieresis" unicode="&#xff;" horiz-adv-x="576" 
d="M541 675h-123l29 135h123zM341 675h-123l29 135h123zM306 -29q-26 -48 -57 -81t-69.5 -54t-85.5 -30t-106 -9l-11 119h11q45 0 74 4t50 16t38 33.5t37 55.5l-111 529h142l56 -280q4 -20 5 -39t1 -38q0 -10 -0.5 -19.5t-0.5 -18.5h2q10 28 21 55t28 59l146 281h148z" />
    <glyph glyph-name="OE" unicode="&#x152;" horiz-adv-x="934" 
d="M971 655h-291l-41 -193h246l-26 -122h-246l-45 -215h306l-27 -125h-434l7 31q-32 -22 -70 -36t-83 -14q-104 0 -158 65.5t-54 187.5q0 73 19 159q20 92 54.5 167t82 128t105.5 82t124 29q43 0 78 -13.5t55 -33.5l6 28h419zM495.5 643.5q-29.5 23.5 -74.5 23.5
q-33 0 -65 -18.5t-59.5 -53.5t-50 -86t-36.5 -116q-15 -72 -15 -126q0 -78 29 -115.5t80 -37.5q42 0 82 24t70 66l79 368q-10 48 -39.5 71.5z" />
    <glyph glyph-name="oe" unicode="&#x153;" horiz-adv-x="985" 
d="M952 369q0 -48 -13 -100l-394 -51v-11q0 -52 32 -79t89 -27q52 0 100 24t83 69l51 -86q-28 -29 -56.5 -51.5t-60.5 -37.5t-68.5 -23t-81.5 -8q-62 0 -107 21.5t-70 59.5q-40 -38 -93.5 -59.5t-114.5 -21.5q-101 0 -154 54.5t-53 150.5q0 39 9 84q14 66 43 119.5t71 91.5
t94.5 58.5t113.5 20.5q62 0 105.5 -22t66.5 -59q40 36 93.5 58.5t115.5 22.5q98 0 148.5 -53t50.5 -145zM827 372q0 40 -25.5 62t-73.5 22q-60 0 -102.5 -35t-60.5 -102l261 36q1 5 1 8.5v8.5zM441 341q0 54 -24 83t-70 29q-57 0 -101 -46.5t-61 -129.5q-4 -17 -5.5 -32
t-1.5 -29q0 -54 24.5 -84.5t69.5 -30.5q59 0 101.5 46.5t60.5 129.5q4 17 5.5 33.5t1.5 30.5z" />
    <glyph glyph-name="Scaron" unicode="&#x160;" horiz-adv-x="698" 
d="M523 827h-120l-106 122l68 72l122 -85l158 85l39 -72zM569 566q-8 55 -43 82.5t-90 27.5q-63 0 -101 -26.5t-46 -64.5q-1 -5 -1.5 -8.5t-0.5 -8.5q0 -25 19.5 -43t62.5 -33l111 -39q72 -26 112.5 -68.5t40.5 -108.5q0 -24 -6 -53q-24 -115 -111.5 -178.5t-226.5 -63.5
q-118 0 -183 54.5t-77 148.5l128 75q10 -69 54 -110t105 -41q66 0 106.5 27.5t50.5 72.5q3 12 3 24q0 32 -22.5 54.5t-70.5 40.5l-105 39q-70 26 -104.5 63t-34.5 95q0 24 6 54q10 45 36.5 85.5t67 70.5t93.5 47.5t115 17.5q103 0 162.5 -37.5t75.5 -117.5z" />
    <glyph glyph-name="scaron" unicode="&#x161;" horiz-adv-x="558" 
d="M414 622h-120l-94 132l69 72l109 -95l151 95l38 -72zM476 384q-23 38 -63 59t-91 21q-42 0 -66 -15t-29 -38q-1 -4 -1 -11q0 -17 20 -29.5t75 -24.5q93 -20 137 -56.5t44 -95.5q0 -20 -4 -39q-17 -81 -87 -124t-188 -43q-76 0 -135.5 28t-87.5 79l82 100q12 -22 31 -40
t42 -31t47.5 -20t48.5 -7q46 0 70.5 15.5t30.5 41.5q1 4 1.5 7t0.5 7q0 25 -26 40t-87 29q-85 18 -122.5 52.5t-37.5 83.5q0 18 4 34q7 35 28 64t54.5 50.5t78.5 33.5t100 12q76 0 130.5 -23.5t76.5 -63.5z" />
    <glyph glyph-name="Ydieresis" unicode="&#x178;" horiz-adv-x="632" 
d="M604 840h-123l28 135h123zM404 840h-123l28 135h123zM395 272l-58 -272h-151l58 272l-144 508h144l97 -365l255 365h158z" />
    <glyph glyph-name="florin" unicode="&#x192;" horiz-adv-x="555" 
d="M620 634q-16 14 -34 22t-37 8q-15 0 -30 -6q-11 -5 -20 -13t-17.5 -21.5t-17.5 -33t-21 -46.5q-6 -15 -13 -32t-15 -37h98l-21 -97h-113q-15 -43 -31 -88.5t-31.5 -89t-30.5 -83t-29 -70.5q-40 -92 -81.5 -141.5t-88.5 -73.5q-20 -10 -43 -15.5t-48 -5.5q-43 0 -79 16
l31 97q18 -14 36 -22.5t36 -8.5q15 0 29 7q22 11 39 38t37 75q16 38 33 83t34.5 93t34.5 96t33 93h-110l21 97h125q5 10 8 19t7 17q37 91 80.5 141.5t88.5 73.5q20 10 43.5 15.5t48.5 5.5q43 0 78 -16z" />
    <glyph glyph-name="circumflex" unicode="&#x2c6;" horiz-adv-x="500" 
d="M459 616l-110 95l-150 -95l-38 72l150 132h120l97 -132z" />
    <glyph glyph-name="tilde" unicode="&#x2dc;" horiz-adv-x="500" 
d="M516 694q-22 -19 -48.5 -34t-58.5 -15q-20 0 -37.5 9.5t-35.5 21.5q-13 8 -31 19.5t-35 11.5q-23 0 -46.5 -13t-61.5 -47l25 122q24 21 51 35t56 14q21 0 38.5 -10t34.5 -21q18 -11 34.5 -21t31.5 -10q23 0 47 13t61 47z" />
    <glyph glyph-name="acutecomb" unicode="&#x301;" horiz-adv-x="500" 
d="M251 619l-25 90l181 121l72 -93z" />
    <glyph glyph-name="uni0306" unicode="&#x306;" horiz-adv-x="500" 
d="M460.5 683q-54.5 -32 -125.5 -32t-111.5 32t-48.5 87l93 53q5 -29 27 -49.5t62 -20.5t71 20.5t48 49.5l71 -53q-32 -55 -86.5 -87z" />
    <glyph glyph-name="uni0308" unicode="&#x308;" horiz-adv-x="500" 
d="M500 675h-123l29 135h123zM300 675h-123l29 135h123z" />
    <glyph glyph-name="uni0338" unicode="&#x338;" horiz-adv-x="400" 
d="M50 -23h-117l469 826h117z" />
    <glyph glyph-name="afii10023" unicode="&#x401;" horiz-adv-x="643" 
d="M635 840h-123l28 135h123zM435 840h-123l28 135h123zM668 656h-344l-40 -188h287l-26 -122h-287l-47 -222h363l-26 -124h-509l166 780h489z" />
    <glyph glyph-name="afii10051" unicode="&#x402;" horiz-adv-x="830" 
d="M792 241q-28 -131 -98.5 -189.5t-176.5 -58.5q-19 0 -41.5 3t-45.5 9.5t-46 17t-43 25.5l84 130q24 -24 51 -33t53 -9q35 0 68 28.5t46 88.5q8 35 1.5 60t-22.5 41t-39.5 24t-49.5 8h-131l-82 -386h-147l139 654h-211l27 126h570l-27 -127h-213l-31 -148h146
q59 0 105.5 -18.5t76 -53t40 -83.5t-2.5 -109z" />
    <glyph glyph-name="afii10052" unicode="&#x403;" horiz-adv-x="598" 
d="M390 817l-25 90l209 111l72 -93zM650 648h-326l-137 -648h-151l166 780h476z" />
    <glyph glyph-name="afii10053" unicode="&#x404;" horiz-adv-x="719" 
d="M649 548q-14 54 -52.5 87.5t-106.5 33.5q-84 0 -150 -56.5t-98 -154.5h292l-26 -120h-294q-8 -60 0.5 -102.5t29.5 -70.5t54 -41t75 -13q62 0 113.5 36t86.5 87l100 -66q-28 -43 -60.5 -78t-70.5 -60t-84.5 -38t-103.5 -13q-80 0 -140 31t-96 87.5t-46.5 134.5t9.5 172
q18 87 56.5 159.5t94 125.5t126 82.5t152.5 29.5q59 0 102.5 -15.5t74.5 -42t50 -60.5t29 -71z" />
    <glyph glyph-name="afii10054" unicode="&#x405;" horiz-adv-x="698" 
d="M569 566q-8 55 -43 82.5t-90 27.5q-63 0 -101 -26.5t-46 -64.5q-1 -5 -1.5 -8.5t-0.5 -8.5q0 -25 19.5 -43t62.5 -33l111 -39q72 -26 112.5 -68.5t40.5 -108.5q0 -24 -6 -53q-24 -115 -111.5 -178.5t-226.5 -63.5q-118 0 -183 54.5t-77 148.5l128 75q10 -69 54 -110
t105 -41q66 0 106.5 27.5t50.5 72.5q3 12 3 24q0 32 -22.5 54.5t-70.5 40.5l-105 39q-70 26 -104.5 63t-34.5 95q0 24 6 54q10 45 36.5 85.5t67 70.5t93.5 47.5t115 17.5q103 0 162.5 -37.5t75.5 -117.5z" />
    <glyph glyph-name="afii10055" unicode="&#x406;" horiz-adv-x="342" 
d="M192 0h-152l166 780h152z" />
    <glyph glyph-name="afii10056" unicode="&#x407;" horiz-adv-x="342" 
d="M458 840h-123l28 135h123zM258 840h-123l28 135h123zM192 0h-152l166 780h152z" />
    <glyph glyph-name="afii10057" unicode="&#x408;" horiz-adv-x="484" 
d="M368 168q-20 -94 -88.5 -140.5t-168.5 -46.5q-43 0 -77.5 5t-60.5 13l18 130q27 -11 60 -17t58 -6q42 0 73.5 22t41.5 69l124 583h150z" />
    <glyph glyph-name="afii10058" unicode="&#x409;" horiz-adv-x="1095" 
d="M1060 239q-11 -54 -36.5 -98t-64 -75.5t-88 -48.5t-108.5 -17h-299l139 656h-261l-36 -171q-27 -127 -75.5 -254.5t-130.5 -244.5l-134 53q42 56 73.5 110.5t55.5 111t42 115t31 121.5l60 283h543l-59 -275h134q60 0 105.5 -19t74 -54t38 -84t-3.5 -109zM907 253
q8 35 2.5 60.5t-20 41.5t-36.5 23.5t-48 7.5h-118l-56 -265h97q29 0 58 7.5t53.5 23.5t42.5 41t25 60z" />
    <glyph glyph-name="afii10059" unicode="&#x40a;" horiz-adv-x="1097" 
d="M1062 239q-11 -54 -36.5 -98t-63.5 -75.5t-87.5 -48.5t-108.5 -17h-306l81 381h-277l-81 -381h-147l166 780h147l-59 -275h277l59 275h147l-58 -275h134q60 0 105.5 -19t73.5 -54t37.5 -84t-3.5 -109zM909 253q8 35 2 60t-21.5 41t-38.5 23.5t-49 7.5h-113l-56 -264h102
q29 0 57 7.5t51.5 23.5t41 41t24.5 60z" />
    <glyph glyph-name="afii10060" unicode="&#x40b;" horiz-adv-x="848" 
d="M802 388q0 -11 -0.5 -22t-2.5 -22l-74 -344h-148l67 316q11 53 -7.5 86.5t-77.5 33.5q-48 0 -94.5 -22.5t-72.5 -59.5l-75 -354h-144l139 654h-211l27 126h570l-27 -127h-215l-35 -162q31 27 76 47t115 20q43 0 78 -12.5t60 -35t38.5 -54t13.5 -68.5z" />
    <glyph glyph-name="afii10061" unicode="&#x40c;" horiz-adv-x="706" 
d="M414 817l-25 90l209 111l72 -93zM661 577q-26 -60 -63.5 -104t-88.5 -72l131 -401h-170l-103 355q-14 -5 -41.5 -7t-52.5 -4q-5 0 -9.5 -0.5t-9.5 -0.5l-73 -343h-145l166 780h145l-64 -298q51 0 89.5 6.5t67.5 21.5t50 40t37 62l72 168h151z" />
    <glyph glyph-name="afii10062" unicode="&#x40e;" horiz-adv-x="642" 
d="M580.5 845q-54.5 -32 -125.5 -32t-111.5 32t-48.5 87l93 53q5 -29 27 -49.5t62 -20.5t71 20.5t48 49.5l71 -53q-32 -55 -86.5 -87zM227 0h-164l187 276l-129 504h156l79 -367l229 367h160z" />
    <glyph glyph-name="afii10145" unicode="&#x40f;" horiz-adv-x="756" 
d="M610 0h-211l-42 -193h-151l42 193h-212l166 780h147l-140 -656h279l140 656h148z" />
    <glyph glyph-name="afii10017" unicode="&#x410;" horiz-adv-x="689" 
d="M484 0l-24 203h-243l-109 -203h-155l429 780h146l98 -780h-142zM438 398q-3 41 -5 82.5t-2.5 78t0.5 55.5h-6q-7 -20 -24 -56t-37.5 -77.5t-41.5 -82.5t-38 -71h159q-2 30 -5 71z" />
    <glyph glyph-name="afii10018" unicode="&#x411;" horiz-adv-x="676" 
d="M694 656h-371l-32 -151h134q59 0 105 -19.5t74.5 -54.5t38 -84t-3.5 -109q-12 -54 -38 -97.5t-64.5 -75t-88 -48.5t-107.5 -17h-305l166 780h519zM486 252q8 35 1.5 60.5t-22 41.5t-38 23.5t-48.5 7.5h-113l-56 -264h102q29 0 57 7.5t51.5 23t41 40.5t24.5 60z" />
    <glyph glyph-name="afii10019" unicode="&#x412;" horiz-adv-x="679" 
d="M662 575q-14 -68 -54 -108t-97 -55v-3q30 -5 56.5 -20t44 -40t24 -59.5t-3.5 -79.5q-21 -98 -101 -154t-207 -56h-288l166 780h261q55 0 96 -16t67 -44t35.5 -65.5t0.5 -79.5zM517 563q6 26 0 44.5t-20.5 30t-36.5 16.5t-49 5h-90l-40 -189h102q55 0 89 22t45 71z
M492 236q6 28 -1 49t-24 35t-42 21t-54 7h-116l-48 -226h122q63 0 107 28t56 86z" />
    <glyph glyph-name="afii10020" unicode="&#x413;" horiz-adv-x="592" 
d="M650 648h-326l-138 -648h-150l166 780h476z" />
    <glyph glyph-name="afii10021" unicode="&#x414;" horiz-adv-x="743" 
d="M616 124h70l-54 -253h-151l27 129h-387l-27 -129h-151l54 253h52q69 101 108.5 202.5t63.5 215.5l51 238h483zM381 656l-25 -114q-22 -105 -59.5 -210.5t-96.5 -207.5h276l113 532h-208z" />
    <glyph glyph-name="afii10022" unicode="&#x415;" horiz-adv-x="643" 
d="M668 656h-344l-40 -188h287l-26 -122h-287l-47 -222h363l-26 -124h-509l166 780h489z" />
    <glyph glyph-name="afii10024" unicode="&#x416;" horiz-adv-x="975" 
d="M941 577q-60 -128 -154 -180l125 -397h-156l-98 355q-13 -5 -38 -6.5t-43 -2.5l-73 -346h-142l74 346q-18 1 -37 2.5t-30 6.5l-247 -355h-169l294 397q-72 52 -77 180l-8 203h142l5 -168q2 -74 38 -107.5t116 -33.5l65 309h141l-65 -309q39 0 69 8.5t54 25.5t43 43.5
t36 63.5l77 168h152z" />
    <glyph glyph-name="afii10025" unicode="&#x417;" horiz-adv-x="684" 
d="M687 592q-15 -72 -63 -113t-122 -58q37 -7 66 -26t47 -47t23.5 -64t-3.5 -78q-23 -109 -111 -167t-237 -58q-117 0 -187.5 48.5t-83.5 133.5l130 60q2 -26 14 -48t32 -38.5t46 -25.5t56 -9q78 0 130 29.5t65 90.5q13 63 -32 99t-141 36h-132l27 123h125q89 0 138.5 28
t60.5 76q5 23 -2 41t-22 31t-37 20t-48 7q-60 0 -101.5 -27.5t-66.5 -72.5l-115 49q17 35 44 66t64.5 54t84.5 36.5t103 13.5q63 0 113 -16t83 -44.5t47 -66.5t5 -83z" />
    <glyph glyph-name="afii10026" unicode="&#x418;" horiz-adv-x="754" 
d="M608 0h-150l80 377q2 11 9 37t14 53t13 49t7 24h-3q-2 -5 -13.5 -27t-27.5 -43l-361 -470h-140l166 780h142l-83 -388q-2 -12 -7.5 -34t-11.5 -44t-11 -39.5t-6 -19.5h3q1 2 4.5 9.5t8.5 17.5t11.5 20.5t12.5 19.5l360 458h149z" />
    <glyph glyph-name="afii10027" unicode="&#x419;" horiz-adv-x="754" 
d="M634.5 845q-54.5 -32 -125.5 -32t-111.5 32t-48.5 87l93 53q5 -29 27 -49.5t62 -20.5t71 20.5t48 49.5l71 -53q-32 -55 -86.5 -87zM608 0h-150l80 377q2 11 9 37t14 53t13 49t7 24h-3q-2 -5 -13.5 -27t-27.5 -43l-361 -470h-140l166 780h142l-83 -388q-2 -12 -7.5 -34
t-11.5 -44t-11 -39.5t-6 -19.5h3q1 2 4.5 9.5t8.5 17.5t11.5 20.5t12.5 19.5l360 458h149z" />
    <glyph glyph-name="afii10028" unicode="&#x41a;" horiz-adv-x="705" 
d="M661 577q-26 -60 -63.5 -104t-88.5 -72l131 -401h-170l-103 355q-14 -5 -41.5 -7t-52.5 -4q-5 0 -9.5 -0.5t-9.5 -0.5l-73 -343h-145l166 780h145l-64 -298q51 0 89.5 6.5t67.5 21.5t50 40t37 62l72 168h151z" />
    <glyph glyph-name="afii10029" unicode="&#x41b;" horiz-adv-x="749" 
d="M602 0h-142l139 656h-261l-36 -171q-27 -127 -75.5 -254.5t-130.5 -244.5l-134 53q42 56 73.5 110.5t55.5 111t42 115t31 121.5l60 283h544z" />
    <glyph glyph-name="afii10030" unicode="&#x41c;" horiz-adv-x="911" 
d="M765 0h-140l102 481q3 12 6.5 27t7.5 30t8 28t7 21h-2q-10 -22 -20 -40q-8 -16 -15.5 -30t-10.5 -19l-212 -346h-130l-67 349q-1 6 -2.5 17.5t-3 24.5t-2 25t-0.5 19h-3q-2 -23 -6 -48.5t-10 -54.5l-103 -484h-133l166 780h172l82 -433q2 -8 3 -23.5t1 -21.5h3
q1 2 5 17.5t10 26.5l265 434h188z" />
    <glyph glyph-name="afii10031" unicode="&#x41d;" horiz-adv-x="754" 
d="M608 0h-148l73 344h-277l-73 -344h-147l166 780h147l-67 -312h277l67 312h148z" />
    <glyph glyph-name="afii10032" unicode="&#x41e;" horiz-adv-x="806" 
d="M784 393q-18 -81 -54 -155.5t-90 -131.5t-125.5 -91t-159.5 -34t-148.5 34t-94.5 91t-42 131.5t10 155.5q17 80 53 154t90 130.5t126 90.5t160 34t148 -34t94 -91t42 -131t-9 -153zM630 393q29 141 -9 208t-130 67q-43 0 -83 -16.5t-74 -50.5t-60 -86t-41 -122
q-30 -140 9 -209t131 -69q44 0 83.5 17.5t73.5 52t59.5 86.5t40.5 122z" />
    <glyph glyph-name="afii10033" unicode="&#x41f;" horiz-adv-x="750" 
d="M604 0h-147l139 656h-274l-139 -656h-146l165 780h567z" />
    <glyph glyph-name="afii10034" unicode="&#x420;" horiz-adv-x="687" 
d="M700 517q-26 -122 -105 -187t-200 -65h-158l-56 -265h-145l166 780h286q59 0 104 -20.5t72.5 -56t37.5 -83.5t-2 -103zM547 522q15 69 -14.5 101.5t-89.5 32.5h-122l-57 -268h117q27 0 54 8.5t49.5 25t39 41.5t23.5 59z" />
    <glyph glyph-name="afii10035" unicode="&#x421;" horiz-adv-x="719" 
d="M638 544q-7 25 -18 47t-28 38t-41 25t-58 9q-49 0 -91.5 -19t-76.5 -54t-58.5 -84.5t-37.5 -111.5q-15 -73 -12 -125t22.5 -85t54 -48.5t81.5 -15.5q30 0 58 10t52 26.5t44.5 38.5t36.5 46l107 -71q-29 -44 -61 -79t-70.5 -59.5t-85 -37.5t-103.5 -13q-78 0 -138 29.5
t-96.5 84t-47 131.5t9.5 171q18 86 56.5 160t94 128.5t126 85.5t152.5 31q59 0 102.5 -15.5t74 -41.5t50.5 -60t30 -71z" />
    <glyph glyph-name="afii10036" unicode="&#x422;" horiz-adv-x="604" 
d="M671 652h-211l-139 -652h-148l139 653h-211l27 127h570z" />
    <glyph glyph-name="afii10037" unicode="&#x423;" horiz-adv-x="642" 
d="M227 0h-164l187 276l-129 504h156l79 -367l229 367h160z" />
    <glyph glyph-name="afii10038" unicode="&#x424;" horiz-adv-x="803" 
d="M792 385q-13 -62 -44 -112.5t-76.5 -87t-105 -60t-130.5 -31.5l-20 -94h-140l20 94q-67 8 -115.5 34.5t-78 67t-38 93.5t4.5 116q14 63 45 113.5t77 87t105 59t128 30.5l18 85h140l-18 -85q67 -9 116 -35t78.5 -66.5t38 -93.5t-4.5 -115zM664 395q8 35 2.5 65.5
t-22.5 53.5t-45 38t-66 19l-75 -354q81 10 136 58t70 120zM327 552q-34 -15 -60.5 -38.5t-44 -53.5t-25.5 -65q-15 -71 19.5 -119t109.5 -59l75 354q-40 -4 -74 -19z" />
    <glyph glyph-name="afii10039" unicode="&#x425;" horiz-adv-x="666" 
d="M443 403l160 -403h-159l-106 274l-214 -274h-171l328 415l-151 365h155l100 -255l197 255h172z" />
    <glyph glyph-name="afii10040" unicode="&#x426;" horiz-adv-x="763" 
d="M636 124h52l-54 -254h-151l28 130h-475l166 780h147l-140 -656h279l140 656h148z" />
    <glyph glyph-name="afii10041" unicode="&#x427;" horiz-adv-x="762" 
d="M617 0h-145l63 295q-10 -15 -30.5 -30.5t-48 -29t-61.5 -22t-72 -8.5q-68 0 -114 22t-72 58.5t-32.5 83.5t4.5 98l67 313h143l-59 -281q-17 -81 10 -116.5t109 -35.5q34 0 63.5 9t54 23.5t42 31t27.5 31.5l72 338h144z" />
    <glyph glyph-name="afii10042" unicode="&#x428;" horiz-adv-x="936" 
d="M790 0h-753l165 780h141l-139 -655h168l139 655h140l-139 -655h162l139 655h142z" />
    <glyph glyph-name="afii10043" unicode="&#x429;" horiz-adv-x="960" 
d="M821 124h65l-54 -254h-151l28 130h-673l166 780h142l-139 -655h167l139 655h140l-139 -656h167l139 656h142z" />
    <glyph glyph-name="afii10044" unicode="&#x42a;" horiz-adv-x="839" 
d="M793 237q-12 -53 -38 -97t-64 -75t-87.5 -48t-108.5 -17h-319l139 656h-214l27 124h362l-59 -276h147q60 0 105.5 -19t74 -54t38.5 -84.5t-3 -109.5zM639 252q8 35 2 60t-21.5 41t-38 23.5t-49.5 7.5h-126l-56 -263h115q29 0 57 7.5t51.5 23t41 40.5t24.5 60z" />
    <glyph glyph-name="afii10045" unicode="&#x42b;" horiz-adv-x="987" 
d="M842 0h-148l166 780h148zM650 238q-12 -54 -37.5 -97.5t-64 -75t-88 -48.5t-108.5 -17h-317l166 780h145l-59 -275h148q60 0 105.5 -19t74 -54.5t38.5 -84.5t-3 -109zM497 252q8 35 1.5 60.5t-22 41.5t-38 23.5t-48.5 7.5h-128l-56 -264h117q29 0 57 7.5t51.5 23t41 40.5
t24.5 60z" />
    <glyph glyph-name="afii10046" unicode="&#x42c;" horiz-adv-x="686" 
d="M639 238q-11 -54 -36.5 -97.5t-63.5 -75t-87.5 -48.5t-108.5 -17h-307l166 780h149l-59 -276h134q60 0 105.5 -19t73.5 -54t37.5 -84t-3.5 -109zM486 252q8 35 2 60.5t-21 41.5t-38 23.5t-49 7.5h-113l-57 -265h102q29 0 57 7.5t51.5 23.5t41 41t24.5 60z" />
    <glyph glyph-name="afii10047" unicode="&#x42d;" horiz-adv-x="719" 
d="M696 384q-20 -94 -60 -169t-95.5 -127.5t-125 -80.5t-149.5 -28q-114 0 -176 51t-82 138l123 66q12 -51 46.5 -87t95.5 -36q42 0 82 13t75 41t63 70.5t46 102.5h-294l25 120h292q10 98 -30 154.5t-124 56.5q-68 0 -118 -33.5t-87 -87.5l-105 64q21 34 52 68t71 61
t89.5 43.5t108.5 16.5q84 0 144.5 -32.5t96 -89t45 -132.5t-8.5 -163z" />
    <glyph glyph-name="afii10048" unicode="&#x42e;" horiz-adv-x="1015" 
d="M991 382q-18 -88 -51.5 -162t-82 -127.5t-112 -83.5t-143.5 -30q-72 0 -123.5 27t-82 75t-40.5 113t1 141h-105l-71 -335h-145l166 780h145l-69 -324h104q23 74 57.5 137t81 109t105.5 72.5t130 26.5q80 0 133.5 -33.5t82 -91t33 -133.5t-13.5 -161zM848 392
q16 75 17 128t-12.5 86.5t-41 48.5t-68.5 15q-38 0 -73.5 -15t-65.5 -48.5t-54.5 -86.5t-40.5 -128q-31 -150 -4 -216t109 -66q39 0 75 16t66 50t53.5 87.5t39.5 128.5z" />
    <glyph glyph-name="afii10049" unicode="&#x42f;" horiz-adv-x="687" 
d="M541 0h-146l64 297h-100l-237 -297h-169l264 327q-66 25 -91 85t-6 148q22 105 98.5 162.5t195.5 57.5h293zM415 656q-57 0 -97 -28.5t-52 -86.5q-14 -63 12.5 -94t84.5 -31h121l52 240h-121z" />
    <glyph glyph-name="afii10065" unicode="&#x430;" horiz-adv-x="575" 
d="M497 -8q-60 -13 -99.5 3.5t-42.5 62.5q-32 -35 -84.5 -52.5t-109.5 -17.5q-86 0 -121.5 44t-24.5 116q0 1 0.5 2t0.5 2q8 38 25.5 65t44 47t60.5 33.5t75 23.5q22 5 50.5 13.5t54.5 19t44.5 23t21.5 25.5q8 34 -10.5 49.5t-66.5 15.5q-35 0 -71.5 -19t-59.5 -54l-97 51
q42 68 107 99t139 31q107 0 159 -45.5t33 -134.5l-56 -260q-9 -42 30 -42q16 0 36 7zM337 261q-19 -7 -40.5 -13.5t-42.5 -12.5t-37 -13q-26 -11 -42.5 -27.5t-22.5 -44.5q-1 -2 -1 -6q-11 -56 58 -56q17 0 36.5 5t38.5 14.5t35 24.5t26 36l23 109q-12 -9 -31 -16z" />
    <glyph glyph-name="afii10066" unicode="&#x431;" horiz-adv-x="623" 
d="M582.5 655.5q-47.5 -28.5 -101.5 -37.5q-50 -8 -87 -19.5t-65.5 -26.5t-49.5 -33.5t-38 -39.5q25 23 61.5 40t71.5 17q68 0 114.5 -22.5t72 -61.5t31.5 -91t-7 -112t-39 -111.5t-65.5 -89t-94 -59t-123.5 -21.5q-68 0 -115 24.5t-73 66t-32.5 96t5.5 114.5q17 81 46 149
t76 121.5t114.5 92.5t161.5 63q36 9 69 30t53 50l101 -66q-39 -45 -86.5 -73.5zM445 279q18 83 -5.5 128.5t-85.5 45.5q-30 0 -57.5 -11.5t-51 -34t-41 -55t-26.5 -73.5q-18 -86 9 -134t92 -48q62 0 105 47.5t61 134.5z" />
    <glyph glyph-name="afii10067" unicode="&#x432;" horiz-adv-x="571" 
d="M548 410q-11 -50 -38 -76t-78 -39q23 -6 41.5 -18t30 -30.5t15 -43.5t-3.5 -57q-9 -40 -29.5 -68t-52 -45.5t-72.5 -25t-90 -7.5h-256l120 563h216q53 0 93 -11t65.5 -31t36 -48t2.5 -63zM411 404q6 26 -10.5 41.5t-61.5 15.5h-91l-25 -118h89q87 0 99 61zM388 173
q7 32 -15 51.5t-73 19.5h-98l-30 -143h103q49 0 77.5 20t35.5 52z" />
    <glyph glyph-name="afii10068" unicode="&#x433;" horiz-adv-x="474" 
d="M494 445h-242l-95 -445h-141l120 563h383z" />
    <glyph glyph-name="afii10069" unicode="&#x434;" horiz-adv-x="640" 
d="M513 114h68l-44 -204h-134l20 90h-321l-20 -90h-134l44 204h63q40 64 62 129t38 141l38 179h415zM293 449l-21 -98q-14 -69 -32.5 -126t-47.5 -111h188l71 335h-158z" />
    <glyph glyph-name="afii10070" unicode="&#x435;" horiz-adv-x="612" 
d="M577 275q-2 -8 -3.5 -15t-3.5 -15h-393q-13 -66 16 -104t86 -38q51 0 89.5 24t59.5 66l112 -45q-22 -35 -48.5 -64.5t-59.5 -50.5t-73 -33t-89 -12q-63 0 -111.5 21t-78 61t-39 96.5t5.5 127.5q15 68 45 120.5t72 88t95 54t113 18.5t105.5 -21t72.5 -60t34.5 -94.5
t-7.5 -124.5zM453.5 390q-4.5 21 -17.5 36t-33.5 24t-45.5 9q-28 0 -53.5 -9t-46 -24.5t-34.5 -36t-19 -43.5l-1 -3h248v2q7 24 2.5 45z" />
    <glyph glyph-name="afii10072" unicode="&#x436;" horiz-adv-x="824" 
d="M755 403q-22 -46 -50 -76.5t-69 -47.5l128 -279h-137l-104 247q-8 -2 -24 -3t-27 -1l-51 -243h-127l52 243q-12 0 -20 1t-16 3l-208 -247h-152l247 279q-33 17 -48 47.5t-18 76.5l-9 160h130l5 -124q2 -44 26 -63.5t87 -19.5l44 207h126l-44 -207q63 0 94.5 19.5
t51.5 63.5l57 124h133z" />
    <glyph glyph-name="afii10073" unicode="&#x437;" horiz-adv-x="560" 
d="M529 420q-11 -56 -48.5 -85.5t-92.5 -38.5q26 -3 49 -15.5t38 -32t21.5 -46t-0.5 -58.5q-8 -39 -28 -68.5t-54 -49.5t-83 -30t-117 -10q-93 0 -147 25t-80 73l108 64q14 -26 45 -40t82 -14q55 0 90.5 19t42.5 50q8 35 -23.5 57t-103.5 22h-96l21 99h87q70 0 102.5 19
t39.5 51q5 23 -17 38t-62 15q-82 0 -121 -41l-92 59q20 24 42.5 41.5t50.5 29t62.5 17t79.5 5.5q53 0 94 -12.5t68 -33.5t38 -49t4 -60z" />
    <glyph glyph-name="afii10074" unicode="&#x438;" horiz-adv-x="640" 
d="M514 0h-136l56 265q2 10 6 24t8 27.5t7.5 23.5t4.5 13h-4q-1 -1 -6 -9.5t-12 -19t-14.5 -21t-12.5 -16.5l-265 -287h-130l120 563h136l-56 -261q-3 -13 -7.5 -31.5t-10 -35.5t-9.5 -30t-6 -16h4l9 13.5t16 23t18 24.5t14 18l266 295h124z" />
    <glyph glyph-name="afii10075" unicode="&#x439;" horiz-adv-x="640" 
d="M538 683q-54 -32 -125 -32t-111.5 32t-49.5 87l93 53q5 -29 27.5 -49.5t62.5 -20.5t70.5 20.5t47.5 49.5l71 -53q-32 -55 -86 -87zM514 0h-136l56 265q2 10 6 24t8 27.5t7.5 23.5t4.5 13h-4q-1 -1 -6 -9.5t-12 -19t-14.5 -21t-12.5 -16.5l-265 -287h-130l120 563h136
l-56 -261q-3 -13 -7.5 -31.5t-10 -35.5t-9.5 -30t-6 -16h4l9 13.5t16 23t18 24.5t14 18l266 295h124z" />
    <glyph glyph-name="afii10076" unicode="&#x43a;" horiz-adv-x="598" 
d="M534 400q-23 -49 -53 -78.5t-72 -46.5l128 -275h-157l-105 242q-5 -1 -26.5 -2t-44.5 -1l-51 -239h-137l120 563h137l-43 -203q39 0 68.5 3t50.5 11t36 22.5t25 38.5l59 128h143z" />
    <glyph glyph-name="afii10077" unicode="&#x43b;" horiz-adv-x="635" 
d="M509 0h-137l95 449h-208l-21 -103q-22 -100 -56.5 -189t-96.5 -169l-129 35q31 39 55 75.5t42.5 75.5t32 81t23.5 91l46 217h474z" />
    <glyph glyph-name="afii10078" unicode="&#x43c;" horiz-adv-x="704" 
d="M578 0h-121l61 286q3 14 8.5 33t10.5 36t9.5 30.5l5.5 16.5h-3q-1 -2 -4 -10t-7 -18t-8.5 -20t-8.5 -17l-132 -209h-125l-47 206v17v20v18v10h-3q0 -3 -2 -16t-4 -30.5t-5 -36t-6 -33.5l-60 -283h-121l120 563h154l57 -308l182 308h169z" />
    <glyph glyph-name="afii10079" unicode="&#x43d;" horiz-adv-x="640" 
d="M514 0h-136l48 227h-226l-48 -227h-136l120 563h136l-47 -220h226l47 220h136z" />
    <glyph glyph-name="afii10080" unicode="&#x43e;" horiz-adv-x="632" 
d="M596 272q-13 -63 -40.5 -115.5t-68.5 -90t-95.5 -58t-122.5 -20.5q-67 0 -115.5 23.5t-77 65t-36.5 97t5 118.5q14 64 42 116t69.5 89t96 57.5t121.5 20.5q68 0 116 -23.5t76 -65t36 -96.5t-6 -118zM453 282q19 87 -8.5 129t-86.5 42q-57 0 -104 -41.5t-66 -129.5
q-18 -88 10.5 -131t85.5 -43q60 0 105 42.5t64 131.5z" />
    <glyph glyph-name="afii10081" unicode="&#x43f;" horiz-adv-x="648" 
d="M522 0h-136l94 441h-233l-94 -441h-137l120 563h506z" />
    <glyph glyph-name="afii10082" unicode="&#x440;" horiz-adv-x="632" 
d="M595 271q-31 -145 -103 -214t-187 -69q-52 0 -89.5 17.5t-51.5 43.5l-49 -232h-138l159 746h128l-17 -77h3q23 36 64.5 62t98.5 26q54 0 94.5 -20t65.5 -58.5t31 -95t-9 -129.5zM456 281q20 95 -4.5 138.5t-76.5 43.5q-25 0 -50 -9.5t-45 -26t-34.5 -39.5t-20.5 -50
l-36 -170q14 -28 37 -45.5t61 -17.5q29 0 55 10t48 31t39 54.5t27 80.5z" />
    <glyph glyph-name="afii10083" unicode="&#x441;" horiz-adv-x="590" 
d="M471 378q-7 38 -33 56t-70 18q-28 0 -55.5 -9.5t-51 -30t-41.5 -53t-28 -77.5q-19 -89 10.5 -132t93.5 -43q38 0 72 20t61 64l103 -43q-42 -76 -104 -118t-154 -42q-55 0 -103.5 19t-81.5 56.5t-45.5 95t3.5 133.5q15 69 45.5 122t73.5 88.5t97.5 54t116.5 18.5
q88 0 144.5 -40.5t66.5 -105.5z" />
    <glyph glyph-name="afii10084" unicode="&#x442;" horiz-adv-x="516" 
d="M535 445h-171l-94 -445h-140l94 445h-164l25 118h475z" />
    <glyph glyph-name="afii10085" unicode="&#x443;" horiz-adv-x="618" 
d="M175 -183h-148l174 259l-123 487h142l77 -358l218 358h152z" />
    <glyph glyph-name="afii10086" unicode="&#x444;" horiz-adv-x="971" 
d="M935 275q-31 -144 -104.5 -211t-179.5 -67q-19 0 -41 3.5t-42 10.5t-35.5 17t-21.5 23l-50 -234h-140l50 234q-23 -26 -63.5 -40t-79.5 -14q-51 0 -91.5 19.5t-65 57.5t-31.5 93.5t8 127.5q15 74 44.5 126t67.5 86t83 49.5t91 15.5q24 0 46.5 -4.5t41.5 -13t32 -20.5
t18 -27l58 273h132l-59 -275q23 33 62.5 50t85.5 17q51 0 92 -19t66.5 -56t33 -92.5t-7.5 -129.5zM798 285q10 48 8 81t-13.5 53t-31.5 28.5t-46 8.5q-49 0 -90 -31.5t-55 -97.5l-35 -162q13 -25 36.5 -42t61.5 -17q26 0 51.5 9.5t47 30.5t39 55.5t27.5 83.5zM422 424.5
q-24 31.5 -72 31.5q-25 0 -50 -8.5t-47 -28.5t-40 -53t-28 -81q-10 -49 -8.5 -83.5t12.5 -55.5t30 -30.5t44 -9.5q39 0 72.5 16.5t61.5 42.5l35 162q14 66 -10 97.5z" />
    <glyph glyph-name="afii10087" unicode="&#x445;" horiz-adv-x="551" 
d="M358 286l134 -286h-144l-84 185l-159 -185h-156l256 292l-117 271h142l70 -169l141 169h156z" />
    <glyph glyph-name="afii10088" unicode="&#x446;" horiz-adv-x="656" 
d="M544 116h52l-44 -206h-134l19 90h-421l120 563h137l-95 -447h229l95 447h137z" />
    <glyph glyph-name="afii10089" unicode="&#x447;" horiz-adv-x="586" 
d="M460 0h-138l41 191q-24 -29 -61 -46.5t-100 -17.5q-28 0 -53.5 9t-45.5 26.5t-32.5 42t-12.5 55.5q0 15 5 37l57 266h137l-50 -234q-9 -42 4.5 -59.5t48.5 -17.5q21 0 41.5 6t38 16t31 23.5t20.5 28.5l51 237h138z" />
    <glyph glyph-name="afii10090" unicode="&#x448;" horiz-adv-x="796" 
d="M670 0h-654l120 563h133l-95 -446h126l95 446h135l-95 -446h126l95 446h134z" />
    <glyph glyph-name="afii10091" unicode="&#x449;" horiz-adv-x="807" 
d="M695 117h52l-42 -199h-134l17 82h-572l120 563h133l-95 -446h126l95 446h135l-95 -446h126l95 446h134z" />
    <glyph glyph-name="afii10092" unicode="&#x44a;" horiz-adv-x="693" 
d="M637 183q-18 -86 -82.5 -134.5t-163.5 -48.5h-263l95 448h-163l25 115h300l-37 -174h102q50 0 89.5 -14t64.5 -40t34.5 -64.5t-1.5 -87.5zM493 197q9 42 -14 61t-66 19h-89l-35 -165h79q48 0 81.5 20t43.5 65z" />
    <glyph glyph-name="afii10093" unicode="&#x44b;" horiz-adv-x="812" 
d="M686 0h-134l120 563h134zM516 181q-18 -85 -81.5 -133t-164.5 -48h-254l120 563h135l-37 -174h94q51 0 91 -14t65 -40.5t34 -65t-2 -88.5zM370 194q9 42 -11.5 62.5t-67.5 20.5h-83l-35 -165h73q48 0 81.5 19.5t42.5 62.5z" />
    <glyph glyph-name="afii10094" unicode="&#x44c;" horiz-adv-x="579" 
d="M523 183q-19 -88 -84 -135.5t-163 -47.5h-260l120 563h137l-37 -174h98q50 0 89.5 -14t65 -40.5t35.5 -64.5t-1 -87zM376 197q9 42 -15.5 61t-63.5 19h-87l-35 -165h77q46 0 80 19.5t44 65.5z" />
    <glyph glyph-name="afii10095" unicode="&#x44d;" horiz-adv-x="598" 
d="M561 272q-16 -77 -48.5 -131t-76.5 -88t-97 -49.5t-112 -15.5q-92 0 -149.5 42t-67.5 118l116 39q3 -22 13.5 -37.5t25.5 -26t33.5 -15.5t37.5 -5q59 0 107 29.5t71 96.5h-214l22 107h213q3 33 -5 56t-24.5 38t-40 22t-51.5 7q-45 0 -77 -18t-56 -56l-110 44
q36 65 104.5 105.5t155.5 40.5q63 0 112 -21.5t80 -61.5t42 -95.5t-4 -124.5z" />
    <glyph glyph-name="afii10096" unicode="&#x44e;" horiz-adv-x="840" 
d="M803 271q-13 -60 -38 -112t-63.5 -90t-91 -60t-121.5 -22q-60 0 -103 18.5t-70 50.5t-38 76.5t-6 95.5h-79l-48 -228h-129l120 563h129l-46 -215h80q18 47 44.5 88.5t62.5 72t82 48.5t104 18q68 0 114 -25.5t71.5 -68t31.5 -97t-6 -113.5zM677 281q8 39 4.5 72
t-16.5 57.5t-35.5 38t-51.5 13.5q-28 0 -55.5 -13.5t-50.5 -38t-40.5 -57.5t-25.5 -72q-9 -40 -6 -73t16 -57t35 -37t51 -13t57 13t51 37t40.5 57t26.5 73z" />
    <glyph glyph-name="afii10097" unicode="&#x44f;" horiz-adv-x="578" 
d="M452 0h-137l37 173h-65t-24 1l-120 -174h-159l149 191q-46 21 -68 73t-8 118q9 42 30.5 75.5t54.5 57t75.5 36t92.5 12.5h262zM325 451q-48 0 -84.5 -20t-45.5 -64q-9 -42 13 -62.5t70 -20.5h97l36 167h-86z" />
    <glyph glyph-name="afii10071" unicode="&#x451;" horiz-adv-x="612" 
d="M562 675h-123l29 135h123zM362 675h-123l29 135h123zM577 275q-2 -8 -3.5 -15t-3.5 -15h-393q-13 -66 16 -104t86 -38q51 0 89.5 24t59.5 66l112 -45q-22 -35 -48.5 -64.5t-59.5 -50.5t-73 -33t-89 -12q-63 0 -111.5 21t-78 61t-39 96.5t5.5 127.5q15 68 45 120.5t72 88
t95 54t113 18.5t105.5 -21t72.5 -60t34.5 -94.5t-7.5 -124.5zM453.5 390q-4.5 21 -17.5 36t-33.5 24t-45.5 9q-28 0 -53.5 -9t-46 -24.5t-34.5 -36t-19 -43.5l-1 -3h248v2q7 24 2.5 45z" />
    <glyph glyph-name="afii10099" unicode="&#x452;" horiz-adv-x="662" 
d="M535 -14q-11 -51 -33 -86.5t-58 -57.5t-87 -31.5t-121 -9.5l-10 120h11q46 0 75 4t46 14.5t25.5 28.5t14.5 46l69 321q11 50 -9.5 76.5t-63.5 26.5q-44 0 -86.5 -23t-65.5 -67l-74 -348h-139l128 603h-66l24 110h66l14 67h139l-14 -66h207l-24 -110h-207l-26 -125
q26 30 66 50t106 20q45 0 81 -14.5t59 -40.5t32 -61.5t0 -77.5z" />
    <glyph glyph-name="afii10100" unicode="&#x453;" horiz-adv-x="474" 
d="M298 619l-25 90l182 121l71 -93zM494 445h-242l-95 -445h-141l120 563h383z" />
    <glyph glyph-name="afii10101" unicode="&#x454;" horiz-adv-x="598" 
d="M481 385q-15 74 -106 74q-28 0 -55 -7t-51 -22t-43.5 -38t-30.5 -56h213l-22 -107h-214q-6 -67 27 -96.5t92 -29.5q38 0 76.5 20t64.5 65l108 -40q-42 -76 -107.5 -118t-157.5 -42q-58 0 -107.5 18.5t-81.5 56.5t-43.5 95t4.5 134q15 69 45.5 121.5t73.5 88.5t97.5 54.5
t117.5 18.5q43 0 81 -10.5t67 -30t47.5 -46.5t22.5 -59z" />
    <glyph glyph-name="afii10102" unicode="&#x455;" horiz-adv-x="558" 
d="M476 384q-23 38 -63 59t-91 21q-42 0 -66 -15t-29 -38q-1 -4 -1 -11q0 -17 20 -29.5t75 -24.5q93 -20 137 -56.5t44 -95.5q0 -20 -4 -39q-17 -81 -87 -124t-188 -43q-76 0 -135.5 28t-87.5 79l82 100q12 -22 31 -40t42 -31t47.5 -20t48.5 -7q46 0 70.5 15.5t30.5 41.5
q1 4 1.5 7t0.5 7q0 25 -26 40t-87 29q-85 18 -122.5 52.5t-37.5 83.5q0 18 4 34q7 35 28 64t54.5 50.5t78.5 33.5t100 12q76 0 130.5 -23.5t76.5 -63.5z" />
    <glyph glyph-name="afii10103" unicode="&#x456;" horiz-adv-x="290" 
d="M299 636h-148l31 144h148zM162 0h-143l120 563h143z" />
    <glyph glyph-name="afii10104" unicode="&#x457;" horiz-adv-x="290" 
d="M395 675h-123l29 135h123zM195 675h-123l29 135h123zM162 0h-143l120 563h143z" />
    <glyph glyph-name="afii10105" unicode="&#x458;" horiz-adv-x="302" 
d="M312 636h-147l31 144h147zM172 -14q-11 -51 -33 -86.5t-58 -57.5t-87 -31.5t-121 -9.5l-10 120h11q46 0 75 4t46 14.5t26 28.5t15 46l117 549h142z" />
    <glyph glyph-name="afii10106" unicode="&#x459;" horiz-adv-x="935" 
d="M881 170q-17 -81 -81.5 -125.5t-162.5 -44.5h-260l96 449h-208l-22 -103q-21 -101 -55.5 -189.5t-96.5 -168.5l-130 35q31 39 55 75.5t42.5 75.5t32 81t23.5 91l46 217h474l-43 -200h98q50 0 90 -13t66 -37.5t36 -60.5t0 -82zM740 182q4 19 -1 32t-16 21.5t-27.5 12
t-36.5 3.5h-93l-30 -141h83q46 0 79 15.5t42 56.5z" />
    <glyph glyph-name="afii10107" unicode="&#x45a;" horiz-adv-x="941" 
d="M881 170q-17 -81 -81.5 -125.5t-162.5 -44.5h-259l53 249h-226l-53 -249h-136l120 563h136l-43 -200h226l43 200h136l-43 -200h98q50 0 90 -13t66 -37.5t36 -60.5t0 -82zM740 182q4 19 -1 32t-16 21.5t-27.5 12t-36.5 3.5h-93l-30 -141h83q46 0 79 15.5t42 56.5z" />
    <glyph glyph-name="afii10108" unicode="&#x45b;" horiz-adv-x="662" 
d="M538 0h-143l71 335q11 50 -9 76.5t-63 26.5q-44 0 -86.5 -23t-65.5 -67l-74 -348h-139l128 603h-66l24 110h66l14 67h139l-14 -66h207l-24 -110h-207l-26 -125q26 30 66 50t106 20q45 0 81 -14.5t59 -40.5t32 -61.5t0 -77.5z" />
    <glyph glyph-name="afii10109" unicode="&#x45c;" horiz-adv-x="598" 
d="M326 619l-25 90l181 121l72 -93zM534 400q-23 -49 -53 -78.5t-72 -46.5l128 -275h-157l-105 242q-5 -1 -26.5 -2t-44.5 -1l-51 -239h-137l120 563h137l-43 -203q39 0 68.5 3t50.5 11t36 22.5t25 38.5l59 128h143z" />
    <glyph glyph-name="afii10110" unicode="&#x45e;" horiz-adv-x="618" 
d="M528 683q-54 -32 -125 -32t-111.5 32t-49.5 87l93 53q5 -29 27.5 -49.5t62.5 -20.5t70.5 20.5t47.5 49.5l71 -53q-32 -55 -86 -87zM175 -183h-148l174 259l-123 487h142l77 -358l218 358h152z" />
    <glyph glyph-name="afii10193" unicode="&#x45f;" horiz-adv-x="645" 
d="M519 0h-184l-39 -183h-134l39 183h-185l120 563h137l-95 -447h229l95 447h137z" />
    <glyph glyph-name="afii10050" unicode="&#x490;" horiz-adv-x="603" 
d="M650 649h-326l-138 -649h-150l166 780h326l40 189h150z" />
    <glyph glyph-name="afii10098" unicode="&#x491;" horiz-adv-x="483" 
d="M494 446h-242l-95 -446h-141l120 563h250l30 145h133z" />
    <glyph glyph-name="uni04C0" unicode="&#x4c0;" horiz-adv-x="342" 
d="M192 0h-152l166 780h152z" />
    <glyph glyph-name="endash" unicode="&#x2013;" horiz-adv-x="500" 
d="M492 219h-500l17 84h500z" />
    <glyph glyph-name="emdash" unicode="&#x2014;" horiz-adv-x="1000" 
d="M992 223h-1000l17 76h1000z" />
    <glyph glyph-name="quoteleft" unicode="&#x2018;" horiz-adv-x="345" 
d="M333 731q-20 -25 -28 -64h66l-35 -165h-158l35 164q12 58 43.5 98t78.5 64l47 -58q-29 -14 -49 -39z" />
    <glyph glyph-name="quoteright" unicode="&#x2019;" horiz-adv-x="345" 
d="M303 649q-12 -58 -44 -98t-78 -64l-47 58q29 14 49 39t28 64h-66l35 165h158z" />
    <glyph glyph-name="quotesinglbase" unicode="&#x201a;" horiz-adv-x="345" 
d="M165 1q-12 -58 -43.5 -98t-78.5 -64l-47 58q29 14 49 39t28 64h-66l35 165h158z" />
    <glyph glyph-name="quotedblleft" unicode="&#x201c;" horiz-adv-x="400" 
d="M431 731.5q-20 -25.5 -28 -64.5h58l-35 -165h-138l35 164q11 54 44.5 96t80.5 66l32 -57q-29 -14 -49 -39.5zM221 731.5q-20 -25.5 -28 -64.5h58l-35 -165h-138l35 164q11 54 44.5 96t80.5 66l32 -57q-29 -14 -49 -39.5z" />
    <glyph glyph-name="quotedblright" unicode="&#x201d;" horiz-adv-x="400" 
d="M457 649q-11 -54 -45 -96t-80 -66l-32 57q28 14 48.5 39.5t28.5 64.5h-58l35 165h138zM247 649q-11 -54 -45 -96t-80 -66l-32 57q28 14 48.5 39.5t28.5 64.5h-58l35 165h138z" />
    <glyph glyph-name="quotedblbase" unicode="&#x201e;" horiz-adv-x="400" 
d="M319 1q-11 -54 -44.5 -96t-80.5 -66l-32 57q29 14 49 39.5t28 64.5h-58l35 165h138zM109 1q-11 -54 -44.5 -96t-80.5 -66l-32 57q29 14 49 39.5t28 64.5h-58l35 165h138z" />
    <glyph glyph-name="dagger" unicode="&#x2020;" horiz-adv-x="573" 
d="M576 493h-175l-121 -568h-131l121 568h-174l27 130h174l43 202h131l-43 -202h175z" />
    <glyph glyph-name="daggerdbl" unicode="&#x2021;" horiz-adv-x="573" 
d="M581 517h-175l-60 -284h175l-28 -131h-175l-38 -177h-131l38 177h-174l28 131h174l60 284h-174l28 131h174l37 177h131l-37 -177h175z" />
    <glyph glyph-name="bullet" unicode="&#x2022;" horiz-adv-x="392" 
d="M317 306q0 -25 -9.5 -47t-26 -38.5t-38.5 -26t-47 -9.5t-47 9.5t-38.5 26t-26 38.5t-9.5 47t9.5 47t26 38.5t38.5 26t47 9.5t47 -9.5t38.5 -26t26 -38.5t9.5 -47z" />
    <glyph glyph-name="ellipsis" unicode="&#x2026;" horiz-adv-x="1000" 
d="M885 103q0 -5 -0.5 -9t-1.5 -9q-4 -17 -14 -32.5t-24 -27t-31 -18.5t-35 -7q-30 0 -50 19.5t-20 48.5q0 5 0.5 8.5t1.5 8.5q4 18 14 34t24.5 27.5t31.5 18.5t35 7q31 0 50 -20t19 -49zM551 103q0 -5 -0.5 -9t-1.5 -9q-4 -17 -14 -32.5t-24 -27t-31 -18.5t-35 -7
q-31 0 -50.5 19.5t-19.5 48.5q0 4 0.5 8t1.5 9q4 18 14 34t24.5 27.5t31.5 18.5t35 7q31 0 50 -20t19 -49zM217 103q0 -5 -0.5 -9t-1.5 -9q-4 -17 -14 -32.5t-24.5 -27t-31.5 -18.5t-34 -7q-31 0 -50.5 19.5t-19.5 48.5q0 4 0.5 8t1.5 9q4 18 14 34t24.5 27.5t31.5 18.5
t35 7q31 0 50 -20t19 -49z" />
    <glyph glyph-name="perthousand" unicode="&#x2030;" horiz-adv-x="1000" 
d="M939 244q0 -31 -8 -68q-8 -39 -23.5 -74.5t-38.5 -62.5t-53.5 -43t-68.5 -16q-28 0 -48 9.5t-32.5 26.5t-18 39.5t-5.5 49.5q0 31 8 71q8 39 25 74.5t40 63t52 44t62 16.5q29 0 50 -10t34 -27.5t19 -41.5t6 -51zM419 671q0 -31 -8 -68q-8 -38 -25 -73.5t-41.5 -63
t-54.5 -44t-65 -16.5q-58 0 -82.5 36.5t-24.5 90.5q0 32 8 70q9 40 24.5 76t38 63t52.5 43t68 16q30 0 50.5 -10t34 -28t19.5 -41.5t6 -50.5zM68 0h-84l683 780h85zM615 249q0 -33 -8 -73q-8 -39 -23 -74.5t-37 -62.5t-52 -43t-68 -16q-29 0 -49.5 10t-33 27t-18.5 40.5
t-6 50.5q0 16 1.5 33.5t5.5 34.5q8 39 25.5 74.5t41.5 63t53.5 44t62.5 16.5q29 0 49 -9.5t32.5 -26.5t18 -40t5.5 -49zM846 241q0 26 -9 36.5t-25 10.5q-11 0 -21.5 -5.5t-19.5 -18.5t-17 -34.5t-15 -53.5q-8 -40 -8 -61q0 -26 9 -37t25 -11q24 0 41.5 23.5t30.5 85.5
q9 41 9 65zM325 667q0 27 -9 37.5t-25 10.5q-11 0 -21.5 -5.5t-19.5 -18.5t-17 -34.5t-15 -53.5q-8 -40 -8 -60q0 -27 9 -38.5t25 -11.5q24 0 42 24t31 86q5 20 6.5 36t1.5 28zM526 240q0 27 -9 37.5t-25 10.5q-12 0 -22 -5.5t-19.5 -18.5t-17.5 -34.5t-15 -53.5
q-4 -19 -6 -33.5t-2 -26.5q0 -27 9 -38t26 -11q23 0 41 23.5t31 85.5q9 41 9 64z" />
    <glyph glyph-name="guilsinglleft" unicode="&#x2039;" horiz-adv-x="640" 
d="M550 409l-310 -152l245 -152l-30 -143l-357 230l27 130l455 230z" />
    <glyph glyph-name="guilsinglright" unicode="&#x203a;" horiz-adv-x="640" 
d="M514 192l-455 -230l30 143l311 152l-246 152l30 143l357 -230z" />
    <glyph glyph-name="Euro" unicode="&#x20ac;" horiz-adv-x="729" 
d="M667 560q-6 23 -20 43t-34 34.5t-45 22.5t-54 8q-66 0 -126 -38.5t-102 -109.5h310l-19 -92h-329q-6 -16 -9 -35l-6 -30h275l-19 -92h-259q8 -80 54 -118.5t113 -38.5q28 0 58 8t57.5 23t52 36t41.5 46l71 -92q-52 -70 -135.5 -112t-184.5 -42q-68 0 -121.5 19.5t-91 57
t-58 91.5t-20.5 122h-41l19 92h30l6 30l4 18t4 17h-32l19 92h46q30 64 72.5 115.5t95.5 88t114 56t127 19.5q52 0 94.5 -11.5t74 -32t52 -48t29.5 -60.5z" />
    <glyph glyph-name="afii61352" unicode="&#x2116;" horiz-adv-x="1296" 
d="M1270 355q-21 -100 -88 -151t-173 -51q-52 0 -92.5 16t-65.5 45.5t-33.5 70.5t1.5 90q20 97 88 150t173 53q52 0 92 -16.5t65.5 -46t34.5 -70.5t-2 -90zM1192 0h-449l22 101h448zM643 0h-184l-135 450q-6 20 -11 44.5t-9 50t-6 48.5t-2 40h-3q-2 -18 -6 -50t-9 -69.5
t-11 -77.5t-13 -74l-77 -362h-141l166 780h179l136 -447q15 -50 25.5 -99t10.5 -80l4 -1q1 20 4 52.5t7.5 68.5t10 71.5t10.5 60.5l80 374h140zM1153 365q11 51 -13 80.5t-72 29.5t-84.5 -29.5t-47.5 -80.5t13 -80.5t72 -29.5t84.5 29.5t47.5 80.5z" />
    <glyph glyph-name="trademark" unicode="&#x2122;" horiz-adv-x="810" 
d="M664 369v154v17t1 22h-2l-49 -193h-99l-50 193h-2q2 -12 2 -22.5v-17.5v-153h-104v411h117l79 -243q2 -6 4.5 -15.5t3.5 -20.5h3q4 21 9 37l74 242h118v-411h-105zM239 677v-308h-109v308h-106v103h318v-103h-103z" />
    <glyph glyph-name="Delta" unicode="&#x2206;" horiz-adv-x="712" 
d="M-3 0l348 800l344 -800h-692zM323 558l-190 -443h380z" />
    <glyph glyph-name="uni2219" unicode="&#x2219;" horiz-adv-x="345" 
d="M229 176h-149l34 160h149z" />
    <glyph glyph-name="radical" unicode="&#x221a;" horiz-adv-x="591" 
d="M446 -75h-131l-147 394l-116 -50l-50 112l240 103l118 -348l120 778h124z" />
    <glyph glyph-name="infinity" unicode="&#x221e;" horiz-adv-x="922" 
d="M915 390q0 -49 -16 -90.5t-46 -72t-74 -47.5t-100 -17q-29 0 -58 10t-54.5 27t-45.5 39.5t-31 46.5q-12 -25 -33 -47.5t-46.5 -39.5t-54 -26.5t-55.5 -9.5q-57 0 -101 17t-74 47t-46 71.5t-16 90.5q0 48 15.5 90t45.5 72.5t74 48t101 17.5q62 0 112.5 -33.5t77.5 -86.5
q10 23 28 45t42.5 38.5t54.5 26.5t63 10q56 0 100 -17.5t74.5 -48t46.5 -72t16 -89.5zM787 390q0 46 -31 76t-83 30q-43 0 -74.5 -25t-48.5 -64q-2 -4 -4 -8.5t-2 -7.5t2 -8l4 -10q20 -38 50 -62t72 -24q51 0 82.5 29t31.5 74h1zM435 390q0 2 -1.5 7.5t-3.5 8.5
q-17 39 -48.5 64.5t-74.5 25.5q-52 0 -83.5 -29.5t-31.5 -75.5q0 -45 31.5 -74.5t82.5 -29.5q42 0 71.5 23t49.5 61l5.5 11t2.5 8z" />
    <glyph glyph-name="approxequal" unicode="&#x2248;" horiz-adv-x="847" 
d="M816.5 491q-15.5 -21 -41.5 -41.5t-65.5 -35.5t-96.5 -15q-40 0 -70.5 7.5t-55.5 18.5t-46.5 24.5t-44 24.5t-48 18.5t-57.5 7.5q-27 0 -54 -7.5t-51 -20.5t-43 -31.5t-31 -41.5l-49 90q17 29 41 52.5t54.5 40.5t65.5 26.5t72 9.5q38 0 68 -7.5t55 -18.5t47 -24.5
t45 -24.5t48.5 -18.5t57.5 -7.5q57 0 103 27.5t70 69.5l49 -90q-7 -12 -22.5 -33zM839 288q-7 -12 -22.5 -33.5t-41.5 -42t-65.5 -35.5t-96.5 -15q-60 0 -99.5 16t-73 35t-67.5 35t-82 16q-27 0 -54 -7.5t-51 -21t-43 -32t-31 -41.5l-49 90q17 29 41 52.5t54.5 41t65.5 27
t72 9.5q57 0 96.5 -16t73.5 -35t68.5 -35t82.5 -16q57 0 103 27.5t70 70.5l49 -91v1z" />
    <glyph glyph-name="notequal" unicode="&#x2260;" horiz-adv-x="803" 
d="M409 227l-110 -203l-107 57l80 146h-196v108h252l60 109h-312v108h369l93 173l108 -57l-64 -116h200v-108h-256l-60 -109h316v-108h-373z" />
    <glyph glyph-name="lessequal" unicode="&#x2264;" horiz-adv-x="789" 
d="M61 423v117l687 236v-132l-529 -163l529 -165v-130zM52 15v116h705v-116h-705z" />
    <glyph glyph-name="greaterequal" unicode="&#x2265;" horiz-adv-x="789" 
d="M82 186v130l528 165l-528 163v132l687 -236v-117zM73 15v116h705v-116h-705z" />
  </font>
</defs>
</svg>
